<svg xmlns="http://www.w3.org/2000/svg" xmlns:xlink="http://www.w3.org/1999/xlink" viewBox="0 0 680 479"><defs><style>.cls-1{fill:#ffdb4d;}.cls-2{fill:#333;}.cls-3{fill:#f5f5f5;}.cls-4{fill:none;stroke:#333;stroke-miterlimit:10;stroke-width:0.97px;}</style><symbol id="dark_circle" data-name="dark_circle" viewBox="0 0 20 20"><circle class="cls-1" cx="10" cy="10" r="10"/></symbol></defs><title>Oblast-vid-per-02190716</title><g id="Layer_1" data-name="Layer 1"><path class="cls-2" d="M144.34,174h13.47v17.21h-2.93V176.5h-7.63v14.71h-2.91Z"/><path class="cls-2" d="M171.61,190.3l-.65.37a6.13,6.13,0,0,1-.91.37,9.75,9.75,0,0,1-1.23.29,9.32,9.32,0,0,1-1.58.12,6.9,6.9,0,0,1-5.12-1.71,6.45,6.45,0,0,1-1.7-4.77,7.66,7.66,0,0,1,.46-2.71,5.75,5.75,0,0,1,1.27-2,5.45,5.45,0,0,1,1.94-1.27,6.67,6.67,0,0,1,2.48-.45,6.52,6.52,0,0,1,2.51.46,4.39,4.39,0,0,1,1.83,1.37,5.34,5.34,0,0,1,1,2.25,9.44,9.44,0,0,1,0,3.15H163.3a3.8,3.8,0,0,0,1.13,2.55,4.42,4.42,0,0,0,3,.85,7.18,7.18,0,0,0,2.49-.37,11.78,11.78,0,0,0,1.69-.78Zm-5-9.58a3,3,0,0,0-2.07.74,3.78,3.78,0,0,0-1.1,2.21h5.85a2.87,2.87,0,0,0-.67-2.23A2.72,2.72,0,0,0,166.57,180.72Z"/><path class="cls-2" d="M181.38,191.45a4.46,4.46,0,0,1-2.44-.64,4.83,4.83,0,0,1-1.65-1.71v6.36h-2.78V178.75h2.54l.2,2.21a4.83,4.83,0,0,1,1.65-1.79,4.59,4.59,0,0,1,2.52-.66,5.49,5.49,0,0,1,2.1.4,4.54,4.54,0,0,1,1.74,1.2,5.77,5.77,0,0,1,1.19,2,9.31,9.31,0,0,1,0,5.72,5.78,5.78,0,0,1-1.2,2,4.69,4.69,0,0,1-1.76,1.2A5.61,5.61,0,0,1,181.38,191.45Zm-.68-2.31a3.11,3.11,0,0,0,2.42-1,5.8,5.8,0,0,0,0-6.27,3.07,3.07,0,0,0-2.39-1,3.59,3.59,0,0,0-1.37.25,2.89,2.89,0,0,0-1.09.78,3.69,3.69,0,0,0-.73,1.31,6.34,6.34,0,0,0,0,3.66,3.68,3.68,0,0,0,.71,1.3,2.82,2.82,0,0,0,1.1.77A3.56,3.56,0,0,0,180.7,189.14Z"/><path class="cls-2" d="M199.66,190.3c-.17.11-.39.23-.64.37a5.85,5.85,0,0,1-.92.37,9.57,9.57,0,0,1-1.22.29,9.32,9.32,0,0,1-1.58.12,6.94,6.94,0,0,1-5.13-1.71,6.45,6.45,0,0,1-1.69-4.77,7.44,7.44,0,0,1,.46-2.71,5.61,5.61,0,0,1,1.27-2,5.45,5.45,0,0,1,1.94-1.27,6.62,6.62,0,0,1,2.47-.45,6.45,6.45,0,0,1,2.51.46,4.36,4.36,0,0,1,1.84,1.37,5.21,5.21,0,0,1,1,2.25,9.16,9.16,0,0,1,0,3.15h-8.62a3.76,3.76,0,0,0,1.13,2.55,4.42,4.42,0,0,0,3,.85,7.08,7.08,0,0,0,2.48-.37,11.29,11.29,0,0,0,1.69-.78Zm-5-9.58a3,3,0,0,0-2.06.74,3.72,3.72,0,0,0-1.1,2.21h5.85a2.9,2.9,0,0,0-.67-2.23A2.73,2.73,0,0,0,194.62,180.72Z"/><path class="cls-2" d="M214.26,182.18,210.58,190h-2l-3.45-7.9v9.1h-2.52V178.75h3.81l3.41,7.73,3.6-7.73H217v12.46h-2.78Z"/><path class="cls-2" d="M230.58,190.3l-.65.37a6.13,6.13,0,0,1-.91.37,9.75,9.75,0,0,1-1.23.29,9.32,9.32,0,0,1-1.58.12,6.94,6.94,0,0,1-5.13-1.71,6.49,6.49,0,0,1-1.69-4.77,7.44,7.44,0,0,1,.46-2.71,5.75,5.75,0,0,1,1.27-2,5.45,5.45,0,0,1,1.94-1.27,6.67,6.67,0,0,1,2.48-.45,6.44,6.44,0,0,1,2.5.46,4.36,4.36,0,0,1,1.84,1.37,5.34,5.34,0,0,1,1,2.25,9.44,9.44,0,0,1,0,3.15h-8.62a3.76,3.76,0,0,0,1.13,2.55,4.42,4.42,0,0,0,3,.85,7.08,7.08,0,0,0,2.48-.37,11.44,11.44,0,0,0,1.7-.78Zm-5-9.58a3,3,0,0,0-2.07.74,3.72,3.72,0,0,0-1.1,2.21h5.85a2.87,2.87,0,0,0-.67-2.23A2.72,2.72,0,0,0,225.54,180.72Z"/><path class="cls-2" d="M241.52,186h-5.26v5.26h-2.78V178.75h2.78v4.95h5.26v-4.95h2.78v12.46h-2.78Z"/><path class="cls-2" d="M255.46,186h-5.25v5.26h-2.79V178.75h2.79v4.95h5.25v-4.95h2.79v12.46h-2.79Z"/><path class="cls-2" d="M271.25,186.91a4.39,4.39,0,0,1-.39,1.9,3.77,3.77,0,0,1-1.09,1.34,4.82,4.82,0,0,1-1.66.79,7.76,7.76,0,0,1-2.11.27h-4.63V178.75h2.78v4h1.94a6.3,6.3,0,0,1,3.81,1A3.63,3.63,0,0,1,271.25,186.91Zm-7.1-1.92v4h1.63a3.48,3.48,0,0,0,1.89-.46,1.72,1.72,0,0,0,.73-1.55,1.79,1.79,0,0,0-.65-1.55,3.19,3.19,0,0,0-1.87-.47Zm11.31,6.22h-2.79V178.75h2.79Z"/><path class="cls-2" d="M289,190.3l-.65.37a5.71,5.71,0,0,1-.91.37,9,9,0,0,1-2.81.41,6.91,6.91,0,0,1-5.12-1.71,6.45,6.45,0,0,1-1.69-4.77,7.66,7.66,0,0,1,.45-2.71,5.89,5.89,0,0,1,1.27-2,5.58,5.58,0,0,1,2-1.27,6.58,6.58,0,0,1,2.47-.45,6.49,6.49,0,0,1,2.51.46,4.39,4.39,0,0,1,1.83,1.37,5.22,5.22,0,0,1,1,2.25,9.19,9.19,0,0,1,0,3.15h-8.61a3.75,3.75,0,0,0,1.12,2.55,4.42,4.42,0,0,0,3,.85,7.14,7.14,0,0,0,2.49-.37A11.29,11.29,0,0,0,289,188Zm-5-9.58a3,3,0,0,0-2.06.74,3.79,3.79,0,0,0-1.11,2.21h5.86a2.9,2.9,0,0,0-.67-2.23A2.74,2.74,0,0,0,284,180.72Z"/><path class="cls-2" d="M297.17,178.75h5.09q4.73,0,4.73,3.12a2.47,2.47,0,0,1-.64,1.81,3.92,3.92,0,0,1-1.86,1,4,4,0,0,1,2.26.94,2.69,2.69,0,0,1,.74,2,3.11,3.11,0,0,1-.38,1.58,3,3,0,0,1-1.07,1.1,5.07,5.07,0,0,1-1.67.65,9.63,9.63,0,0,1-2.16.22h-5Zm2.76,2.16v2.93h2a3.16,3.16,0,0,0,1.64-.37,1.2,1.2,0,0,0,.62-1.08,1.24,1.24,0,0,0-.54-1.16,3.17,3.17,0,0,0-1.57-.32Zm0,4.9v3.24h2.14a4.26,4.26,0,0,0,1.86-.34,1.24,1.24,0,0,0,.71-1.23,1.38,1.38,0,0,0-.64-1.29,4.06,4.06,0,0,0-2-.38Z"/><path class="cls-2" d="M320.91,191.45a7,7,0,0,1-2.45-.43,5.69,5.69,0,0,1-2-1.26,5.88,5.88,0,0,1-1.29-2,8.34,8.34,0,0,1,0-5.52,5.79,5.79,0,0,1,1.29-2,5.52,5.52,0,0,1,2-1.25,7.36,7.36,0,0,1,4.9,0,5.52,5.52,0,0,1,2,1.25,5.85,5.85,0,0,1,1.32,2,8.18,8.18,0,0,1,0,5.52,6,6,0,0,1-1.32,2,5.69,5.69,0,0,1-2,1.26A7,7,0,0,1,320.91,191.45Zm0-2.31a3.13,3.13,0,0,0,2.39-1,5.73,5.73,0,0,0,0-6.29,3.29,3.29,0,0,0-4.76,0,5.73,5.73,0,0,0,0,6.29A3.1,3.1,0,0,0,320.91,189.14Z"/><path class="cls-2" d="M341.14,185a7.39,7.39,0,0,1-.48,2.76,5.79,5.79,0,0,1-1.31,2,5.37,5.37,0,0,1-2,1.24,7.06,7.06,0,0,1-2.46.42,6.43,6.43,0,0,1-2.47-.46,5,5,0,0,1-1.94-1.38,6.63,6.63,0,0,1-1.29-2.3,10.24,10.24,0,0,1-.46-3.25,29.82,29.82,0,0,1,.14-3.12,13.59,13.59,0,0,1,.49-2.55,7,7,0,0,1,.95-2,5.55,5.55,0,0,1,1.54-1.47,6,6,0,0,1,2.36-.89,21.69,21.69,0,0,1,2.58-.24,13,13,0,0,0,2.21-.25,5.35,5.35,0,0,0,1.27-.47v2.47a4.07,4.07,0,0,1-.55.28,4.59,4.59,0,0,1-.67.18l-.89.13-1.18.11-2.23.22a4.2,4.2,0,0,0-1.8.62,3.55,3.55,0,0,0-1.34,1.72,10,10,0,0,0-.58,2.69q1.2-2.72,4.63-2.71a5.32,5.32,0,0,1,2.1.42,4.92,4.92,0,0,1,1.74,1.21,5.75,5.75,0,0,1,1.18,1.95A7.38,7.38,0,0,1,341.14,185Zm-6.22,4.12a3.19,3.19,0,0,0,2.42-1,5.47,5.47,0,0,0,0-6.13,3.19,3.19,0,0,0-2.42-1,3.09,3.09,0,0,0-2.36,1,4.26,4.26,0,0,0-.92,3,4.43,4.43,0,0,0,.93,3.11A3.08,3.08,0,0,0,334.92,189.14Z"/><path class="cls-2" d="M344.24,186.79a19.55,19.55,0,0,0,.34-3.18q.09-2,.09-4.86h8.95v12.46h-2.78V181h-3.63c0,1.65-.09,3.1-.19,4.37a13.17,13.17,0,0,1-.59,3.2,4.32,4.32,0,0,1-1.27,2,3.3,3.3,0,0,1-2.22.7h-.37l-.37,0v-2.59a2.29,2.29,0,0,0,.36.05,1.3,1.3,0,0,0,1-.47A3.61,3.61,0,0,0,344.24,186.79Z"/><path class="cls-2" d="M363.94,189a4.44,4.44,0,0,1-.52.87,3.66,3.66,0,0,1-.79.78,3.85,3.85,0,0,1-1.11.56,4.68,4.68,0,0,1-1.52.22,4.92,4.92,0,0,1-1.51-.23,3.23,3.23,0,0,1-2-1.82,3.91,3.91,0,0,1-.3-1.58,3.45,3.45,0,0,1,1.52-3.06,7.57,7.57,0,0,1,4.27-1h1.89V183a2,2,0,0,0-.62-1.7,3.52,3.52,0,0,0-2.06-.46,7.48,7.48,0,0,0-2.3.34A10.62,10.62,0,0,0,357,182v-2.33a10.25,10.25,0,0,1,2-.77,9.35,9.35,0,0,1,2.66-.36,6,6,0,0,1,3.71,1,3.74,3.74,0,0,1,1.31,3.18v6.5c0,.15,0,.31,0,.49s0,.38,0,.57,0,.37,0,.54,0,.31.05.42h-2.57a8.89,8.89,0,0,1-.13-.94q-.06-.6-.09-1.08Zm-3.17.27a2.8,2.8,0,0,0,1.48-.37,3.48,3.48,0,0,0,.95-.87,3.33,3.33,0,0,0,.5-1,2.52,2.52,0,0,0,.14-.67v-.84h-1.72a4.49,4.49,0,0,0-2.43.51,1.67,1.67,0,0,0-.77,1.46,1.74,1.74,0,0,0,.47,1.28A1.87,1.87,0,0,0,360.77,189.29Z"/><path class="cls-2" d="M375.36,191.45a7.7,7.7,0,0,1-2.71-.45,5.6,5.6,0,0,1-2-1.27,5.52,5.52,0,0,1-1.29-2,8.27,8.27,0,0,1,0-5.44,5.36,5.36,0,0,1,3.36-3.3,7.82,7.82,0,0,1,2.73-.45,8.08,8.08,0,0,1,2.27.29,4.87,4.87,0,0,1,1.55.72v2.3a6.61,6.61,0,0,0-1.62-.74,7,7,0,0,0-2-.26c-2.58,0-3.86,1.38-3.86,4.16s1.26,4.16,3.79,4.16a7.24,7.24,0,0,0,2.1-.27,8.45,8.45,0,0,0,1.62-.71v2.29a6.68,6.68,0,0,1-1.56.7A7.66,7.66,0,0,1,375.36,191.45Z"/><path class="cls-2" d="M387.36,181v10.2h-2.78V181h-3.77v-2.26H391.2V181Z"/><path class="cls-2" d="M396.08,187.44l5.76-8.69h2.73v12.46h-2.76v-8.64l-5.71,8.64h-2.78V178.75h2.76Z"/><path class="cls-2" d="M413,178.75h5.09q4.73,0,4.73,3.12a2.47,2.47,0,0,1-.64,1.81,3.92,3.92,0,0,1-1.86,1,4,4,0,0,1,2.26.94,2.69,2.69,0,0,1,.74,2,3.11,3.11,0,0,1-.38,1.58,3,3,0,0,1-1.07,1.1,5,5,0,0,1-1.67.65,9.63,9.63,0,0,1-2.16.22h-5Zm2.76,2.16v2.93h2a3.16,3.16,0,0,0,1.64-.37,1.2,1.2,0,0,0,.62-1.08,1.24,1.24,0,0,0-.54-1.16,3.15,3.15,0,0,0-1.57-.32Zm0,4.9v3.24h2.14a4.26,4.26,0,0,0,1.86-.34,1.24,1.24,0,0,0,.71-1.23,1.37,1.37,0,0,0-.64-1.29,4.06,4.06,0,0,0-2-.38Z"/><path class="cls-2" d="M428.81,187.44l5.76-8.69h2.74v12.46h-2.76v-8.64l-5.72,8.64h-2.78V178.75h2.76Z"/><path class="cls-2" d="M440.11,189a3.29,3.29,0,0,0,.88-1.32,10,10,0,0,0,.52-2.1c.12-.84.22-1.82.28-2.94s.12-2.4.17-3.84h9.12V189H453v5.81h-2.42l-.22-3.55h-8.59l-.21,3.55h-2.45V189Zm8.19,0V181h-3.94c-.08,2-.21,3.59-.39,4.88a9.29,9.29,0,0,1-.9,3.06Z"/><path class="cls-2" d="M457.8,187.44l5.76-8.69h2.74v12.46h-2.76v-8.64l-5.71,8.64H455V178.75h2.76Z"/><path class="cls-2" d="M481.13,182.18,477.46,190h-2l-3.46-7.9v9.1h-2.52V178.75h3.82l3.41,7.73,3.59-7.73h3.65v12.46h-2.78Z"/><path class="cls-2" d="M492.43,191.45A7,7,0,0,1,490,191a5.56,5.56,0,0,1-2-1.26,5.9,5.9,0,0,1-1.3-2,8.34,8.34,0,0,1,0-5.52,5.81,5.81,0,0,1,1.3-2,5.4,5.4,0,0,1,2-1.25,7.36,7.36,0,0,1,4.9,0,5.56,5.56,0,0,1,2,1.25,5.85,5.85,0,0,1,1.32,2,8.18,8.18,0,0,1,0,5.52,6,6,0,0,1-1.32,2,5.73,5.73,0,0,1-2,1.26A7,7,0,0,1,492.43,191.45Zm0-2.31a3.11,3.11,0,0,0,2.39-1,5.68,5.68,0,0,0,0-6.29,3.12,3.12,0,0,0-2.39-1,3.09,3.09,0,0,0-2.36,1,5.68,5.68,0,0,0,0,6.29A3.08,3.08,0,0,0,492.43,189.14Z"/><path class="cls-2" d="M506.71,191.45A7.7,7.7,0,0,1,504,191a5.6,5.6,0,0,1-2-1.27,5.52,5.52,0,0,1-1.29-2,8.27,8.27,0,0,1,0-5.44A5.36,5.36,0,0,1,504,179a7.82,7.82,0,0,1,2.73-.45,8.13,8.13,0,0,1,2.27.29,4.87,4.87,0,0,1,1.55.72v2.3a6.61,6.61,0,0,0-1.62-.74,7,7,0,0,0-2-.26c-2.58,0-3.86,1.38-3.86,4.16s1.26,4.16,3.79,4.16a7.24,7.24,0,0,0,2.1-.27,8.45,8.45,0,0,0,1.62-.71v2.29a6.68,6.68,0,0,1-1.56.7A7.71,7.71,0,0,1,506.71,191.45Z"/><path class="cls-2" d="M518.71,181v10.2h-2.78V181h-3.77v-2.26h10.39V181Z"/><path class="cls-2" d="M527.42,187.44l5.76-8.69h2.74v12.46h-2.76v-8.64l-5.71,8.64h-2.79V178.75h2.76Z"/><use width="20" height="20" transform="translate(489 81)" xlink:href="#dark_circle"/><rect class="cls-1" x="120.5" y="20.5" width="440" height="100" rx="2"/><path class="cls-2" d="M193,36.87v1.49a7.54,7.54,0,0,1,2,.32,4.91,4.91,0,0,1,1.61.83,3.91,3.91,0,0,1,1.06,1.35,4.84,4.84,0,0,1,0,3.76A3.85,3.85,0,0,1,196.59,46a5,5,0,0,1-1.61.85,7.16,7.16,0,0,1-2,.33v1.47H191V47.16a7.42,7.42,0,0,1-2-.32,4.76,4.76,0,0,1-1.6-.83,3.82,3.82,0,0,1-1.07-1.35,4.44,4.44,0,0,1-.38-1.88,4.38,4.38,0,0,1,.38-1.88,3.77,3.77,0,0,1,1.07-1.36,4.62,4.62,0,0,1,1.6-.85,7,7,0,0,1,2-.33V36.87Zm-5,5.9a3.24,3.24,0,0,0,.24,1.32,2.35,2.35,0,0,0,.65.88,2.61,2.61,0,0,0,1,.49,5.65,5.65,0,0,0,1.22.2V39.88a5.11,5.11,0,0,0-1.22.19,2.63,2.63,0,0,0-1,.5,2.32,2.32,0,0,0-.65.87A3.33,3.33,0,0,0,188,42.77Zm8.08,0a3.25,3.25,0,0,0-.23-1.32,2.31,2.31,0,0,0-.64-.88,2.54,2.54,0,0,0-1-.49A5,5,0,0,0,193,39.9v5.76a5.56,5.56,0,0,0,1.21-.2,2.54,2.54,0,0,0,1-.49,2.2,2.2,0,0,0,.64-.87A3.25,3.25,0,0,0,196,42.78Z"/><path class="cls-2" d="M203.59,49.7a3.45,3.45,0,0,1-.72,1,2.63,2.63,0,0,1-.94.59,3.47,3.47,0,0,1-1.26.2,3.21,3.21,0,0,1-1.34-.25V49.56a1.72,1.72,0,0,0,.56.27,2.45,2.45,0,0,0,.74.1,1.53,1.53,0,0,0,.89-.24,2.13,2.13,0,0,0,.64-.71l-3.34-8.81h2l2.32,6.45,2.3-6.45h1.73l-3,8.21A9.12,9.12,0,0,1,203.59,49.7Z"/><path class="cls-2" d="M213.79,45h-3.5v3.5h-1.86v-8.3h1.86v3.29h3.5V40.17h1.86v8.3h-1.86Z"/><path class="cls-2" d="M220.31,45.1h-.72v3.37h-1.86v-8.3h1.86v3.42h.78L223,40.17h2l-3.13,4,3.26,4.3H222.9Z"/><path class="cls-2" d="M233,48.47h-6.71v-8.3h1.86V47h3.49v-6.8h1.85V47h1.25v3.87h-1.6Z"/><path class="cls-2" d="M238,46l3.84-5.79h1.83v8.3h-1.84V42.71L238,48.47h-1.86v-8.3H238Z"/><path class="cls-2" d="M245.67,42.89a2.64,2.64,0,0,1,.25-1.19,2.43,2.43,0,0,1,.71-.85,3.15,3.15,0,0,1,1.11-.51,5.34,5.34,0,0,1,1.43-.17h3.09v8.3H250.4V45.66h-1.18l-2,2.81h-2.08l2.29-3.21a2.62,2.62,0,0,1-1.33-.84A2.35,2.35,0,0,1,245.67,42.89Zm4.73,1.29V41.64h-1.09a2.43,2.43,0,0,0-1.25.29,1,1,0,0,0-.49,1,1.12,1.12,0,0,0,.44,1,2.21,2.21,0,0,0,1.26.3Z"/><path class="cls-2" d="M262.43,48.63a3,3,0,0,1-1.62-.42,3.37,3.37,0,0,1-1.1-1.15V51.3h-1.85V40.17h1.69l.13,1.47a3.26,3.26,0,0,1,1.11-1.19,3,3,0,0,1,1.68-.44,3.91,3.91,0,0,1,1.4.26,3.27,3.27,0,0,1,1.16.8,4,4,0,0,1,.79,1.35,6.37,6.37,0,0,1,0,3.8,4.06,4.06,0,0,1-.8,1.35,3.38,3.38,0,0,1-1.18.8A4,4,0,0,1,262.43,48.63ZM262,47.1a2,2,0,0,0,1.6-.69,3,3,0,0,0,.62-2.09,3.07,3.07,0,0,0-.62-2.09,2,2,0,0,0-1.59-.69,2.46,2.46,0,0,0-.91.17,2,2,0,0,0-.73.52,2.58,2.58,0,0,0-.49.88,4,4,0,0,0-.17,1.21,4.11,4.11,0,0,0,.17,1.23,2.64,2.64,0,0,0,.48.86,2.08,2.08,0,0,0,.73.52A2.49,2.49,0,0,0,262,47.1Z"/><path class="cls-2" d="M270.66,42.25a2.21,2.21,0,0,0-1.12,1v5.26h-1.86v-8.3h1.7l.13,1.73h0a3.55,3.55,0,0,1,1.09-1.28,3.25,3.25,0,0,1,1.68-.61v2A4,4,0,0,0,270.66,42.25Z"/><path class="cls-2" d="M274.77,39.11a1.14,1.14,0,0,1-.84-.33,1.11,1.11,0,0,1-.33-.8,1.09,1.09,0,0,1,.33-.8,1.11,1.11,0,0,1,.84-.34,1.08,1.08,0,0,1,.82.34,1.09,1.09,0,0,1,.33.8,1.13,1.13,0,0,1-1.15,1.13Zm.93,1.06v8.3h-1.86v-8.3Z"/><path class="cls-2" d="M281.84,41.54a2.4,2.4,0,0,0-1.34.35,2.85,2.85,0,0,0-.87.89v5.69h-1.85v-8.3h1.76l.06,1.36h0a2.87,2.87,0,0,1,1-1.09,3.16,3.16,0,0,1,1.74-.43,3,3,0,0,1,2,.65,2.51,2.51,0,0,1,.77,2v5.81h-1.87V42.86a1.24,1.24,0,0,0-.38-1A1.69,1.69,0,0,0,281.84,41.54Z"/><path class="cls-2" d="M290.88,48.51a3.73,3.73,0,0,1-1,.12,3.11,3.11,0,0,1-1.13-.18,1.89,1.89,0,0,1-.74-.51,2,2,0,0,1-.42-.74,3.26,3.26,0,0,1-.13-.9V41.67h-1v-1.5h1V38.42h1.86v1.75h2.38v1.5h-2.38V46.1a1,1,0,0,0,.25.75,1.1,1.1,0,0,0,.82.25,1.71,1.71,0,0,0,.67-.12,1.73,1.73,0,0,0,.53-.3v1.54A2.7,2.7,0,0,1,290.88,48.51Z"/><path class="cls-2" d="M292.13,49h6.74v1.44h-6.74Z"/><path class="cls-2" d="M302.48,48.63a5.66,5.66,0,0,1-1.13-.1,6,6,0,0,1-.89-.25,4.88,4.88,0,0,1-.64-.3c-.18-.11-.32-.21-.43-.29V46.22a4,4,0,0,0,.44.31,5.09,5.09,0,0,0,.66.32,5.72,5.72,0,0,0,.85.25,6,6,0,0,0,1.08.09,2.54,2.54,0,0,0,1.29-.26.88.88,0,0,0,.4-.78.8.8,0,0,0-.16-.53,1.07,1.07,0,0,0-.43-.3,3.18,3.18,0,0,0-.63-.17l-.74-.13c-.34-.07-.66-.15-1-.25a3,3,0,0,1-.88-.43,2.16,2.16,0,0,1-.64-.7,2.26,2.26,0,0,1-.25-1.1,2.23,2.23,0,0,1,.88-1.86,4.09,4.09,0,0,1,2.52-.67,5.85,5.85,0,0,1,1.6.19,3.71,3.71,0,0,1,1,.4v1.49a3.83,3.83,0,0,0-1-.45,5.1,5.1,0,0,0-1.53-.19,2.76,2.76,0,0,0-1.33.24.78.78,0,0,0-.42.74.64.64,0,0,0,.15.45,1,1,0,0,0,.4.27,3.75,3.75,0,0,0,.58.15l.68.12c.33.06.67.14,1,.23a3.31,3.31,0,0,1,.94.41,2.21,2.21,0,0,1,1,1.95,2.49,2.49,0,0,1-.29,1.25,2.22,2.22,0,0,1-.77.81,3.19,3.19,0,0,1-1.09.43A5.58,5.58,0,0,1,302.48,48.63Z"/><path class="cls-2" d="M315.14,51.3H313.3V47.05a3.2,3.2,0,0,1-1.07,1.15,2.88,2.88,0,0,1-1.62.43,4,4,0,0,1-1.41-.26,3.38,3.38,0,0,1-1.18-.8,3.94,3.94,0,0,1-.82-1.35,6.17,6.17,0,0,1,0-3.8,3.81,3.81,0,0,1,.83-1.35,3.29,3.29,0,0,1,1.19-.8,3.91,3.91,0,0,1,1.4-.26,3.07,3.07,0,0,1,1.66.41,3.11,3.11,0,0,1,1.1,1.12v0c0-.2,0-.43,0-.7a3.61,3.61,0,0,1,.09-.63h1.73a5.62,5.62,0,0,0-.07.64c0,.27,0,.5,0,.69ZM311,47.1a2.35,2.35,0,0,0,.89-.17,2.14,2.14,0,0,0,.72-.52,2.48,2.48,0,0,0,.49-.86,4.11,4.11,0,0,0,.17-1.23,3,3,0,0,0-.65-2.09,2.15,2.15,0,0,0-1.62-.69,2.07,2.07,0,0,0-1.61.71,3,3,0,0,0-.63,2.07,3.07,3.07,0,0,0,.62,2.09A2.09,2.09,0,0,0,311,47.1Z"/><path class="cls-2" d="M321.56,48.19a3,3,0,0,1-1.74.44,2.71,2.71,0,0,1-1.9-.67,2.65,2.65,0,0,1-.74-2.05V40.17h1.88v5.71a1.05,1.05,0,0,0,.4,1,1.84,1.84,0,0,0,1,.25,2.25,2.25,0,0,0,1.28-.33,2.9,2.9,0,0,0,.85-.89V40.17h1.84v8.3h-1.69l-.12-1.36h0A2.86,2.86,0,0,1,321.56,48.19Z"/><path class="cls-2" d="M331.28,47a2.86,2.86,0,0,1-.34.57,2.62,2.62,0,0,1-.53.52,2.72,2.72,0,0,1-.74.38,3.42,3.42,0,0,1-1,.14,3.24,3.24,0,0,1-1-.15,2.16,2.16,0,0,1-.81-.46,2,2,0,0,1-.54-.76,2.44,2.44,0,0,1-.2-1,2.27,2.27,0,0,1,1-2A5,5,0,0,1,330,43.5h1.27V43a1.3,1.3,0,0,0-.42-1.12,2.31,2.31,0,0,0-1.38-.32,4.7,4.7,0,0,0-1.52.24,6.73,6.73,0,0,0-1.26.53V40.76a6.89,6.89,0,0,1,1.31-.51,6.33,6.33,0,0,1,1.78-.24,4,4,0,0,1,2.47.66,2.49,2.49,0,0,1,.87,2.12v4.34c0,.09,0,.2,0,.33s0,.24,0,.37,0,.25,0,.36,0,.21,0,.28h-1.71c0-.15-.06-.36-.09-.62s0-.51-.05-.72Zm-2.11.17a1.76,1.76,0,0,0,1-.25,2.36,2.36,0,0,0,.64-.57,2.38,2.38,0,0,0,.43-1.1v-.56h-1.15a3,3,0,0,0-1.62.35,1.1,1.1,0,0,0-.51,1,1.15,1.15,0,0,0,.31.86A1.23,1.23,0,0,0,329.17,47.19Z"/><path class="cls-2" d="M338.05,42.25a2.25,2.25,0,0,0-1.12,1v5.26h-1.86v-8.3h1.7l.13,1.73h0a3.58,3.58,0,0,1,1.1-1.28A3.18,3.18,0,0,1,339.7,40v2A4,4,0,0,0,338.05,42.25Z"/><path class="cls-2" d="M348,47.86c-.12.08-.27.16-.44.25a3.39,3.39,0,0,1-.6.25,6.26,6.26,0,0,1-1.88.27,4.64,4.64,0,0,1-3.41-1.13,4.34,4.34,0,0,1-1.13-3.19,5.17,5.17,0,0,1,.3-1.81,4,4,0,0,1,.85-1.35,3.71,3.71,0,0,1,1.3-.85,4.59,4.59,0,0,1,1.64-.29,4.49,4.49,0,0,1,1.68.3,3,3,0,0,1,1.22.91,3.53,3.53,0,0,1,.66,1.51,5.82,5.82,0,0,1,0,2.09h-5.74a2.49,2.49,0,0,0,.75,1.71,3,3,0,0,0,2,.57,5,5,0,0,0,1.66-.25,8.11,8.11,0,0,0,1.13-.52Zm-3.37-6.38a2,2,0,0,0-1.37.5,2.51,2.51,0,0,0-.74,1.47h3.91A2,2,0,0,0,346,42,1.83,1.83,0,0,0,344.62,41.48Z"/><path class="cls-2" d="M348.64,49h6.74v1.44h-6.74Z"/><path class="cls-2" d="M361,47a2.86,2.86,0,0,1-.34.57,2.59,2.59,0,0,1-1.28.9,3.31,3.31,0,0,1-1,.14,3.24,3.24,0,0,1-1-.15,2.16,2.16,0,0,1-.81-.46,2,2,0,0,1-.54-.76,2.44,2.44,0,0,1-.2-1,2.27,2.27,0,0,1,1-2,5,5,0,0,1,2.84-.68H361V43a1.3,1.3,0,0,0-.42-1.12,2.31,2.31,0,0,0-1.38-.32,4.7,4.7,0,0,0-1.52.24,6.73,6.73,0,0,0-1.26.53V40.76a6.89,6.89,0,0,1,1.31-.51,6.33,6.33,0,0,1,1.78-.24,4,4,0,0,1,2.47.66,2.49,2.49,0,0,1,.87,2.12v4.34c0,.09,0,.2,0,.33s0,.24,0,.37,0,.25,0,.36,0,.21,0,.28H361.2c0-.15-.06-.36-.09-.62s0-.51-.05-.72Zm-2.11.17a1.76,1.76,0,0,0,1-.25,2.18,2.18,0,0,0,.63-.57,1.94,1.94,0,0,0,.34-.65,2.09,2.09,0,0,0,.1-.45v-.56h-1.15a3,3,0,0,0-1.62.35,1.1,1.1,0,0,0-.51,1,1.15,1.15,0,0,0,.31.86A1.23,1.23,0,0,0,358.93,47.19Z"/><path class="cls-2" d="M367.81,42.25a2.25,2.25,0,0,0-1.12,1v5.26h-1.86v-8.3h1.7l.13,1.73h0a3.58,3.58,0,0,1,1.1-1.28,3.18,3.18,0,0,1,1.67-.61v2A4,4,0,0,0,367.81,42.25Z"/><path class="cls-2" d="M377.75,47.86c-.12.08-.27.16-.44.25a3.39,3.39,0,0,1-.6.25,6.26,6.26,0,0,1-1.88.27,4.64,4.64,0,0,1-3.41-1.13,4.34,4.34,0,0,1-1.13-3.19,5.17,5.17,0,0,1,.3-1.81,3.88,3.88,0,0,1,.85-1.35,3.71,3.71,0,0,1,1.3-.85,4.59,4.59,0,0,1,1.64-.29,4.49,4.49,0,0,1,1.68.3,3,3,0,0,1,1.22.91,3.53,3.53,0,0,1,.66,1.51,5.82,5.82,0,0,1,0,2.09h-5.74a2.49,2.49,0,0,0,.75,1.71,3,3,0,0,0,2,.57,5,5,0,0,0,1.66-.25,8.11,8.11,0,0,0,1.13-.52Zm-3.37-6.38A2,2,0,0,0,373,42a2.46,2.46,0,0,0-.74,1.47h3.91a2,2,0,0,0-.45-1.49A1.83,1.83,0,0,0,374.38,41.48Z"/><path class="cls-2" d="M384.38,47a2.86,2.86,0,0,1-.34.57,2.38,2.38,0,0,1-.53.52,2.58,2.58,0,0,1-.74.38,3.42,3.42,0,0,1-1,.14,3.29,3.29,0,0,1-1-.15,2.16,2.16,0,0,1-.81-.46,2,2,0,0,1-.54-.76,2.61,2.61,0,0,1-.2-1,2.3,2.3,0,0,1,1-2,5,5,0,0,1,2.85-.68h1.26V43a1.3,1.3,0,0,0-.42-1.12,2.28,2.28,0,0,0-1.37-.32,4.72,4.72,0,0,0-1.53.24,7.34,7.34,0,0,0-1.26.53V40.76a7,7,0,0,1,1.32-.51,6.21,6.21,0,0,1,1.77-.24,4,4,0,0,1,2.47.66,2.47,2.47,0,0,1,.88,2.12v4.67c0,.12,0,.24,0,.37s0,.25,0,.36,0,.21,0,.28h-1.72a5.34,5.34,0,0,1-.08-.62q0-.41-.06-.72Zm-2.11.17a1.77,1.77,0,0,0,1-.25,2.18,2.18,0,0,0,.63-.57,2.1,2.1,0,0,0,.33-.65,1.61,1.61,0,0,0,.1-.45v-.56h-1.15a3,3,0,0,0-1.62.35,1.1,1.1,0,0,0-.51,1,1.15,1.15,0,0,0,.31.86A1.25,1.25,0,0,0,382.27,47.19Z"/><path class="cls-2" d="M390.83,50.7A9.44,9.44,0,0,1,389,47.46a12.26,12.26,0,0,1-.6-3.9,13.94,13.94,0,0,1,.15-2.05,11.82,11.82,0,0,1,.46-1.93,9.07,9.07,0,0,1,.76-1.74,7.48,7.48,0,0,1,1.06-1.46h1.88a6.62,6.62,0,0,0-1.12,1.43,9.7,9.7,0,0,0-.78,1.73,11.71,11.71,0,0,0-.47,1.92,14,14,0,0,0-.15,2,12.37,12.37,0,0,0,.61,3.91,9.45,9.45,0,0,0,1.91,3.28Z"/><path class="cls-2" d="M396.16,37V48.47H394.3V37Z"/><path class="cls-2" d="M405.18,47.86a3.81,3.81,0,0,1-.43.25,3.21,3.21,0,0,1-.61.25,6.09,6.09,0,0,1-.81.19,6.64,6.64,0,0,1-1.06.08,4.64,4.64,0,0,1-3.41-1.13,4.3,4.3,0,0,1-1.13-3.19,5.17,5.17,0,0,1,.3-1.81,3.88,3.88,0,0,1,.85-1.35,3.63,3.63,0,0,1,1.3-.85,4.59,4.59,0,0,1,1.64-.29,4.49,4.49,0,0,1,1.68.3,3,3,0,0,1,1.22.91,3.53,3.53,0,0,1,.66,1.51,5.82,5.82,0,0,1,0,2.09h-5.74a2.49,2.49,0,0,0,.75,1.71,3,3,0,0,0,2,.57,5,5,0,0,0,1.66-.25,7.44,7.44,0,0,0,1.12-.52Zm-3.36-6.38a2,2,0,0,0-1.37.5,2.46,2.46,0,0,0-.74,1.47h3.91a2,2,0,0,0-.45-1.49A1.83,1.83,0,0,0,401.82,41.48Z"/><path class="cls-2" d="M411.1,41.54a2.4,2.4,0,0,0-1.34.35,2.71,2.71,0,0,0-.86.89v5.69H407v-8.3h1.76l.06,1.36h0a2.77,2.77,0,0,1,1-1.09,3.18,3.18,0,0,1,1.74-.43,3,3,0,0,1,2,.65,2.48,2.48,0,0,1,.78,2v5.81h-1.88V42.86a1.21,1.21,0,0,0-.38-1A1.69,1.69,0,0,0,411.1,41.54Z"/><path class="cls-2" d="M424,47.4a5.24,5.24,0,0,1-.24,1.64,3,3,0,0,1-.8,1.24,3.58,3.58,0,0,1-1.4.78,6.6,6.6,0,0,1-2.07.28,7.26,7.26,0,0,1-1.12-.08,5,5,0,0,1-.83-.17,3.61,3.61,0,0,1-.6-.23,2.64,2.64,0,0,1-.42-.23V49.1l.52.27a4,4,0,0,0,.64.22,4.55,4.55,0,0,0,.8.15,7.83,7.83,0,0,0,1,.06,3.23,3.23,0,0,0,2-.51,2.25,2.25,0,0,0,.63-1.83v-.83a3,3,0,0,1-1,1.1,2.88,2.88,0,0,1-1.58.41,3.8,3.8,0,0,1-1.38-.26,3.16,3.16,0,0,1-1.17-.76,3.53,3.53,0,0,1-.8-1.26,4.83,4.83,0,0,1-.3-1.77,4.9,4.9,0,0,1,.3-1.79A3.58,3.58,0,0,1,417,41a3.27,3.27,0,0,1,1.17-.77,4,4,0,0,1,1.41-.25,2.85,2.85,0,0,1,2.67,1.53v0c0-.2,0-.43,0-.7s.06-.48.09-.63h1.71c0,.15,0,.36-.05.64s0,.5,0,.69Zm-4-.8a2.12,2.12,0,0,0,1.56-.62,2.6,2.6,0,0,0,.6-1.88,2.65,2.65,0,0,0-.61-1.92,2.06,2.06,0,0,0-1.56-.64,2.49,2.49,0,0,0-.87.16,1.86,1.86,0,0,0-.69.49,2.37,2.37,0,0,0-.47.79,3.44,3.44,0,0,0-.16,1.12A2.51,2.51,0,0,0,418.4,46,2.13,2.13,0,0,0,420,46.6Z"/><path class="cls-2" d="M429.84,48.51a3.73,3.73,0,0,1-1,.12,3.08,3.08,0,0,1-1.13-.18,2,2,0,0,1-.75-.51,1.86,1.86,0,0,1-.41-.74,2.92,2.92,0,0,1-.13-.9V41.67h-1v-1.5h1V38.42h1.86v1.75h2.38v1.5h-2.38V46.1a1,1,0,0,0,.25.75,1.09,1.09,0,0,0,.82.25A1.74,1.74,0,0,0,430,47a1.86,1.86,0,0,0,.53-.3v1.54A2.7,2.7,0,0,1,429.84,48.51Z"/><path class="cls-2" d="M436.35,41.54a2.4,2.4,0,0,0-1.34.35,2.74,2.74,0,0,0-.87.89v5.69h-1.85V37h1.85v4.53h0a3.3,3.3,0,0,1,4.75-.87,2.51,2.51,0,0,1,.77,2v5.81h-1.87V42.86a1.24,1.24,0,0,0-.38-1A1.69,1.69,0,0,0,436.35,41.54Z"/><path class="cls-2" d="M441.39,50.23a4.18,4.18,0,0,0,.57-.85,4.93,4.93,0,0,0,.36-.94,1.14,1.14,0,0,1-.66-.42,1.16,1.16,0,0,1-.22-.7,1.2,1.2,0,0,1,.33-.86,1.35,1.35,0,0,1,1.81,0,1.38,1.38,0,0,1,.35,1,2.76,2.76,0,0,1-.11.8,3.85,3.85,0,0,1-.29.76,4,4,0,0,1-.39.67,3,3,0,0,1-.42.49Z"/><path class="cls-2" d="M458.91,48.47h-2.66l-1.58-6-1.6,6h-2.63l-1.82-8.3h1.9L451.93,47l1.87-6.81h1.94l1.82,6.77L459,40.17h1.76Z"/><path class="cls-2" d="M463.12,39.11a1.14,1.14,0,0,1-.84-.33A1.11,1.11,0,0,1,462,38a1.09,1.09,0,0,1,.33-.8,1.11,1.11,0,0,1,.84-.34,1.08,1.08,0,0,1,.82.34,1.09,1.09,0,0,1,.33.8,1.13,1.13,0,0,1-1.15,1.13Zm.92,1.06v8.3h-1.85v-8.3Z"/><path class="cls-2" d="M472.08,46.92A3.38,3.38,0,0,1,471,48.17a2.84,2.84,0,0,1-1.67.46,3.92,3.92,0,0,1-1.41-.26,3.42,3.42,0,0,1-1.19-.8,3.92,3.92,0,0,1-.81-1.35,6,6,0,0,1,0-3.8,3.79,3.79,0,0,1,.82-1.35,3.47,3.47,0,0,1,1.19-.8,4,4,0,0,1,1.41-.26,3.17,3.17,0,0,1,1.59.37,2.77,2.77,0,0,1,1.08,1V37h1.84V48.47h-1.68Zm-2.32.18a2.3,2.3,0,0,0,.88-.17,2.08,2.08,0,0,0,.73-.52,2.47,2.47,0,0,0,.48-.86,4.29,4.29,0,0,0,0-2.46,2.32,2.32,0,0,0-.48-.86,1.85,1.85,0,0,0-.72-.52,2.35,2.35,0,0,0-.89-.17,2.07,2.07,0,0,0-1.61.71,3,3,0,0,0-.63,2.07,3,3,0,0,0,.62,2.09A2.09,2.09,0,0,0,469.76,47.1Z"/><path class="cls-2" d="M479.69,48.51a3.68,3.68,0,0,1-1,.12,3.11,3.11,0,0,1-1.13-.18,1.89,1.89,0,0,1-.74-.51,2,2,0,0,1-.42-.74,3.26,3.26,0,0,1-.12-.9V41.67h-1v-1.5h1V38.42h1.85v1.75h2.39v1.5h-2.39V46.1a1,1,0,0,0,.25.75,1.1,1.1,0,0,0,.82.25,1.71,1.71,0,0,0,.67-.12,1.73,1.73,0,0,0,.53-.3v1.54A2.7,2.7,0,0,1,479.69,48.51Z"/><path class="cls-2" d="M486.21,41.54a2.42,2.42,0,0,0-1.35.35,2.71,2.71,0,0,0-.86.89v5.69h-1.86V37H484v3.07l0,1.46h0a2.92,2.92,0,0,1,1-1.08,3.07,3.07,0,0,1,1.73-.44,3,3,0,0,1,2,.65,2.48,2.48,0,0,1,.78,2v5.81h-1.87V42.86a1.21,1.21,0,0,0-.39-1A1.66,1.66,0,0,0,486.21,41.54Z"/><path class="cls-2" d="M491,50.7a9.43,9.43,0,0,0,1.9-3.28,12.09,12.09,0,0,0,.61-3.91,14,14,0,0,0-.15-2,11.7,11.7,0,0,0-.46-1.92,9.07,9.07,0,0,0-.79-1.73A6.29,6.29,0,0,0,491,36.38h1.87A7.52,7.52,0,0,1,494,37.84a10.51,10.51,0,0,1,.76,1.74,11.81,11.81,0,0,1,.45,1.93,13.94,13.94,0,0,1,.16,2.05,12.26,12.26,0,0,1-.61,3.9,9.28,9.28,0,0,1-1.83,3.24Z"/><rect class="cls-3" x="139" y="65.5" width="120" height="35" rx="2"/><path class="cls-2" d="M158.52,86.89a5.16,5.16,0,0,1-.37.6,3,3,0,0,1-.56.57,2.68,2.68,0,0,1-.79.41,3.17,3.17,0,0,1-1.07.16,2.59,2.59,0,0,1-1.81-.63,2.38,2.38,0,0,1-.68-1.82,2.24,2.24,0,0,1,.95-2,4.89,4.89,0,0,1,2.71-.64h1.55v-.68a1.53,1.53,0,0,0-.45-1.24,2.47,2.47,0,0,0-1.53-.36,4.43,4.43,0,0,0-1.46.24,7.82,7.82,0,0,0-1.23.57V80.81a6.77,6.77,0,0,1,1.21-.54,5.22,5.22,0,0,1,1.67-.26,3.69,3.69,0,0,1,2.38.65,2.38,2.38,0,0,1,.82,2v4.47c0,.09,0,.2,0,.33s0,.24,0,.37,0,.25,0,.36,0,.21,0,.28h-1.28q0-.23-.09-.63c0-.27,0-.51,0-.71Zm-2.48.49a2.21,2.21,0,0,0,1.12-.27,2.49,2.49,0,0,0,.75-.64,2.76,2.76,0,0,0,.42-.7,1.82,1.82,0,0,0,.12-.49v-.62H157a3.43,3.43,0,0,0-1.83.37,1.19,1.19,0,0,0-.57,1.08A1.3,1.3,0,0,0,155,87,1.4,1.4,0,0,0,156,87.38Z"/><path class="cls-2" d="M164.56,82a2.31,2.31,0,0,0-1.08,1.16v5.28h-1.41v-8.3h1.23l.15,1.81h0a3.78,3.78,0,0,1,1-1.29,3.18,3.18,0,0,1,1.69-.68v1.57A4.23,4.23,0,0,0,164.56,82Z"/><path class="cls-2" d="M174.26,87.77a3.22,3.22,0,0,1-.43.27,4.06,4.06,0,0,1-.62.28,4.67,4.67,0,0,1-.84.22,5.44,5.44,0,0,1-1,.09,4.23,4.23,0,0,1-3.18-1.13,4.41,4.41,0,0,1-1.09-3.19,5.17,5.17,0,0,1,.3-1.81,3.82,3.82,0,0,1,.82-1.35,3.6,3.6,0,0,1,1.25-.85A4.22,4.22,0,0,1,171,80a4.07,4.07,0,0,1,1.6.3,2.85,2.85,0,0,1,1.16.9,3.41,3.41,0,0,1,.62,1.46,6,6,0,0,1,0,2h-5.85a2.87,2.87,0,0,0,.8,2,3.06,3.06,0,0,0,2.14.66,4.53,4.53,0,0,0,1.65-.27,5.35,5.35,0,0,0,1.15-.6ZM171,81.26a2.28,2.28,0,0,0-1.56.56,2.6,2.6,0,0,0-.83,1.69H173a2,2,0,0,0-.53-1.7A2.15,2.15,0,0,0,171,81.26Z"/><path class="cls-2" d="M181,86.89a5.16,5.16,0,0,1-.37.6,3,3,0,0,1-.56.57,2.81,2.81,0,0,1-.79.41,3.17,3.17,0,0,1-1.07.16A2.59,2.59,0,0,1,176.4,88a2.38,2.38,0,0,1-.68-1.82,2.24,2.24,0,0,1,.95-2,4.89,4.89,0,0,1,2.71-.64h1.55v-.68a1.53,1.53,0,0,0-.45-1.24,2.47,2.47,0,0,0-1.53-.36,4.43,4.43,0,0,0-1.46.24,7.82,7.82,0,0,0-1.23.57V80.81a6.77,6.77,0,0,1,1.21-.54,5.18,5.18,0,0,1,1.67-.26,3.69,3.69,0,0,1,2.38.65,2.38,2.38,0,0,1,.82,2v4.47c0,.09,0,.2,0,.33s0,.24,0,.37,0,.25,0,.36,0,.21,0,.28h-1.28q0-.23-.09-.63c0-.27,0-.51,0-.71Zm-2.48.49a2.21,2.21,0,0,0,1.12-.27,2.49,2.49,0,0,0,.75-.64,2.45,2.45,0,0,0,.41-.7,1.6,1.6,0,0,0,.13-.49v-.62h-1.41a3.43,3.43,0,0,0-1.83.37,1.19,1.19,0,0,0-.57,1.08,1.3,1.3,0,0,0,.34.92A1.38,1.38,0,0,0,178.52,87.38Z"/><path class="cls-2" d="M187.44,82.12V81h7.73v1.12Zm0,3V84h7.73v1.12Z"/><path class="cls-2" d="M208.6,88.47h-7.32V87c1-.78,1.81-1.48,2.52-2.09a18.27,18.27,0,0,0,1.76-1.68,6.42,6.42,0,0,0,1-1.47,3.32,3.32,0,0,0,.34-1.45,2.1,2.1,0,0,0-.57-1.53,2.21,2.21,0,0,0-1.66-.58,3.32,3.32,0,0,0-1.69.45,5.28,5.28,0,0,0-1.41,1.13V78.14a4.81,4.81,0,0,1,1.37-1,4.35,4.35,0,0,1,1.78-.35,4.83,4.83,0,0,1,1.59.24,3.18,3.18,0,0,1,1.17.67,3,3,0,0,1,.72,1,3.68,3.68,0,0,1,.25,1.35,4.32,4.32,0,0,1-.36,1.75A6.61,6.61,0,0,1,207,83.52a14.72,14.72,0,0,1-1.73,1.69c-.69.58-1.48,1.22-2.36,1.9h5.65Z"/><path class="cls-2" d="M216.1,85.75v2.72h-1.41V85.75h-5v-1L214.21,77h1.89v7.54h1.55v1.21Zm-1.41-1.21v-6l-3.5,6Z"/><path class="cls-2" d="M221.33,88.47h-1.57l4.9-10.11h-5.84V77h7.38v1.28Z"/><path class="cls-2" d="M234.8,84.68a4.37,4.37,0,0,1-.28,1.62,3.32,3.32,0,0,1-.8,1.25,3.28,3.28,0,0,1-1.26.8,4.63,4.63,0,0,1-1.66.28,6.61,6.61,0,0,1-1.77-.21,4.34,4.34,0,0,1-1.28-.6V86.25A5.34,5.34,0,0,0,229,87a4.51,4.51,0,0,0,1.8.31,2.37,2.37,0,0,0,1.84-.72,2.72,2.72,0,0,0,.64-1.89,2.32,2.32,0,0,0-.64-1.82,2.27,2.27,0,0,0-1.61-.58,2.5,2.5,0,0,0-1.15.23,2.32,2.32,0,0,0-.64.49h-1.17V77h6.21v1.36h-4.9v3.3a3.18,3.18,0,0,1,.78-.43,3.07,3.07,0,0,1,1.11-.18,3.92,3.92,0,0,1,1.38.23,3.05,3.05,0,0,1,1.13.69,3.11,3.11,0,0,1,.75,1.13A4.29,4.29,0,0,1,234.8,84.68Z"/><path class="cls-2" d="M240.13,88.63a3.35,3.35,0,0,1-1.51-.34,3.2,3.2,0,0,1-1.2-1.07,5.67,5.67,0,0,1-.79-1.84,10.84,10.84,0,0,1-.29-2.65,10.73,10.73,0,0,1,.29-2.65,5.52,5.52,0,0,1,.79-1.83,3.17,3.17,0,0,1,1.2-1.06,3.48,3.48,0,0,1,1.51-.33,3.4,3.4,0,0,1,1.5.33,3.2,3.2,0,0,1,1.19,1,5.58,5.58,0,0,1,.78,1.82,11.12,11.12,0,0,1,.28,2.64,11.25,11.25,0,0,1-.28,2.64,6,6,0,0,1-.78,1.85,3.24,3.24,0,0,1-1.19,1.09A3.28,3.28,0,0,1,240.13,88.63Zm0-1.26a1.73,1.73,0,0,0,1.66-1,4.84,4.84,0,0,0,.44-1.43,13.24,13.24,0,0,0,.15-2.17,14.55,14.55,0,0,0-.14-2.16,4.63,4.63,0,0,0-.44-1.44,1.86,1.86,0,0,0-.7-.78,1.9,1.9,0,0,0-1-.24,1.79,1.79,0,0,0-1.69,1,4.91,4.91,0,0,0-.44,1.44,14.73,14.73,0,0,0,0,4.33,4.56,4.56,0,0,0,.44,1.43,1.78,1.78,0,0,0,.71.79A1.91,1.91,0,0,0,240.12,87.37Z"/><rect class="cls-3" x="279" y="65.5" width="120" height="35" rx="2"/><path class="cls-2" d="M296.34,77V88.47h-1.41V77Z"/><path class="cls-2" d="M305.24,87.77a3.39,3.39,0,0,1-.44.27,3.66,3.66,0,0,1-.62.28,4.34,4.34,0,0,1-.83.22,5.52,5.52,0,0,1-1,.09,4.25,4.25,0,0,1-3.19-1.13A4.45,4.45,0,0,1,298,84.31a5.17,5.17,0,0,1,.29-1.81,3.84,3.84,0,0,1,.83-1.35,3.56,3.56,0,0,1,1.24-.85A4.26,4.26,0,0,1,302,80a4,4,0,0,1,1.6.3,2.79,2.79,0,0,1,1.16.9,3.41,3.41,0,0,1,.63,1.46,6,6,0,0,1,0,2h-5.86a2.91,2.91,0,0,0,.8,2,3.09,3.09,0,0,0,2.15.66,4.43,4.43,0,0,0,1.64-.27,5.44,5.44,0,0,0,1.16-.6Zm-3.3-6.51a2.31,2.31,0,0,0-1.57.56,2.69,2.69,0,0,0-.83,1.69H304a2,2,0,0,0-.52-1.7A2.17,2.17,0,0,0,301.94,81.26Z"/><path class="cls-2" d="M311,81.26a2.5,2.5,0,0,0-1.55.44,3.18,3.18,0,0,0-1,1.12v5.65h-1.41v-8.3h1.33l.05,1.49h0a2.79,2.79,0,0,1,1.05-1.19A3.31,3.31,0,0,1,311.4,80a2.81,2.81,0,0,1,2,.65,2.54,2.54,0,0,1,.72,2v5.82h-1.4V82.79a1.48,1.48,0,0,0-.43-1.2A2,2,0,0,0,311,81.26Z"/><path class="cls-2" d="M323.45,87.77a4.26,4.26,0,0,1-.24,1.46,2.76,2.76,0,0,1-.73,1.13,3.46,3.46,0,0,1-1.3.72,6.25,6.25,0,0,1-1.91.26,8.22,8.22,0,0,1-1.07-.07,5,5,0,0,1-.81-.17,2.72,2.72,0,0,1-.58-.22,2.36,2.36,0,0,1-.4-.23V89.39a4.39,4.39,0,0,0,.53.27,6.32,6.32,0,0,0,.62.22,6,6,0,0,0,.76.15,6.9,6.9,0,0,0,1,.06,3.13,3.13,0,0,0,2.14-.58,2.3,2.3,0,0,0,.61-1.72V86.5a3.07,3.07,0,0,1-1,1.19,2.82,2.82,0,0,1-1.63.45,3.92,3.92,0,0,1-1.41-.26,3.2,3.2,0,0,1-1.16-.76,3.53,3.53,0,0,1-.8-1.26,4.83,4.83,0,0,1-.3-1.77,4.9,4.9,0,0,1,.3-1.79,3.58,3.58,0,0,1,.8-1.27,3.27,3.27,0,0,1,1.17-.77A4,4,0,0,1,319.4,80a2.88,2.88,0,0,1,2.73,1.66l0-.17c0-.2,0-.43,0-.7a5.67,5.67,0,0,1,.07-.63h1.28a6.1,6.1,0,0,0-.06.64c0,.27,0,.5,0,.69Zm-3.83-.88a2.74,2.74,0,0,0,1-.17,2.1,2.1,0,0,0,.77-.52,2.46,2.46,0,0,0,.51-.88,3.69,3.69,0,0,0,.18-1.22,2.94,2.94,0,0,0-.69-2.14,2.37,2.37,0,0,0-1.75-.7,2.64,2.64,0,0,0-1,.17,2.21,2.21,0,0,0-.78.53,2.58,2.58,0,0,0-.52.89,3.64,3.64,0,0,0-.2,1.25,3.43,3.43,0,0,0,.2,1.22,2.36,2.36,0,0,0,.53.87,2.14,2.14,0,0,0,.79.52A2.63,2.63,0,0,0,319.62,86.89Z"/><path class="cls-2" d="M329.14,88.54a3.89,3.89,0,0,1-.85.09,2.85,2.85,0,0,1-1-.17,1.94,1.94,0,0,1-.69-.48,1.64,1.64,0,0,1-.4-.67,2.53,2.53,0,0,1-.12-.77V81.37h-1v-1.2h1V78.42h1.41v1.75h2.42v1.2h-2.42v5a1,1,0,0,0,.26.77,1.42,1.42,0,0,0,.94.24A1.92,1.92,0,0,0,329.8,87V88.3A3.09,3.09,0,0,1,329.14,88.54Z"/><path class="cls-2" d="M335.6,81.26a2.53,2.53,0,0,0-1.56.44,3.26,3.26,0,0,0-1,1.12v5.65h-1.41V77h1.41v3.17l0,1.49h0a2.82,2.82,0,0,1,1.05-1.18A3.31,3.31,0,0,1,336,80a2.81,2.81,0,0,1,2,.65,2.54,2.54,0,0,1,.72,2v5.82h-1.4V82.79a1.45,1.45,0,0,0-.44-1.2A1.9,1.9,0,0,0,335.6,81.26Z"/><path class="cls-2" d="M343.76,82.12V81h7.73v1.12Zm0,3V84h7.73v1.12Z"/><path class="cls-2" d="M365,85.16a3.37,3.37,0,0,1-.3,1.44,3.26,3.26,0,0,1-.85,1.1,3.75,3.75,0,0,1-1.3.69,5.41,5.41,0,0,1-1.66.24,6.22,6.22,0,0,1-1.94-.27,4.1,4.1,0,0,1-1.32-.7v-1.6a4.52,4.52,0,0,0,1.34.88,4.7,4.7,0,0,0,1.94.38,2.85,2.85,0,0,0,1.86-.56,1.93,1.93,0,0,0,.68-1.57,1.85,1.85,0,0,0-.61-1.49,2.8,2.8,0,0,0-1.9-.54h-1.47V81.8H361a2.17,2.17,0,0,0,1.47-.48,1.7,1.7,0,0,0,.56-1.39,1.63,1.63,0,0,0-.52-1.29,2.25,2.25,0,0,0-1.52-.47,3.81,3.81,0,0,0-1.76.38,7.67,7.67,0,0,0-1.32.9V77.88a4.64,4.64,0,0,1,1.33-.75,5,5,0,0,1,1.76-.29,4.45,4.45,0,0,1,1.47.22,3.26,3.26,0,0,1,1.12.61,2.8,2.8,0,0,1,.69,1,3.07,3.07,0,0,1,.24,1.23,2.67,2.67,0,0,1-.16,1,2.3,2.3,0,0,1-.44.76,2.75,2.75,0,0,1-1.43.84,3.53,3.53,0,0,1,.95.31,3,3,0,0,1,.81.57,2.38,2.38,0,0,1,.55.81A2.59,2.59,0,0,1,365,85.16Z"/><path class="cls-2" d="M373.81,85.16a3.37,3.37,0,0,1-.3,1.44,3.26,3.26,0,0,1-.85,1.1,3.75,3.75,0,0,1-1.3.69,5.41,5.41,0,0,1-1.66.24,6.22,6.22,0,0,1-1.94-.27,4.1,4.1,0,0,1-1.32-.7v-1.6a4.52,4.52,0,0,0,1.34.88,4.66,4.66,0,0,0,1.94.38,2.87,2.87,0,0,0,1.86-.56,1.93,1.93,0,0,0,.68-1.57,1.85,1.85,0,0,0-.61-1.49,2.8,2.8,0,0,0-1.9-.54h-1.47V81.8h1.53a2.17,2.17,0,0,0,1.47-.48,1.7,1.7,0,0,0,.56-1.39,1.63,1.63,0,0,0-.52-1.29,2.25,2.25,0,0,0-1.52-.47,3.81,3.81,0,0,0-1.76.38,7.67,7.67,0,0,0-1.32.9V77.88a4.64,4.64,0,0,1,1.33-.75,5,5,0,0,1,1.76-.29,4.45,4.45,0,0,1,1.47.22,3.26,3.26,0,0,1,1.12.61,2.8,2.8,0,0,1,.69,1,3.07,3.07,0,0,1,.24,1.23,2.67,2.67,0,0,1-.16,1,2.3,2.3,0,0,1-.44.76,2.56,2.56,0,0,1-.65.53,2.4,2.4,0,0,1-.78.31,3.53,3.53,0,0,1,.95.31,3,3,0,0,1,.81.57,2.53,2.53,0,0,1,.55.81A2.59,2.59,0,0,1,373.81,85.16Z"/><path class="cls-2" d="M378.85,88.63a3.35,3.35,0,0,1-1.51-.34,3.28,3.28,0,0,1-1.2-1.07,5.67,5.67,0,0,1-.79-1.84,10.84,10.84,0,0,1-.29-2.65,10.73,10.73,0,0,1,.29-2.65,5.52,5.52,0,0,1,.79-1.83,3.25,3.25,0,0,1,1.2-1.06,3.62,3.62,0,0,1,3,0,3.26,3.26,0,0,1,1.18,1,5.58,5.58,0,0,1,.78,1.82,11.12,11.12,0,0,1,.28,2.64,11.25,11.25,0,0,1-.28,2.64,6,6,0,0,1-.78,1.85,3.08,3.08,0,0,1-2.69,1.44Zm0-1.26a1.73,1.73,0,0,0,1.66-1,4.84,4.84,0,0,0,.44-1.43,13.24,13.24,0,0,0,.15-2.17,14.55,14.55,0,0,0-.14-2.16,4.93,4.93,0,0,0-.43-1.44,1.94,1.94,0,0,0-.71-.78,1.9,1.9,0,0,0-1-.24,1.79,1.79,0,0,0-1.69,1,4.91,4.91,0,0,0-.44,1.44,14.73,14.73,0,0,0,0,4.33,4.56,4.56,0,0,0,.44,1.43,1.78,1.78,0,0,0,.71.79A1.91,1.91,0,0,0,378.84,87.37Z"/><rect class="cls-3" x="419" y="65.5" width="120" height="35" rx="2"/><path class="cls-2" d="M450.84,88.47h-2.16l-1.76-6.41-1.8,6.41H443l-1.89-8.3h1.49l1.58,7.25,2-7.25h1.58l2,7.17,1.57-7.17h1.39Z"/><path class="cls-2" d="M455.08,79a.93.93,0,0,1-.68-.26.91.91,0,0,1-.26-.65,1,1,0,0,1,.26-.66.9.9,0,0,1,.68-.27.84.84,0,0,1,.66.27A1,1,0,0,1,456,78a.93.93,0,0,1-.24.65A.87.87,0,0,1,455.08,79Zm.69,1.22v8.3h-1.41v-8.3Z"/><path class="cls-2" d="M464,86.84a3.19,3.19,0,0,1-1.07,1.3,2.91,2.91,0,0,1-1.74.49,4,4,0,0,1-1.43-.26,3.38,3.38,0,0,1-1.18-.8,3.94,3.94,0,0,1-.82-1.35,6.17,6.17,0,0,1,0-3.8,3.94,3.94,0,0,1,.82-1.35,3.29,3.29,0,0,1,1.19-.8,4,4,0,0,1,1.43-.26,3.22,3.22,0,0,1,1.63.39A3,3,0,0,1,464,81.51V77h1.41V88.47h-1.24Zm-2.61.54a2.75,2.75,0,0,0,1-.18,2.07,2.07,0,0,0,.81-.57,2.79,2.79,0,0,0,.54-1,4.66,4.66,0,0,0,0-2.7,2.79,2.79,0,0,0-.54-1,2.07,2.07,0,0,0-.81-.57,2.75,2.75,0,0,0-1-.18,2.34,2.34,0,0,0-1.8.77,3.35,3.35,0,0,0-.69,2.29,3.27,3.27,0,0,0,.7,2.29A2.3,2.3,0,0,0,461.4,87.38Z"/><path class="cls-2" d="M471.07,88.54a3.89,3.89,0,0,1-.85.09,2.81,2.81,0,0,1-1-.17,2,2,0,0,1-.7-.48,1.74,1.74,0,0,1-.39-.67,2.53,2.53,0,0,1-.12-.77V81.37h-1v-1.2h1V78.42h1.41v1.75h2.41v1.2h-2.41v5a1,1,0,0,0,.26.77,1.42,1.42,0,0,0,.94.24,1.91,1.91,0,0,0,1.13-.35V88.3A3.19,3.19,0,0,1,471.07,88.54Z"/><path class="cls-2" d="M477.53,81.26a2.53,2.53,0,0,0-1.56.44,3.4,3.4,0,0,0-1,1.12v5.65h-1.4V77H475v3.17l0,1.49h0a2.92,2.92,0,0,1,1.06-1.18,3.3,3.3,0,0,1,1.82-.47,2.78,2.78,0,0,1,2,.65,2.5,2.5,0,0,1,.73,2v5.82h-1.41V82.79a1.45,1.45,0,0,0-.43-1.2A1.94,1.94,0,0,0,477.53,81.26Z"/><path class="cls-2" d="M485.69,82.12V81h7.73v1.12Zm0,3V84h7.73v1.12Z"/><path class="cls-2" d="M502,88.47h-1.57l4.9-10.11h-5.84V77h7.37v1.28Z"/><path class="cls-2" d="M515.45,84.68a4.37,4.37,0,0,1-.28,1.62,3.44,3.44,0,0,1-2.06,2,4.63,4.63,0,0,1-1.66.28,6.74,6.74,0,0,1-1.78-.21,4.46,4.46,0,0,1-1.28-.6V86.25a5.63,5.63,0,0,0,1.26.76,4.47,4.47,0,0,0,1.8.31,2.33,2.33,0,0,0,1.83-.72,2.73,2.73,0,0,0,.65-1.89,2.12,2.12,0,0,0-2.26-2.4,2.45,2.45,0,0,0-1.14.23,2.56,2.56,0,0,0-.65.49h-1.17V77h6.21v1.36H510v3.3a3.18,3.18,0,0,1,.78-.43,3.07,3.07,0,0,1,1.11-.18,3.92,3.92,0,0,1,1.38.23,3.05,3.05,0,0,1,1.13.69,3.11,3.11,0,0,1,.75,1.13A4.29,4.29,0,0,1,515.45,84.68Z"/><line class="cls-4" x1="339.25" y1="160.5" x2="339.25" y2="109"/><circle class="cls-2" cx="339.25" cy="160.5" r="2.19"/><polygon class="cls-2" points="342.64 109.99 339.25 104.13 335.86 109.99 342.64 109.99"/><rect class="cls-1" x="120" y="261" width="440" height="100" rx="2"/><rect class="cls-3" x="159" y="305.5" width="140" height="35" rx="2"/><path class="cls-2" d="M254.89,286.87h1.5v4.32h-1.71l-.14-2.72H246.6l-.16,2.72h-1.69v-4.32h.81a3.14,3.14,0,0,0,.79-1.2,8.68,8.68,0,0,0,.49-2q.18-1.2.27-2.85c.07-1.11.12-2.39.15-3.85h7.63Zm-1.95,0v-8.21H249c0,1.1-.09,2.09-.15,2.95s-.14,1.62-.23,2.29a12,12,0,0,1-.37,1.73,4.92,4.92,0,0,1-.56,1.24Z"/><path class="cls-2" d="M262.57,288.63a3,3,0,0,1-1.62-.42,3.28,3.28,0,0,1-1.1-1.15v4.24H258V280.17h1.7l.13,1.47a3.16,3.16,0,0,1,1.1-1.19,3,3,0,0,1,1.68-.44,3.87,3.87,0,0,1,1.4.26,3.18,3.18,0,0,1,1.16.8,3.89,3.89,0,0,1,.79,1.35,6.17,6.17,0,0,1,0,3.8,3.75,3.75,0,0,1-.8,1.35,3.35,3.35,0,0,1-1.17.8A4,4,0,0,1,262.57,288.63Zm-.45-1.53a2.06,2.06,0,0,0,1.61-.69,3,3,0,0,0,.61-2.09,3.07,3.07,0,0,0-.61-2.09,2,2,0,0,0-1.59-.69,2.42,2.42,0,0,0-.91.17,2,2,0,0,0-.73.52,2.58,2.58,0,0,0-.49.88,3.71,3.71,0,0,0-.18,1.21,3.8,3.8,0,0,0,.18,1.23,2.64,2.64,0,0,0,.48.86,1.91,1.91,0,0,0,.73.52A2.44,2.44,0,0,0,262.12,287.1Z"/><path class="cls-2" d="M271.57,289.7a3.89,3.89,0,0,1-.72,1,2.72,2.72,0,0,1-.94.59,3.47,3.47,0,0,1-1.26.2,3.21,3.21,0,0,1-1.34-.25v-1.65a1.62,1.62,0,0,0,.56.27,2.39,2.39,0,0,0,.73.1,1.59,1.59,0,0,0,.9-.24,2.24,2.24,0,0,0,.64-.71l-3.35-8.81h2l2.32,6.45,2.31-6.45h1.73l-3,8.21A9.14,9.14,0,0,1,271.57,289.7Z"/><path class="cls-2" d="M276.41,280.17h5.47v1.5h-3.61v6.8h-1.86Z"/><path class="cls-2" d="M288,287a2.92,2.92,0,0,1-.35.57,2.56,2.56,0,0,1-.52.52,2.64,2.64,0,0,1-.75.38,3.37,3.37,0,0,1-1,.14,3.22,3.22,0,0,1-1-.15,2.2,2.2,0,0,1-1.36-1.22,2.61,2.61,0,0,1-.2-1,2.3,2.3,0,0,1,1-2,5,5,0,0,1,2.85-.68h1.26V283a1.3,1.3,0,0,0-.41-1.12,2.34,2.34,0,0,0-1.38-.32,4.81,4.81,0,0,0-1.53.24,6.91,6.91,0,0,0-1.25.53v-1.55a6.89,6.89,0,0,1,1.31-.51,6.28,6.28,0,0,1,1.78-.24,4,4,0,0,1,2.47.66,2.49,2.49,0,0,1,.87,2.12v4.34c0,.09,0,.2,0,.33s0,.24,0,.37l0,.36c0,.11,0,.21,0,.28h-1.71c0-.15-.06-.36-.09-.62s-.05-.51-.06-.72Zm-2.11.17a1.76,1.76,0,0,0,1-.25,2.18,2.18,0,0,0,.63-.57,2.4,2.4,0,0,0,.34-.65,1.91,1.91,0,0,0,.09-.45v-.56h-1.15a2.93,2.93,0,0,0-1.61.35,1.08,1.08,0,0,0-.52,1,1.15,1.15,0,0,0,.32.86A1.22,1.22,0,0,0,285.87,287.19Z"/><path class="cls-2" d="M291.67,282.89a2.64,2.64,0,0,1,.26-1.19,2.43,2.43,0,0,1,.71-.85,3.07,3.07,0,0,1,1.11-.51,5.34,5.34,0,0,1,1.43-.17h3.09v8.3h-1.86v-2.81h-1.18l-2,2.81h-2.08l2.29-3.21a2.62,2.62,0,0,1-1.33-.84A2.35,2.35,0,0,1,291.67,282.89Zm4.74,1.29v-2.54h-1.09a2.43,2.43,0,0,0-1.25.29,1,1,0,0,0-.49,1,1.1,1.1,0,0,0,.44,1,2.2,2.2,0,0,0,1.25.3Z"/><path class="cls-2" d="M314.06,284.31a4.4,4.4,0,0,1-.34,1.79,3.73,3.73,0,0,1-.93,1.31,4.51,4.51,0,0,1-1.41.84,5.79,5.79,0,0,1-1.74.35v2.7h-1.85v-2.7a6.18,6.18,0,0,1-1.76-.36,4.13,4.13,0,0,1-1.41-.84,3.73,3.73,0,0,1-.93-1.31,4.48,4.48,0,0,1-.34-1.78,4.43,4.43,0,0,1,.34-1.77,3.79,3.79,0,0,1,.94-1.32,4.39,4.39,0,0,1,1.4-.84,6.18,6.18,0,0,1,1.76-.34v-3.2h1.85V280a6,6,0,0,1,1.75.34,4.18,4.18,0,0,1,1.4.84,3.76,3.76,0,0,1,.93,1.32A4.27,4.27,0,0,1,314.06,284.31Zm-8.82,0a2.71,2.71,0,0,0,.71,2,2.84,2.84,0,0,0,1.84.77v-5.6a2.91,2.91,0,0,0-1.84.79A2.67,2.67,0,0,0,305.24,284.31Zm6.91,0a2.72,2.72,0,0,0-.7-2,2.81,2.81,0,0,0-1.81-.77v5.6a2.76,2.76,0,0,0,1.81-.77A2.7,2.7,0,0,0,312.15,284.31Z"/><path class="cls-2" d="M319.33,289.7a3.89,3.89,0,0,1-.72,1,2.72,2.72,0,0,1-.94.59,3.47,3.47,0,0,1-1.26.2,3.21,3.21,0,0,1-1.34-.25v-1.65a1.62,1.62,0,0,0,.56.27,2.43,2.43,0,0,0,.73.1,1.59,1.59,0,0,0,.9-.24,2.24,2.24,0,0,0,.64-.71l-3.35-8.81h2l2.33,6.45,2.3-6.45h1.73l-3,8.21A9.14,9.14,0,0,1,319.33,289.7Z"/><path class="cls-2" d="M329.53,285H326v3.5h-1.86v-8.3H326v3.29h3.5v-3.29h1.86v8.3h-1.86Z"/><path class="cls-2" d="M336,285.1h-.72v3.37h-1.85v-8.3h1.85v3.42h.79l2.64-3.42h1.95l-3.14,4,3.27,4.3h-2.2Z"/><path class="cls-2" d="M348.76,288.47h-6.7v-8.3h1.85V287h3.49v-6.8h1.86V287h1.25v3.87h-1.6Z"/><path class="cls-2" d="M353.74,286l3.84-5.79h1.82v8.3h-1.84v-5.76l-3.81,5.76H351.9v-8.3h1.84Z"/><path class="cls-2" d="M361.4,282.89a2.64,2.64,0,0,1,.26-1.19,2.43,2.43,0,0,1,.71-.85,3,3,0,0,1,1.1-.51,5.42,5.42,0,0,1,1.44-.17H368v8.3h-1.85v-2.81H365l-2,2.81h-2.08l2.28-3.21a2.59,2.59,0,0,1-1.32-.84A2.35,2.35,0,0,1,361.4,282.89Zm4.74,1.29v-2.54h-1.09a2.5,2.5,0,0,0-1.26.29,1,1,0,0,0-.49,1,1.1,1.1,0,0,0,.45,1,2.2,2.2,0,0,0,1.25.3Z"/><path class="cls-2" d="M373.43,282.89h7.25v1.44h-7.25Z"/><path class="cls-2" d="M388,288.47h-1.86v-8.3h1.7l.12,1.36h0a2.84,2.84,0,0,1,1-1.09,2.9,2.9,0,0,1,1.66-.43,2.71,2.71,0,0,1,1.55.43,2.2,2.2,0,0,1,.86,1.31,2.93,2.93,0,0,1,1.06-1.27,3,3,0,0,1,1.71-.47,3.09,3.09,0,0,1,1,.16,2,2,0,0,1,.81.49,2.28,2.28,0,0,1,.53.82,3.19,3.19,0,0,1,.19,1.17v5.82h-1.87V282.9a1.37,1.37,0,0,0-.35-1,1.41,1.41,0,0,0-1-.32,1.84,1.84,0,0,0-1.21.4,3.5,3.5,0,0,0-.79,1v5.57H391.3v-5.69a1.13,1.13,0,0,0-.35-1,1.56,1.56,0,0,0-.94-.26,2,2,0,0,0-1.23.35,3,3,0,0,0-.8.89Z"/><path class="cls-2" d="M405.14,287a2.86,2.86,0,0,1-.34.57,2.38,2.38,0,0,1-.53.52,2.58,2.58,0,0,1-.74.38,3.42,3.42,0,0,1-1,.14,3.29,3.29,0,0,1-1-.15,2.16,2.16,0,0,1-.81-.46,2,2,0,0,1-.54-.76,2.61,2.61,0,0,1-.2-1,2.3,2.3,0,0,1,1-2,5,5,0,0,1,2.85-.68h1.26V283a1.3,1.3,0,0,0-.42-1.12,2.28,2.28,0,0,0-1.37-.32,4.72,4.72,0,0,0-1.53.24,7.34,7.34,0,0,0-1.26.53v-1.55a6.76,6.76,0,0,1,1.32-.51,6.21,6.21,0,0,1,1.77-.24,4,4,0,0,1,2.47.66,2.47,2.47,0,0,1,.88,2.12v4.67c0,.12,0,.24,0,.37s0,.25,0,.36,0,.21,0,.28H405.3a5.34,5.34,0,0,1-.08-.62q0-.41-.06-.72Zm-2.11.17a1.8,1.8,0,0,0,1-.25,2.18,2.18,0,0,0,.63-.57,2.1,2.1,0,0,0,.33-.65,1.61,1.61,0,0,0,.1-.45v-.56h-1.15a3,3,0,0,0-1.62.35,1.1,1.1,0,0,0-.51,1,1.15,1.15,0,0,0,.31.86A1.25,1.25,0,0,0,403,287.19Z"/><path class="cls-2" d="M409.88,279.11a1.14,1.14,0,0,1-.84-.33,1.11,1.11,0,0,1-.33-.8,1.09,1.09,0,0,1,.33-.8,1.11,1.11,0,0,1,.84-.34,1.06,1.06,0,0,1,.82.34,1.09,1.09,0,0,1,.33.8,1.11,1.11,0,0,1-.33.8A1.09,1.09,0,0,1,409.88,279.11Zm.93,1.06v8.3H409v-8.3Z"/><path class="cls-2" d="M417,281.54a2.4,2.4,0,0,0-1.34.35,2.71,2.71,0,0,0-.86.89v5.69h-1.86v-8.3h1.76l.06,1.36h0a2.77,2.77,0,0,1,1-1.09,3.16,3.16,0,0,1,1.74-.43,3,3,0,0,1,2,.65,2.48,2.48,0,0,1,.78,2v5.81h-1.88v-5.61a1.21,1.21,0,0,0-.38-1A1.69,1.69,0,0,0,417,281.54Z"/><path class="cls-2" d="M424.91,290.7a9.31,9.31,0,0,1-1.84-3.24,12.26,12.26,0,0,1-.6-3.9,13.94,13.94,0,0,1,.15-2.05,13,13,0,0,1,.46-1.93,9.74,9.74,0,0,1,.76-1.74,7.13,7.13,0,0,1,1.07-1.46h1.87a6.29,6.29,0,0,0-1.11,1.43,9.07,9.07,0,0,0-.79,1.73,10.76,10.76,0,0,0-.46,1.92,14,14,0,0,0-.16,2.05,12.37,12.37,0,0,0,.61,3.91,9.45,9.45,0,0,0,1.91,3.28Z"/><path class="cls-2" d="M427.9,290.7a9.58,9.58,0,0,0,1.9-3.28,12.09,12.09,0,0,0,.61-3.91,14,14,0,0,0-.15-2.05,11.71,11.71,0,0,0-.47-1.92,9.7,9.7,0,0,0-.78-1.73,6.91,6.91,0,0,0-1.11-1.43h1.87a7.48,7.48,0,0,1,1.06,1.46,9.07,9.07,0,0,1,.76,1.74,11.82,11.82,0,0,1,.46,1.93,13.94,13.94,0,0,1,.15,2.05,12.26,12.26,0,0,1-.6,3.9,9.44,9.44,0,0,1-1.83,3.24Z"/><path class="cls-2" d="M178,328.63a5,5,0,0,1-1.74-.29,3.8,3.8,0,0,1-1.32-.85,3.7,3.7,0,0,1-.83-1.35,5.49,5.49,0,0,1-.29-1.83,5.17,5.17,0,0,1,.3-1.81,3.86,3.86,0,0,1,.84-1.35,3.66,3.66,0,0,1,1.33-.85,5.71,5.71,0,0,1,3.18-.12,3,3,0,0,1,1.06.48v1.27a3.87,3.87,0,0,0-1.15-.51,5.09,5.09,0,0,0-1.3-.16A2.77,2.77,0,0,0,176,322a3.37,3.37,0,0,0-.68,2.31,3.43,3.43,0,0,0,.66,2.31,2.63,2.63,0,0,0,2.08.75,5,5,0,0,0,1.38-.18,5.22,5.22,0,0,0,1.15-.47V328a4.86,4.86,0,0,1-2.53.65Z"/><path class="cls-2" d="M183,319a.94.94,0,0,1-.69-.26.9.9,0,0,1-.25-.65.94.94,0,0,1,.25-.66.9.9,0,0,1,.69-.27.84.84,0,0,1,.66.27,1,1,0,0,1,.24.66.93.93,0,0,1-.24.65A.87.87,0,0,1,183,319Zm.69,1.22v8.3h-1.41v-8.3Z"/><path class="cls-2" d="M189.38,328.54a3.8,3.8,0,0,1-.84.09,2.9,2.9,0,0,1-1-.17,1.94,1.94,0,0,1-.69-.48,1.74,1.74,0,0,1-.39-.67,2.53,2.53,0,0,1-.12-.77v-5.17h-1v-1.2h1v-1.75h1.4v1.75h2.42v1.2H187.7v5a1,1,0,0,0,.27.77,1.39,1.39,0,0,0,.93.24A1.92,1.92,0,0,0,190,327v1.27A3.09,3.09,0,0,1,189.38,328.54Z"/><path class="cls-2" d="M195.46,329.7a4.23,4.23,0,0,1-.72,1,2.5,2.5,0,0,1-.89.6,2.9,2.9,0,0,1-1.14.2,3.65,3.65,0,0,1-.59,0,1.93,1.93,0,0,1-.5-.13v-1.35a1.33,1.33,0,0,0,.45.2,2.21,2.21,0,0,0,.59.08,1.61,1.61,0,0,0,1-.29,2.92,2.92,0,0,0,.74-.9L191,320.17h1.55l2.64,7,2.63-7h1.36l-3.11,8.21A9.08,9.08,0,0,1,195.46,329.7Z"/><path class="cls-2" d="M203.38,322.12V321h7.73v1.12Zm0,3V324h7.73v1.12Z"/><path class="cls-2" d="M218.1,319.37a.9.9,0,0,1-.26.68,1,1,0,0,1-.71.26.94.94,0,0,1-.72-.29,1.1,1.1,0,0,1-.29-.84,2.43,2.43,0,0,1,.09-.65,3.12,3.12,0,0,1,.26-.62c.11-.19.22-.37.34-.54a2.25,2.25,0,0,1,.35-.43h1a4.23,4.23,0,0,0-.46.64,4.54,4.54,0,0,0-.36.86.88.88,0,0,1,.53.34A.93.93,0,0,1,218.1,319.37Zm2.63,0a.91.91,0,0,1-.27.68,1,1,0,0,1-.71.26A.94.94,0,0,1,219,320a1.14,1.14,0,0,1-.29-.84,2.44,2.44,0,0,1,.1-.65,3.09,3.09,0,0,1,.25-.62c.11-.19.22-.37.34-.54a3.39,3.39,0,0,1,.35-.43h1a3.61,3.61,0,0,0-.45.64,3.53,3.53,0,0,0-.36.86.91.91,0,0,1,.53.34A1,1,0,0,1,220.73,319.37Z"/><path class="cls-2" d="M228.79,325.05l3.73-8.05h1.95v11.47H233v-9.23l-3.52,7.47-.75,0H228v0l-3.47-7.6v9.36h-1.42V317h2.09Z"/><path class="cls-2" d="M240.36,328.63a4.2,4.2,0,0,1-1.59-.29,3.53,3.53,0,0,1-1.27-.84,4,4,0,0,1-.84-1.35,5.76,5.76,0,0,1,0-3.67,4,4,0,0,1,.84-1.35,3.63,3.63,0,0,1,1.27-.83,4.53,4.53,0,0,1,3.19,0,3.63,3.63,0,0,1,1.27.83,3.84,3.84,0,0,1,.85,1.35,5.59,5.59,0,0,1,0,3.67,3.84,3.84,0,0,1-.85,1.35,3.53,3.53,0,0,1-1.27.84A4.21,4.21,0,0,1,240.36,328.63Zm0-1.25a2.86,2.86,0,0,0,1-.18,2.11,2.11,0,0,0,.82-.56,2.5,2.5,0,0,0,.55-1,5,5,0,0,0,0-2.72,2.5,2.5,0,0,0-.55-1,2.11,2.11,0,0,0-.82-.56,3,3,0,0,0-2.06,0,2.19,2.19,0,0,0-.8.56,2.62,2.62,0,0,0-.54,1,5,5,0,0,0,0,2.72,2.62,2.62,0,0,0,.54,1,2.19,2.19,0,0,0,.8.56A2.86,2.86,0,0,0,240.36,327.38Z"/><path class="cls-2" d="M249.69,328.63a5,5,0,0,1-1.74-.29,3.62,3.62,0,0,1-1.32-.85,3.7,3.7,0,0,1-.83-1.35,5.49,5.49,0,0,1-.29-1.83,5.17,5.17,0,0,1,.3-1.81,3.59,3.59,0,0,1,2.17-2.2,5.13,5.13,0,0,1,1.77-.29,5.24,5.24,0,0,1,1.41.17,2.84,2.84,0,0,1,1.05.48v1.27a3.93,3.93,0,0,0-1.14-.51,5.14,5.14,0,0,0-1.3-.16,2.75,2.75,0,0,0-2.14.75,3.37,3.37,0,0,0-.68,2.31,3.43,3.43,0,0,0,.66,2.31,2.61,2.61,0,0,0,2.08.75,5,5,0,0,0,1.38-.18,5.34,5.34,0,0,0,1.14-.47V328a4.55,4.55,0,0,1-1.08.46A4.88,4.88,0,0,1,249.69,328.63Z"/><path class="cls-2" d="M256.25,324.94h-.74v3.53H254.1v-8.3h1.41v3.57h.8l2.91-3.57h1.6l-3.4,4.09,3.47,4.21h-1.72Z"/><path class="cls-2" d="M262.38,320.17h3.1a4,4,0,0,1,2.27.52,1.82,1.82,0,0,1,.77,1.62,1.78,1.78,0,0,1-.38,1.18,2.11,2.11,0,0,1-1.06.63,1.84,1.84,0,0,1,1.77,2,2.2,2.2,0,0,1-.25,1.09,2,2,0,0,1-.71.75,2.93,2.93,0,0,1-1.08.41,6.47,6.47,0,0,1-1.36.13h-3.07Zm1.4,1.2v2.25h1.57a2.57,2.57,0,0,0,1.29-.28,1,1,0,0,0,.05-1.73,2.53,2.53,0,0,0-1.23-.24Zm0,3.37v2.53h1.65a6.51,6.51,0,0,0,.81,0,2.05,2.05,0,0,0,.62-.2,1.06,1.06,0,0,0,.56-1,1.07,1.07,0,0,0-.5-1,3.06,3.06,0,0,0-1.49-.29Z"/><path class="cls-2" d="M275.83,326.89a5.16,5.16,0,0,1-.37.6,2.74,2.74,0,0,1-.56.57,2.68,2.68,0,0,1-.79.41,3.11,3.11,0,0,1-1.06.16,2.57,2.57,0,0,1-1.81-.63,2.34,2.34,0,0,1-.69-1.82,2.26,2.26,0,0,1,.95-2,4.91,4.91,0,0,1,2.71-.64h1.56v-.68a1.53,1.53,0,0,0-.45-1.24,2.51,2.51,0,0,0-1.54-.36,4.37,4.37,0,0,0-1.45.24,8.4,8.4,0,0,0-1.24.57v-1.26a7.12,7.12,0,0,1,1.21-.54A5.27,5.27,0,0,1,274,320a3.74,3.74,0,0,1,2.39.65,2.41,2.41,0,0,1,.81,2v4.47c0,.09,0,.2,0,.33s0,.24,0,.37,0,.25,0,.36,0,.21,0,.28H276a5.27,5.27,0,0,1-.08-.63,6.45,6.45,0,0,1,0-.71Zm-2.48.49a2.19,2.19,0,0,0,1.12-.27,2.49,2.49,0,0,0,.75-.64,2.76,2.76,0,0,0,.42-.7,2,2,0,0,0,.13-.49v-.62h-1.41a3.43,3.43,0,0,0-1.83.37,1.19,1.19,0,0,0-.57,1.08,1.3,1.3,0,0,0,.33.92A1.4,1.4,0,0,0,273.35,327.38Z"/><path class="cls-2" d="M281.11,318.06a2.05,2.05,0,0,1-.1.65,3,3,0,0,1-.25.62,5.87,5.87,0,0,1-.69,1h-1a4.35,4.35,0,0,0,.46-.65,4.43,4.43,0,0,0,.36-.85.93.93,0,0,1-.53-.34,1,1,0,0,1-.19-.59.9.9,0,0,1,.26-.68.94.94,0,0,1,.71-.26,1,1,0,0,1,.72.28A1.16,1.16,0,0,1,281.11,318.06Zm2.62,0a2.37,2.37,0,0,1-.09.65,3.7,3.7,0,0,1-.26.62,4.64,4.64,0,0,1-.69,1h-1a3.32,3.32,0,0,0,.48-.65,3.87,3.87,0,0,0,.34-.85,1,1,0,0,1-.53-.34,1,1,0,0,1,.07-1.27,1,1,0,0,1,.72-.26,1,1,0,0,1,.72.28A1.15,1.15,0,0,1,283.73,318.06Z"/><rect class="cls-3" x="320" y="305.5" width="220" height="35" rx="2"/><path class="cls-2" d="M340.74,326.89a5.16,5.16,0,0,1-.37.6,3,3,0,0,1-.56.57,2.68,2.68,0,0,1-.79.41,3.17,3.17,0,0,1-1.07.16,2.55,2.55,0,0,1-1.8-.63,2.34,2.34,0,0,1-.69-1.82,2.26,2.26,0,0,1,1-2,4.89,4.89,0,0,1,2.71-.64h1.55v-.68a1.56,1.56,0,0,0-.44-1.24,2.51,2.51,0,0,0-1.54-.36,4.43,4.43,0,0,0-1.46.24,8.27,8.27,0,0,0-1.23.57v-1.26a6.77,6.77,0,0,1,1.21-.54,5.22,5.22,0,0,1,1.67-.26,3.74,3.74,0,0,1,2.39.65,2.41,2.41,0,0,1,.81,2v4.47c0,.09,0,.2,0,.33s0,.24,0,.37,0,.25,0,.36,0,.21,0,.28h-1.28q0-.23-.09-.63c0-.27,0-.51,0-.71Zm-2.48.49a2.19,2.19,0,0,0,1.12-.27,2.49,2.49,0,0,0,.75-.64,2.76,2.76,0,0,0,.42-.7,1.82,1.82,0,0,0,.12-.49v-.62h-1.4a3.45,3.45,0,0,0-1.84.37,1.19,1.19,0,0,0-.56,1.08,1.3,1.3,0,0,0,.33.92A1.4,1.4,0,0,0,338.26,327.38Z"/><path class="cls-2" d="M346.78,322a2.31,2.31,0,0,0-1.08,1.16v5.28h-1.41v-8.3h1.23l.15,1.81h0a3.78,3.78,0,0,1,1-1.29,3.18,3.18,0,0,1,1.69-.68v1.57A4.23,4.23,0,0,0,346.78,322Z"/><path class="cls-2" d="M356.48,327.77a3.22,3.22,0,0,1-.43.27,4.06,4.06,0,0,1-.62.28,4.67,4.67,0,0,1-.84.22,5.44,5.44,0,0,1-1,.09,4.23,4.23,0,0,1-3.18-1.13,4.41,4.41,0,0,1-1.09-3.19,5.17,5.17,0,0,1,.3-1.81,4,4,0,0,1,.82-1.35,3.6,3.6,0,0,1,1.25-.85,4.22,4.22,0,0,1,1.57-.29,4.07,4.07,0,0,1,1.6.3,2.85,2.85,0,0,1,1.16.9,3.41,3.41,0,0,1,.62,1.46,6,6,0,0,1,0,2h-5.85a2.87,2.87,0,0,0,.8,2,3.06,3.06,0,0,0,2.14.66,4.53,4.53,0,0,0,1.65-.27,5.35,5.35,0,0,0,1.15-.6Zm-3.29-6.51a2.29,2.29,0,0,0-1.57.56,2.6,2.6,0,0,0-.83,1.69h4.46a2,2,0,0,0-.53-1.7A2.14,2.14,0,0,0,353.19,321.26Z"/><path class="cls-2" d="M363.22,326.89a5.16,5.16,0,0,1-.37.6,3,3,0,0,1-.56.57,2.68,2.68,0,0,1-.79.41,3.17,3.17,0,0,1-1.07.16,2.59,2.59,0,0,1-1.81-.63,2.38,2.38,0,0,1-.68-1.82,2.24,2.24,0,0,1,.95-2,4.89,4.89,0,0,1,2.71-.64h1.55v-.68a1.56,1.56,0,0,0-.44-1.24,2.53,2.53,0,0,0-1.54-.36,4.43,4.43,0,0,0-1.46.24,7.82,7.82,0,0,0-1.23.57v-1.26a6.77,6.77,0,0,1,1.21-.54,5.22,5.22,0,0,1,1.67-.26,3.74,3.74,0,0,1,2.39.65,2.41,2.41,0,0,1,.81,2v4.47c0,.09,0,.2,0,.33s0,.24,0,.37,0,.25,0,.36,0,.21,0,.28h-1.28q0-.23-.09-.63c0-.27,0-.51,0-.71Zm-2.48.49a2.21,2.21,0,0,0,1.12-.27,2.49,2.49,0,0,0,.75-.64,2.76,2.76,0,0,0,.42-.7,1.82,1.82,0,0,0,.12-.49v-.62h-1.4a3.45,3.45,0,0,0-1.84.37,1.19,1.19,0,0,0-.57,1.08,1.3,1.3,0,0,0,.34.92A1.4,1.4,0,0,0,360.74,327.38Z"/><path class="cls-2" d="M369.67,322.12V321h7.72v1.12Zm0,3V324h7.72v1.12Z"/><path class="cls-2" d="M384.38,319.37a.9.9,0,0,1-.26.68,1,1,0,0,1-.71.26.94.94,0,0,1-.72-.29,1.14,1.14,0,0,1-.29-.84,2.1,2.1,0,0,1,.1-.65,3.09,3.09,0,0,1,.25-.62c.11-.19.22-.37.34-.54a2.7,2.7,0,0,1,.35-.43h1a4.23,4.23,0,0,0-.46.64,4.54,4.54,0,0,0-.36.86.88.88,0,0,1,.53.34A.93.93,0,0,1,384.38,319.37Zm2.63,0a.91.91,0,0,1-.27.68,1,1,0,0,1-.71.26.94.94,0,0,1-.72-.29,1.14,1.14,0,0,1-.29-.84,2.44,2.44,0,0,1,.1-.65,2.62,2.62,0,0,1,.26-.62,4.86,4.86,0,0,1,.33-.54,3.39,3.39,0,0,1,.35-.43h1a3.61,3.61,0,0,0-.45.64,3.53,3.53,0,0,0-.36.86.91.91,0,0,1,.53.34A1,1,0,0,1,387,319.37Z"/><path class="cls-2" d="M392.13,323.56h-1.22v4.91h-1.5V317h1.5v5.2H392l4.1-5.2h1.69l-4.52,5.73,4.7,5.74h-1.87Z"/><path class="cls-2" d="M403.49,328.63a3,3,0,0,1-1.66-.45,3.31,3.31,0,0,1-1.11-1.23v4.35h-1.41V320.17h1.23l.15,1.61a3.43,3.43,0,0,1,1.12-1.29,3,3,0,0,1,1.74-.48,3.89,3.89,0,0,1,1.39.26,3.18,3.18,0,0,1,1.16.8,3.75,3.75,0,0,1,.8,1.35,6.17,6.17,0,0,1,0,3.8,4.1,4.1,0,0,1-.82,1.35,3.48,3.48,0,0,1-1.18.8A4,4,0,0,1,403.49,328.63Zm-.21-1.25a2.25,2.25,0,0,0,1.78-.76,4.21,4.21,0,0,0,0-4.59,2.26,2.26,0,0,0-1.78-.77,2.68,2.68,0,0,0-1,.19,2.3,2.3,0,0,0-.81.57,2.83,2.83,0,0,0-.55,1,4.66,4.66,0,0,0,0,2.7,3,3,0,0,0,.55,1,2.07,2.07,0,0,0,.81.57A2.88,2.88,0,0,0,403.28,327.38Z"/><path class="cls-2" d="M413.7,326.89a5.16,5.16,0,0,1-.37.6,3,3,0,0,1-.56.57,2.81,2.81,0,0,1-.79.41,3.17,3.17,0,0,1-1.07.16,2.59,2.59,0,0,1-1.81-.63,2.38,2.38,0,0,1-.68-1.82,2.24,2.24,0,0,1,.95-2,4.89,4.89,0,0,1,2.71-.64h1.55v-.68a1.53,1.53,0,0,0-.45-1.24,2.47,2.47,0,0,0-1.53-.36,4.43,4.43,0,0,0-1.46.24,7.82,7.82,0,0,0-1.23.57v-1.26a6.77,6.77,0,0,1,1.21-.54,5.18,5.18,0,0,1,1.67-.26,3.69,3.69,0,0,1,2.38.65,2.38,2.38,0,0,1,.82,2v4.47c0,.09,0,.2,0,.33s0,.24,0,.37l0,.36c0,.11,0,.21,0,.28h-1.28q0-.23-.09-.63c0-.27,0-.51,0-.71Zm-2.48.49a2.21,2.21,0,0,0,1.12-.27,2.49,2.49,0,0,0,.75-.64,2.45,2.45,0,0,0,.41-.7,1.6,1.6,0,0,0,.13-.49v-.62h-1.41a3.43,3.43,0,0,0-1.83.37,1.19,1.19,0,0,0-.57,1.08,1.3,1.3,0,0,0,.34.92A1.38,1.38,0,0,0,411.22,327.38Z"/><path class="cls-2" d="M420.83,328.63a4.94,4.94,0,0,1-1.73-.29,3.62,3.62,0,0,1-1.32-.85,3.72,3.72,0,0,1-.84-1.35,5.5,5.5,0,0,1-.28-1.83,5.17,5.17,0,0,1,.29-1.81,3.86,3.86,0,0,1,.84-1.35,3.75,3.75,0,0,1,1.33-.85,5.19,5.19,0,0,1,1.78-.29,5.12,5.12,0,0,1,1.4.17,3,3,0,0,1,1.06.48v1.27a3.93,3.93,0,0,0-1.14-.51,5.22,5.22,0,0,0-1.31-.16,2.73,2.73,0,0,0-2.13.75,3.32,3.32,0,0,0-.68,2.31,3.48,3.48,0,0,0,.65,2.31,2.63,2.63,0,0,0,2.08.75,5.14,5.14,0,0,0,1.39-.18,5.34,5.34,0,0,0,1.14-.47V328a4.86,4.86,0,0,1-2.53.65Z"/><path class="cls-2" d="M430.67,324.79h-4v3.68h-1.41v-8.3h1.41v3.42h4v-3.42h1.41v8.3h-1.41Z"/><path class="cls-2" d="M439.25,326.89a5.16,5.16,0,0,1-.37.6,3,3,0,0,1-.56.57,2.68,2.68,0,0,1-.79.41,3.17,3.17,0,0,1-1.07.16,2.57,2.57,0,0,1-1.8-.63,2.34,2.34,0,0,1-.69-1.82,2.26,2.26,0,0,1,.95-2,4.89,4.89,0,0,1,2.71-.64h1.55v-.68a1.52,1.52,0,0,0-.44-1.24,2.51,2.51,0,0,0-1.54-.36,4.43,4.43,0,0,0-1.46.24,8.77,8.77,0,0,0-1.23.57v-1.26a6.77,6.77,0,0,1,1.21-.54,5.22,5.22,0,0,1,1.67-.26,3.74,3.74,0,0,1,2.39.65,2.41,2.41,0,0,1,.81,2v4.47c0,.09,0,.2,0,.33s0,.24,0,.37,0,.25,0,.36,0,.21,0,.28h-1.28q0-.23-.09-.63c0-.27,0-.51,0-.71Zm-2.48.49a2.19,2.19,0,0,0,1.12-.27,2.49,2.49,0,0,0,.75-.64,2.76,2.76,0,0,0,.42-.7,1.82,1.82,0,0,0,.12-.49v-.62h-1.4a3.45,3.45,0,0,0-1.84.37,1.21,1.21,0,0,0-.56,1.08,1.3,1.3,0,0,0,.33.92A1.4,1.4,0,0,0,436.77,327.38Z"/><path class="cls-2" d="M442.8,322.86a2.64,2.64,0,0,1,.26-1.21,2.14,2.14,0,0,1,.72-.83,3.08,3.08,0,0,1,1.1-.49,5.58,5.58,0,0,1,1.39-.16h2.67v8.3h-1.4v-3H446l-2.13,3h-1.68l2.4-3.36a2.84,2.84,0,0,1-1.34-.78A2.14,2.14,0,0,1,442.8,322.86Zm4.74,1.4v-2.89h-1.27a2.91,2.91,0,0,0-1.47.33,1.18,1.18,0,0,0-.58,1.09,1.25,1.25,0,0,0,.52,1.13,2.57,2.57,0,0,0,1.45.34Z"/><path class="cls-2" d="M454.77,320.17h6.65v8.3H460v-7.1h-3.84v7.1h-1.41Z"/><path class="cls-2" d="M464.37,325.9a11,11,0,0,0,.29-2.21c0-.93.06-2.1.06-3.52h5.58v8.3h-1.42v-7.1h-2.83c0,1.14-.05,2.15-.11,3a10,10,0,0,1-.36,2.24,2.91,2.91,0,0,1-.82,1.38,2.06,2.06,0,0,1-1.43.47h-.27V327.1h.2C463.81,327.11,464.18,326.71,464.37,325.9Z"/><path class="cls-2" d="M476,328.63a4.11,4.11,0,0,1-1.58-.29,3.56,3.56,0,0,1-1.28-.84,4,4,0,0,1-.84-1.35,5.76,5.76,0,0,1,0-3.67,4,4,0,0,1,.84-1.35,3.68,3.68,0,0,1,1.28-.83A4.11,4.11,0,0,1,476,320a4.18,4.18,0,0,1,1.6.29,3.63,3.63,0,0,1,1.27.83,3.84,3.84,0,0,1,.85,1.35,5.59,5.59,0,0,1,0,3.67,3.84,3.84,0,0,1-.85,1.35,3.53,3.53,0,0,1-1.27.84A4.18,4.18,0,0,1,476,328.63Zm0-1.25a2.86,2.86,0,0,0,1-.18,2.22,2.22,0,0,0,.83-.56,2.62,2.62,0,0,0,.54-1,5,5,0,0,0,0-2.72,2.62,2.62,0,0,0-.54-1,2.22,2.22,0,0,0-.83-.56,2.86,2.86,0,0,0-1-.18,2.8,2.8,0,0,0-1,.18,2.15,2.15,0,0,0-.81.56,2.62,2.62,0,0,0-.54,1,5,5,0,0,0,0,2.72,2.62,2.62,0,0,0,.54,1,2.15,2.15,0,0,0,.81.56A2.8,2.8,0,0,0,476,327.38Z"/><path class="cls-2" d="M492.11,327.27h1.25v3.57h-1.2l-.18-2.37H481.75v-8.3h1.4v7.1h3.07v-7.1h1.41v7.1h3.08v-7.1h1.4Z"/><path class="cls-2" d="M499.62,326.89a5.16,5.16,0,0,1-.37.6,3,3,0,0,1-.56.57,2.81,2.81,0,0,1-.79.41,3.17,3.17,0,0,1-1.07.16A2.59,2.59,0,0,1,495,328a2.38,2.38,0,0,1-.68-1.82,2.24,2.24,0,0,1,1-2,4.89,4.89,0,0,1,2.71-.64h1.55v-.68a1.53,1.53,0,0,0-.45-1.24,2.47,2.47,0,0,0-1.53-.36,4.43,4.43,0,0,0-1.46.24,7.82,7.82,0,0,0-1.23.57v-1.26a6.77,6.77,0,0,1,1.21-.54,5.18,5.18,0,0,1,1.67-.26,3.69,3.69,0,0,1,2.38.65,2.38,2.38,0,0,1,.82,2v4.47c0,.09,0,.2,0,.33s0,.24,0,.37l0,.36c0,.11,0,.21,0,.28h-1.28q0-.23-.09-.63c0-.27,0-.51,0-.71Zm-2.48.49a2.21,2.21,0,0,0,1.12-.27,2.49,2.49,0,0,0,.75-.64,2.45,2.45,0,0,0,.41-.7,1.6,1.6,0,0,0,.13-.49v-.62h-1.41a3.43,3.43,0,0,0-1.83.37,1.19,1.19,0,0,0-.57,1.08,1.3,1.3,0,0,0,.34.92A1.38,1.38,0,0,0,497.14,327.38Z"/><path class="cls-2" d="M502.8,327.27a1.77,1.77,0,0,0,.7-.85,5.77,5.77,0,0,0,.4-1.45,16.14,16.14,0,0,0,.2-2.08c0-.8.08-1.71.11-2.72h5.71v7.1h1.25v3.57h-1.23l-.18-2.37h-6.18l-.14,2.37h-1.26v-3.57Zm5.71,0v-5.9h-3a34.23,34.23,0,0,1-.29,3.77,4.84,4.84,0,0,1-.75,2.13Z"/><path class="cls-2" d="M518.82,325.7a2.84,2.84,0,0,1-.26,1.25,2.34,2.34,0,0,1-.72.87,3.16,3.16,0,0,1-1.1.49,5.61,5.61,0,0,1-1.4.16h-2.75v-8.3H514v2.89h1.44a4.25,4.25,0,0,1,2.48.63A2.27,2.27,0,0,1,518.82,325.7ZM514,324.26v3h1.34a2.8,2.8,0,0,0,1.48-.34,1.23,1.23,0,0,0,.57-1.15,1.3,1.3,0,0,0-.51-1.16,2.47,2.47,0,0,0-1.44-.36Z"/><path class="cls-2" d="M521.7,318.06a2.38,2.38,0,0,1-.1.65,3,3,0,0,1-.26.62,4.26,4.26,0,0,1-.34.55c-.12.17-.24.31-.34.43h-1a3.7,3.7,0,0,0,.45-.65,3.45,3.45,0,0,0,.36-.85,1,1,0,0,1-.53-.34,1,1,0,0,1-.19-.59.91.91,0,0,1,.27-.68.93.93,0,0,1,.71-.26,1,1,0,0,1,.72.28A1.16,1.16,0,0,1,521.7,318.06Zm2.62,0a2.05,2.05,0,0,1-.1.65,3,3,0,0,1-.25.62,5.87,5.87,0,0,1-.69,1h-1a3.29,3.29,0,0,0,.47-.65,3.44,3.44,0,0,0,.35-.85.93.93,0,0,1-.53-.34,1,1,0,0,1-.19-.59.9.9,0,0,1,.26-.68.94.94,0,0,1,.71-.26,1,1,0,0,1,.72.28A1.16,1.16,0,0,1,524.32,318.06Z"/><path class="cls-2" d="M173.69,441.45a9,9,0,0,1-3.27-.58,7.31,7.31,0,0,1-2.65-1.7A8.16,8.16,0,0,1,166,436.4a11.46,11.46,0,0,1,0-7.61,7.93,7.93,0,0,1,1.76-2.76,7.14,7.14,0,0,1,2.65-1.68,9.21,9.21,0,0,1,3.27-.57,9.34,9.34,0,0,1,3.3.57,7.24,7.24,0,0,1,2.65,1.67,7.72,7.72,0,0,1,1.77,2.74,11.78,11.78,0,0,1,0,7.6,8,8,0,0,1-1.77,2.78,7.36,7.36,0,0,1-2.65,1.72A9.13,9.13,0,0,1,173.69,441.45Zm0-2.5a6.51,6.51,0,0,0,2.1-.33,4.1,4.1,0,0,0,1.68-1.1,5.46,5.46,0,0,0,1.12-2,9.35,9.35,0,0,0,.41-2.94,9.2,9.2,0,0,0-.41-2.93,5.54,5.54,0,0,0-1.12-2,4.2,4.2,0,0,0-1.68-1.1,6.25,6.25,0,0,0-2.1-.35,6.15,6.15,0,0,0-2.09.35,4.31,4.31,0,0,0-1.67,1.1,5.38,5.38,0,0,0-1.11,2,9.2,9.2,0,0,0-.41,2.93,9.35,9.35,0,0,0,.41,2.94,5.3,5.3,0,0,0,1.11,2,4.2,4.2,0,0,0,1.67,1.1A6.4,6.4,0,0,0,173.69,439Z"/><path class="cls-2" d="M190.15,431v10.2h-2.78V431H183.6v-2.26H194V431Z"/><path class="cls-2" d="M194.88,439a3.29,3.29,0,0,0,.88-1.32,10.09,10.09,0,0,0,.51-2.1c.13-.84.23-1.82.29-2.94s.12-2.4.17-3.84h9.12V439h1.87v5.81H205.3l-.22-3.55h-8.59l-.22,3.55h-2.44V439Zm8.19,0V431h-3.94a47.9,47.9,0,0,1-.4,4.88,8.84,8.84,0,0,1-.9,3.06Z"/><path class="cls-2" d="M219.94,440.3l-.65.37a6.13,6.13,0,0,1-.91.37,9.15,9.15,0,0,1-2.81.41,6.9,6.9,0,0,1-5.12-1.71,6.45,6.45,0,0,1-1.7-4.77,7.66,7.66,0,0,1,.46-2.71,5.75,5.75,0,0,1,1.27-2,5.49,5.49,0,0,1,2-1.27,6.58,6.58,0,0,1,2.47-.45,6.49,6.49,0,0,1,2.51.46,4.39,4.39,0,0,1,1.83,1.37,5.34,5.34,0,0,1,1,2.25,9.19,9.19,0,0,1,0,3.15h-8.62a3.8,3.8,0,0,0,1.13,2.55,4.42,4.42,0,0,0,3,.85,7.18,7.18,0,0,0,2.49-.37,11.78,11.78,0,0,0,1.69-.78Zm-5-9.58a3,3,0,0,0-2.07.74,3.78,3.78,0,0,0-1.1,2.21h5.86a2.91,2.91,0,0,0-.68-2.23A2.72,2.72,0,0,0,214.9,430.72Z"/><path class="cls-2" d="M223.87,436.79a18.35,18.35,0,0,0,.35-3.18q.09-2,.09-4.86h8.95v12.46h-2.79V431h-3.62c0,1.65-.1,3.1-.19,4.37a13.17,13.17,0,0,1-.59,3.2,4.4,4.4,0,0,1-1.27,2,3.3,3.3,0,0,1-2.22.7h-.37l-.38,0v-2.59a2.29,2.29,0,0,0,.36.05,1.32,1.32,0,0,0,1.05-.47A3.61,3.61,0,0,0,223.87,436.79Z"/><path class="cls-2" d="M246.43,436.91a4.39,4.39,0,0,1-.39,1.9,3.77,3.77,0,0,1-1.09,1.34,4.82,4.82,0,0,1-1.66.79,7.76,7.76,0,0,1-2.11.27h-4.8V428.75h2.78v4h2.09a6.37,6.37,0,0,1,3.82,1A3.61,3.61,0,0,1,246.43,436.91ZM239.16,435v4H241a3.39,3.39,0,0,0,1.87-.46,1.72,1.72,0,0,0,.72-1.55,1.78,1.78,0,0,0-.64-1.55A3.22,3.22,0,0,0,241,435Z"/><path class="cls-2" d="M256.75,436H251.5v5.26h-2.79V428.75h2.79v4.95h5.25v-4.95h2.79v12.46h-2.79Z"/><path class="cls-2" d="M269.83,439a4.38,4.38,0,0,1-.51.87,3.9,3.9,0,0,1-.79.78,4,4,0,0,1-1.12.56,4.62,4.62,0,0,1-1.51.22,4.83,4.83,0,0,1-1.51-.23,3.47,3.47,0,0,1-1.22-.68,3.37,3.37,0,0,1-.81-1.14,3.91,3.91,0,0,1-.3-1.58,3.44,3.44,0,0,1,1.51-3.06,7.59,7.59,0,0,1,4.27-1h1.9V433a2,2,0,0,0-.63-1.7,3.5,3.5,0,0,0-2.06-.46,7.37,7.37,0,0,0-2.29.34,11.07,11.07,0,0,0-1.89.81v-2.33a10.52,10.52,0,0,1,2-.77,9.47,9.47,0,0,1,2.67-.36,6,6,0,0,1,3.7,1,3.71,3.71,0,0,1,1.31,3.18v6.5c0,.15,0,.31,0,.49l0,.57,0,.54c0,.17,0,.31.05.42h-2.57c0-.23-.09-.54-.13-.94s-.07-.76-.08-1.08Zm-3.16.27a2.76,2.76,0,0,0,1.47-.37,3.48,3.48,0,0,0,.95-.87,3.1,3.1,0,0,0,.5-1,2.67,2.67,0,0,0,.15-.67v-.84H268a4.47,4.47,0,0,0-2.42.51,1.65,1.65,0,0,0-.77,1.46,1.7,1.7,0,0,0,.47,1.28A1.87,1.87,0,0,0,266.67,439.29Z"/><path class="cls-2" d="M275.38,432.83a4,4,0,0,1,.38-1.77,3.62,3.62,0,0,1,1.07-1.29,4.8,4.8,0,0,1,1.66-.77,8.85,8.85,0,0,1,2.14-.25h4.64v12.46h-2.79V437h-1.77l-3,4.23h-3.12l3.44-4.83a3.9,3.9,0,0,1-2-1.24A3.61,3.61,0,0,1,275.38,432.83Zm7.1,1.95V431h-1.63a3.61,3.61,0,0,0-1.88.43,1.54,1.54,0,0,0-.74,1.44,1.68,1.68,0,0,0,.66,1.49,3.34,3.34,0,0,0,1.89.46Z"/><path class="cls-2" d="M299.07,441.45a7,7,0,0,1-2.45-.43,5.6,5.6,0,0,1-2-1.26,5.88,5.88,0,0,1-1.29-2,8.34,8.34,0,0,1,0-5.52,5.79,5.79,0,0,1,1.29-2,5.44,5.44,0,0,1,2-1.25,7.33,7.33,0,0,1,4.89,0,5.48,5.48,0,0,1,2,1.25,5.85,5.85,0,0,1,1.32,2,8.18,8.18,0,0,1,0,5.52,6,6,0,0,1-1.32,2,5.64,5.64,0,0,1-2,1.26A6.91,6.91,0,0,1,299.07,441.45Zm0-2.31a3.09,3.09,0,0,0,2.38-1,5.68,5.68,0,0,0,0-6.29,3.28,3.28,0,0,0-4.75,0,5.68,5.68,0,0,0,0,6.29A3.09,3.09,0,0,0,299.07,439.14Z"/><path class="cls-2" d="M319.3,435a7.39,7.39,0,0,1-.48,2.76,5.79,5.79,0,0,1-1.31,2,5.37,5.37,0,0,1-2,1.24,7.06,7.06,0,0,1-2.46.42,6.39,6.39,0,0,1-2.47-.46,5,5,0,0,1-1.94-1.38,6.48,6.48,0,0,1-1.29-2.3,10.22,10.22,0,0,1-.47-3.25,29.66,29.66,0,0,1,.15-3.12,12.83,12.83,0,0,1,.49-2.55,7,7,0,0,1,.95-2,5.65,5.65,0,0,1,1.53-1.47,6.11,6.11,0,0,1,2.37-.89,21.69,21.69,0,0,1,2.58-.24,12.9,12.9,0,0,0,2.2-.25,5.44,5.44,0,0,0,1.28-.47v2.47a4.07,4.07,0,0,1-.55.28,4.75,4.75,0,0,1-.68.18l-.89.13-1.17.11-2.23.22a4.15,4.15,0,0,0-1.8.62,3.63,3.63,0,0,0-1.35,1.72,9.7,9.7,0,0,0-.57,2.69q1.2-2.72,4.63-2.71a5.36,5.36,0,0,1,2.1.42,5.1,5.1,0,0,1,1.74,1.21,5.91,5.91,0,0,1,1.18,1.95A7.61,7.61,0,0,1,319.3,435Zm-6.22,4.12a3.15,3.15,0,0,0,2.41-1,5.42,5.42,0,0,0,0-6.13,3.15,3.15,0,0,0-2.41-1,3.07,3.07,0,0,0-2.36,1,4.26,4.26,0,0,0-.93,3,4.38,4.38,0,0,0,.94,3.11A3.07,3.07,0,0,0,313.08,439.14Z"/><path class="cls-2" d="M322.39,436.79a18.35,18.35,0,0,0,.35-3.18q.09-2,.09-4.86h8.95v12.46H329V431h-3.62c0,1.65-.1,3.1-.19,4.37a13.17,13.17,0,0,1-.59,3.2,4.4,4.4,0,0,1-1.27,2,3.3,3.3,0,0,1-2.22.7h-.37l-.38,0v-2.59a2.29,2.29,0,0,0,.36.05,1.32,1.32,0,0,0,1.05-.47A3.61,3.61,0,0,0,322.39,436.79Z"/><path class="cls-2" d="M342.1,439a4.44,4.44,0,0,1-.52.87,3.66,3.66,0,0,1-.79.78,3.79,3.79,0,0,1-1.12.56,4.58,4.58,0,0,1-1.51.22,4.88,4.88,0,0,1-1.51-.23,3.42,3.42,0,0,1-1.21-.68,3.27,3.27,0,0,1-.82-1.14,3.91,3.91,0,0,1-.3-1.58,3.46,3.46,0,0,1,1.51-3.06,7.63,7.63,0,0,1,4.28-1H342V433a2,2,0,0,0-.62-1.7,3.56,3.56,0,0,0-2.07-.46,7.42,7.42,0,0,0-2.29.34,10.62,10.62,0,0,0-1.88.81v-2.33a10,10,0,0,1,2-.77,9.35,9.35,0,0,1,2.66-.36,6,6,0,0,1,3.71,1,3.74,3.74,0,0,1,1.31,3.18v6.5c0,.15,0,.31,0,.49s0,.38,0,.57,0,.37,0,.54a3.47,3.47,0,0,0,.05.42h-2.57a8.89,8.89,0,0,1-.13-.94q-.06-.6-.09-1.08Zm-3.17.27a2.82,2.82,0,0,0,1.48-.37,3.43,3.43,0,0,0,.94-.87,3.37,3.37,0,0,0,.51-1,3,3,0,0,0,.14-.67v-.84h-1.73a4.47,4.47,0,0,0-2.42.51,1.67,1.67,0,0,0-.77,1.46,1.74,1.74,0,0,0,.47,1.28A1.87,1.87,0,0,0,338.93,439.29Z"/><path class="cls-2" d="M353.52,441.45a7.66,7.66,0,0,1-2.71-.45,5.6,5.6,0,0,1-2-1.27,5.67,5.67,0,0,1-1.3-2,8.45,8.45,0,0,1,0-5.44,5.67,5.67,0,0,1,1.3-2,5.6,5.6,0,0,1,2.06-1.27,7.91,7.91,0,0,1,2.74-.45,8.13,8.13,0,0,1,2.27.29,4.87,4.87,0,0,1,1.55.72v2.3a6.61,6.61,0,0,0-1.62-.74,7,7,0,0,0-2-.26c-2.58,0-3.87,1.38-3.87,4.16s1.27,4.16,3.8,4.16a7.24,7.24,0,0,0,2.1-.27,8.45,8.45,0,0,0,1.62-.71v2.29a6.68,6.68,0,0,1-1.56.7A7.71,7.71,0,0,1,353.52,441.45Z"/><path class="cls-2" d="M365.52,431v10.2h-2.78V431H359v-2.26h10.39V431Z"/><path class="cls-2" d="M381.5,436.91a4.39,4.39,0,0,1-.39,1.9,3.77,3.77,0,0,1-1.09,1.34,4.82,4.82,0,0,1-1.66.79,7.76,7.76,0,0,1-2.11.27h-4.8V428.75h2.78v4h2.09a6.37,6.37,0,0,1,3.82,1A3.61,3.61,0,0,1,381.5,436.91ZM374.23,435v4H376a3.45,3.45,0,0,0,1.88-.46,1.73,1.73,0,0,0,.71-1.55,1.78,1.78,0,0,0-.64-1.55,3.21,3.21,0,0,0-1.87-.47Z"/><path class="cls-2" d="M389.06,428.75h5.09q4.73,0,4.73,3.12a2.47,2.47,0,0,1-.64,1.81,3.92,3.92,0,0,1-1.86,1,4,4,0,0,1,2.26.94,2.69,2.69,0,0,1,.74,2,3.11,3.11,0,0,1-.38,1.58,3,3,0,0,1-1.07,1.1,5,5,0,0,1-1.67.65,9.63,9.63,0,0,1-2.16.22h-5Zm2.76,2.16v2.93h2a3.16,3.16,0,0,0,1.64-.37,1.2,1.2,0,0,0,.62-1.08,1.24,1.24,0,0,0-.54-1.16,3.15,3.15,0,0,0-1.57-.32Zm0,4.9v3.24H394a4.26,4.26,0,0,0,1.86-.34,1.24,1.24,0,0,0,.71-1.23,1.37,1.37,0,0,0-.64-1.29,4.06,4.06,0,0,0-2-.38Z"/><path class="cls-2" d="M404.88,437.44l5.76-8.69h2.74v12.46h-2.76v-8.64l-5.72,8.64h-2.78V428.75h2.76Z"/><path class="cls-2" d="M416.18,439a3.29,3.29,0,0,0,.88-1.32,10,10,0,0,0,.52-2.1c.12-.84.22-1.82.28-2.94s.12-2.4.17-3.84h9.12V439H429v5.81H426.6l-.22-3.55h-8.59l-.21,3.55h-2.45V439Zm8.19,0V431h-3.94c-.08,2-.21,3.59-.39,4.88a9,9,0,0,1-.91,3.06Z"/><path class="cls-2" d="M433.87,437.44l5.76-8.69h2.74v12.46h-2.76v-8.64l-5.72,8.64h-2.78V428.75h2.76Z"/><path class="cls-2" d="M457.2,432.18,453.53,440h-2l-3.46-7.9v9.1h-2.52V428.75h3.82l3.4,7.73,3.6-7.73H460v12.46H457.2Z"/><path class="cls-2" d="M468.5,441.45a7,7,0,0,1-2.45-.43,5.56,5.56,0,0,1-1.95-1.26,5.9,5.9,0,0,1-1.3-2,8.34,8.34,0,0,1,0-5.52,5.81,5.81,0,0,1,1.3-2,5.4,5.4,0,0,1,1.95-1.25,7.36,7.36,0,0,1,4.9,0,5.56,5.56,0,0,1,2,1.25,5.85,5.85,0,0,1,1.32,2,8.17,8.17,0,0,1,0,5.52,6,6,0,0,1-1.32,2,5.73,5.73,0,0,1-2,1.26A7,7,0,0,1,468.5,441.45Zm0-2.31a3.11,3.11,0,0,0,2.39-1,5.68,5.68,0,0,0,0-6.29,3.12,3.12,0,0,0-2.39-1,3.09,3.09,0,0,0-2.36,1,5.68,5.68,0,0,0,0,6.29A3.08,3.08,0,0,0,468.5,439.14Z"/><path class="cls-2" d="M482.78,441.45a7.66,7.66,0,0,1-2.71-.45,5.6,5.6,0,0,1-2-1.27,5.67,5.67,0,0,1-1.3-2,8.45,8.45,0,0,1,0-5.44,5.67,5.67,0,0,1,1.3-2,5.6,5.6,0,0,1,2.06-1.27,7.91,7.91,0,0,1,2.74-.45,8.13,8.13,0,0,1,2.27.29,4.87,4.87,0,0,1,1.55.72v2.3a6.61,6.61,0,0,0-1.62-.74,7,7,0,0,0-2-.26c-2.58,0-3.87,1.38-3.87,4.16s1.27,4.16,3.8,4.16a7.24,7.24,0,0,0,2.1-.27,8.45,8.45,0,0,0,1.62-.71v2.29a6.68,6.68,0,0,1-1.56.7A7.71,7.71,0,0,1,482.78,441.45Z"/><path class="cls-2" d="M494.78,431v10.2H492V431h-3.77v-2.26h10.39V431Z"/><path class="cls-2" d="M503.49,437.44l5.76-8.69H512v12.46h-2.76v-8.64l-5.71,8.64h-2.79V428.75h2.76Z"/><line class="cls-4" x1="339.5" y1="410.5" x2="339.5" y2="390.5"/><circle class="cls-2" cx="339.5" cy="410.5" r="2.19"/><path class="cls-4" d="M480,108.5v31a2,2,0,0,1-2,2H201a2,2,0,0,1-2-2V109"/><polygon class="cls-2" points="476.61 109.49 480 103.63 483.39 109.49 476.61 109.49"/><polygon class="cls-2" points="202.39 109.99 199 104.13 195.61 109.99 202.39 109.99"/><path class="cls-4" d="M440,349v39a2,2,0,0,1-2,2H231a2,2,0,0,1-2-2V349"/><polygon class="cls-2" points="436.61 349.99 440 344.13 443.39 349.99 436.61 349.99"/><polygon class="cls-2" points="232.39 349.99 229 344.13 225.61 349.99 232.39 349.99"/></g></svg>