<svg xmlns="http://www.w3.org/2000/svg" xmlns:xlink="http://www.w3.org/1999/xlink" viewBox="0 0 680 425"><defs><style>.cls-1{fill:#ffdb4d;}.cls-2{fill:#f5f5f5;}.cls-3{fill:#333;}.cls-4,.cls-5{fill:none;stroke:#333;stroke-miterlimit:10;}.cls-4{stroke-width:0.97px;}</style><symbol id="dark_circle" data-name="dark_circle" viewBox="0 0 20 20"><circle class="cls-1" cx="10" cy="10" r="10"/></symbol></defs><title>Oblast-vid-per-01190716</title><g id="Light_grey_rows" data-name="Light grey rows"><rect class="cls-2" x="40" y="21" width="410" height="100" rx="2"/><rect class="cls-1" x="60" y="67" width="130" height="35" rx="2"/></g><g id="Layer_1" data-name="Layer 1"><path class="cls-3" d="M66.94,51.13a6.3,6.3,0,0,1-2.19-.38A4.91,4.91,0,0,1,63,49.61a5.39,5.39,0,0,1-1.18-1.85,7.69,7.69,0,0,1,0-5.07A5.34,5.34,0,0,1,63,40.85a4.87,4.87,0,0,1,1.75-1.12,6.7,6.7,0,0,1,4.39,0,4.92,4.92,0,0,1,1.77,1.11,5.1,5.1,0,0,1,1.17,1.84,6.81,6.81,0,0,1,.43,2.53,6.88,6.88,0,0,1-.43,2.53,5.27,5.27,0,0,1-1.17,1.86,5,5,0,0,1-1.77,1.14A6.1,6.1,0,0,1,66.94,51.13Zm0-1.66a4.24,4.24,0,0,0,1.4-.23,2.84,2.84,0,0,0,1.12-.72,3.64,3.64,0,0,0,.74-1.32,7.21,7.21,0,0,0,0-3.91,3.55,3.55,0,0,0-.74-1.3,2.89,2.89,0,0,0-1.12-.74,4.24,4.24,0,0,0-1.4-.23,4.14,4.14,0,0,0-1.39.23,2.89,2.89,0,0,0-1.12.74,3.55,3.55,0,0,0-.74,1.3,7.21,7.21,0,0,0,0,3.91,3.64,3.64,0,0,0,.74,1.32,2.84,2.84,0,0,0,1.12.72A4.14,4.14,0,0,0,66.94,49.47Z"/><path class="cls-3" d="M78.08,51.13a5.33,5.33,0,0,1-1.81-.29A3.7,3.7,0,0,1,74.91,50,3.79,3.79,0,0,1,74,48.64a5.24,5.24,0,0,1-.3-1.83A5.17,5.17,0,0,1,74,45a3.79,3.79,0,0,1,.87-1.35,3.74,3.74,0,0,1,1.37-.85,5.53,5.53,0,0,1,1.83-.29,5.28,5.28,0,0,1,1.51.19,3.41,3.41,0,0,1,1,.48v1.54a4.09,4.09,0,0,0-1.08-.5A4.6,4.6,0,0,0,78.22,44c-1.72,0-2.58.93-2.58,2.78s.85,2.78,2.53,2.78a4.79,4.79,0,0,0,1.4-.19,5.26,5.26,0,0,0,1.08-.47v1.52a4.21,4.21,0,0,1-1,.47A4.85,4.85,0,0,1,78.08,51.13Z"/><path class="cls-3" d="M87.72,47.47h-3.5V51H82.36v-8.3h1.86V46h3.5V42.67h1.86V51H87.72Z"/><path class="cls-3" d="M95.26,51.13a4.33,4.33,0,0,1-1.63-.29A3.6,3.6,0,0,1,92.32,50a3.73,3.73,0,0,1-.86-1.35,5.62,5.62,0,0,1,0-3.68,3.91,3.91,0,0,1,.86-1.35,3.45,3.45,0,0,1,1.31-.83,4.88,4.88,0,0,1,3.26,0,3.53,3.53,0,0,1,1.31.83A3.81,3.81,0,0,1,99.08,45a5.45,5.45,0,0,1,0,3.68A3.64,3.64,0,0,1,98.2,50a3.68,3.68,0,0,1-1.31.84A4.37,4.37,0,0,1,95.26,51.13Zm0-1.53a2.09,2.09,0,0,0,1.59-.68,3,3,0,0,0,.63-2.1,3,3,0,0,0-.63-2.09,2.17,2.17,0,0,0-3.17,0,3,3,0,0,0-.63,2.09,3,3,0,0,0,.63,2.1A2.08,2.08,0,0,0,95.26,49.6Z"/><path class="cls-3" d="M101,42.67h3.4c2.1,0,3.15.69,3.15,2.08a1.66,1.66,0,0,1-.43,1.21,2.65,2.65,0,0,1-1.24.66,2.67,2.67,0,0,1,1.51.62,1.81,1.81,0,0,1,.49,1.36,2.1,2.1,0,0,1-.25,1.06,2.18,2.18,0,0,1-.71.74,3.69,3.69,0,0,1-1.12.43,7,7,0,0,1-1.44.14H101Zm1.84,1.44v2h1.36a2.07,2.07,0,0,0,1.09-.25.78.78,0,0,0,.42-.72.82.82,0,0,0-.36-.77,2.12,2.12,0,0,0-1-.21Zm0,3.26v2.16h1.43a2.93,2.93,0,0,0,1.24-.22.83.83,0,0,0,.47-.83.91.91,0,0,0-.42-.85,2.71,2.71,0,0,0-1.34-.26Z"/><path class="cls-3" d="M115,47.47h-3.51V51h-1.85v-8.3h1.85V46H115V42.67h1.85V51H115Z"/><path class="cls-3" d="M123.74,49.52a2.92,2.92,0,0,1-.35.57,2.56,2.56,0,0,1-.52.52,2.64,2.64,0,0,1-.75.38,3.37,3.37,0,0,1-1,.14,3.22,3.22,0,0,1-1-.15,2.2,2.2,0,0,1-1.36-1.22,2.61,2.61,0,0,1-.2-1,2.3,2.3,0,0,1,1-2,5,5,0,0,1,2.85-.68h1.26v-.52a1.3,1.3,0,0,0-.41-1.12,2.34,2.34,0,0,0-1.38-.32,4.81,4.81,0,0,0-1.53.24,6.91,6.91,0,0,0-1.25.53V43.26a6.89,6.89,0,0,1,1.31-.51,6.28,6.28,0,0,1,1.78-.24,4,4,0,0,1,2.47.66,2.49,2.49,0,0,1,.87,2.12v4.34c0,.09,0,.2,0,.33s0,.24,0,.37,0,.25,0,.36,0,.21,0,.28H123.9c0-.15-.06-.36-.09-.62s0-.51-.06-.72Zm-2.11.17a1.76,1.76,0,0,0,1-.25,2.18,2.18,0,0,0,.63-.57,2.4,2.4,0,0,0,.34-.65,1.91,1.91,0,0,0,.09-.45v-.56h-1.15a2.93,2.93,0,0,0-1.61.35,1.08,1.08,0,0,0-.52,1,1.15,1.15,0,0,0,.32.86A1.22,1.22,0,0,0,121.63,49.69Z"/><path class="cls-3" d="M127.43,45.39a2.64,2.64,0,0,1,.26-1.19,2.43,2.43,0,0,1,.71-.85,3.07,3.07,0,0,1,1.11-.51,5.34,5.34,0,0,1,1.43-.17H134V51h-1.86V48.16H131L129,51h-2.08l2.29-3.21a2.62,2.62,0,0,1-1.33-.84A2.35,2.35,0,0,1,127.43,45.39Zm4.74,1.29V44.14h-1.09a2.43,2.43,0,0,0-1.25.29,1,1,0,0,0-.49,1,1.1,1.1,0,0,0,.44,1,2.2,2.2,0,0,0,1.25.3Z"/><path class="cls-3" d="M139.63,42.67h7.05V51h-1.85v-6.8h-3.35V51h-1.85Z"/><path class="cls-3" d="M153.34,51.13a3.07,3.07,0,0,1-1.63-.42,3.25,3.25,0,0,1-1.09-1.15V53.8h-1.86V42.67h1.7l.13,1.47a3.16,3.16,0,0,1,1.1-1.19,3,3,0,0,1,1.68-.44,3.87,3.87,0,0,1,1.4.26,3.18,3.18,0,0,1,1.16.8,4,4,0,0,1,.79,1.35,6.17,6.17,0,0,1,0,3.8,3.9,3.9,0,0,1-.8,1.35,3.35,3.35,0,0,1-1.17.8A4,4,0,0,1,153.34,51.13Zm-.45-1.53a2.06,2.06,0,0,0,1.61-.69,3,3,0,0,0,.61-2.09,3.07,3.07,0,0,0-.61-2.09,2,2,0,0,0-1.59-.69,2.51,2.51,0,0,0-.92.17,1.93,1.93,0,0,0-.72.52,2.42,2.42,0,0,0-.49.88,3.71,3.71,0,0,0-.18,1.21,3.8,3.8,0,0,0,.18,1.23,2.32,2.32,0,0,0,.48.86,1.91,1.91,0,0,0,.73.52A2.44,2.44,0,0,0,152.89,49.6Z"/><path class="cls-3" d="M162.19,51.13a4.39,4.39,0,0,1-1.64-.29,3.64,3.64,0,0,1-1.3-.84,3.6,3.6,0,0,1-.86-1.35,5.45,5.45,0,0,1,0-3.68,3.77,3.77,0,0,1,.86-1.35,3.49,3.49,0,0,1,1.3-.83,4.91,4.91,0,0,1,3.27,0,3.53,3.53,0,0,1,1.31.83A4,4,0,0,1,166,45a5.45,5.45,0,0,1,0,3.68,3.77,3.77,0,0,1-.88,1.35,3.68,3.68,0,0,1-1.31.84A4.37,4.37,0,0,1,162.19,51.13Zm0-1.53a2.09,2.09,0,0,0,1.59-.68,3,3,0,0,0,.63-2.1,3,3,0,0,0-.63-2.09,2.17,2.17,0,0,0-3.17,0,3,3,0,0,0-.63,2.09,3,3,0,0,0,.63,2.1A2.08,2.08,0,0,0,162.19,49.6Z"/><path class="cls-3" d="M167.88,42.67h5.47v1.5h-3.61V51h-1.86Z"/><path class="cls-3" d="M179.45,51.13a3,3,0,0,1-1.62-.42,3.28,3.28,0,0,1-1.1-1.15V53.8h-1.86V42.67h1.7l.13,1.47A3.24,3.24,0,0,1,177.8,43a3,3,0,0,1,1.68-.44,3.87,3.87,0,0,1,1.4.26,3.18,3.18,0,0,1,1.16.8,3.89,3.89,0,0,1,.79,1.35,6.17,6.17,0,0,1,0,3.8,3.75,3.75,0,0,1-.8,1.35,3.26,3.26,0,0,1-1.17.8A4,4,0,0,1,179.45,51.13ZM179,49.6a2.06,2.06,0,0,0,1.61-.69,3,3,0,0,0,.62-2.09,3.07,3.07,0,0,0-.62-2.09A2,2,0,0,0,179,44a2.42,2.42,0,0,0-.91.17,2,2,0,0,0-.73.52,2.58,2.58,0,0,0-.49.88,3.71,3.71,0,0,0-.18,1.21,3.8,3.8,0,0,0,.18,1.23,2.64,2.64,0,0,0,.48.86,2,2,0,0,0,.73.52A2.44,2.44,0,0,0,179,49.6Z"/><path class="cls-3" d="M189.4,49.52a2.86,2.86,0,0,1-.34.57,2.62,2.62,0,0,1-.53.52,2.72,2.72,0,0,1-.74.38,3.42,3.42,0,0,1-1,.14,3.29,3.29,0,0,1-1-.15,2.16,2.16,0,0,1-.81-.46,2,2,0,0,1-.54-.76,2.44,2.44,0,0,1-.2-1,2.27,2.27,0,0,1,1-2,5,5,0,0,1,2.84-.68h1.27v-.52a1.3,1.3,0,0,0-.42-1.12,2.3,2.3,0,0,0-1.37-.32,4.72,4.72,0,0,0-1.53.24,6.73,6.73,0,0,0-1.26.53V43.26a6.89,6.89,0,0,1,1.31-.51,6.33,6.33,0,0,1,1.78-.24,4,4,0,0,1,2.47.66,2.49,2.49,0,0,1,.87,2.12v4.34c0,.09,0,.2,0,.33s0,.24,0,.37,0,.25,0,.36,0,.21,0,.28h-1.71c0-.15-.06-.36-.09-.62s0-.51-.05-.72Zm-2.11.17a1.76,1.76,0,0,0,1-.25,2.14,2.14,0,0,0,1-1.22,1.61,1.61,0,0,0,.1-.45v-.56h-1.15a3,3,0,0,0-1.62.35,1.1,1.1,0,0,0-.51,1,1.15,1.15,0,0,0,.31.86A1.23,1.23,0,0,0,187.29,49.69Z"/><path class="cls-3" d="M201,45l-2.45,5.21h-1.36l-2.31-5.26V51h-1.68v-8.3h2.55L198,47.82l2.4-5.15h2.43V51H201Z"/><path class="cls-3" d="M212.71,45l-2.44,5.21h-1.36l-2.31-5.26V51h-1.68v-8.3h2.55l2.27,5.15,2.4-5.15h2.43V51h-1.86Z"/><path class="cls-3" d="M221.43,49.52a2.86,2.86,0,0,1-.34.57,2.38,2.38,0,0,1-.53.52,2.58,2.58,0,0,1-.74.38,3.42,3.42,0,0,1-1,.14,3.29,3.29,0,0,1-1-.15,2.16,2.16,0,0,1-.81-.46,2,2,0,0,1-.54-.76,2.61,2.61,0,0,1-.2-1,2.27,2.27,0,0,1,1-2,5,5,0,0,1,2.85-.68h1.26v-.52a1.3,1.3,0,0,0-.42-1.12,2.28,2.28,0,0,0-1.37-.32,4.72,4.72,0,0,0-1.53.24,7,7,0,0,0-1.26.53V43.26a6.76,6.76,0,0,1,1.32-.51,6.21,6.21,0,0,1,1.77-.24,4,4,0,0,1,2.47.66,2.5,2.5,0,0,1,.88,2.12V50c0,.12,0,.24,0,.37s0,.25,0,.36a1.7,1.7,0,0,0,0,.28h-1.72a5.34,5.34,0,0,1-.08-.62q0-.41-.06-.72Zm-2.11.17a1.8,1.8,0,0,0,1-.25,2.18,2.18,0,0,0,.63-.57,2.1,2.1,0,0,0,.33-.65,1.61,1.61,0,0,0,.1-.45v-.56h-1.15a3,3,0,0,0-1.62.35,1.1,1.1,0,0,0-.51,1,1.15,1.15,0,0,0,.31.86A1.25,1.25,0,0,0,219.32,49.69Z"/><path class="cls-3" d="M231.4,53.2A9.44,9.44,0,0,1,229.57,50a12.26,12.26,0,0,1-.6-3.9,13.94,13.94,0,0,1,.15-2.05,10.87,10.87,0,0,1,.46-1.93,9.07,9.07,0,0,1,.76-1.74,7.48,7.48,0,0,1,1.06-1.46h1.87a6.91,6.91,0,0,0-1.11,1.43,9,9,0,0,0-.78,1.73,10.78,10.78,0,0,0-.47,1.92,14,14,0,0,0-.15,2,12.09,12.09,0,0,0,.61,3.91,9.43,9.43,0,0,0,1.9,3.28Z"/><path class="cls-3" d="M234.87,42.67h5.47v1.5h-3.61V51h-1.86Z"/><path class="cls-3" d="M241.87,48a14.41,14.41,0,0,0,.23-2.12c0-.87.05-1.95.05-3.24h6V51h-1.85v-6.8h-2.42c0,1.1-.06,2.07-.13,2.91a8.45,8.45,0,0,1-.39,2.14,3,3,0,0,1-.85,1.34A2.22,2.22,0,0,1,241,51h-.25l-.24,0V49.26l.24,0a.85.85,0,0,0,.69-.31A2.41,2.41,0,0,0,241.87,48Z"/><path class="cls-3" d="M253.82,51.13a4.42,4.42,0,0,1-1.64-.29,3.64,3.64,0,0,1-1.3-.84,3.6,3.6,0,0,1-.86-1.35A5.62,5.62,0,0,1,250,45a3.77,3.77,0,0,1,.86-1.35,3.49,3.49,0,0,1,1.3-.83,4.63,4.63,0,0,1,1.64-.28,4.58,4.58,0,0,1,1.63.28,3.53,3.53,0,0,1,1.31.83,4,4,0,0,1,.88,1.35,5.45,5.45,0,0,1,0,3.68,3.77,3.77,0,0,1-.88,1.35,3.68,3.68,0,0,1-1.31.84A4.37,4.37,0,0,1,253.82,51.13Zm0-1.53a2.09,2.09,0,0,0,1.59-.68,3,3,0,0,0,.63-2.1,3,3,0,0,0-.63-2.09,2.17,2.17,0,0,0-3.17,0,3,3,0,0,0-.63,2.09,3,3,0,0,0,.63,2.1A2.08,2.08,0,0,0,253.82,49.6Z"/><path class="cls-3" d="M267.3,46.84a4.76,4.76,0,0,1-.32,1.84,3.75,3.75,0,0,1-.87,1.35,3.47,3.47,0,0,1-1.31.82,4.63,4.63,0,0,1-1.64.28,4.4,4.4,0,0,1-1.65-.3,3.47,3.47,0,0,1-1.29-.92,4.32,4.32,0,0,1-.86-1.54,6.68,6.68,0,0,1-.31-2.17c0-.75,0-1.45.09-2.08a9.55,9.55,0,0,1,.33-1.69,5,5,0,0,1,.63-1.32,3.9,3.9,0,0,1,1-1,4.09,4.09,0,0,1,1.58-.59,15.73,15.73,0,0,1,1.71-.16,8.27,8.27,0,0,0,1.48-.17,3.51,3.51,0,0,0,.85-.31v1.65a2.1,2.1,0,0,1-.37.18,2.44,2.44,0,0,1-.45.12,4.34,4.34,0,0,1-.59.09l-.79.07-1.49.16a2.76,2.76,0,0,0-1.2.4,2.47,2.47,0,0,0-.89,1.16,6.81,6.81,0,0,0-.39,1.79,3.06,3.06,0,0,1,3.09-1.81,3.5,3.5,0,0,1,1.4.28,3.38,3.38,0,0,1,1.16.81,4,4,0,0,1,.79,1.29A5.08,5.08,0,0,1,267.3,46.84Zm-4.14,2.76a2.14,2.14,0,0,0,1.61-.67,2.89,2.89,0,0,0,.63-2,2.86,2.86,0,0,0-.63-2,2.11,2.11,0,0,0-1.61-.67,2.08,2.08,0,0,0-1.58.66,2.87,2.87,0,0,0-.61,2,3,3,0,0,0,.62,2.08A2.09,2.09,0,0,0,263.16,49.6Z"/><path class="cls-3" d="M273.64,49.52a3.42,3.42,0,0,1-.34.57A2.59,2.59,0,0,1,272,51a3.31,3.31,0,0,1-1,.14,3.24,3.24,0,0,1-1-.15,2.16,2.16,0,0,1-.81-.46,2,2,0,0,1-.54-.76,2.44,2.44,0,0,1-.2-1,2.29,2.29,0,0,1,1-2,5,5,0,0,1,2.85-.68h1.27v-.52a1.3,1.3,0,0,0-.42-1.12,2.34,2.34,0,0,0-1.38-.32,4.7,4.7,0,0,0-1.52.24,6.73,6.73,0,0,0-1.26.53V43.26a6.89,6.89,0,0,1,1.31-.51,6.33,6.33,0,0,1,1.78-.24,4,4,0,0,1,2.47.66,2.49,2.49,0,0,1,.87,2.12v4.34c0,.09,0,.2,0,.33s0,.24,0,.37,0,.25,0,.36,0,.21,0,.28H273.8c0-.15-.06-.36-.09-.62s0-.51,0-.72Zm-2.11.17a1.76,1.76,0,0,0,1-.25,2.18,2.18,0,0,0,.63-.57,2.14,2.14,0,0,0,.34-.65,2.09,2.09,0,0,0,.1-.45v-.56h-1.16a2.93,2.93,0,0,0-1.61.35,1.1,1.1,0,0,0-.51,1,1.15,1.15,0,0,0,.31.86A1.23,1.23,0,0,0,271.53,49.69Z"/><path class="cls-3" d="M278.15,48a12.1,12.1,0,0,0,.23-2.12q.06-1.3.06-3.24h6V51h-1.86v-6.8h-2.41c0,1.1-.07,2.07-.13,2.91a9.44,9.44,0,0,1-.39,2.14,3,3,0,0,1-.85,1.34,2.22,2.22,0,0,1-1.48.46H277l-.25,0V49.26l.24,0a.87.87,0,0,0,.7-.31A2.41,2.41,0,0,0,278.15,48Z"/><path class="cls-3" d="M293.19,48.11a2.92,2.92,0,0,1-.26,1.26,2.57,2.57,0,0,1-.73.9,3.41,3.41,0,0,1-1.1.53,5.68,5.68,0,0,1-1.41.17h-3.2v-8.3h1.85v2.69h1.4a4.19,4.19,0,0,1,2.54.67A2.41,2.41,0,0,1,293.19,48.11Zm-4.85-1.28v2.69h1.2a2.23,2.23,0,0,0,1.25-.32,1.13,1.13,0,0,0,.48-1,1.18,1.18,0,0,0-.43-1,2.1,2.1,0,0,0-1.25-.31Z"/><path class="cls-3" d="M300.07,47.47h-3.5V51h-1.86v-8.3h1.86V46h3.5V42.67h1.86V51h-1.86Z"/><path class="cls-3" d="M310.6,48.11a2.92,2.92,0,0,1-.26,1.26,2.57,2.57,0,0,1-.73.9,3.36,3.36,0,0,1-1.11.53,5.54,5.54,0,0,1-1.4.17H304v-8.3h1.86v2.69h1.29a4.19,4.19,0,0,1,2.54.67A2.43,2.43,0,0,1,310.6,48.11Zm-4.73-1.28v2.69H307a2.31,2.31,0,0,0,1.26-.32,1.13,1.13,0,0,0,.49-1,1.18,1.18,0,0,0-.44-1,2.06,2.06,0,0,0-1.24-.31ZM313.4,51h-1.86v-8.3h1.86Z"/><path class="cls-3" d="M322.42,50.36a3.81,3.81,0,0,1-.43.25,3.21,3.21,0,0,1-.61.25,6.09,6.09,0,0,1-.81.19,6.64,6.64,0,0,1-1.06.08A4.64,4.64,0,0,1,316.1,50,4.3,4.3,0,0,1,315,46.81a5.17,5.17,0,0,1,.3-1.81,3.88,3.88,0,0,1,.85-1.35,3.71,3.71,0,0,1,1.3-.85,4.59,4.59,0,0,1,1.64-.29,4.49,4.49,0,0,1,1.68.3,3,3,0,0,1,1.22.91,3.53,3.53,0,0,1,.66,1.51,5.82,5.82,0,0,1,0,2.09h-5.74a2.49,2.49,0,0,0,.75,1.71,3,3,0,0,0,2,.57,5,5,0,0,0,1.66-.25,7.44,7.44,0,0,0,1.12-.52ZM319.06,44a2,2,0,0,0-1.37.5A2.46,2.46,0,0,0,317,46h3.91a2,2,0,0,0-.45-1.49A1.83,1.83,0,0,0,319.06,44Z"/><path class="cls-3" d="M327.88,42.67h7.06V51h-1.86v-6.8h-3.34V51h-1.86Z"/><path class="cls-3" d="M344,50.36c-.12.08-.26.16-.43.25a3.51,3.51,0,0,1-.61.25,6.68,6.68,0,0,1-.82.19,6.6,6.6,0,0,1-1.05.08A4.65,4.65,0,0,1,337.63,50a4.34,4.34,0,0,1-1.13-3.19,5,5,0,0,1,.31-1.81,3.74,3.74,0,0,1,.85-1.35A3.67,3.67,0,0,1,339,42.8a4.61,4.61,0,0,1,1.65-.29,4.4,4.4,0,0,1,1.67.3,3,3,0,0,1,1.23.91,3.53,3.53,0,0,1,.66,1.51,6.06,6.06,0,0,1,0,2.09h-5.75a2.54,2.54,0,0,0,.76,1.71,2.93,2.93,0,0,0,2,.57,4.86,4.86,0,0,0,1.65-.25,8.11,8.11,0,0,0,1.13-.52ZM340.6,44a2,2,0,0,0-1.38.5,2.45,2.45,0,0,0-.73,1.47h3.9a2,2,0,0,0-.45-1.49A1.8,1.8,0,0,0,340.6,44Z"/><path class="cls-3" d="M350.47,51.13a3,3,0,0,1-1.62-.42,3.28,3.28,0,0,1-1.1-1.15V53.8H345.9V42.67h1.69l.13,1.47a3.24,3.24,0,0,1,1.1-1.19,3,3,0,0,1,1.68-.44,3.87,3.87,0,0,1,1.4.26,3.1,3.1,0,0,1,1.16.8,4.06,4.06,0,0,1,.8,1.35,6.37,6.37,0,0,1,0,3.8,4.06,4.06,0,0,1-.8,1.35,3.38,3.38,0,0,1-1.18.8A4,4,0,0,1,350.47,51.13ZM350,49.6a2.06,2.06,0,0,0,1.61-.69,3,3,0,0,0,.62-2.09,3.07,3.07,0,0,0-.62-2.09A2,2,0,0,0,350,44a2.42,2.42,0,0,0-.91.17,2,2,0,0,0-.73.52,2.58,2.58,0,0,0-.49.88,3.72,3.72,0,0,0-.17,1.21,3.81,3.81,0,0,0,.17,1.23,2.64,2.64,0,0,0,.48.86,2,2,0,0,0,.73.52A2.44,2.44,0,0,0,350,49.6Z"/><path class="cls-3" d="M362.66,50.36a3.81,3.81,0,0,1-.43.25,3.21,3.21,0,0,1-.61.25,6.09,6.09,0,0,1-.81.19,6.64,6.64,0,0,1-1.06.08A4.64,4.64,0,0,1,356.34,50a4.3,4.3,0,0,1-1.13-3.19,5.17,5.17,0,0,1,.3-1.81,3.88,3.88,0,0,1,.85-1.35,3.63,3.63,0,0,1,1.3-.85,4.59,4.59,0,0,1,1.64-.29,4.49,4.49,0,0,1,1.68.3,3,3,0,0,1,1.22.91,3.53,3.53,0,0,1,.66,1.51,5.82,5.82,0,0,1,0,2.09h-5.74a2.49,2.49,0,0,0,.75,1.71,3,3,0,0,0,2,.57,5,5,0,0,0,1.66-.25,7.94,7.94,0,0,0,1.12-.52ZM359.3,44a2,2,0,0,0-1.37.5,2.46,2.46,0,0,0-.74,1.47h3.91a2,2,0,0,0-.45-1.49A1.83,1.83,0,0,0,359.3,44Z"/><path class="cls-3" d="M372.39,45l-2.45,5.21h-1.36l-2.3-5.26V51H364.6v-8.3h2.54l2.28,5.15,2.4-5.15h2.43V51h-1.86Z"/><path class="cls-3" d="M383.27,50.36c-.12.08-.26.16-.43.25a3.21,3.21,0,0,1-.61.25,6.49,6.49,0,0,1-.81.19,6.73,6.73,0,0,1-1.06.08A4.67,4.67,0,0,1,376.94,50a4.34,4.34,0,0,1-1.12-3.19,5.17,5.17,0,0,1,.3-1.81,3.74,3.74,0,0,1,.85-1.35,3.67,3.67,0,0,1,1.29-.85,4.61,4.61,0,0,1,1.65-.29,4.4,4.4,0,0,1,1.67.3,3,3,0,0,1,1.23.91,3.53,3.53,0,0,1,.66,1.51,6.06,6.06,0,0,1,0,2.09h-5.74a2.49,2.49,0,0,0,.75,1.71,2.93,2.93,0,0,0,2,.57,4.86,4.86,0,0,0,1.65-.25,7.6,7.6,0,0,0,1.13-.52ZM379.91,44a2,2,0,0,0-1.37.5A2.46,2.46,0,0,0,377.8,46h3.9a1.91,1.91,0,0,0-.45-1.49A1.79,1.79,0,0,0,379.91,44Z"/><path class="cls-3" d="M390.57,47.47h-3.51V51h-1.85v-8.3h1.85V46h3.51V42.67h1.85V51h-1.85Z"/><path class="cls-3" d="M399.86,47.47h-3.5V51H394.5v-8.3h1.86V46h3.5V42.67h1.86V51h-1.86Z"/><path class="cls-3" d="M410.39,48.11a2.92,2.92,0,0,1-.26,1.26,2.57,2.57,0,0,1-.73.9,3.36,3.36,0,0,1-1.11.53,5.54,5.54,0,0,1-1.4.17H403.8v-8.3h1.86v2.69H407a4.19,4.19,0,0,1,2.54.67A2.43,2.43,0,0,1,410.39,48.11Zm-4.73-1.28v2.69h1.08A2.31,2.31,0,0,0,408,49.2a1.13,1.13,0,0,0,.49-1,1.18,1.18,0,0,0-.44-1,2.06,2.06,0,0,0-1.24-.31ZM413.19,51h-1.86v-8.3h1.86Z"/><path class="cls-3" d="M422.21,50.36a3.81,3.81,0,0,1-.43.25,3.21,3.21,0,0,1-.61.25,6.09,6.09,0,0,1-.81.19,6.64,6.64,0,0,1-1.06.08A4.64,4.64,0,0,1,415.89,50a4.3,4.3,0,0,1-1.13-3.19,5.17,5.17,0,0,1,.3-1.81,3.88,3.88,0,0,1,.85-1.35,3.71,3.71,0,0,1,1.3-.85,4.59,4.59,0,0,1,1.64-.29,4.49,4.49,0,0,1,1.68.3,3,3,0,0,1,1.22.91,3.53,3.53,0,0,1,.66,1.51,5.82,5.82,0,0,1,0,2.09h-5.74a2.49,2.49,0,0,0,.75,1.71,3,3,0,0,0,2,.57,5,5,0,0,0,1.66-.25,7.44,7.44,0,0,0,1.12-.52ZM418.85,44a2,2,0,0,0-1.37.5,2.46,2.46,0,0,0-.74,1.47h3.91a2,2,0,0,0-.45-1.49A1.83,1.83,0,0,0,418.85,44Z"/><path class="cls-3" d="M423.67,53.2a9.43,9.43,0,0,0,1.9-3.28,12.09,12.09,0,0,0,.61-3.91,14,14,0,0,0-.15-2,11.7,11.7,0,0,0-.46-1.92,9.07,9.07,0,0,0-.79-1.73,6.29,6.29,0,0,0-1.11-1.43h1.87a7.52,7.52,0,0,1,1.07,1.46,10.51,10.51,0,0,1,.76,1.74,11.81,11.81,0,0,1,.45,1.93,13.94,13.94,0,0,1,.15,2.05,12.26,12.26,0,0,1-.6,3.9,9.44,9.44,0,0,1-1.83,3.24Z"/><use width="20" height="20" transform="translate(600 252.5)" xlink:href="#dark_circle"/><rect class="cls-1" x="200" y="192" width="440" height="100" rx="2"/><path class="cls-3" d="M305.57,209.37v1.49a7.54,7.54,0,0,1,2,.32,4.91,4.91,0,0,1,1.61.83,3.91,3.91,0,0,1,1.06,1.35,4.84,4.84,0,0,1,0,3.76,3.85,3.85,0,0,1-1.06,1.36,5,5,0,0,1-1.61.85,7.16,7.16,0,0,1-2,.33v1.47h-1.95v-1.47a7.42,7.42,0,0,1-2-.32,4.76,4.76,0,0,1-1.6-.83,3.82,3.82,0,0,1-1.07-1.35,4.44,4.44,0,0,1-.38-1.88,4.38,4.38,0,0,1,.38-1.88A3.77,3.77,0,0,1,300,212a4.62,4.62,0,0,1,1.6-.85,7,7,0,0,1,2-.33v-1.49Zm-5,5.9a3.24,3.24,0,0,0,.24,1.32,2.35,2.35,0,0,0,.65.88,2.61,2.61,0,0,0,1,.49,5.65,5.65,0,0,0,1.22.2v-5.78a5.11,5.11,0,0,0-1.22.19,2.63,2.63,0,0,0-1,.5,2.32,2.32,0,0,0-.65.87A3.33,3.33,0,0,0,300.54,215.27Zm8.08,0a3.25,3.25,0,0,0-.23-1.32,2.31,2.31,0,0,0-.64-.88,2.54,2.54,0,0,0-1-.49,5.11,5.11,0,0,0-1.21-.19v5.76a5.66,5.66,0,0,0,1.21-.2,2.54,2.54,0,0,0,1-.49,2.2,2.2,0,0,0,.64-.87A3.25,3.25,0,0,0,308.62,215.28Z"/><path class="cls-3" d="M316.18,222.2a3.45,3.45,0,0,1-.72,1,2.63,2.63,0,0,1-.94.59,3.47,3.47,0,0,1-1.26.2,3.21,3.21,0,0,1-1.34-.25v-1.65a1.72,1.72,0,0,0,.56.27,2.45,2.45,0,0,0,.74.1,1.53,1.53,0,0,0,.89-.24,2.13,2.13,0,0,0,.64-.71l-3.34-8.81h2l2.32,6.45,2.3-6.45h1.73l-3,8.21A9.12,9.12,0,0,1,316.18,222.2Z"/><path class="cls-3" d="M326.38,217.47h-3.5V221H321v-8.3h1.86V216h3.5v-3.29h1.86V221h-1.86Z"/><path class="cls-3" d="M332.9,217.6h-.72V221h-1.86v-8.3h1.86v3.42H333l2.64-3.42h1.95l-3.13,4,3.26,4.3h-2.19Z"/><path class="cls-3" d="M345.62,221h-6.71v-8.3h1.86v6.8h3.49v-6.8h1.85v6.8h1.25v3.87h-1.6Z"/><path class="cls-3" d="M350.59,218.46l3.84-5.79h1.83V221h-1.84v-5.76L350.61,221h-1.86v-8.3h1.84Z"/><path class="cls-3" d="M358.26,215.39a2.64,2.64,0,0,1,.25-1.19,2.43,2.43,0,0,1,.71-.85,3.15,3.15,0,0,1,1.11-.51,5.34,5.34,0,0,1,1.43-.17h3.09V221H363v-2.81h-1.18l-2,2.81h-2.08l2.29-3.21a2.62,2.62,0,0,1-1.33-.84A2.35,2.35,0,0,1,358.26,215.39Zm4.73,1.29v-2.54H361.9a2.43,2.43,0,0,0-1.25.29,1,1,0,0,0-.49,1,1.12,1.12,0,0,0,.44,1,2.21,2.21,0,0,0,1.26.3Z"/><path class="cls-3" d="M375,221.13a3,3,0,0,1-1.62-.42,3.37,3.37,0,0,1-1.1-1.15v4.24h-1.85V212.67h1.69l.13,1.47a3.26,3.26,0,0,1,1.11-1.19,3,3,0,0,1,1.68-.44,3.91,3.91,0,0,1,1.4.26,3.27,3.27,0,0,1,1.16.8,4,4,0,0,1,.79,1.35,6.37,6.37,0,0,1,0,3.8,4.06,4.06,0,0,1-.8,1.35,3.38,3.38,0,0,1-1.18.8A4,4,0,0,1,375,221.13Zm-.44-1.53a2,2,0,0,0,1.6-.69,3,3,0,0,0,.62-2.09,3.07,3.07,0,0,0-.62-2.09,2,2,0,0,0-1.59-.69,2.46,2.46,0,0,0-.91.17,2,2,0,0,0-.73.52,2.58,2.58,0,0,0-.49.88,4,4,0,0,0-.17,1.21,4.11,4.11,0,0,0,.17,1.23,2.64,2.64,0,0,0,.48.86,2.08,2.08,0,0,0,.73.52A2.46,2.46,0,0,0,374.58,219.6Z"/><path class="cls-3" d="M383.25,214.75a2.21,2.21,0,0,0-1.12,1V221h-1.86v-8.3H382l.13,1.73h0a3.55,3.55,0,0,1,1.09-1.28,3.25,3.25,0,0,1,1.68-.61v2A4,4,0,0,0,383.25,214.75Z"/><path class="cls-3" d="M387.36,211.61a1.14,1.14,0,0,1-.84-.33,1.11,1.11,0,0,1-.33-.8,1.09,1.09,0,0,1,.33-.8,1.11,1.11,0,0,1,.84-.34,1.08,1.08,0,0,1,.82.34,1.09,1.09,0,0,1,.33.8,1.13,1.13,0,0,1-1.15,1.13Zm.93,1.06V221h-1.86v-8.3Z"/><path class="cls-3" d="M394.43,214a2.4,2.4,0,0,0-1.34.35,2.85,2.85,0,0,0-.87.89V221h-1.85v-8.3h1.76l.06,1.36h0a2.87,2.87,0,0,1,1-1.09,3.16,3.16,0,0,1,1.74-.43,3,3,0,0,1,2,.65,2.51,2.51,0,0,1,.77,2V221h-1.87v-5.61a1.24,1.24,0,0,0-.38-1A1.69,1.69,0,0,0,394.43,214Z"/><path class="cls-3" d="M403.47,221a3.73,3.73,0,0,1-1,.12,3.11,3.11,0,0,1-1.13-.18,1.89,1.89,0,0,1-.74-.51,2,2,0,0,1-.42-.74,3.26,3.26,0,0,1-.13-.9v-4.63h-1v-1.5h1v-1.75h1.86v1.75h2.38v1.5h-2.38v4.43a1,1,0,0,0,.25.75,1.1,1.1,0,0,0,.82.25,1.71,1.71,0,0,0,.67-.12,1.73,1.73,0,0,0,.53-.3v1.54A2.7,2.7,0,0,1,403.47,221Z"/><path class="cls-3" d="M404.72,221.48h6.74v1.44h-6.74Z"/><path class="cls-3" d="M415.07,221.13a5.66,5.66,0,0,1-1.13-.1,6,6,0,0,1-.89-.25,4.88,4.88,0,0,1-.64-.3c-.18-.11-.32-.21-.43-.29v-1.47a4,4,0,0,0,.44.31,5.09,5.09,0,0,0,.66.32,5.72,5.72,0,0,0,.85.25,5.89,5.89,0,0,0,1.08.09,2.48,2.48,0,0,0,1.28-.26.86.86,0,0,0,.41-.78.8.8,0,0,0-.16-.53,1.07,1.07,0,0,0-.43-.3,3.18,3.18,0,0,0-.63-.17l-.74-.13c-.34-.07-.66-.15-1-.25a3,3,0,0,1-.88-.43,2.16,2.16,0,0,1-.64-.7A2.26,2.26,0,0,1,412,215a2.23,2.23,0,0,1,.88-1.86,4.09,4.09,0,0,1,2.52-.67,5.85,5.85,0,0,1,1.6.19,3.71,3.71,0,0,1,1,.4v1.49a3.83,3.83,0,0,0-1-.45,5.15,5.15,0,0,0-1.53-.19,2.76,2.76,0,0,0-1.33.24.78.78,0,0,0-.42.74.64.64,0,0,0,.15.45,1,1,0,0,0,.4.27,3.75,3.75,0,0,0,.58.15l.68.12c.33.06.67.14,1,.23a3.31,3.31,0,0,1,.94.41,2.21,2.21,0,0,1,1,1.95,2.49,2.49,0,0,1-.29,1.25,2.22,2.22,0,0,1-.77.81,3.19,3.19,0,0,1-1.09.43A5.58,5.58,0,0,1,415.07,221.13Z"/><path class="cls-3" d="M427.73,223.8h-1.84v-4.25a3.2,3.2,0,0,1-1.07,1.15,2.88,2.88,0,0,1-1.62.43,4,4,0,0,1-1.41-.26,3.38,3.38,0,0,1-1.18-.8,3.94,3.94,0,0,1-.82-1.35,6.17,6.17,0,0,1,0-3.8,3.81,3.81,0,0,1,.83-1.35,3.29,3.29,0,0,1,1.19-.8,3.87,3.87,0,0,1,1.4-.26,3.07,3.07,0,0,1,1.66.41A3.11,3.11,0,0,1,426,214v0c0-.2,0-.43,0-.7a3.61,3.61,0,0,1,.09-.63h1.73a5.62,5.62,0,0,0-.07.64c0,.27,0,.5,0,.69Zm-4.1-4.2a2.35,2.35,0,0,0,.89-.17,2.14,2.14,0,0,0,.72-.52,2.48,2.48,0,0,0,.49-.86,4.11,4.11,0,0,0,.17-1.23,3,3,0,0,0-.65-2.09,2.15,2.15,0,0,0-1.62-.69,2.07,2.07,0,0,0-1.61.71,3,3,0,0,0-.63,2.07,3.07,3.07,0,0,0,.62,2.09A2.09,2.09,0,0,0,423.63,219.6Z"/><path class="cls-3" d="M434.15,220.69a3,3,0,0,1-1.74.44,2.71,2.71,0,0,1-1.9-.67,2.65,2.65,0,0,1-.74-2.05v-5.74h1.88v5.71a1.05,1.05,0,0,0,.4,1,1.84,1.84,0,0,0,1,.25,2.27,2.27,0,0,0,1.28-.33,2.9,2.9,0,0,0,.85-.89v-5.71H437V221h-1.7l-.11-1.36h0A2.86,2.86,0,0,1,434.15,220.69Z"/><path class="cls-3" d="M443.87,219.52a2.86,2.86,0,0,1-.34.57,2.59,2.59,0,0,1-1.28.9,3.31,3.31,0,0,1-1,.14,3.24,3.24,0,0,1-1-.15,2.16,2.16,0,0,1-.81-.46,2,2,0,0,1-.54-.76,2.44,2.44,0,0,1-.2-1,2.27,2.27,0,0,1,1-2,5,5,0,0,1,2.84-.68h1.27v-.52a1.3,1.3,0,0,0-.42-1.12A2.31,2.31,0,0,0,442,214a4.7,4.7,0,0,0-1.52.24,6.73,6.73,0,0,0-1.26.53v-1.55a6.89,6.89,0,0,1,1.31-.51,6.33,6.33,0,0,1,1.78-.24,4,4,0,0,1,2.47.66,2.49,2.49,0,0,1,.87,2.12v4.34c0,.09,0,.2,0,.33s0,.24,0,.37,0,.25,0,.36,0,.21,0,.28H444c0-.15-.06-.36-.09-.62s0-.51-.05-.72Zm-2.11.17a1.76,1.76,0,0,0,1-.25,2.36,2.36,0,0,0,.64-.57,2.38,2.38,0,0,0,.43-1.1v-.56h-1.15a3,3,0,0,0-1.62.35,1.1,1.1,0,0,0-.51,1,1.15,1.15,0,0,0,.31.86A1.23,1.23,0,0,0,441.76,219.69Z"/><path class="cls-3" d="M450.64,214.75a2.25,2.25,0,0,0-1.12,1V221h-1.86v-8.3h1.7l.13,1.73h0a3.58,3.58,0,0,1,1.1-1.28,3.18,3.18,0,0,1,1.67-.61v2A4,4,0,0,0,450.64,214.75Z"/><path class="cls-3" d="M460.58,220.36c-.12.08-.27.16-.44.25a3.39,3.39,0,0,1-.6.25,6.26,6.26,0,0,1-1.88.27,4.64,4.64,0,0,1-3.41-1.13,4.34,4.34,0,0,1-1.13-3.19,5.17,5.17,0,0,1,.3-1.81,3.88,3.88,0,0,1,.85-1.35,3.71,3.71,0,0,1,1.3-.85,4.59,4.59,0,0,1,1.64-.29,4.49,4.49,0,0,1,1.68.3,3,3,0,0,1,1.22.91,3.53,3.53,0,0,1,.66,1.51,5.82,5.82,0,0,1,0,2.09H455a2.49,2.49,0,0,0,.75,1.71,3,3,0,0,0,2,.57,5,5,0,0,0,1.66-.25,8.11,8.11,0,0,0,1.13-.52ZM457.21,214a2,2,0,0,0-1.37.5,2.46,2.46,0,0,0-.74,1.47H459a2,2,0,0,0-.45-1.49A1.83,1.83,0,0,0,457.21,214Z"/><path class="cls-3" d="M461.23,221.48H468v1.44h-6.74Z"/><path class="cls-3" d="M473.63,219.52a3.42,3.42,0,0,1-.34.57,2.59,2.59,0,0,1-1.28.9,3.31,3.31,0,0,1-1,.14,3.24,3.24,0,0,1-1-.15,2.16,2.16,0,0,1-.81-.46,2,2,0,0,1-.54-.76,2.44,2.44,0,0,1-.2-1,2.27,2.27,0,0,1,1-2,5,5,0,0,1,2.84-.68h1.27v-.52a1.3,1.3,0,0,0-.42-1.12,2.31,2.31,0,0,0-1.38-.32,4.7,4.7,0,0,0-1.52.24,6.73,6.73,0,0,0-1.26.53v-1.55a6.89,6.89,0,0,1,1.31-.51,6.33,6.33,0,0,1,1.78-.24,4,4,0,0,1,2.47.66,2.49,2.49,0,0,1,.87,2.12v4.34c0,.09,0,.2,0,.33s0,.24,0,.37,0,.25,0,.36,0,.21,0,.28h-1.71c0-.15-.06-.36-.09-.62s0-.51-.05-.72Zm-2.11.17a1.76,1.76,0,0,0,1-.25,2.18,2.18,0,0,0,.63-.57,2.14,2.14,0,0,0,.34-.65,2.09,2.09,0,0,0,.1-.45v-.56h-1.15a3,3,0,0,0-1.62.35,1.1,1.1,0,0,0-.51,1,1.15,1.15,0,0,0,.31.86A1.23,1.23,0,0,0,471.52,219.69Z"/><path class="cls-3" d="M480.4,214.75a2.25,2.25,0,0,0-1.12,1V221h-1.86v-8.3h1.7l.13,1.73h0a3.48,3.48,0,0,1,1.1-1.28,3.18,3.18,0,0,1,1.67-.61v2A4,4,0,0,0,480.4,214.75Z"/><path class="cls-3" d="M490.33,220.36a3.81,3.81,0,0,1-.43.25,3.21,3.21,0,0,1-.61.25,6.09,6.09,0,0,1-.81.19,6.64,6.64,0,0,1-1.06.08A4.64,4.64,0,0,1,484,220a4.3,4.3,0,0,1-1.13-3.19,5.17,5.17,0,0,1,.3-1.81,3.88,3.88,0,0,1,.85-1.35,3.71,3.71,0,0,1,1.3-.85,4.59,4.59,0,0,1,1.64-.29,4.49,4.49,0,0,1,1.68.3,3,3,0,0,1,1.22.91,3.53,3.53,0,0,1,.66,1.51,5.82,5.82,0,0,1,0,2.09H484.8a2.49,2.49,0,0,0,.75,1.71,3,3,0,0,0,2,.57,5,5,0,0,0,1.66-.25,7.44,7.44,0,0,0,1.12-.52ZM487,214a2,2,0,0,0-1.37.5,2.46,2.46,0,0,0-.74,1.47h3.91a2,2,0,0,0-.45-1.49A1.83,1.83,0,0,0,487,214Z"/><path class="cls-3" d="M497,219.52a2.86,2.86,0,0,1-.34.57,2.38,2.38,0,0,1-.53.52,2.58,2.58,0,0,1-.74.38,3.42,3.42,0,0,1-1,.14,3.29,3.29,0,0,1-1-.15,2.16,2.16,0,0,1-.81-.46,2,2,0,0,1-.54-.76,2.61,2.61,0,0,1-.2-1,2.3,2.3,0,0,1,1-2,5,5,0,0,1,2.85-.68h1.26v-.52a1.3,1.3,0,0,0-.42-1.12,2.28,2.28,0,0,0-1.37-.32,4.72,4.72,0,0,0-1.53.24,7.34,7.34,0,0,0-1.26.53v-1.55a7,7,0,0,1,1.32-.51,6.21,6.21,0,0,1,1.77-.24,4,4,0,0,1,2.47.66,2.47,2.47,0,0,1,.88,2.12V220c0,.12,0,.24,0,.37s0,.25,0,.36,0,.21,0,.28h-1.72a5.34,5.34,0,0,1-.08-.62q0-.4-.06-.72Zm-2.11.17a1.8,1.8,0,0,0,1-.25,2.18,2.18,0,0,0,.63-.57,2.1,2.1,0,0,0,.33-.65,1.61,1.61,0,0,0,.1-.45v-.56h-1.15a3,3,0,0,0-1.62.35,1.1,1.1,0,0,0-.51,1,1.15,1.15,0,0,0,.31.86A1.25,1.25,0,0,0,494.86,219.69Z"/><path class="cls-3" d="M503.42,223.2a9.44,9.44,0,0,1-1.83-3.24,12.26,12.26,0,0,1-.6-3.9,13.94,13.94,0,0,1,.15-2.05,11.82,11.82,0,0,1,.46-1.93,9.07,9.07,0,0,1,.76-1.74,7.48,7.48,0,0,1,1.06-1.46h1.87a6.91,6.91,0,0,0-1.11,1.43,9.7,9.7,0,0,0-.78,1.73,11.71,11.71,0,0,0-.47,1.92,14,14,0,0,0-.15,2,12.37,12.37,0,0,0,.61,3.91,9.58,9.58,0,0,0,1.9,3.28Z"/><path class="cls-3" d="M508.75,209.5V221h-1.86V209.5Z"/><path class="cls-3" d="M517.77,220.36a3.81,3.81,0,0,1-.43.25,3.21,3.21,0,0,1-.61.25,6.09,6.09,0,0,1-.81.19,6.64,6.64,0,0,1-1.06.08,4.64,4.64,0,0,1-3.41-1.13,4.3,4.3,0,0,1-1.13-3.19,5.17,5.17,0,0,1,.3-1.81,3.88,3.88,0,0,1,.85-1.35,3.63,3.63,0,0,1,1.3-.85,4.59,4.59,0,0,1,1.64-.29,4.49,4.49,0,0,1,1.68.3,3,3,0,0,1,1.22.91,3.53,3.53,0,0,1,.66,1.51,5.82,5.82,0,0,1,0,2.09h-5.74A2.49,2.49,0,0,0,513,219a3,3,0,0,0,2,.57,5,5,0,0,0,1.66-.25,7.94,7.94,0,0,0,1.12-.52ZM514.41,214a2,2,0,0,0-1.37.5,2.46,2.46,0,0,0-.74,1.47h3.91a2,2,0,0,0-.45-1.49A1.83,1.83,0,0,0,514.41,214Z"/><path class="cls-3" d="M523.69,214a2.4,2.4,0,0,0-1.34.35,2.71,2.71,0,0,0-.86.89V221h-1.86v-8.3h1.76l.06,1.36h0a2.77,2.77,0,0,1,1-1.09,3.18,3.18,0,0,1,1.74-.43,3,3,0,0,1,2,.65,2.48,2.48,0,0,1,.78,2V221h-1.88v-5.61a1.21,1.21,0,0,0-.38-1A1.69,1.69,0,0,0,523.69,214Z"/><path class="cls-3" d="M536.57,219.9a5.24,5.24,0,0,1-.24,1.64,3,3,0,0,1-.8,1.24,3.58,3.58,0,0,1-1.4.78,6.6,6.6,0,0,1-2.07.28,7.26,7.26,0,0,1-1.12-.08,5,5,0,0,1-.83-.17,3.61,3.61,0,0,1-.6-.23,3.35,3.35,0,0,1-.43-.23V221.6l.53.27a3.66,3.66,0,0,0,.64.22,4.38,4.38,0,0,0,.8.15,7.83,7.83,0,0,0,1,.06,3.18,3.18,0,0,0,2-.51,2.22,2.22,0,0,0,.64-1.83v-.83a3,3,0,0,1-1,1.1,2.88,2.88,0,0,1-1.58.41,3.8,3.8,0,0,1-1.38-.26,3.16,3.16,0,0,1-1.17-.76,3.53,3.53,0,0,1-.8-1.26,4.83,4.83,0,0,1-.3-1.77,4.9,4.9,0,0,1,.3-1.79,3.58,3.58,0,0,1,.8-1.27,3.27,3.27,0,0,1,1.17-.77,4,4,0,0,1,1.41-.25,2.85,2.85,0,0,1,2.67,1.53v0c0-.2,0-.43,0-.7s.06-.48.09-.63h1.71c0,.15,0,.36,0,.64s0,.5,0,.69Zm-4-.8a2.08,2.08,0,0,0,1.55-.62,2.56,2.56,0,0,0,.61-1.88,2.65,2.65,0,0,0-.61-1.92,2.06,2.06,0,0,0-1.56-.64,2.49,2.49,0,0,0-.87.16,1.86,1.86,0,0,0-.69.49,2.37,2.37,0,0,0-.47.79,3.44,3.44,0,0,0-.16,1.12,2.51,2.51,0,0,0,.62,1.87A2.13,2.13,0,0,0,532.57,219.1Z"/><path class="cls-3" d="M542.43,221a3.73,3.73,0,0,1-1,.12,3.08,3.08,0,0,1-1.13-.18,1.92,1.92,0,0,1-.75-.51,1.86,1.86,0,0,1-.41-.74,2.92,2.92,0,0,1-.13-.9v-4.63h-1v-1.5h1v-1.75h1.86v1.75h2.38v1.5h-2.38v4.43a1,1,0,0,0,.24.75,1.13,1.13,0,0,0,.83.25,1.74,1.74,0,0,0,.67-.12,1.86,1.86,0,0,0,.53-.3v1.54A2.7,2.7,0,0,1,542.43,221Z"/><path class="cls-3" d="M548.94,214a2.4,2.4,0,0,0-1.34.35,2.74,2.74,0,0,0-.87.89V221h-1.85V209.5h1.85V214h0a3.3,3.3,0,0,1,4.75-.87,2.51,2.51,0,0,1,.77,2V221h-1.87v-5.61a1.24,1.24,0,0,0-.38-1A1.69,1.69,0,0,0,548.94,214Z"/><path class="cls-3" d="M554,222.73a4.18,4.18,0,0,0,.57-.85,4.93,4.93,0,0,0,.36-.94,1.14,1.14,0,0,1-.66-.42,1.16,1.16,0,0,1-.22-.7,1.2,1.2,0,0,1,.33-.86,1.35,1.35,0,0,1,1.81,0,1.38,1.38,0,0,1,.35,1,2.76,2.76,0,0,1-.11.8,3.85,3.85,0,0,1-.29.76,4,4,0,0,1-.39.67,3,3,0,0,1-.42.49Z"/><path class="cls-3" d="M571.5,221h-2.66l-1.58-6-1.6,6H563l-1.82-8.3h1.9l1.41,6.81,1.87-6.81h1.94l1.82,6.77,1.41-6.77h1.76Z"/><path class="cls-3" d="M575.71,211.61a1.13,1.13,0,0,1-1.17-1.13,1.14,1.14,0,0,1,1.17-1.14,1.08,1.08,0,0,1,.82.34,1.09,1.09,0,0,1,.33.8,1.13,1.13,0,0,1-1.15,1.13Zm.92,1.06V221h-1.85v-8.3Z"/><path class="cls-3" d="M584.67,219.42a3.38,3.38,0,0,1-1.08,1.25,2.84,2.84,0,0,1-1.67.46,3.92,3.92,0,0,1-1.41-.26,3.42,3.42,0,0,1-1.19-.8,3.92,3.92,0,0,1-.81-1.35,6,6,0,0,1,0-3.8,3.79,3.79,0,0,1,.82-1.35,3.47,3.47,0,0,1,1.19-.8,4,4,0,0,1,1.41-.26,3.17,3.17,0,0,1,1.59.37,2.83,2.83,0,0,1,1.08,1V209.5h1.84V221h-1.68Zm-2.32.18a2.3,2.3,0,0,0,.88-.17,2.08,2.08,0,0,0,.73-.52,2.47,2.47,0,0,0,.48-.86,4.29,4.29,0,0,0,0-2.46,2.32,2.32,0,0,0-.48-.86,1.85,1.85,0,0,0-.72-.52,2.39,2.39,0,0,0-.89-.17,2.07,2.07,0,0,0-1.61.71,3.77,3.77,0,0,0,0,4.16A2.09,2.09,0,0,0,582.35,219.6Z"/><path class="cls-3" d="M592.28,221a3.68,3.68,0,0,1-1,.12,3.11,3.11,0,0,1-1.13-.18,1.89,1.89,0,0,1-.74-.51,2,2,0,0,1-.42-.74,3.26,3.26,0,0,1-.12-.9v-4.63h-1v-1.5h1v-1.75h1.85v1.75h2.39v1.5h-2.39v4.43a1,1,0,0,0,.25.75,1.1,1.1,0,0,0,.82.25,1.71,1.71,0,0,0,.67-.12,1.73,1.73,0,0,0,.53-.3v1.54A2.7,2.7,0,0,1,592.28,221Z"/><path class="cls-3" d="M598.79,214a2.4,2.4,0,0,0-1.34.35,2.71,2.71,0,0,0-.86.89V221h-1.86V209.5h1.86v3.07l0,1.46h0a2.92,2.92,0,0,1,1-1.08,3.07,3.07,0,0,1,1.73-.44,3,3,0,0,1,2,.65,2.48,2.48,0,0,1,.78,2V221h-1.87v-5.61a1.21,1.21,0,0,0-.39-1A1.67,1.67,0,0,0,598.79,214Z"/><path class="cls-3" d="M603.61,223.2a9.43,9.43,0,0,0,1.9-3.28,12.09,12.09,0,0,0,.61-3.91,14,14,0,0,0-.15-2,11.7,11.7,0,0,0-.46-1.92,9.07,9.07,0,0,0-.79-1.73,6.29,6.29,0,0,0-1.11-1.43h1.87a7.52,7.52,0,0,1,1.07,1.46,10.51,10.51,0,0,1,.76,1.74,11.81,11.81,0,0,1,.45,1.93,13.94,13.94,0,0,1,.16,2.05,12.26,12.26,0,0,1-.61,3.9,9.28,9.28,0,0,1-1.83,3.24Z"/><path class="cls-3" d="M74,90.13a5,5,0,0,1-1.74-.29A3.8,3.8,0,0,1,71,89a3.7,3.7,0,0,1-.83-1.35,5.49,5.49,0,0,1-.29-1.83,5.17,5.17,0,0,1,.3-1.81A3.86,3.86,0,0,1,71,82.65a3.66,3.66,0,0,1,1.33-.85,5.71,5.71,0,0,1,3.18-.12,3,3,0,0,1,1.06.48v1.27a3.87,3.87,0,0,0-1.15-.51,5.09,5.09,0,0,0-1.3-.16,2.77,2.77,0,0,0-2.14.75,3.37,3.37,0,0,0-.68,2.31A3.43,3.43,0,0,0,72,88.13a2.63,2.63,0,0,0,2.08.75,5,5,0,0,0,1.38-.18,5.22,5.22,0,0,0,1.15-.47v1.25a4.86,4.86,0,0,1-2.53.65Z"/><path class="cls-3" d="M79,80.45a.94.94,0,0,1-.69-.26.9.9,0,0,1-.25-.65.94.94,0,0,1,.25-.66.9.9,0,0,1,.69-.27.84.84,0,0,1,.66.27,1,1,0,0,1,.24.66.93.93,0,0,1-.24.65A.87.87,0,0,1,79,80.45Zm.69,1.22V90H78.28v-8.3Z"/><path class="cls-3" d="M85.38,90a3.8,3.8,0,0,1-.84.09,2.9,2.9,0,0,1-1-.17,1.94,1.94,0,0,1-.69-.48,1.74,1.74,0,0,1-.39-.67A2.53,2.53,0,0,1,82.3,88V82.87h-1v-1.2h1V79.92h1.4v1.75h2.42v1.2H83.7v5a1,1,0,0,0,.27.77,1.39,1.39,0,0,0,.93.24A1.92,1.92,0,0,0,86,88.53V89.8A3.09,3.09,0,0,1,85.38,90Z"/><path class="cls-3" d="M91.46,91.2a4.23,4.23,0,0,1-.72,1,2.5,2.5,0,0,1-.89.6,2.9,2.9,0,0,1-1.14.2,3.65,3.65,0,0,1-.59,0,1.93,1.93,0,0,1-.5-.13V91.44a1.33,1.33,0,0,0,.45.2,2.21,2.21,0,0,0,.59.08,1.61,1.61,0,0,0,1-.29,2.92,2.92,0,0,0,.74-.9L87,81.67h1.55l2.64,7,2.63-7h1.36l-3.11,8.21A9.08,9.08,0,0,1,91.46,91.2Z"/><path class="cls-3" d="M99.38,83.62V82.5h7.73v1.12Zm0,3V85.54h7.73v1.12Z"/><path class="cls-3" d="M114.1,80.87a.9.9,0,0,1-.26.68,1,1,0,0,1-.71.26.94.94,0,0,1-.72-.29,1.1,1.1,0,0,1-.29-.84,2.43,2.43,0,0,1,.09-.65,3.12,3.12,0,0,1,.26-.62c.11-.19.22-.37.34-.54a2.25,2.25,0,0,1,.35-.43h1a4.23,4.23,0,0,0-.46.64,4.54,4.54,0,0,0-.36.86.88.88,0,0,1,.53.34A.93.93,0,0,1,114.1,80.87Zm2.63,0a.91.91,0,0,1-.27.68,1,1,0,0,1-.71.26.94.94,0,0,1-.72-.29,1.14,1.14,0,0,1-.29-.84,2.44,2.44,0,0,1,.1-.65,3.09,3.09,0,0,1,.25-.62c.11-.19.22-.37.34-.54a3.39,3.39,0,0,1,.35-.43h1a3.61,3.61,0,0,0-.45.64,3.53,3.53,0,0,0-.36.86.91.91,0,0,1,.53.34A1,1,0,0,1,116.73,80.87Z"/><path class="cls-3" d="M124.79,86.55l3.73-8h1.95V90H129V80.74l-3.52,7.47-.75,0H124v0l-3.47-7.6V90h-1.42V78.5h2.09Z"/><path class="cls-3" d="M136.36,90.13a4.2,4.2,0,0,1-1.59-.29A3.53,3.53,0,0,1,133.5,89a4,4,0,0,1-.84-1.35,5.76,5.76,0,0,1,0-3.67,4,4,0,0,1,.84-1.35,3.63,3.63,0,0,1,1.27-.83,4.53,4.53,0,0,1,3.19,0,3.63,3.63,0,0,1,1.27.83,3.84,3.84,0,0,1,.85,1.35,5.59,5.59,0,0,1,0,3.67,3.84,3.84,0,0,1-.85,1.35,3.53,3.53,0,0,1-1.27.84A4.21,4.21,0,0,1,136.36,90.13Zm0-1.25a2.86,2.86,0,0,0,1-.18,2.11,2.11,0,0,0,.82-.56,2.5,2.5,0,0,0,.55-1,5,5,0,0,0,0-2.72,2.5,2.5,0,0,0-.55-1,2.11,2.11,0,0,0-.82-.56,3,3,0,0,0-2.06,0,2.19,2.19,0,0,0-.8.56,2.62,2.62,0,0,0-.54,1,5,5,0,0,0,0,2.72,2.62,2.62,0,0,0,.54,1,2.19,2.19,0,0,0,.8.56A2.86,2.86,0,0,0,136.36,88.88Z"/><path class="cls-3" d="M145.69,90.13a5,5,0,0,1-1.74-.29,3.62,3.62,0,0,1-1.32-.85,3.7,3.7,0,0,1-.83-1.35,5.49,5.49,0,0,1-.29-1.83,5.17,5.17,0,0,1,.3-1.81A3.59,3.59,0,0,1,144,81.8a5.13,5.13,0,0,1,1.77-.29,5.24,5.24,0,0,1,1.41.17,2.84,2.84,0,0,1,1.05.48v1.27a3.93,3.93,0,0,0-1.14-.51,5.14,5.14,0,0,0-1.3-.16,2.75,2.75,0,0,0-2.14.75,3.37,3.37,0,0,0-.68,2.31,3.43,3.43,0,0,0,.66,2.31,2.61,2.61,0,0,0,2.08.75,5,5,0,0,0,1.38-.18,5.34,5.34,0,0,0,1.14-.47v1.25a4.55,4.55,0,0,1-1.08.46A4.88,4.88,0,0,1,145.69,90.13Z"/><path class="cls-3" d="M152.25,86.44h-.74V90H150.1v-8.3h1.41v3.57h.8l2.91-3.57h1.6l-3.4,4.09L156.89,90h-1.72Z"/><path class="cls-3" d="M158.38,81.67h3.1a4,4,0,0,1,2.27.52,1.82,1.82,0,0,1,.77,1.62,1.78,1.78,0,0,1-.38,1.18,2.11,2.11,0,0,1-1.06.63,1.84,1.84,0,0,1,1.77,2,2.2,2.2,0,0,1-.25,1.09,2,2,0,0,1-.71.75,2.93,2.93,0,0,1-1.08.41,6.47,6.47,0,0,1-1.36.13h-3.07Zm1.4,1.2v2.25h1.57a2.57,2.57,0,0,0,1.29-.28,1,1,0,0,0,.05-1.73,2.53,2.53,0,0,0-1.23-.24Zm0,3.37v2.53h1.65a6.51,6.51,0,0,0,.81,0,2.05,2.05,0,0,0,.62-.2,1.06,1.06,0,0,0,.56-1,1.07,1.07,0,0,0-.5-1,3.06,3.06,0,0,0-1.49-.29Z"/><path class="cls-3" d="M171.83,88.39a5.16,5.16,0,0,1-.37.6,2.74,2.74,0,0,1-.56.57,2.68,2.68,0,0,1-.79.41,3.11,3.11,0,0,1-1.06.16,2.57,2.57,0,0,1-1.81-.63,2.34,2.34,0,0,1-.69-1.82,2.26,2.26,0,0,1,.95-2,4.91,4.91,0,0,1,2.71-.64h1.56v-.68a1.53,1.53,0,0,0-.45-1.24,2.51,2.51,0,0,0-1.54-.36,4.37,4.37,0,0,0-1.45.24,8.4,8.4,0,0,0-1.24.57V82.31a7.12,7.12,0,0,1,1.21-.54,5.27,5.27,0,0,1,1.67-.26,3.74,3.74,0,0,1,2.39.65,2.41,2.41,0,0,1,.81,2v4.47c0,.09,0,.2,0,.33s0,.24,0,.37,0,.25,0,.36,0,.21,0,.28H172a5.27,5.27,0,0,1-.08-.63,6.45,6.45,0,0,1,0-.71Zm-2.48.49a2.19,2.19,0,0,0,1.12-.27,2.49,2.49,0,0,0,.75-.64,2.76,2.76,0,0,0,.42-.7,2,2,0,0,0,.13-.49v-.62h-1.41a3.43,3.43,0,0,0-1.83.37,1.19,1.19,0,0,0-.57,1.08,1.3,1.3,0,0,0,.33.92A1.4,1.4,0,0,0,169.35,88.88Z"/><path class="cls-3" d="M177.11,79.56a2.05,2.05,0,0,1-.1.65,3,3,0,0,1-.25.62,5.87,5.87,0,0,1-.69,1h-1a4.35,4.35,0,0,0,.46-.65,4.43,4.43,0,0,0,.36-.85.93.93,0,0,1-.53-.34,1,1,0,0,1-.19-.59.9.9,0,0,1,.26-.68.94.94,0,0,1,.71-.26,1,1,0,0,1,.72.28A1.16,1.16,0,0,1,177.11,79.56Zm2.62,0a2.37,2.37,0,0,1-.09.65,3.7,3.7,0,0,1-.26.62,4.64,4.64,0,0,1-.69,1h-1a3.32,3.32,0,0,0,.48-.65,3.87,3.87,0,0,0,.34-.85,1,1,0,0,1-.53-.34A1,1,0,0,1,178,78.7a1,1,0,0,1,.72-.26,1,1,0,0,1,.72.28A1.15,1.15,0,0,1,179.73,79.56Z"/><rect class="cls-1" x="210" y="67" width="220" height="35" rx="2"/><path class="cls-3" d="M230.74,88.39a5.16,5.16,0,0,1-.37.6,3,3,0,0,1-.56.57A2.68,2.68,0,0,1,229,90a3.17,3.17,0,0,1-1.07.16,2.55,2.55,0,0,1-1.8-.63,2.34,2.34,0,0,1-.69-1.82,2.26,2.26,0,0,1,.95-2,4.89,4.89,0,0,1,2.71-.64h1.55v-.68a1.56,1.56,0,0,0-.44-1.24,2.51,2.51,0,0,0-1.54-.36,4.43,4.43,0,0,0-1.46.24,8.27,8.27,0,0,0-1.23.57V82.31a6.77,6.77,0,0,1,1.21-.54,5.22,5.22,0,0,1,1.67-.26,3.74,3.74,0,0,1,2.39.65,2.41,2.41,0,0,1,.81,2v4.47c0,.09,0,.2,0,.33s0,.24,0,.37,0,.25,0,.36,0,.21,0,.28h-1.28q0-.23-.09-.63c0-.27,0-.51,0-.71Zm-2.48.49a2.19,2.19,0,0,0,1.12-.27,2.49,2.49,0,0,0,.75-.64,2.76,2.76,0,0,0,.42-.7,1.82,1.82,0,0,0,.12-.49v-.62h-1.4a3.45,3.45,0,0,0-1.84.37,1.19,1.19,0,0,0-.56,1.08,1.3,1.3,0,0,0,.33.92A1.4,1.4,0,0,0,228.26,88.88Z"/><path class="cls-3" d="M236.78,83.53a2.31,2.31,0,0,0-1.08,1.16V90h-1.41v-8.3h1.23l.15,1.81h0a3.78,3.78,0,0,1,1-1.29,3.18,3.18,0,0,1,1.69-.68v1.57A4.23,4.23,0,0,0,236.78,83.53Z"/><path class="cls-3" d="M246.48,89.27a3.22,3.22,0,0,1-.43.27,4.06,4.06,0,0,1-.62.28,4.67,4.67,0,0,1-.84.22,5.44,5.44,0,0,1-1,.09A4.23,4.23,0,0,1,240.37,89a4.41,4.41,0,0,1-1.09-3.19,5.17,5.17,0,0,1,.3-1.81,4,4,0,0,1,.82-1.35,3.6,3.6,0,0,1,1.25-.85,4.22,4.22,0,0,1,1.57-.29,4.07,4.07,0,0,1,1.6.3,2.85,2.85,0,0,1,1.16.9,3.41,3.41,0,0,1,.62,1.46,6,6,0,0,1,0,2h-5.85a2.87,2.87,0,0,0,.8,2,3.06,3.06,0,0,0,2.14.66,4.53,4.53,0,0,0,1.65-.27,5.35,5.35,0,0,0,1.15-.6Zm-3.29-6.51a2.29,2.29,0,0,0-1.57.56,2.6,2.6,0,0,0-.83,1.69h4.46a2,2,0,0,0-.53-1.7A2.14,2.14,0,0,0,243.19,82.76Z"/><path class="cls-3" d="M253.22,88.39a5.16,5.16,0,0,1-.37.6,3,3,0,0,1-.56.57,2.68,2.68,0,0,1-.79.41,3.17,3.17,0,0,1-1.07.16,2.59,2.59,0,0,1-1.81-.63,2.38,2.38,0,0,1-.68-1.82,2.24,2.24,0,0,1,.95-2A4.89,4.89,0,0,1,251.6,85h1.55v-.68a1.56,1.56,0,0,0-.44-1.24,2.53,2.53,0,0,0-1.54-.36,4.43,4.43,0,0,0-1.46.24,7.82,7.82,0,0,0-1.23.57V82.31a6.77,6.77,0,0,1,1.21-.54,5.22,5.22,0,0,1,1.67-.26,3.74,3.74,0,0,1,2.39.65,2.41,2.41,0,0,1,.81,2v4.47c0,.09,0,.2,0,.33s0,.24,0,.37,0,.25,0,.36,0,.21,0,.28h-1.28q0-.23-.09-.63c0-.27,0-.51,0-.71Zm-2.48.49a2.21,2.21,0,0,0,1.12-.27,2.49,2.49,0,0,0,.75-.64,2.76,2.76,0,0,0,.42-.7,1.82,1.82,0,0,0,.12-.49v-.62h-1.4a3.45,3.45,0,0,0-1.84.37,1.19,1.19,0,0,0-.57,1.08,1.3,1.3,0,0,0,.34.92A1.4,1.4,0,0,0,250.74,88.88Z"/><path class="cls-3" d="M259.67,83.62V82.5h7.72v1.12Zm0,3V85.54h7.72v1.12Z"/><path class="cls-3" d="M274.38,80.87a.9.9,0,0,1-.26.68,1,1,0,0,1-.71.26.94.94,0,0,1-.72-.29,1.14,1.14,0,0,1-.29-.84,2.1,2.1,0,0,1,.1-.65,3.09,3.09,0,0,1,.25-.62c.11-.19.22-.37.34-.54a2.7,2.7,0,0,1,.35-.43h1a4.23,4.23,0,0,0-.46.64,4.54,4.54,0,0,0-.36.86.88.88,0,0,1,.53.34A.93.93,0,0,1,274.38,80.87Zm2.63,0a.91.91,0,0,1-.27.68,1,1,0,0,1-.71.26.94.94,0,0,1-.72-.29,1.14,1.14,0,0,1-.29-.84,2.44,2.44,0,0,1,.1-.65,2.62,2.62,0,0,1,.26-.62,4.86,4.86,0,0,1,.33-.54,3.39,3.39,0,0,1,.35-.43h1a3.61,3.61,0,0,0-.45.64,3.53,3.53,0,0,0-.36.86.91.91,0,0,1,.53.34A1,1,0,0,1,277,80.87Z"/><path class="cls-3" d="M282.13,85.06h-1.22V90h-1.5V78.5h1.5v5.2H282l4.1-5.2h1.69l-4.52,5.73L288,90h-1.87Z"/><path class="cls-3" d="M293.49,90.13a3,3,0,0,1-1.66-.45,3.31,3.31,0,0,1-1.11-1.23V92.8h-1.41V81.67h1.23l.15,1.61A3.43,3.43,0,0,1,291.81,82a3,3,0,0,1,1.74-.48,3.89,3.89,0,0,1,1.39.26,3.18,3.18,0,0,1,1.16.8,3.75,3.75,0,0,1,.8,1.35,6.17,6.17,0,0,1,0,3.8,4.1,4.1,0,0,1-.82,1.35,3.48,3.48,0,0,1-1.18.8A4,4,0,0,1,293.49,90.13Zm-.21-1.25a2.25,2.25,0,0,0,1.78-.76,4.21,4.21,0,0,0,0-4.59,2.26,2.26,0,0,0-1.78-.77,2.68,2.68,0,0,0-1,.19,2.3,2.3,0,0,0-.81.57,2.83,2.83,0,0,0-.55,1,4.66,4.66,0,0,0,0,2.7,3,3,0,0,0,.55,1,2.07,2.07,0,0,0,.81.57A2.88,2.88,0,0,0,293.28,88.88Z"/><path class="cls-3" d="M303.7,88.39a5.16,5.16,0,0,1-.37.6,3,3,0,0,1-.56.57A2.81,2.81,0,0,1,302,90a3.17,3.17,0,0,1-1.07.16,2.59,2.59,0,0,1-1.81-.63,2.38,2.38,0,0,1-.68-1.82,2.24,2.24,0,0,1,.95-2,4.89,4.89,0,0,1,2.71-.64h1.55v-.68a1.53,1.53,0,0,0-.45-1.24,2.47,2.47,0,0,0-1.53-.36,4.43,4.43,0,0,0-1.46.24,7.82,7.82,0,0,0-1.23.57V82.31a6.77,6.77,0,0,1,1.21-.54,5.18,5.18,0,0,1,1.67-.26,3.69,3.69,0,0,1,2.38.65,2.38,2.38,0,0,1,.82,2v4.47c0,.09,0,.2,0,.33s0,.24,0,.37,0,.25,0,.36,0,.21,0,.28h-1.28q0-.23-.09-.63c0-.27,0-.51,0-.71Zm-2.48.49a2.21,2.21,0,0,0,1.12-.27,2.49,2.49,0,0,0,.75-.64,2.45,2.45,0,0,0,.41-.7,1.6,1.6,0,0,0,.13-.49v-.62h-1.41a3.43,3.43,0,0,0-1.83.37,1.19,1.19,0,0,0-.57,1.08,1.3,1.3,0,0,0,.34.92A1.38,1.38,0,0,0,301.22,88.88Z"/><path class="cls-3" d="M310.83,90.13a4.94,4.94,0,0,1-1.73-.29,3.62,3.62,0,0,1-1.32-.85,3.72,3.72,0,0,1-.84-1.35,5.5,5.5,0,0,1-.28-1.83A5.17,5.17,0,0,1,307,84a3.86,3.86,0,0,1,.84-1.35,3.75,3.75,0,0,1,1.33-.85,5.19,5.19,0,0,1,1.78-.29,5.12,5.12,0,0,1,1.4.17,3,3,0,0,1,1.06.48v1.27a3.93,3.93,0,0,0-1.14-.51,5.22,5.22,0,0,0-1.31-.16,2.73,2.73,0,0,0-2.13.75,3.32,3.32,0,0,0-.68,2.31,3.48,3.48,0,0,0,.65,2.31,2.63,2.63,0,0,0,2.08.75,5.14,5.14,0,0,0,1.39-.18,5.34,5.34,0,0,0,1.14-.47v1.25a4.86,4.86,0,0,1-2.53.65Z"/><path class="cls-3" d="M320.67,86.29h-4V90h-1.41v-8.3h1.41v3.42h4V81.67h1.41V90h-1.41Z"/><path class="cls-3" d="M329.25,88.39a5.16,5.16,0,0,1-.37.6,3,3,0,0,1-.56.57,2.68,2.68,0,0,1-.79.41,3.17,3.17,0,0,1-1.07.16,2.57,2.57,0,0,1-1.8-.63,2.34,2.34,0,0,1-.69-1.82,2.26,2.26,0,0,1,.95-2,4.89,4.89,0,0,1,2.71-.64h1.55v-.68a1.52,1.52,0,0,0-.44-1.24,2.51,2.51,0,0,0-1.54-.36,4.43,4.43,0,0,0-1.46.24,8.77,8.77,0,0,0-1.23.57V82.31a6.77,6.77,0,0,1,1.21-.54,5.22,5.22,0,0,1,1.67-.26,3.74,3.74,0,0,1,2.39.65,2.41,2.41,0,0,1,.81,2v4.47c0,.09,0,.2,0,.33s0,.24,0,.37,0,.25,0,.36,0,.21,0,.28h-1.28q0-.23-.09-.63c0-.27,0-.51,0-.71Zm-2.48.49a2.19,2.19,0,0,0,1.12-.27,2.49,2.49,0,0,0,.75-.64,2.76,2.76,0,0,0,.42-.7,1.82,1.82,0,0,0,.12-.49v-.62h-1.4a3.45,3.45,0,0,0-1.84.37,1.21,1.21,0,0,0-.56,1.08,1.3,1.3,0,0,0,.33.92A1.4,1.4,0,0,0,326.77,88.88Z"/><path class="cls-3" d="M332.8,84.36a2.64,2.64,0,0,1,.26-1.21,2.14,2.14,0,0,1,.72-.83,3.08,3.08,0,0,1,1.1-.49,5.58,5.58,0,0,1,1.39-.16h2.67V90h-1.4V87H336l-2.13,3h-1.68l2.4-3.36a2.84,2.84,0,0,1-1.34-.78A2.14,2.14,0,0,1,332.8,84.36Zm4.74,1.4V82.87h-1.27a2.91,2.91,0,0,0-1.47.33,1.18,1.18,0,0,0-.58,1.09,1.25,1.25,0,0,0,.52,1.13,2.57,2.57,0,0,0,1.45.34Z"/><path class="cls-3" d="M344.77,81.67h6.65V90H350v-7.1h-3.84V90h-1.41Z"/><path class="cls-3" d="M354.37,87.4a11,11,0,0,0,.29-2.21c0-.93.06-2.1.06-3.52h5.58V90h-1.42v-7.1h-2.83c0,1.14-.05,2.15-.11,3a10,10,0,0,1-.36,2.24,2.91,2.91,0,0,1-.82,1.38,2.06,2.06,0,0,1-1.43.47h-.27V88.6h.2C353.81,88.61,354.18,88.21,354.37,87.4Z"/><path class="cls-3" d="M366,90.13a4.11,4.11,0,0,1-1.58-.29,3.56,3.56,0,0,1-1.28-.84,4,4,0,0,1-.84-1.35,5.76,5.76,0,0,1,0-3.67,4,4,0,0,1,.84-1.35,3.68,3.68,0,0,1,1.28-.83,4.11,4.11,0,0,1,1.58-.29,4.18,4.18,0,0,1,1.6.29,3.63,3.63,0,0,1,1.27.83,3.84,3.84,0,0,1,.85,1.35,5.59,5.59,0,0,1,0,3.67,3.84,3.84,0,0,1-.85,1.35,3.53,3.53,0,0,1-1.27.84A4.18,4.18,0,0,1,366,90.13Zm0-1.25a2.86,2.86,0,0,0,1-.18,2.22,2.22,0,0,0,.83-.56,2.62,2.62,0,0,0,.54-1,5,5,0,0,0,0-2.72,2.62,2.62,0,0,0-.54-1,2.22,2.22,0,0,0-.83-.56,2.86,2.86,0,0,0-1-.18,2.8,2.8,0,0,0-1,.18,2.15,2.15,0,0,0-.81.56,2.62,2.62,0,0,0-.54,1,5,5,0,0,0,0,2.72,2.62,2.62,0,0,0,.54,1,2.15,2.15,0,0,0,.81.56A2.8,2.8,0,0,0,366,88.88Z"/><path class="cls-3" d="M382.11,88.77h1.25v3.57h-1.2L382,90H371.75v-8.3h1.4v7.1h3.07v-7.1h1.41v7.1h3.08v-7.1h1.4Z"/><path class="cls-3" d="M389.62,88.39a5.16,5.16,0,0,1-.37.6,3,3,0,0,1-.56.57,2.81,2.81,0,0,1-.79.41,3.17,3.17,0,0,1-1.07.16A2.59,2.59,0,0,1,385,89.5a2.38,2.38,0,0,1-.68-1.82,2.24,2.24,0,0,1,1-2A4.89,4.89,0,0,1,388,85h1.55v-.68a1.53,1.53,0,0,0-.45-1.24,2.47,2.47,0,0,0-1.53-.36,4.43,4.43,0,0,0-1.46.24,7.82,7.82,0,0,0-1.23.57V82.31a6.77,6.77,0,0,1,1.21-.54,5.18,5.18,0,0,1,1.67-.26,3.69,3.69,0,0,1,2.38.65,2.38,2.38,0,0,1,.82,2v4.47c0,.09,0,.2,0,.33s0,.24,0,.37,0,.25,0,.36,0,.21,0,.28h-1.28q0-.23-.09-.63c0-.27,0-.51,0-.71Zm-2.48.49a2.21,2.21,0,0,0,1.12-.27A2.49,2.49,0,0,0,389,88a2.45,2.45,0,0,0,.41-.7,1.6,1.6,0,0,0,.13-.49v-.62h-1.41a3.43,3.43,0,0,0-1.83.37,1.19,1.19,0,0,0-.57,1.08,1.3,1.3,0,0,0,.34.92A1.38,1.38,0,0,0,387.14,88.88Z"/><path class="cls-3" d="M392.8,88.77a1.77,1.77,0,0,0,.7-.85,5.77,5.77,0,0,0,.4-1.45,16.14,16.14,0,0,0,.2-2.08c0-.8.08-1.71.11-2.72h5.71v7.1h1.25v3.57h-1.23L399.76,90h-6.18l-.14,2.37h-1.26V88.77Zm5.71,0v-5.9h-3a34.23,34.23,0,0,1-.29,3.77,4.84,4.84,0,0,1-.75,2.13Z"/><path class="cls-3" d="M408.82,87.2a2.84,2.84,0,0,1-.26,1.25,2.34,2.34,0,0,1-.72.87,3.16,3.16,0,0,1-1.1.49,5.61,5.61,0,0,1-1.4.16h-2.75v-8.3H404v2.89h1.44a4.25,4.25,0,0,1,2.48.63A2.27,2.27,0,0,1,408.82,87.2ZM404,85.76v3h1.34a2.8,2.8,0,0,0,1.48-.34,1.23,1.23,0,0,0,.57-1.15,1.3,1.3,0,0,0-.51-1.16,2.47,2.47,0,0,0-1.44-.36Z"/><path class="cls-3" d="M411.7,79.56a2.38,2.38,0,0,1-.1.65,3,3,0,0,1-.26.62,4.26,4.26,0,0,1-.34.55c-.12.17-.24.31-.34.43h-1a3.7,3.7,0,0,0,.45-.65,3.45,3.45,0,0,0,.36-.85,1,1,0,0,1-.53-.34,1,1,0,0,1-.19-.59.91.91,0,0,1,.27-.68.93.93,0,0,1,.71-.26,1,1,0,0,1,.72.28A1.16,1.16,0,0,1,411.7,79.56Zm2.62,0a2.05,2.05,0,0,1-.1.65,3,3,0,0,1-.25.62,5.87,5.87,0,0,1-.69,1h-1a3.29,3.29,0,0,0,.47-.65,3.44,3.44,0,0,0,.35-.85.93.93,0,0,1-.53-.34,1,1,0,0,1-.19-.59.9.9,0,0,1,.26-.68.94.94,0,0,1,.71-.26,1,1,0,0,1,.72.28A1.16,1.16,0,0,1,414.32,79.56Z"/><path class="cls-3" d="M296.34,149.5H305V161h-1.52V150.86h-5.6V161h-1.51Z"/><path class="cls-3" d="M314.06,160.27a3.39,3.39,0,0,1-.44.27,3.66,3.66,0,0,1-.62.28,4.55,4.55,0,0,1-.83.22,5.52,5.52,0,0,1-1,.09,4.25,4.25,0,0,1-3.19-1.13,4.45,4.45,0,0,1-1.08-3.19,5.17,5.17,0,0,1,.29-1.81,3.84,3.84,0,0,1,.83-1.35,3.56,3.56,0,0,1,1.24-.85,4.26,4.26,0,0,1,1.57-.29,4,4,0,0,1,1.6.3,2.79,2.79,0,0,1,1.16.9,3.41,3.41,0,0,1,.63,1.46,6,6,0,0,1,0,2h-5.86a2.91,2.91,0,0,0,.8,2,3.09,3.09,0,0,0,2.15.66,4.43,4.43,0,0,0,1.64-.27,5.44,5.44,0,0,0,1.16-.6Zm-3.3-6.51a2.31,2.31,0,0,0-1.57.56,2.64,2.64,0,0,0-.83,1.69h4.46a2,2,0,0,0-.52-1.7A2.17,2.17,0,0,0,310.76,153.76Z"/><path class="cls-3" d="M320.23,161.13a3,3,0,0,1-1.65-.45,3.25,3.25,0,0,1-1.12-1.23v4.35h-1.4V152.67h1.23l.14,1.61a3.43,3.43,0,0,1,1.12-1.29,3,3,0,0,1,1.75-.48,3.8,3.8,0,0,1,1.38.26,3.3,3.3,0,0,1,1.17.8,4.06,4.06,0,0,1,.8,1.35,6.27,6.27,0,0,1,0,3.8,3.79,3.79,0,0,1-.82,1.35,3.38,3.38,0,0,1-1.18.8A4,4,0,0,1,320.23,161.13Zm-.21-1.25a2.29,2.29,0,0,0,1.79-.76,4.21,4.21,0,0,0,0-4.59,2.29,2.29,0,0,0-1.79-.77,2.59,2.59,0,0,0-1,.19,2.25,2.25,0,0,0-.82.57,2.66,2.66,0,0,0-.54.95,4.66,4.66,0,0,0,0,2.7,2.79,2.79,0,0,0,.54,1,2,2,0,0,0,.82.57A2.79,2.79,0,0,0,320,159.88Z"/><path class="cls-3" d="M332.26,160.27a2.68,2.68,0,0,1-.43.27,4.06,4.06,0,0,1-.62.28,4.55,4.55,0,0,1-.83.22,5.52,5.52,0,0,1-1,.09,4.25,4.25,0,0,1-3.19-1.13,4.45,4.45,0,0,1-1.09-3.19,5.17,5.17,0,0,1,.3-1.81,4,4,0,0,1,.82-1.35,3.7,3.7,0,0,1,1.25-.85,4.22,4.22,0,0,1,1.57-.29,4,4,0,0,1,1.6.3,2.79,2.79,0,0,1,1.16.9,3.41,3.41,0,0,1,.62,1.46,6,6,0,0,1,0,2h-5.86a2.87,2.87,0,0,0,.8,2,3.06,3.06,0,0,0,2.14.66,4.53,4.53,0,0,0,1.65-.27,5.35,5.35,0,0,0,1.15-.6ZM329,153.76a2.31,2.31,0,0,0-1.57.56,2.64,2.64,0,0,0-.83,1.69H331a2,2,0,0,0-.53-1.7A2.13,2.13,0,0,0,329,153.76Z"/><path class="cls-3" d="M336.41,157.44h-.74V161h-1.41v-8.3h1.41v3.57h.8l2.91-3.57H341l-3.4,4.09,3.47,4.21h-1.72Z"/><path class="cls-3" d="M346.71,161.13a3,3,0,0,1-1.66-.45,3.31,3.31,0,0,1-1.11-1.23v4.35h-1.4V152.67h1.23l.14,1.61A3.43,3.43,0,0,1,345,153a3,3,0,0,1,1.74-.48,3.85,3.85,0,0,1,1.39.26,3.3,3.3,0,0,1,1.17.8,4.06,4.06,0,0,1,.8,1.35,5.65,5.65,0,0,1,.29,1.89,5.43,5.43,0,0,1-.3,1.91,3.94,3.94,0,0,1-.82,1.35,3.38,3.38,0,0,1-1.18.8A4,4,0,0,1,346.71,161.13Zm-.21-1.25a2.29,2.29,0,0,0,1.79-.76,4.21,4.21,0,0,0,0-4.59,2.29,2.29,0,0,0-1.79-.77,2.59,2.59,0,0,0-1,.19,2.25,2.25,0,0,0-.82.57,2.66,2.66,0,0,0-.54.95,4.66,4.66,0,0,0,0,2.7,2.79,2.79,0,0,0,.54,1,2,2,0,0,0,.82.57A2.79,2.79,0,0,0,346.5,159.88Z"/><path class="cls-3" d="M358.28,158.2a2.84,2.84,0,0,1-.26,1.25,2.34,2.34,0,0,1-.72.87,3.16,3.16,0,0,1-1.1.49,5.58,5.58,0,0,1-1.39.16h-2.68v-8.3h1.41v2.89h1.36a4.23,4.23,0,0,1,2.48.63A2.27,2.27,0,0,1,358.28,158.2Zm-4.74-1.44v3h1.27a2.85,2.85,0,0,0,1.48-.34,1.23,1.23,0,0,0,.56-1.15,1.3,1.3,0,0,0-.51-1.16,2.47,2.47,0,0,0-1.44-.36Zm7.35,4.21h-1.41v-8.3h1.41Z"/><path class="cls-3" d="M366.53,153.87V161h-1.4v-7.1h-2.61v-1.2h6.67v1.2Z"/><path class="cls-3" d="M375.45,159.39a5.16,5.16,0,0,1-.37.6,3,3,0,0,1-.56.57,2.81,2.81,0,0,1-.79.41,3.17,3.17,0,0,1-1.07.16,2.59,2.59,0,0,1-1.81-.63,2.34,2.34,0,0,1-.68-1.82,2.24,2.24,0,0,1,.95-2,4.89,4.89,0,0,1,2.71-.64h1.55v-.68a1.53,1.53,0,0,0-.45-1.24,2.49,2.49,0,0,0-1.53-.36,4.43,4.43,0,0,0-1.46.24,7.82,7.82,0,0,0-1.23.57v-1.26a6.77,6.77,0,0,1,1.21-.54,5.18,5.18,0,0,1,1.67-.26,3.71,3.71,0,0,1,2.38.65,2.38,2.38,0,0,1,.82,2v4.47c0,.09,0,.2,0,.33s0,.24,0,.37,0,.25,0,.36,0,.21,0,.28h-1.28q0-.22-.09-.63a6.45,6.45,0,0,1,0-.71Zm-2.48.49a2.21,2.21,0,0,0,1.12-.27,2.62,2.62,0,0,0,.75-.64,2.45,2.45,0,0,0,.41-.7,1.6,1.6,0,0,0,.13-.49v-.62H374a3.43,3.43,0,0,0-1.83.37,1.19,1.19,0,0,0-.57,1.08,1.3,1.3,0,0,0,.34.92A1.38,1.38,0,0,0,373,159.88Z"/><path class="cls-3" d="M379,155.36a2.64,2.64,0,0,1,.25-1.21,2.14,2.14,0,0,1,.72-.83,3.13,3.13,0,0,1,1.11-.49,5.53,5.53,0,0,1,1.39-.16h2.67V161h-1.41v-3h-1.52l-2.12,3h-1.68l2.4-3.36a2.79,2.79,0,0,1-1.34-.78A2.14,2.14,0,0,1,379,155.36Zm4.73,1.4v-2.89h-1.26a2.91,2.91,0,0,0-1.47.33,1.17,1.17,0,0,0-.58,1.09,1.27,1.27,0,0,0,.51,1.13,2.63,2.63,0,0,0,1.46.34Z"/><path class="cls-3" d="M391,152.67h6.65V161h-1.41v-7.1h-3.84V161H391Z"/><path class="cls-3" d="M406.53,160.27a2.68,2.68,0,0,1-.43.27,4.06,4.06,0,0,1-.62.28,4.55,4.55,0,0,1-.83.22,5.52,5.52,0,0,1-1,.09,4.25,4.25,0,0,1-3.19-1.13,4.45,4.45,0,0,1-1.09-3.19,5.17,5.17,0,0,1,.3-1.81,4,4,0,0,1,.82-1.35,3.7,3.7,0,0,1,1.25-.85,4.22,4.22,0,0,1,1.57-.29,4,4,0,0,1,1.6.3,2.79,2.79,0,0,1,1.16.9,3.41,3.41,0,0,1,.62,1.46,6,6,0,0,1,0,2h-5.86a2.87,2.87,0,0,0,.8,2,3.06,3.06,0,0,0,2.14.66,4.53,4.53,0,0,0,1.65-.27,5.35,5.35,0,0,0,1.15-.6Zm-3.29-6.51a2.31,2.31,0,0,0-1.57.56,2.64,2.64,0,0,0-.83,1.69h4.46a2,2,0,0,0-.53-1.7A2.13,2.13,0,0,0,403.24,153.76Z"/><path class="cls-3" d="M412.71,161.13a3,3,0,0,1-1.66-.45,3.31,3.31,0,0,1-1.11-1.23v4.35h-1.41V152.67h1.23l.15,1.61A3.43,3.43,0,0,1,411,153a3,3,0,0,1,1.74-.48,3.89,3.89,0,0,1,1.39.26,3.3,3.3,0,0,1,1.17.8,3.89,3.89,0,0,1,.79,1.35,6.17,6.17,0,0,1,0,3.8,4.1,4.1,0,0,1-.82,1.35,3.48,3.48,0,0,1-1.18.8A4,4,0,0,1,412.71,161.13Zm-.21-1.25a2.29,2.29,0,0,0,1.79-.76,4.27,4.27,0,0,0,0-4.59,2.29,2.29,0,0,0-1.79-.77,2.68,2.68,0,0,0-1,.19,2.3,2.3,0,0,0-.81.57,2.83,2.83,0,0,0-.55.95,4.66,4.66,0,0,0,0,2.7,3,3,0,0,0,.55,1,2.07,2.07,0,0,0,.81.57A2.88,2.88,0,0,0,412.5,159.88Z"/><path class="cls-3" d="M424.74,160.27a3.22,3.22,0,0,1-.43.27,3.79,3.79,0,0,1-.63.28,4.34,4.34,0,0,1-.83.22,5.44,5.44,0,0,1-1,.09,4.23,4.23,0,0,1-3.18-1.13,4.41,4.41,0,0,1-1.09-3.19,5.17,5.17,0,0,1,.3-1.81,3.82,3.82,0,0,1,.82-1.35,3.6,3.6,0,0,1,1.25-.85,4.22,4.22,0,0,1,1.57-.29,4.07,4.07,0,0,1,1.6.3,2.85,2.85,0,0,1,1.16.9,3.41,3.41,0,0,1,.62,1.46,6,6,0,0,1,0,2H419a2.87,2.87,0,0,0,.8,2,3.06,3.06,0,0,0,2.14.66,4.53,4.53,0,0,0,1.65-.27,5.35,5.35,0,0,0,1.15-.6Zm-3.3-6.51a2.28,2.28,0,0,0-1.56.56A2.65,2.65,0,0,0,419,156h4.47a2,2,0,0,0-.53-1.7A2.15,2.15,0,0,0,421.44,153.76Z"/><path class="cls-3" d="M434.66,154.3,431.84,160h-1.12l-2.65-5.77V161h-1.33v-8.3h2.1l2.54,5.57,2.72-5.57h1.95V161h-1.39Z"/><path class="cls-3" d="M445,160.27a2.68,2.68,0,0,1-.43.27,4.06,4.06,0,0,1-.62.28,4.55,4.55,0,0,1-.83.22,5.52,5.52,0,0,1-1,.09,4.25,4.25,0,0,1-3.19-1.13,4.45,4.45,0,0,1-1.09-3.19,5.17,5.17,0,0,1,.3-1.81,4,4,0,0,1,.82-1.35,3.7,3.7,0,0,1,1.25-.85,4.22,4.22,0,0,1,1.57-.29,4,4,0,0,1,1.6.3,2.79,2.79,0,0,1,1.16.9,3.41,3.41,0,0,1,.62,1.46,6,6,0,0,1,0,2h-5.86a2.87,2.87,0,0,0,.8,2,3.06,3.06,0,0,0,2.14.66,4.53,4.53,0,0,0,1.65-.27A5.35,5.35,0,0,0,445,159Zm-3.29-6.51a2.31,2.31,0,0,0-1.57.56,2.64,2.64,0,0,0-.83,1.69h4.46a2,2,0,0,0-.53-1.7A2.13,2.13,0,0,0,441.67,153.76Z"/><path class="cls-3" d="M452.39,157.29h-4V161H447v-8.3h1.41v3.42h4v-3.42h1.41V161h-1.41Z"/><path class="cls-3" d="M461.52,157.29h-4V161H456.1v-8.3h1.41v3.42h4v-3.42h1.41V161h-1.41Z"/><path class="cls-3" d="M470.1,159.39a5.16,5.16,0,0,1-.37.6,2.74,2.74,0,0,1-.56.57,2.68,2.68,0,0,1-.79.41,3.11,3.11,0,0,1-1.06.16,2.57,2.57,0,0,1-1.81-.63,2.34,2.34,0,0,1-.69-1.82,2.26,2.26,0,0,1,.95-2,4.91,4.91,0,0,1,2.71-.64H470v-.68a1.53,1.53,0,0,0-.45-1.24,2.51,2.51,0,0,0-1.54-.36,4.33,4.33,0,0,0-1.45.24,8.4,8.4,0,0,0-1.24.57v-1.26a7.12,7.12,0,0,1,1.21-.54,5.27,5.27,0,0,1,1.67-.26,3.74,3.74,0,0,1,2.39.65,2.41,2.41,0,0,1,.81,2v4.47c0,.09,0,.2,0,.33s0,.24,0,.37,0,.25,0,.36,0,.21,0,.28h-1.28a5.27,5.27,0,0,1-.08-.63,6.45,6.45,0,0,1,0-.71Zm-2.48.49a2.19,2.19,0,0,0,1.12-.27,2.49,2.49,0,0,0,.75-.64,2.76,2.76,0,0,0,.42-.7,2,2,0,0,0,.13-.49v-.62h-1.41a3.41,3.41,0,0,0-1.83.37,1.19,1.19,0,0,0-.57,1.08,1.3,1.3,0,0,0,.33.92A1.4,1.4,0,0,0,467.62,159.88Z"/><path class="cls-3" d="M473.65,155.36a2.64,2.64,0,0,1,.26-1.21,2.14,2.14,0,0,1,.72-.83,3.16,3.16,0,0,1,1.1-.49,5.58,5.58,0,0,1,1.39-.16h2.68V161h-1.41v-3h-1.52l-2.13,3h-1.68l2.4-3.36a2.84,2.84,0,0,1-1.34-.78A2.14,2.14,0,0,1,473.65,155.36Zm4.74,1.4v-2.89h-1.27a3,3,0,0,0-1.47.33,1.18,1.18,0,0,0-.57,1.09,1.27,1.27,0,0,0,.51,1.13,2.57,2.57,0,0,0,1.45.34Z"/><rect class="cls-2" x="220" y="236" width="120" height="35" rx="2"/><path class="cls-3" d="M239,257.39a5.16,5.16,0,0,1-.37.6,3,3,0,0,1-.56.57,2.68,2.68,0,0,1-.79.41,3.17,3.17,0,0,1-1.07.16,2.59,2.59,0,0,1-1.81-.63,2.38,2.38,0,0,1-.68-1.82,2.24,2.24,0,0,1,.95-2,4.89,4.89,0,0,1,2.71-.64H239v-.68a1.53,1.53,0,0,0-.45-1.24,2.47,2.47,0,0,0-1.53-.36,4.43,4.43,0,0,0-1.46.24,7.82,7.82,0,0,0-1.23.57v-1.26a6.77,6.77,0,0,1,1.21-.54,5.22,5.22,0,0,1,1.67-.26,3.69,3.69,0,0,1,2.38.65,2.38,2.38,0,0,1,.82,2v4.47c0,.09,0,.2,0,.33s0,.24,0,.37,0,.25,0,.36,0,.21,0,.28h-1.28q0-.23-.09-.63c0-.27,0-.51,0-.71Zm-2.48.49a2.21,2.21,0,0,0,1.12-.27,2.49,2.49,0,0,0,.75-.64,2.76,2.76,0,0,0,.42-.7,1.82,1.82,0,0,0,.12-.49v-.62h-1.41a3.43,3.43,0,0,0-1.83.37,1.19,1.19,0,0,0-.57,1.08,1.3,1.3,0,0,0,.34.92A1.4,1.4,0,0,0,236.54,257.88Z"/><path class="cls-3" d="M245.06,252.53a2.31,2.31,0,0,0-1.08,1.16V259h-1.41v-8.3h1.23l.15,1.81h0a3.78,3.78,0,0,1,1-1.29,3.18,3.18,0,0,1,1.69-.68v1.57A4.23,4.23,0,0,0,245.06,252.53Z"/><path class="cls-3" d="M254.76,258.27a3.22,3.22,0,0,1-.43.27,4.06,4.06,0,0,1-.62.28,4.67,4.67,0,0,1-.84.22,5.44,5.44,0,0,1-1,.09,4.23,4.23,0,0,1-3.18-1.13,4.41,4.41,0,0,1-1.09-3.19,5.17,5.17,0,0,1,.3-1.81,3.82,3.82,0,0,1,.82-1.35,3.6,3.6,0,0,1,1.25-.85,4.22,4.22,0,0,1,1.57-.29,4.07,4.07,0,0,1,1.6.3,2.85,2.85,0,0,1,1.16.9,3.41,3.41,0,0,1,.62,1.46,6,6,0,0,1,0,2H249a2.87,2.87,0,0,0,.8,2,3.06,3.06,0,0,0,2.14.66,4.53,4.53,0,0,0,1.65-.27,5.35,5.35,0,0,0,1.15-.6Zm-3.3-6.51a2.28,2.28,0,0,0-1.56.56,2.6,2.6,0,0,0-.83,1.69h4.46a2,2,0,0,0-.53-1.7A2.15,2.15,0,0,0,251.46,251.76Z"/><path class="cls-3" d="M261.5,257.39a5.16,5.16,0,0,1-.37.6,3,3,0,0,1-.56.57,2.81,2.81,0,0,1-.79.41,3.17,3.17,0,0,1-1.07.16,2.59,2.59,0,0,1-1.81-.63,2.38,2.38,0,0,1-.68-1.82,2.24,2.24,0,0,1,.95-2,4.89,4.89,0,0,1,2.71-.64h1.55v-.68a1.53,1.53,0,0,0-.45-1.24,2.47,2.47,0,0,0-1.53-.36A4.43,4.43,0,0,0,258,252a7.82,7.82,0,0,0-1.23.57v-1.26a6.77,6.77,0,0,1,1.21-.54,5.18,5.18,0,0,1,1.67-.26,3.69,3.69,0,0,1,2.38.65,2.38,2.38,0,0,1,.82,2v4.47c0,.09,0,.2,0,.33s0,.24,0,.37l0,.36c0,.11,0,.21,0,.28h-1.28q0-.23-.09-.63c0-.27,0-.51,0-.71Zm-2.48.49a2.21,2.21,0,0,0,1.12-.27,2.49,2.49,0,0,0,.75-.64,2.45,2.45,0,0,0,.41-.7,1.6,1.6,0,0,0,.13-.49v-.62H260a3.43,3.43,0,0,0-1.83.37,1.19,1.19,0,0,0-.57,1.08,1.3,1.3,0,0,0,.34.92A1.38,1.38,0,0,0,259,257.88Z"/><path class="cls-3" d="M267.94,252.62V251.5h7.73v1.12Zm0,3v-1.12h7.73v1.12Z"/><path class="cls-3" d="M289.1,259h-7.32v-1.5c1-.78,1.81-1.48,2.52-2.09a18.27,18.27,0,0,0,1.76-1.68,6.42,6.42,0,0,0,1-1.47,3.32,3.32,0,0,0,.34-1.45,2.1,2.1,0,0,0-.57-1.53,2.21,2.21,0,0,0-1.66-.58,3.32,3.32,0,0,0-1.69.45,5.28,5.28,0,0,0-1.41,1.13v-1.61a4.81,4.81,0,0,1,1.37-.95,4.35,4.35,0,0,1,1.78-.35,4.83,4.83,0,0,1,1.59.24,3.18,3.18,0,0,1,1.17.67,3,3,0,0,1,.72,1,3.68,3.68,0,0,1,.25,1.35,4.32,4.32,0,0,1-.36,1.75,6.61,6.61,0,0,1-1.07,1.63,14.72,14.72,0,0,1-1.73,1.69c-.69.58-1.48,1.22-2.36,1.9h5.65Z"/><path class="cls-3" d="M296.6,256.25V259h-1.41v-2.72h-5v-1l4.48-7.76h1.89V255h1.55v1.21ZM295.19,255v-6l-3.5,6Z"/><path class="cls-3" d="M301.83,259h-1.57l4.9-10.11h-5.84V247.5h7.38v1.28Z"/><path class="cls-3" d="M315.3,255.18a4.37,4.37,0,0,1-.28,1.62,3.32,3.32,0,0,1-.8,1.25,3.28,3.28,0,0,1-1.26.8,4.63,4.63,0,0,1-1.66.28,6.61,6.61,0,0,1-1.77-.21,4.34,4.34,0,0,1-1.28-.6v-1.57a5.34,5.34,0,0,0,1.25.76,4.51,4.51,0,0,0,1.8.31,2.37,2.37,0,0,0,1.84-.72,2.72,2.72,0,0,0,.64-1.89,2.32,2.32,0,0,0-.64-1.82,2.27,2.27,0,0,0-1.61-.58,2.5,2.5,0,0,0-1.15.23,2.32,2.32,0,0,0-.64.49h-1.17v-6h6.21v1.36h-4.9v3.3a3.18,3.18,0,0,1,.78-.43,3.07,3.07,0,0,1,1.11-.18,3.92,3.92,0,0,1,1.38.23,3.05,3.05,0,0,1,1.13.69,3.11,3.11,0,0,1,.75,1.13A4.29,4.29,0,0,1,315.3,255.18Z"/><path class="cls-3" d="M320.63,259.13a3.35,3.35,0,0,1-1.51-.34,3.2,3.2,0,0,1-1.2-1.07,5.67,5.67,0,0,1-.79-1.84,10.84,10.84,0,0,1-.29-2.65,10.73,10.73,0,0,1,.29-2.65,5.52,5.52,0,0,1,.79-1.83,3.17,3.17,0,0,1,1.2-1.06,3.48,3.48,0,0,1,1.51-.33,3.4,3.4,0,0,1,1.5.33,3.2,3.2,0,0,1,1.19,1.05,5.58,5.58,0,0,1,.78,1.82,11.12,11.12,0,0,1,.28,2.64,11.25,11.25,0,0,1-.28,2.64,6,6,0,0,1-.78,1.85,3.24,3.24,0,0,1-1.19,1.09A3.28,3.28,0,0,1,320.63,259.13Zm0-1.26a1.73,1.73,0,0,0,1.66-1,4.84,4.84,0,0,0,.44-1.43,13.24,13.24,0,0,0,.15-2.17,14.55,14.55,0,0,0-.14-2.16,4.63,4.63,0,0,0-.44-1.44,1.86,1.86,0,0,0-.7-.78,1.9,1.9,0,0,0-1-.24,1.79,1.79,0,0,0-1.69,1,4.91,4.91,0,0,0-.44,1.44,14.73,14.73,0,0,0,0,4.33,4.56,4.56,0,0,0,.44,1.43,1.78,1.78,0,0,0,.71.79A1.91,1.91,0,0,0,320.62,257.87Z"/><rect class="cls-2" x="360" y="236" width="120" height="35" rx="2"/><path class="cls-3" d="M377.84,247.5V259h-1.41V247.5Z"/><path class="cls-3" d="M386.74,258.27a3.39,3.39,0,0,1-.44.27,3.66,3.66,0,0,1-.62.28,4.34,4.34,0,0,1-.83.22,5.52,5.52,0,0,1-1,.09,4.25,4.25,0,0,1-3.19-1.13,4.45,4.45,0,0,1-1.08-3.19,5.17,5.17,0,0,1,.29-1.81,3.84,3.84,0,0,1,.83-1.35,3.56,3.56,0,0,1,1.24-.85,4.26,4.26,0,0,1,1.57-.29,4,4,0,0,1,1.6.3,2.79,2.79,0,0,1,1.16.9,3.41,3.41,0,0,1,.63,1.46,6,6,0,0,1,0,2H381a2.91,2.91,0,0,0,.8,2,3.09,3.09,0,0,0,2.15.66,4.43,4.43,0,0,0,1.64-.27,5.44,5.44,0,0,0,1.16-.6Zm-3.3-6.51a2.31,2.31,0,0,0-1.57.56A2.69,2.69,0,0,0,381,254h4.46a2,2,0,0,0-.52-1.7A2.17,2.17,0,0,0,383.44,251.76Z"/><path class="cls-3" d="M392.54,251.76a2.5,2.5,0,0,0-1.55.44,3.18,3.18,0,0,0-1,1.12V259h-1.41v-8.3h1.33l.05,1.49h0a2.79,2.79,0,0,1,1.05-1.19,3.31,3.31,0,0,1,1.83-.46,2.81,2.81,0,0,1,2,.65,2.54,2.54,0,0,1,.72,2V259h-1.4v-5.68a1.48,1.48,0,0,0-.43-1.2A2,2,0,0,0,392.54,251.76Z"/><path class="cls-3" d="M405,258.27a4.26,4.26,0,0,1-.24,1.46,2.76,2.76,0,0,1-.73,1.13,3.46,3.46,0,0,1-1.3.72,6.25,6.25,0,0,1-1.91.26,8.22,8.22,0,0,1-1.07-.07,5,5,0,0,1-.81-.17,2.72,2.72,0,0,1-.58-.22,2.36,2.36,0,0,1-.4-.23v-1.26a4.39,4.39,0,0,0,.53.27,6.32,6.32,0,0,0,.62.22,6,6,0,0,0,.76.15,6.9,6.9,0,0,0,1,.06,3.13,3.13,0,0,0,2.14-.58,2.3,2.3,0,0,0,.61-1.72V257a3.07,3.07,0,0,1-1,1.19,2.82,2.82,0,0,1-1.63.45,3.92,3.92,0,0,1-1.41-.26,3.2,3.2,0,0,1-1.16-.76,3.53,3.53,0,0,1-.8-1.26,4.83,4.83,0,0,1-.3-1.77,4.9,4.9,0,0,1,.3-1.79,3.58,3.58,0,0,1,.8-1.27,3.27,3.27,0,0,1,1.17-.77,4,4,0,0,1,1.43-.25,2.88,2.88,0,0,1,2.73,1.66l0-.17c0-.2,0-.43,0-.7a5.67,5.67,0,0,1,.07-.63H405a6.1,6.1,0,0,0-.06.64c0,.27,0,.5,0,.69Zm-3.83-.88a2.74,2.74,0,0,0,1-.17,2.1,2.1,0,0,0,.77-.52,2.46,2.46,0,0,0,.51-.88,3.69,3.69,0,0,0,.18-1.22,2.94,2.94,0,0,0-.69-2.14,2.37,2.37,0,0,0-1.75-.7,2.64,2.64,0,0,0-1,.17,2.21,2.21,0,0,0-.78.53,2.58,2.58,0,0,0-.52.89,3.64,3.64,0,0,0-.2,1.25,3.43,3.43,0,0,0,.2,1.22,2.36,2.36,0,0,0,.53.87,2.14,2.14,0,0,0,.79.52A2.63,2.63,0,0,0,401.12,257.39Z"/><path class="cls-3" d="M410.64,259a3.89,3.89,0,0,1-.85.09,2.85,2.85,0,0,1-1-.17,1.94,1.94,0,0,1-.69-.48,1.64,1.64,0,0,1-.4-.67,2.53,2.53,0,0,1-.12-.77v-5.17h-1v-1.2h1v-1.75H409v1.75h2.42v1.2H409v5a1,1,0,0,0,.26.77,1.42,1.42,0,0,0,.94.24,1.92,1.92,0,0,0,1.14-.35v1.27A3.09,3.09,0,0,1,410.64,259Z"/><path class="cls-3" d="M417.1,251.76a2.53,2.53,0,0,0-1.56.44,3.26,3.26,0,0,0-1,1.12V259h-1.41V247.5h1.41v3.17l0,1.49h0a2.82,2.82,0,0,1,1.05-1.18,3.31,3.31,0,0,1,1.83-.47,2.81,2.81,0,0,1,2,.65,2.54,2.54,0,0,1,.72,2V259h-1.4v-5.68a1.45,1.45,0,0,0-.44-1.2A1.9,1.9,0,0,0,417.1,251.76Z"/><path class="cls-3" d="M425.26,252.62V251.5H433v1.12Zm0,3v-1.12H433v1.12Z"/><path class="cls-3" d="M446.51,255.66a3.37,3.37,0,0,1-.3,1.44,3.26,3.26,0,0,1-.85,1.1,3.75,3.75,0,0,1-1.3.69,5.41,5.41,0,0,1-1.66.24,6.22,6.22,0,0,1-1.94-.27,4.1,4.1,0,0,1-1.32-.7v-1.6a4.52,4.52,0,0,0,1.34.88,4.7,4.7,0,0,0,1.94.38,2.85,2.85,0,0,0,1.86-.56,1.93,1.93,0,0,0,.68-1.57,1.85,1.85,0,0,0-.61-1.49,2.8,2.8,0,0,0-1.9-.54H441V252.3h1.53a2.17,2.17,0,0,0,1.47-.48,1.7,1.7,0,0,0,.56-1.39,1.63,1.63,0,0,0-.52-1.29,2.25,2.25,0,0,0-1.52-.47,3.81,3.81,0,0,0-1.76.38,7.67,7.67,0,0,0-1.32.9v-1.57a4.64,4.64,0,0,1,1.33-.75,5,5,0,0,1,1.76-.29,4.45,4.45,0,0,1,1.47.22,3.26,3.26,0,0,1,1.12.61,2.8,2.8,0,0,1,.69,1,3.07,3.07,0,0,1,.24,1.23,2.67,2.67,0,0,1-.16,1,2.3,2.3,0,0,1-.44.76,2.75,2.75,0,0,1-1.43.84,3.53,3.53,0,0,1,.95.31,3,3,0,0,1,.81.57,2.38,2.38,0,0,1,.55.81A2.59,2.59,0,0,1,446.51,255.66Z"/><path class="cls-3" d="M455.31,255.66a3.37,3.37,0,0,1-.3,1.44,3.26,3.26,0,0,1-.85,1.1,3.75,3.75,0,0,1-1.3.69,5.41,5.41,0,0,1-1.66.24,6.22,6.22,0,0,1-1.94-.27,4.1,4.1,0,0,1-1.32-.7v-1.6a4.52,4.52,0,0,0,1.34.88,4.66,4.66,0,0,0,1.94.38,2.87,2.87,0,0,0,1.86-.56,1.93,1.93,0,0,0,.68-1.57,1.85,1.85,0,0,0-.61-1.49,2.8,2.8,0,0,0-1.9-.54h-1.47V252.3h1.53a2.17,2.17,0,0,0,1.47-.48,1.7,1.7,0,0,0,.56-1.39,1.63,1.63,0,0,0-.52-1.29,2.25,2.25,0,0,0-1.52-.47,3.81,3.81,0,0,0-1.76.38,7.67,7.67,0,0,0-1.32.9v-1.57a4.64,4.64,0,0,1,1.33-.75,5,5,0,0,1,1.76-.29,4.45,4.45,0,0,1,1.47.22,3.26,3.26,0,0,1,1.12.61,2.8,2.8,0,0,1,.69,1,3.07,3.07,0,0,1,.24,1.23,2.67,2.67,0,0,1-.16,1,2.3,2.3,0,0,1-.44.76,2.56,2.56,0,0,1-.65.53,2.4,2.4,0,0,1-.78.31,3.53,3.53,0,0,1,.95.31,3,3,0,0,1,.81.57,2.53,2.53,0,0,1,.55.81A2.59,2.59,0,0,1,455.31,255.66Z"/><path class="cls-3" d="M460.35,259.13a3.35,3.35,0,0,1-1.51-.34,3.28,3.28,0,0,1-1.2-1.07,5.67,5.67,0,0,1-.79-1.84,10.84,10.84,0,0,1-.29-2.65,10.73,10.73,0,0,1,.29-2.65,5.52,5.52,0,0,1,.79-1.83,3.25,3.25,0,0,1,1.2-1.06,3.62,3.62,0,0,1,3,0,3.26,3.26,0,0,1,1.18,1.05,5.58,5.58,0,0,1,.78,1.82,11.12,11.12,0,0,1,.28,2.64,11.25,11.25,0,0,1-.28,2.64,6,6,0,0,1-.78,1.85,3.08,3.08,0,0,1-2.69,1.44Zm0-1.26a1.73,1.73,0,0,0,1.66-1,4.84,4.84,0,0,0,.44-1.43,13.24,13.24,0,0,0,.15-2.17,14.55,14.55,0,0,0-.14-2.16,4.93,4.93,0,0,0-.43-1.44,1.94,1.94,0,0,0-.71-.78,1.9,1.9,0,0,0-1-.24,1.79,1.79,0,0,0-1.69,1,4.91,4.91,0,0,0-.44,1.44,14.73,14.73,0,0,0,0,4.33,4.56,4.56,0,0,0,.44,1.43,1.78,1.78,0,0,0,.71.79A1.91,1.91,0,0,0,460.34,257.87Z"/><rect class="cls-2" x="500" y="237" width="120" height="35" rx="2"/><path class="cls-3" d="M532.34,259h-2.16l-1.76-6.41-1.8,6.41h-2.1l-1.89-8.3h1.49l1.58,7.25,2-7.25h1.58l2,7.17,1.57-7.17h1.39Z"/><path class="cls-3" d="M536.58,249.45a.93.93,0,0,1-.68-.26.91.91,0,0,1-.26-.65,1,1,0,0,1,.26-.66.9.9,0,0,1,.68-.27.84.84,0,0,1,.66.27,1,1,0,0,1,.24.66.93.93,0,0,1-.24.65A.87.87,0,0,1,536.58,249.45Zm.69,1.22V259h-1.41v-8.3Z"/><path class="cls-3" d="M545.51,257.34a3.19,3.19,0,0,1-1.07,1.3,2.91,2.91,0,0,1-1.74.49,4,4,0,0,1-1.43-.26,3.38,3.38,0,0,1-1.18-.8,3.94,3.94,0,0,1-.82-1.35,6.17,6.17,0,0,1,0-3.8,3.94,3.94,0,0,1,.82-1.35,3.29,3.29,0,0,1,1.19-.8,4,4,0,0,1,1.43-.26,3.22,3.22,0,0,1,1.63.39,3,3,0,0,1,1.11,1.11V247.5h1.41V259h-1.24Zm-2.61.54a2.75,2.75,0,0,0,1-.18,2.07,2.07,0,0,0,.81-.57,2.79,2.79,0,0,0,.54-1,4.66,4.66,0,0,0,0-2.7,2.79,2.79,0,0,0-.54-1,2.07,2.07,0,0,0-.81-.57,2.75,2.75,0,0,0-1-.18,2.34,2.34,0,0,0-1.8.77,3.35,3.35,0,0,0-.69,2.29,3.27,3.27,0,0,0,.7,2.29A2.3,2.3,0,0,0,542.9,257.88Z"/><path class="cls-3" d="M552.57,259a3.89,3.89,0,0,1-.85.09,2.81,2.81,0,0,1-1-.17,2,2,0,0,1-.7-.48,1.74,1.74,0,0,1-.39-.67,2.53,2.53,0,0,1-.12-.77v-5.17h-1v-1.2h1v-1.75h1.41v1.75h2.41v1.2h-2.41v5a1,1,0,0,0,.26.77,1.42,1.42,0,0,0,.94.24,1.91,1.91,0,0,0,1.13-.35v1.27A3.19,3.19,0,0,1,552.57,259Z"/><path class="cls-3" d="M559,251.76a2.53,2.53,0,0,0-1.56.44,3.4,3.4,0,0,0-1,1.12V259h-1.4V247.5h1.4v3.17l0,1.49h0a2.92,2.92,0,0,1,1.06-1.18,3.3,3.3,0,0,1,1.82-.47,2.78,2.78,0,0,1,2,.65,2.5,2.5,0,0,1,.73,2V259h-1.41v-5.68a1.45,1.45,0,0,0-.43-1.2A1.94,1.94,0,0,0,559,251.76Z"/><path class="cls-3" d="M567.19,252.62V251.5h7.73v1.12Zm0,3v-1.12h7.73v1.12Z"/><path class="cls-3" d="M583.48,259h-1.57l4.9-10.11H581V247.5h7.37v1.28Z"/><path class="cls-3" d="M597,255.18a4.37,4.37,0,0,1-.28,1.62,3.44,3.44,0,0,1-2.06,2.05,4.63,4.63,0,0,1-1.66.28,6.74,6.74,0,0,1-1.78-.21,4.46,4.46,0,0,1-1.28-.6v-1.57a5.63,5.63,0,0,0,1.26.76,4.47,4.47,0,0,0,1.8.31,2.33,2.33,0,0,0,1.83-.72,2.73,2.73,0,0,0,.65-1.89,2.12,2.12,0,0,0-2.26-2.4A2.45,2.45,0,0,0,592,253a2.56,2.56,0,0,0-.65.49h-1.17v-6h6.21v1.36h-4.89v3.3a3.18,3.18,0,0,1,.78-.43,3.07,3.07,0,0,1,1.11-.18,3.92,3.92,0,0,1,1.38.23,3.05,3.05,0,0,1,1.13.69,3.11,3.11,0,0,1,.75,1.13A4.29,4.29,0,0,1,597,255.18Z"/><line class="cls-4" x1="280.25" y1="236" x2="280.25" y2="108.5"/><circle class="cls-3" cx="280.25" cy="236" r="2.19"/><polygon class="cls-3" points="283.64 109.49 280.25 103.63 276.86 109.49 283.64 109.49"/><path class="cls-4" d="M560,277.5v53a2,2,0,0,1-2,2H122a2,2,0,0,1-2-2v-223"/><polygon class="cls-3" points="556.61 278.49 560 272.63 563.39 278.49 556.61 278.49"/><polygon class="cls-3" points="123.39 108.49 120 102.63 116.61 108.49 123.39 108.49"/><line class="cls-4" x1="420" y1="332.5" x2="420" y2="277"/><polygon class="cls-3" points="423.39 277.99 420 272.13 416.61 277.99 423.39 277.99"/><line class="cls-4" x1="280" y1="332.5" x2="280" y2="277"/><polygon class="cls-3" points="283.39 277.99 280 272.13 276.61 277.99 283.39 277.99"/><line class="cls-4" x1="350" y1="356.5" x2="350" y2="332.5"/><circle class="cls-3" cx="350" cy="356.5" r="2.19"/><path class="cls-3" d="M154.34,369.5h13.47v17.21h-2.93V372h-7.63v14.71h-2.91Z"/><path class="cls-3" d="M181.61,385.8l-.65.37a6.13,6.13,0,0,1-.91.37,9.75,9.75,0,0,1-1.23.29,9.32,9.32,0,0,1-1.58.12,6.9,6.9,0,0,1-5.12-1.71,6.45,6.45,0,0,1-1.7-4.77,7.66,7.66,0,0,1,.46-2.71,5.75,5.75,0,0,1,1.27-2,5.45,5.45,0,0,1,1.94-1.27,6.67,6.67,0,0,1,2.48-.45,6.52,6.52,0,0,1,2.51.46,4.39,4.39,0,0,1,1.83,1.37,5.34,5.34,0,0,1,1,2.25,9.44,9.44,0,0,1,0,3.15H173.3a3.8,3.8,0,0,0,1.13,2.55,4.42,4.42,0,0,0,3,.85,7.18,7.18,0,0,0,2.49-.37,11.78,11.78,0,0,0,1.69-.78Zm-5-9.58a3,3,0,0,0-2.07.74,3.78,3.78,0,0,0-1.1,2.21h5.85a2.87,2.87,0,0,0-.67-2.23A2.72,2.72,0,0,0,176.57,376.22Z"/><path class="cls-3" d="M191.38,387a4.46,4.46,0,0,1-2.44-.64,4.83,4.83,0,0,1-1.65-1.71V391h-2.78V374.25h2.54l.2,2.21a4.83,4.83,0,0,1,1.65-1.79,4.59,4.59,0,0,1,2.52-.66,5.49,5.49,0,0,1,2.1.4,4.54,4.54,0,0,1,1.74,1.2,5.77,5.77,0,0,1,1.19,2,9.31,9.31,0,0,1,0,5.72,5.78,5.78,0,0,1-1.2,2,4.69,4.69,0,0,1-1.76,1.2A5.61,5.61,0,0,1,191.38,387Zm-.68-2.31a3.11,3.11,0,0,0,2.42-1,5.8,5.8,0,0,0,0-6.27,3.07,3.07,0,0,0-2.39-1,3.59,3.59,0,0,0-1.37.25,2.89,2.89,0,0,0-1.09.78,3.69,3.69,0,0,0-.73,1.31,6.34,6.34,0,0,0,0,3.66,3.68,3.68,0,0,0,.71,1.3,2.82,2.82,0,0,0,1.1.77A3.56,3.56,0,0,0,190.7,384.64Z"/><path class="cls-3" d="M209.66,385.8c-.17.11-.39.23-.64.37a5.85,5.85,0,0,1-.92.37,9.57,9.57,0,0,1-1.22.29,9.32,9.32,0,0,1-1.58.12,6.94,6.94,0,0,1-5.13-1.71,6.45,6.45,0,0,1-1.69-4.77,7.44,7.44,0,0,1,.46-2.71,5.61,5.61,0,0,1,1.27-2,5.45,5.45,0,0,1,1.94-1.27,6.62,6.62,0,0,1,2.47-.45,6.45,6.45,0,0,1,2.51.46,4.36,4.36,0,0,1,1.84,1.37,5.21,5.21,0,0,1,1,2.25,9.16,9.16,0,0,1,0,3.15h-8.62a3.76,3.76,0,0,0,1.13,2.55,4.42,4.42,0,0,0,3,.85,7.08,7.08,0,0,0,2.48-.37,11.29,11.29,0,0,0,1.69-.78Zm-5-9.58a3,3,0,0,0-2.06.74,3.72,3.72,0,0,0-1.1,2.21h5.85a2.9,2.9,0,0,0-.67-2.23A2.73,2.73,0,0,0,204.62,376.22Z"/><path class="cls-3" d="M224.26,377.68l-3.68,7.83h-2l-3.45-7.9v9.1h-2.52V374.25h3.81l3.41,7.73,3.6-7.73H227v12.46h-2.78Z"/><path class="cls-3" d="M240.58,385.8l-.65.37a6.13,6.13,0,0,1-.91.37,9.75,9.75,0,0,1-1.23.29,9.32,9.32,0,0,1-1.58.12,6.94,6.94,0,0,1-5.13-1.71,6.49,6.49,0,0,1-1.69-4.77,7.44,7.44,0,0,1,.46-2.71,5.75,5.75,0,0,1,1.27-2,5.45,5.45,0,0,1,1.94-1.27,6.67,6.67,0,0,1,2.48-.45,6.44,6.44,0,0,1,2.5.46,4.36,4.36,0,0,1,1.84,1.37,5.34,5.34,0,0,1,1,2.25,9.44,9.44,0,0,1,0,3.15h-8.62a3.76,3.76,0,0,0,1.13,2.55,4.42,4.42,0,0,0,3,.85,7.08,7.08,0,0,0,2.48-.37,11.44,11.44,0,0,0,1.7-.78Zm-5-9.58a3,3,0,0,0-2.07.74,3.72,3.72,0,0,0-1.1,2.21h5.85a2.87,2.87,0,0,0-.67-2.23A2.72,2.72,0,0,0,235.54,376.22Z"/><path class="cls-3" d="M251.52,381.45h-5.26v5.26h-2.78V374.25h2.78v4.95h5.26v-4.95h2.78v12.46h-2.78Z"/><path class="cls-3" d="M265.46,381.45h-5.25v5.26h-2.79V374.25h2.79v4.95h5.25v-4.95h2.79v12.46h-2.79Z"/><path class="cls-3" d="M281.25,382.41a4.39,4.39,0,0,1-.39,1.9,3.77,3.77,0,0,1-1.09,1.34,4.82,4.82,0,0,1-1.66.79,7.76,7.76,0,0,1-2.11.27h-4.63V374.25h2.78v4h1.94a6.3,6.3,0,0,1,3.81,1A3.63,3.63,0,0,1,281.25,382.41Zm-7.1-1.92v4h1.63a3.48,3.48,0,0,0,1.89-.46,1.72,1.72,0,0,0,.73-1.55,1.79,1.79,0,0,0-.65-1.55,3.19,3.19,0,0,0-1.87-.47Zm11.31,6.22h-2.79V374.25h2.79Z"/><path class="cls-3" d="M299,385.8l-.65.37a5.71,5.71,0,0,1-.91.37,9,9,0,0,1-2.81.41,6.91,6.91,0,0,1-5.12-1.71,6.45,6.45,0,0,1-1.69-4.77,7.66,7.66,0,0,1,.45-2.71,5.89,5.89,0,0,1,1.27-2,5.58,5.58,0,0,1,2-1.27A6.58,6.58,0,0,1,294,374a6.49,6.49,0,0,1,2.51.46,4.39,4.39,0,0,1,1.83,1.37,5.22,5.22,0,0,1,1,2.25,9.19,9.19,0,0,1,0,3.15h-8.61a3.75,3.75,0,0,0,1.12,2.55,4.42,4.42,0,0,0,3,.85,7.14,7.14,0,0,0,2.49-.37,11.29,11.29,0,0,0,1.69-.78Zm-5-9.58a3,3,0,0,0-2.06.74,3.79,3.79,0,0,0-1.11,2.21h5.86a2.9,2.9,0,0,0-.67-2.23A2.74,2.74,0,0,0,294,376.22Z"/><path class="cls-3" d="M307.17,374.25h5.09q4.73,0,4.73,3.12a2.47,2.47,0,0,1-.64,1.81,3.92,3.92,0,0,1-1.86,1,4,4,0,0,1,2.26.94,2.69,2.69,0,0,1,.74,2,3.11,3.11,0,0,1-.38,1.58,3,3,0,0,1-1.07,1.1,5.07,5.07,0,0,1-1.67.65,9.63,9.63,0,0,1-2.16.22h-5Zm2.76,2.16v2.93h2a3.16,3.16,0,0,0,1.64-.37,1.2,1.2,0,0,0,.62-1.08,1.24,1.24,0,0,0-.54-1.16,3.17,3.17,0,0,0-1.57-.32Zm0,4.9v3.24h2.14a4.26,4.26,0,0,0,1.86-.34,1.24,1.24,0,0,0,.71-1.23,1.38,1.38,0,0,0-.64-1.29,4.06,4.06,0,0,0-2-.38Z"/><path class="cls-3" d="M330.91,387a7,7,0,0,1-2.45-.43,5.69,5.69,0,0,1-2-1.26,5.88,5.88,0,0,1-1.29-2,8.34,8.34,0,0,1,0-5.52,5.79,5.79,0,0,1,1.29-2,5.52,5.52,0,0,1,2-1.25,7.36,7.36,0,0,1,4.9,0,5.52,5.52,0,0,1,2,1.25,5.85,5.85,0,0,1,1.32,2,8.17,8.17,0,0,1,0,5.52,6,6,0,0,1-1.32,2,5.69,5.69,0,0,1-2,1.26A7,7,0,0,1,330.91,387Zm0-2.31a3.13,3.13,0,0,0,2.39-1,5.73,5.73,0,0,0,0-6.29,3.29,3.29,0,0,0-4.76,0,5.73,5.73,0,0,0,0,6.29A3.1,3.1,0,0,0,330.91,384.64Z"/><path class="cls-3" d="M351.14,380.52a7.39,7.39,0,0,1-.48,2.76,5.79,5.79,0,0,1-1.31,2,5.37,5.37,0,0,1-2,1.24,7.06,7.06,0,0,1-2.46.42,6.43,6.43,0,0,1-2.47-.46,5,5,0,0,1-1.94-1.38,6.63,6.63,0,0,1-1.29-2.3,10.24,10.24,0,0,1-.46-3.25,29.82,29.82,0,0,1,.14-3.12,13.59,13.59,0,0,1,.49-2.55,7,7,0,0,1,.95-2,5.55,5.55,0,0,1,1.54-1.47,6,6,0,0,1,2.36-.89,21.69,21.69,0,0,1,2.58-.24,13,13,0,0,0,2.21-.25,5.35,5.35,0,0,0,1.27-.47v2.47a4.07,4.07,0,0,1-.55.28,4.59,4.59,0,0,1-.67.18l-.89.13-1.18.11-2.23.22a4.2,4.2,0,0,0-1.8.62,3.55,3.55,0,0,0-1.34,1.72,10,10,0,0,0-.58,2.69q1.2-2.72,4.63-2.71a5.32,5.32,0,0,1,2.1.42,4.92,4.92,0,0,1,1.74,1.21,5.75,5.75,0,0,1,1.18,1.95A7.38,7.38,0,0,1,351.14,380.52Zm-6.22,4.12a3.19,3.19,0,0,0,2.42-1,5.47,5.47,0,0,0,0-6.13,3.19,3.19,0,0,0-2.42-1,3.09,3.09,0,0,0-2.36,1,4.26,4.26,0,0,0-.92,3,4.43,4.43,0,0,0,.93,3.11A3.08,3.08,0,0,0,344.92,384.64Z"/><path class="cls-3" d="M354.24,382.29a19.55,19.55,0,0,0,.34-3.18q.09-2,.09-4.86h8.95v12.46h-2.78v-10.2h-3.63c0,1.65-.09,3.1-.19,4.37a13.17,13.17,0,0,1-.59,3.2,4.32,4.32,0,0,1-1.27,2,3.3,3.3,0,0,1-2.22.7h-.37l-.37,0v-2.59a2.29,2.29,0,0,0,.36.05,1.3,1.3,0,0,0,1-.47A3.61,3.61,0,0,0,354.24,382.29Z"/><path class="cls-3" d="M373.94,384.52a4.44,4.44,0,0,1-.52.87,3.66,3.66,0,0,1-.79.78,3.85,3.85,0,0,1-1.11.56A4.68,4.68,0,0,1,370,387a4.92,4.92,0,0,1-1.51-.23,3.23,3.23,0,0,1-2-1.82,3.91,3.91,0,0,1-.3-1.58,3.45,3.45,0,0,1,1.52-3.06,7.57,7.57,0,0,1,4.27-1h1.89v-.76a2,2,0,0,0-.62-1.7,3.52,3.52,0,0,0-2.06-.46,7.48,7.48,0,0,0-2.3.34,10.62,10.62,0,0,0-1.88.81v-2.33a10.25,10.25,0,0,1,2-.77,9.35,9.35,0,0,1,2.66-.36,6,6,0,0,1,3.71,1,3.74,3.74,0,0,1,1.31,3.18v6.5c0,.15,0,.31,0,.49s0,.38,0,.57,0,.37,0,.54,0,.31.05.42h-2.57a8.89,8.89,0,0,1-.13-.94q-.06-.6-.09-1.08Zm-3.17.27a2.8,2.8,0,0,0,1.48-.37,3.48,3.48,0,0,0,.95-.87,3.33,3.33,0,0,0,.5-1,2.52,2.52,0,0,0,.14-.67v-.84h-1.72a4.49,4.49,0,0,0-2.43.51,1.67,1.67,0,0,0-.77,1.46,1.74,1.74,0,0,0,.47,1.28A1.87,1.87,0,0,0,370.77,384.79Z"/><path class="cls-3" d="M385.36,387a7.7,7.7,0,0,1-2.71-.45,5.6,5.6,0,0,1-2-1.27,5.52,5.52,0,0,1-1.29-2,8.27,8.27,0,0,1,0-5.44,5.36,5.36,0,0,1,3.36-3.3,7.82,7.82,0,0,1,2.73-.45,8.08,8.08,0,0,1,2.27.29,4.87,4.87,0,0,1,1.55.72v2.3a6.61,6.61,0,0,0-1.62-.74,7,7,0,0,0-2-.26c-2.58,0-3.86,1.38-3.86,4.16s1.26,4.16,3.79,4.16a7.24,7.24,0,0,0,2.1-.27,8.45,8.45,0,0,0,1.62-.71V386a6.68,6.68,0,0,1-1.56.7A7.66,7.66,0,0,1,385.36,387Z"/><path class="cls-3" d="M397.36,376.51v10.2h-2.78v-10.2h-3.77v-2.26H401.2v2.26Z"/><path class="cls-3" d="M406.08,382.94l5.76-8.69h2.73v12.46h-2.76v-8.64l-5.71,8.64h-2.78V374.25h2.76Z"/><path class="cls-3" d="M423,374.25h5.09q4.73,0,4.73,3.12a2.47,2.47,0,0,1-.64,1.81,3.92,3.92,0,0,1-1.86,1,4,4,0,0,1,2.26.94,2.69,2.69,0,0,1,.74,2,3.11,3.11,0,0,1-.38,1.58,3,3,0,0,1-1.07,1.1,5,5,0,0,1-1.67.65,9.63,9.63,0,0,1-2.16.22h-5Zm2.76,2.16v2.93h2a3.16,3.16,0,0,0,1.64-.37,1.2,1.2,0,0,0,.62-1.08,1.24,1.24,0,0,0-.54-1.16,3.15,3.15,0,0,0-1.57-.32Zm0,4.9v3.24h2.14a4.26,4.26,0,0,0,1.86-.34,1.24,1.24,0,0,0,.71-1.23,1.37,1.37,0,0,0-.64-1.29,4.06,4.06,0,0,0-2-.38Z"/><path class="cls-3" d="M438.81,382.94l5.76-8.69h2.74v12.46h-2.76v-8.64l-5.72,8.64h-2.78V374.25h2.76Z"/><path class="cls-3" d="M450.11,384.45a3.29,3.29,0,0,0,.88-1.32,10,10,0,0,0,.52-2.1c.12-.84.22-1.82.28-2.94s.12-2.4.17-3.84h9.12v10.2H463v5.81h-2.42l-.22-3.55h-8.59l-.21,3.55h-2.45v-5.81Zm8.19,0v-7.94h-3.94c-.08,2-.21,3.59-.39,4.88a9.29,9.29,0,0,1-.9,3.06Z"/><path class="cls-3" d="M467.8,382.94l5.76-8.69h2.74v12.46h-2.76v-8.64l-5.71,8.64H465V374.25h2.76Z"/><path class="cls-3" d="M491.13,377.68l-3.67,7.83h-2l-3.46-7.9v9.1h-2.52V374.25h3.82l3.41,7.73,3.59-7.73h3.65v12.46h-2.78Z"/><path class="cls-3" d="M502.43,387a7,7,0,0,1-2.45-.43,5.56,5.56,0,0,1-2-1.26,5.9,5.9,0,0,1-1.3-2,8.34,8.34,0,0,1,0-5.52,5.81,5.81,0,0,1,1.3-2,5.4,5.4,0,0,1,2-1.25,7.36,7.36,0,0,1,4.9,0,5.56,5.56,0,0,1,2,1.25,5.85,5.85,0,0,1,1.32,2,8.18,8.18,0,0,1,0,5.52,6,6,0,0,1-1.32,2,5.73,5.73,0,0,1-2,1.26A7,7,0,0,1,502.43,387Zm0-2.31a3.11,3.11,0,0,0,2.39-1,5.68,5.68,0,0,0,0-6.29,3.12,3.12,0,0,0-2.39-1,3.09,3.09,0,0,0-2.36,1,5.68,5.68,0,0,0,0,6.29A3.08,3.08,0,0,0,502.43,384.64Z"/><path class="cls-3" d="M516.71,387a7.7,7.7,0,0,1-2.71-.45,5.6,5.6,0,0,1-2-1.27,5.52,5.52,0,0,1-1.29-2,8.27,8.27,0,0,1,0-5.44,5.36,5.36,0,0,1,3.36-3.3,7.82,7.82,0,0,1,2.73-.45,8.13,8.13,0,0,1,2.27.29,4.87,4.87,0,0,1,1.55.72v2.3a6.61,6.61,0,0,0-1.62-.74,7,7,0,0,0-2-.26c-2.58,0-3.86,1.38-3.86,4.16s1.26,4.16,3.79,4.16a7.24,7.24,0,0,0,2.1-.27,8.45,8.45,0,0,0,1.62-.71V386a6.68,6.68,0,0,1-1.56.7A7.71,7.71,0,0,1,516.71,387Z"/><path class="cls-3" d="M528.71,376.51v10.2h-2.78v-10.2h-3.77v-2.26h10.39v2.26Z"/><path class="cls-3" d="M537.42,382.94l5.76-8.69h2.74v12.46h-2.76v-8.64l-5.71,8.64h-2.79V374.25h2.76Z"/><line class="cls-5" x1="273.88" y1="157.04" x2="286.12" y2="149.96"/><line class="cls-5" x1="273.88" y1="162.04" x2="286.12" y2="154.96"/></g></svg>