<svg xmlns="http://www.w3.org/2000/svg" viewBox="0 0 680 480"><defs><style>.cls-1{fill:#f5f5f5;}.cls-2{fill:#d8d8d8;}.cls-3{fill:#ffdb4d;}.cls-4{fill:#333;}.cls-5{fill:none;stroke:#333;stroke-miterlimit:10;stroke-width:0.97px;}</style></defs><title>Functions-01</title><g id="Light_grey_rows" data-name="Light grey rows"><rect class="cls-1" y="260" width="680" height="120"/><rect class="cls-1" y="60" width="680" height="80"/></g><g id="Layer_1" data-name="Layer 1"><rect class="cls-2" x="485" y="402.5" width="110" height="35" rx="17.5"/><rect class="cls-2" x="486.5" y="327" width="110" height="35" rx="17.5"/><rect class="cls-2" x="485" y="278" width="110" height="35" rx="17.5"/><rect class="cls-2" x="485" y="83" width="110" height="35" rx="17.5"/><rect class="cls-3" x="300" y="207.5" width="100" height="35" rx="2"/><rect class="cls-3" x="300" y="157.5" width="100" height="35" rx="2"/><rect class="cls-3" x="300" y="83.5" width="100" height="35" rx="2"/><path class="cls-4" d="M72.67,93.87h3.89a5.38,5.38,0,0,1,2.87.63,2.4,2.4,0,0,1,1,2.17,3,3,0,0,1-.17,1.08,2.33,2.33,0,0,1-.46.78,2.24,2.24,0,0,1-.72.53,3.71,3.71,0,0,1-.94.32,3.64,3.64,0,0,1,2,.78,2.4,2.4,0,0,1,.68,1.87,3.25,3.25,0,0,1-.33,1.52,2.8,2.8,0,0,1-.9,1,4.07,4.07,0,0,1-1.36.57,7.19,7.19,0,0,1-1.72.19H72.67Zm1.5,1.35v3.54h2.27a3.86,3.86,0,0,0,1-.12,2.07,2.07,0,0,0,.76-.37,1.66,1.66,0,0,0,.51-.63,2.06,2.06,0,0,0,.18-.9,1.22,1.22,0,0,0-.61-1.2,3.79,3.79,0,0,0-1.72-.32Zm0,4.9V104h2.35a5.39,5.39,0,0,0,1.11-.1,2.39,2.39,0,0,0,.85-.32A1.58,1.58,0,0,0,79,103a1.83,1.83,0,0,0,.2-.91,1.65,1.65,0,0,0-.69-1.52,4.43,4.43,0,0,0-2.2-.42Z"/><path class="cls-4" d="M89.72,105.5a4.35,4.35,0,0,1-1.58-.29,3.53,3.53,0,0,1-1.27-.84A3.86,3.86,0,0,1,86,103a5.62,5.62,0,0,1,0-3.68A3.86,3.86,0,0,1,86.87,98a3.63,3.63,0,0,1,1.27-.83,4.5,4.5,0,0,1,3.18,0A3.68,3.68,0,0,1,92.6,98a4,4,0,0,1,.84,1.35,5.45,5.45,0,0,1,0,3.68,4,4,0,0,1-.84,1.35,3.56,3.56,0,0,1-1.28.84A4.38,4.38,0,0,1,89.72,105.5Zm0-1.25a2.71,2.71,0,0,0,1-.19,2.18,2.18,0,0,0,.82-.56,2.52,2.52,0,0,0,.54-1,4.76,4.76,0,0,0,0-2.73,2.52,2.52,0,0,0-.54-.95,2.18,2.18,0,0,0-.82-.56,2.71,2.71,0,0,0-1-.19,2.61,2.61,0,0,0-1,.19,2.15,2.15,0,0,0-.81.56,2.5,2.5,0,0,0-.53.95,4.76,4.76,0,0,0,0,2.73,2.5,2.5,0,0,0,.53,1,2.15,2.15,0,0,0,.81.56A2.61,2.61,0,0,0,89.72,104.25Z"/><path class="cls-4" d="M99.05,105.5a4.72,4.72,0,0,1-1.73-.3,3.6,3.6,0,0,1-2.16-2.2,5.39,5.39,0,0,1-.28-1.82,5.09,5.09,0,0,1,.29-1.81,3.59,3.59,0,0,1,2.17-2.2,5,5,0,0,1,1.78-.3,5.54,5.54,0,0,1,1.4.17,3,3,0,0,1,1.06.49v1.26a3.91,3.91,0,0,0-1.14-.5,5.23,5.23,0,0,0-1.31-.17,2.7,2.7,0,0,0-2.13.76,3.31,3.31,0,0,0-.68,2.3A3.53,3.53,0,0,0,97,103.5a2.63,2.63,0,0,0,2.08.75,4.77,4.77,0,0,0,1.39-.19,5.34,5.34,0,0,0,1.14-.47v1.26a4.94,4.94,0,0,1-1.08.46A5.25,5.25,0,0,1,99.05,105.5Z"/><path class="cls-4" d="M108.89,101.66h-4v3.68h-1.41V97h1.41v3.43h4V97h1.41v8.31h-1.41Z"/><path class="cls-4" d="M116,105.5a4.35,4.35,0,0,1-1.58-.29,3.44,3.44,0,0,1-1.27-.84,3.86,3.86,0,0,1-.84-1.35,5.62,5.62,0,0,1,0-3.68,3.86,3.86,0,0,1,.84-1.35,3.55,3.55,0,0,1,1.27-.83,4.5,4.5,0,0,1,3.18,0,3.55,3.55,0,0,1,1.27.83,4,4,0,0,1,.85,1.35,5.62,5.62,0,0,1,0,3.68,4,4,0,0,1-.85,1.35,3.44,3.44,0,0,1-1.27.84A4.38,4.38,0,0,1,116,105.5Zm0-1.25a2.63,2.63,0,0,0,1-.19,2.22,2.22,0,0,0,.83-.56,2.66,2.66,0,0,0,.54-1,5,5,0,0,0,0-2.73,2.66,2.66,0,0,0-.54-.95,2.22,2.22,0,0,0-.83-.56,2.86,2.86,0,0,0-2.05,0,2.15,2.15,0,0,0-.81.56,2.66,2.66,0,0,0-.54.95,5,5,0,0,0,0,2.73,2.66,2.66,0,0,0,.54,1,2.15,2.15,0,0,0,.81.56A2.61,2.61,0,0,0,116,104.25Z"/><path class="cls-4" d="M121.76,97h3.1a4.12,4.12,0,0,1,2.27.52,1.84,1.84,0,0,1,.77,1.63,1.73,1.73,0,0,1-.38,1.17,2.05,2.05,0,0,1-1.06.64,1.84,1.84,0,0,1,1.78,2,2.21,2.21,0,0,1-.26,1.1,2.16,2.16,0,0,1-.7.74,3.09,3.09,0,0,1-1.08.42,7.41,7.41,0,0,1-1.37.13h-3.07Zm1.4,1.2v2.26h1.57a2.57,2.57,0,0,0,1.29-.29.92.92,0,0,0,.49-.83,1,1,0,0,0-.43-.9,2.6,2.6,0,0,0-1.24-.24Zm0,3.38v2.53h1.65a5,5,0,0,0,.81-.06,1.81,1.81,0,0,0,.62-.2,1,1,0,0,0,.41-.38,1.1,1.1,0,0,0,.15-.59,1.06,1.06,0,0,0-.5-1,3.06,3.06,0,0,0-1.49-.29Z"/><path class="cls-4" d="M135.77,101.66h-4v3.68h-1.4V97h1.4v3.43h4V97h1.41v8.31h-1.41Z"/><path class="cls-4" d="M142.89,105.5a4.35,4.35,0,0,1-1.58-.29,3.44,3.44,0,0,1-1.27-.84,3.86,3.86,0,0,1-.84-1.35,5.62,5.62,0,0,1,0-3.68A3.86,3.86,0,0,1,140,98a3.55,3.55,0,0,1,1.27-.83,4.5,4.5,0,0,1,3.18,0,3.55,3.55,0,0,1,1.27.83,4,4,0,0,1,.85,1.35,5.62,5.62,0,0,1,0,3.68,4,4,0,0,1-.85,1.35,3.44,3.44,0,0,1-1.27.84A4.38,4.38,0,0,1,142.89,105.5Zm0-1.25a2.66,2.66,0,0,0,1-.19,2.22,2.22,0,0,0,.83-.56,2.66,2.66,0,0,0,.54-1,5,5,0,0,0,0-2.73,2.66,2.66,0,0,0-.54-.95,2.22,2.22,0,0,0-.83-.56,2.66,2.66,0,0,0-1-.19,2.61,2.61,0,0,0-1,.19,2.15,2.15,0,0,0-.81.56,2.66,2.66,0,0,0-.54.95,5,5,0,0,0,0,2.73,2.66,2.66,0,0,0,.54,1,2.15,2.15,0,0,0,.81.56A2.61,2.61,0,0,0,142.89,104.25Z"/><path class="cls-4" d="M150,103.42,154.47,97h1.43v8.31h-1.41V99l-4.42,6.37h-1.44V97H150Zm2.26-7.49a3.32,3.32,0,0,1-1.11-.17,2.26,2.26,0,0,1-.79-.46,1.86,1.86,0,0,1-.46-.69,2.39,2.39,0,0,1-.15-.86h1.4a1.13,1.13,0,0,0,.3.88,1.17,1.17,0,0,0,.81.28,1.13,1.13,0,0,0,.8-.28,1.16,1.16,0,0,0,.29-.88h1.4a2.13,2.13,0,0,1-.61,1.55A2.53,2.53,0,0,1,152.3,95.93Z"/><path class="cls-4" d="M161.72,97h6.66v8.31H167V98.23h-3.84v7.11h-1.41Z"/><path class="cls-4" d="M174.86,105.5a3,3,0,0,1-1.66-.45,3.31,3.31,0,0,1-1.11-1.23v4.35h-1.41V97h1.23l.15,1.62a3.39,3.39,0,0,1,1.12-1.3,3,3,0,0,1,1.74-.48,3.7,3.7,0,0,1,1.39.27,3.06,3.06,0,0,1,1.16.8,3.63,3.63,0,0,1,.8,1.34,5.45,5.45,0,0,1,.3,1.9,5.51,5.51,0,0,1-.3,1.91,4,4,0,0,1-.82,1.34,3.21,3.21,0,0,1-1.18.8A3.76,3.76,0,0,1,174.86,105.5Zm-.21-1.25a2.25,2.25,0,0,0,1.78-.76,4.21,4.21,0,0,0,0-4.59,2.23,2.23,0,0,0-1.78-.78,2.89,2.89,0,0,0-1,.19,2.3,2.3,0,0,0-.81.57,2.78,2.78,0,0,0-.55,1,4.62,4.62,0,0,0,0,2.69,2.93,2.93,0,0,0,.55,1,2.15,2.15,0,0,0,.81.56A2.68,2.68,0,0,0,174.65,104.25Z"/><path class="cls-4" d="M183.69,105.5a4.31,4.31,0,0,1-1.58-.29,3.56,3.56,0,0,1-1.28-.84A4.18,4.18,0,0,1,180,103a5.79,5.79,0,0,1,0-3.68,4.18,4.18,0,0,1,.84-1.35,3.68,3.68,0,0,1,1.28-.83,4.31,4.31,0,0,1,1.58-.29,4.38,4.38,0,0,1,1.6.29,3.63,3.63,0,0,1,1.27.83,4,4,0,0,1,.85,1.35,5.62,5.62,0,0,1,0,3.68,4,4,0,0,1-.85,1.35,3.53,3.53,0,0,1-1.27.84A4.38,4.38,0,0,1,183.69,105.5Zm0-1.25a2.66,2.66,0,0,0,1-.19,2.22,2.22,0,0,0,.83-.56,2.66,2.66,0,0,0,.54-1,5,5,0,0,0,0-2.73,2.66,2.66,0,0,0-.54-.95,2.22,2.22,0,0,0-.83-.56,2.66,2.66,0,0,0-1-.19,2.61,2.61,0,0,0-1,.19,2.15,2.15,0,0,0-.81.56,2.66,2.66,0,0,0-.54.95,5,5,0,0,0,0,2.73,2.66,2.66,0,0,0,.54,1,2.15,2.15,0,0,0,.81.56A2.61,2.61,0,0,0,183.69,104.25Z"/><path class="cls-4" d="M189.43,97h5.28v1.2h-3.87v7.11h-1.41Z"/><path class="cls-4" d="M200.6,105.5a3,3,0,0,1-1.65-.45,3.25,3.25,0,0,1-1.12-1.23v4.35h-1.4V97h1.23l.14,1.62a3.39,3.39,0,0,1,1.12-1.3,3,3,0,0,1,1.75-.48,3.61,3.61,0,0,1,1.38.27,3.18,3.18,0,0,1,1.17.8,3.92,3.92,0,0,1,.8,1.34,5.71,5.71,0,0,1,.29,1.9,5.51,5.51,0,0,1-.3,1.91,3.66,3.66,0,0,1-.82,1.34,3.13,3.13,0,0,1-1.18.8A3.76,3.76,0,0,1,200.6,105.5Zm-.21-1.25a2.29,2.29,0,0,0,1.79-.76,4.21,4.21,0,0,0,0-4.59,2.27,2.27,0,0,0-1.79-.78,2.79,2.79,0,0,0-1,.19,2.25,2.25,0,0,0-.82.57,2.62,2.62,0,0,0-.54,1,4.62,4.62,0,0,0,0,2.69,2.75,2.75,0,0,0,.54,1,2.11,2.11,0,0,0,.82.56A2.59,2.59,0,0,0,200.39,104.25Z"/><path class="cls-4" d="M210.81,103.75a4.44,4.44,0,0,1-.37.6,2.74,2.74,0,0,1-.56.57,3,3,0,0,1-.79.42,3.38,3.38,0,0,1-1.06.16,2.57,2.57,0,0,1-1.81-.63,2.36,2.36,0,0,1-.69-1.82,2.25,2.25,0,0,1,.95-2,4.83,4.83,0,0,1,2.71-.64h1.56v-.69a1.49,1.49,0,0,0-.45-1.23,2.43,2.43,0,0,0-1.54-.37,4.19,4.19,0,0,0-1.46.25,7,7,0,0,0-1.23.57V97.67a6.17,6.17,0,0,1,1.21-.53,5,5,0,0,1,1.67-.27,3.8,3.8,0,0,1,2.39.65,2.41,2.41,0,0,1,.81,2V104c0,.1,0,.21,0,.33s0,.25,0,.38,0,.25,0,.36,0,.2,0,.28H211a5.27,5.27,0,0,1-.08-.63,6.62,6.62,0,0,1,0-.72Zm-2.48.5a2.19,2.19,0,0,0,1.12-.27,2.75,2.75,0,0,0,1.17-1.35,1.87,1.87,0,0,0,.13-.49v-.61h-1.41a3.56,3.56,0,0,0-1.84.36,1.22,1.22,0,0,0-.56,1.09,1.27,1.27,0,0,0,.33.91A1.4,1.4,0,0,0,208.33,104.25Z"/><path class="cls-4" d="M222.28,98.67l-2.82,5.74h-1.12l-2.65-5.78v6.71h-1.33V97h2.1L219,102.6,221.72,97h1.95v8.31h-1.39Z"/><path class="cls-4" d="M233.9,98.67l-2.82,5.74H230l-2.65-5.78v6.71H226V97h2.09l2.55,5.57L233.34,97h1.95v8.31H233.9Z"/><path class="cls-4" d="M244.2,104.64l-.43.27a5.33,5.33,0,0,1-.62.28,5.68,5.68,0,0,1-.84.22,5.44,5.44,0,0,1-1,.09,4.19,4.19,0,0,1-3.18-1.14,4.4,4.4,0,0,1-1.09-3.18,5.09,5.09,0,0,1,.3-1.81,3.88,3.88,0,0,1,.82-1.35,3.6,3.6,0,0,1,1.25-.85,4,4,0,0,1,1.57-.3,3.9,3.9,0,0,1,1.6.31,2.92,2.92,0,0,1,1.16.89,3.5,3.5,0,0,1,.62,1.47,6,6,0,0,1,0,2h-5.85a2.85,2.85,0,0,0,.8,2,3,3,0,0,0,2.14.67,4.53,4.53,0,0,0,1.65-.27,6.42,6.42,0,0,0,1.15-.6Zm-3.29-6.52a2.34,2.34,0,0,0-1.57.56,2.62,2.62,0,0,0-.83,1.7H243a2.06,2.06,0,0,0-.53-1.71A2.14,2.14,0,0,0,240.91,98.12Z"/><path class="cls-4" d="M75.64,194.5a6.6,6.6,0,0,1-2.32-.4,5.13,5.13,0,0,1-1.78-1.16,5,5,0,0,1-1.14-1.86,7.07,7.07,0,0,1-.4-2.47,7.85,7.85,0,0,1,.36-2.48,5,5,0,0,1,1.09-1.85,4.7,4.7,0,0,1,1.77-1.16,6.62,6.62,0,0,1,2.39-.4,7.42,7.42,0,0,1,2,.25,5.81,5.81,0,0,1,1.44.58V185a5.28,5.28,0,0,0-1.66-.69,8.4,8.4,0,0,0-1.84-.22,3.73,3.73,0,0,0-3,1.13,5.07,5.07,0,0,0-1,3.4A4.85,4.85,0,0,0,72.68,192a4.06,4.06,0,0,0,3.09,1.12,6.21,6.21,0,0,0,1.72-.24,5,5,0,0,0,1.61-.82v1.44a4.45,4.45,0,0,1-1.35.67A6.3,6.3,0,0,1,75.64,194.5Z"/><path class="cls-4" d="M85.31,194.5a3,3,0,0,1-1.66-.45,3.31,3.31,0,0,1-1.11-1.23v4.35H81.13V186h1.23l.15,1.62a3.39,3.39,0,0,1,1.12-1.3,3,3,0,0,1,1.74-.48,3.7,3.7,0,0,1,1.39.27,3.06,3.06,0,0,1,1.16.8,3.63,3.63,0,0,1,.8,1.34,5.45,5.45,0,0,1,.3,1.9,5.51,5.51,0,0,1-.3,1.91,4,4,0,0,1-.82,1.34,3.21,3.21,0,0,1-1.18.8A3.76,3.76,0,0,1,85.31,194.5Zm-.21-1.25a2.25,2.25,0,0,0,1.78-.76,4.21,4.21,0,0,0,0-4.59,2.23,2.23,0,0,0-1.78-.78,2.89,2.89,0,0,0-1,.19,2.3,2.3,0,0,0-.81.57,2.78,2.78,0,0,0-.55,1,4.62,4.62,0,0,0,0,2.69,2.93,2.93,0,0,0,.55,1,2.15,2.15,0,0,0,.81.56A2.68,2.68,0,0,0,85.1,193.25Z"/><path class="cls-4" d="M95.52,192.75a4.44,4.44,0,0,1-.37.6,2.74,2.74,0,0,1-.56.57,3.12,3.12,0,0,1-.79.42,3.44,3.44,0,0,1-1.07.16,2.59,2.59,0,0,1-1.81-.63,2.35,2.35,0,0,1-.68-1.82,2.23,2.23,0,0,1,1-2,4.8,4.8,0,0,1,2.71-.64h1.55v-.69a1.49,1.49,0,0,0-.45-1.23,2.4,2.4,0,0,0-1.53-.37,4.19,4.19,0,0,0-1.46.25,6.36,6.36,0,0,0-1.23.57v-1.27a6.17,6.17,0,0,1,1.21-.53,4.92,4.92,0,0,1,1.67-.27,3.75,3.75,0,0,1,2.38.65,2.39,2.39,0,0,1,.82,2V193c0,.1,0,.21,0,.33s0,.25,0,.38l0,.36c0,.11,0,.2,0,.28H95.66q0-.22-.09-.63a6.62,6.62,0,0,1,0-.72Zm-2.48.5a2.21,2.21,0,0,0,1.12-.27,3,3,0,0,0,.75-.64,2.49,2.49,0,0,0,.41-.71,1.53,1.53,0,0,0,.13-.49v-.61H94a3.54,3.54,0,0,0-1.83.36,1.21,1.21,0,0,0-.57,1.09,1.28,1.28,0,0,0,.34.91A1.39,1.39,0,0,0,93,193.25Z"/><path class="cls-4" d="M105,191.92a2.43,2.43,0,0,1-.28,1.19,2.33,2.33,0,0,1-.76.8,3.21,3.21,0,0,1-1.12.45,6.28,6.28,0,0,1-1.32.14,6.38,6.38,0,0,1-1.6-.19,3.81,3.81,0,0,1-1.1-.47v-1.26a4.11,4.11,0,0,0,1.18.49,5.91,5.91,0,0,0,1.49.18A3.48,3.48,0,0,0,103,193a1.19,1.19,0,0,0,.1-2,3.33,3.33,0,0,0-1.6-.29h-1.1V189.5h1.15a2.32,2.32,0,0,0,1.35-.32,1,1,0,0,0,.46-.92.93.93,0,0,0-.15-.54,1.18,1.18,0,0,0-.41-.35,1.76,1.76,0,0,0-.6-.19,4.23,4.23,0,0,0-.73-.06,5,5,0,0,0-1.37.18,4.18,4.18,0,0,0-1.14.49v-1.26a4.21,4.21,0,0,1,1.08-.47,5.9,5.9,0,0,1,1.54-.19,3.79,3.79,0,0,1,2.3.58,1.92,1.92,0,0,1,.78,1.66,1.81,1.81,0,0,1-.44,1.28A2.41,2.41,0,0,1,103,190a2.47,2.47,0,0,1,1.49.62A1.69,1.69,0,0,1,105,191.92Z"/><path class="cls-4" d="M110.33,195.56a4.29,4.29,0,0,1-.72,1,2.5,2.5,0,0,1-.89.6,3.09,3.09,0,0,1-1.14.2,3.65,3.65,0,0,1-.59,0,1.94,1.94,0,0,1-.5-.14v-1.34a1.56,1.56,0,0,0,.45.2,2.22,2.22,0,0,0,.59.07,1.6,1.6,0,0,0,1-.28,3.06,3.06,0,0,0,.74-.9L105.87,186h1.55l2.64,7,2.62-7H114l-3.1,8.21A9.08,9.08,0,0,1,110.33,195.56Z"/><path class="cls-4" d="M119,186h6.65v8.31h-1.4v-7.11h-3.85v7.11H119Z"/><path class="cls-4" d="M131.32,194.5a4.35,4.35,0,0,1-1.58-.29,3.53,3.53,0,0,1-1.27-.84,3.86,3.86,0,0,1-.84-1.35,5.62,5.62,0,0,1,0-3.68,3.86,3.86,0,0,1,.84-1.35,3.63,3.63,0,0,1,1.27-.83,4.5,4.5,0,0,1,3.18,0,3.59,3.59,0,0,1,1.28.83,4,4,0,0,1,.84,1.35,5.45,5.45,0,0,1,0,3.68,4,4,0,0,1-.84,1.35,3.48,3.48,0,0,1-1.28.84A4.38,4.38,0,0,1,131.32,194.5Zm0-1.25a2.71,2.71,0,0,0,1-.19,2.18,2.18,0,0,0,.82-.56,2.39,2.39,0,0,0,.54-.95,4.76,4.76,0,0,0,0-2.73,2.39,2.39,0,0,0-.54-.95,2.18,2.18,0,0,0-.82-.56,2.71,2.71,0,0,0-1-.19,2.61,2.61,0,0,0-1,.19,2.15,2.15,0,0,0-.81.56,2.5,2.5,0,0,0-.53.95,4.76,4.76,0,0,0,0,2.73,2.5,2.5,0,0,0,.53.95,2.15,2.15,0,0,0,.81.56A2.61,2.61,0,0,0,131.32,193.25Z"/><path class="cls-4" d="M140.65,194.5a4.72,4.72,0,0,1-1.73-.3,3.6,3.6,0,0,1-2.16-2.2,5.39,5.39,0,0,1-.28-1.82,5.33,5.33,0,0,1,.29-1.81,3.59,3.59,0,0,1,2.17-2.2,5,5,0,0,1,1.78-.3,5.68,5.68,0,0,1,1.41.17,3,3,0,0,1,1.05.49v1.26a3.91,3.91,0,0,0-1.14-.5,5.17,5.17,0,0,0-1.31-.17,2.7,2.7,0,0,0-2.13.76,3.31,3.31,0,0,0-.68,2.3,3.53,3.53,0,0,0,.65,2.32,2.63,2.63,0,0,0,2.08.75,4.72,4.72,0,0,0,1.39-.19,5.34,5.34,0,0,0,1.14-.47v1.26a4.94,4.94,0,0,1-1.08.46A5.25,5.25,0,0,1,140.65,194.5Z"/><path class="cls-4" d="M145.71,191.76a10.9,10.9,0,0,0,.29-2.21c0-.92.06-2.1.06-3.52h5.58v8.31h-1.42v-7.11h-2.83c0,1.14,0,2.16-.1,3a10.32,10.32,0,0,1-.37,2.24,3,3,0,0,1-.82,1.39,2.11,2.11,0,0,1-1.43.47h-.13l-.14,0V193l.21,0C145.15,193,145.52,192.57,145.71,191.76Z"/><path class="cls-4" d="M160.54,193.64l-.43.27a4.85,4.85,0,0,1-.63.28,5.23,5.23,0,0,1-.83.22,5.44,5.44,0,0,1-1,.09,4.18,4.18,0,0,1-3.18-1.14,4.4,4.4,0,0,1-1.09-3.18,5.09,5.09,0,0,1,.3-1.81,3.74,3.74,0,0,1,.82-1.35,3.6,3.6,0,0,1,1.25-.85,4,4,0,0,1,1.57-.3,3.9,3.9,0,0,1,1.6.31,2.92,2.92,0,0,1,1.16.89,3.5,3.5,0,0,1,.62,1.47,6,6,0,0,1,0,2H154.8a2.85,2.85,0,0,0,.8,2,3,3,0,0,0,2.14.67,4.53,4.53,0,0,0,1.65-.27,6.42,6.42,0,0,0,1.15-.6Zm-3.3-6.52a2.33,2.33,0,0,0-1.56.56,2.68,2.68,0,0,0-.84,1.7h4.47a2.1,2.1,0,0,0-.53-1.71A2.15,2.15,0,0,0,157.24,187.12Z"/><path class="cls-4" d="M166.06,186h3.1a4.16,4.16,0,0,1,2.28.52,1.83,1.83,0,0,1,.76,1.63,1.73,1.73,0,0,1-.37,1.17,2.08,2.08,0,0,1-1.07.64,1.83,1.83,0,0,1,1.78,2,2.21,2.21,0,0,1-.26,1.1,2.07,2.07,0,0,1-.7.74,3.09,3.09,0,0,1-1.08.42,7.33,7.33,0,0,1-1.37.13h-3.07Zm1.41,1.2v2.26H169a2.5,2.5,0,0,0,1.28-.29.9.9,0,0,0,.49-.83.93.93,0,0,0-.43-.9,2.58,2.58,0,0,0-1.23-.24Zm0,3.38v2.53h1.65a4.92,4.92,0,0,0,.8-.06,1.94,1.94,0,0,0,.63-.2,1.07,1.07,0,0,0,.41-.38,1.2,1.2,0,0,0,.14-.59,1.06,1.06,0,0,0-.5-1,3,3,0,0,0-1.48-.29Z"/><path class="cls-4" d="M180.79,191.57a2.88,2.88,0,0,1-.25,1.25,2.23,2.23,0,0,1-.72.86,3.14,3.14,0,0,1-1.11.5,6,6,0,0,1-1.39.16h-2.67V186h1.41v2.9h1.36a4.35,4.35,0,0,1,2.48.62A2.28,2.28,0,0,1,180.79,191.57Zm-4.73-1.44v3h1.26a2.82,2.82,0,0,0,1.48-.35,1.23,1.23,0,0,0,.57-1.14,1.32,1.32,0,0,0-.51-1.17,2.55,2.55,0,0,0-1.44-.35Zm7.34,4.21H182V186h1.4Z"/><path class="cls-4" d="M191.59,191.92a2.33,2.33,0,0,1-.28,1.19,2.16,2.16,0,0,1-.76.8,3.24,3.24,0,0,1-1.11.45,6.28,6.28,0,0,1-1.32.14,6.47,6.47,0,0,1-1.61-.19,3.86,3.86,0,0,1-1.09-.47v-1.26a4.11,4.11,0,0,0,1.18.49,5.91,5.91,0,0,0,1.49.18,3.48,3.48,0,0,0,1.53-.3,1.2,1.2,0,0,0,.09-2,3.26,3.26,0,0,0-1.59-.29H187V189.5h1.15a2.27,2.27,0,0,0,1.34-.32,1,1,0,0,0,.47-.92.93.93,0,0,0-.15-.54,1.18,1.18,0,0,0-.41-.35,1.76,1.76,0,0,0-.6-.19,4.23,4.23,0,0,0-.73-.06,5,5,0,0,0-1.37.18,4.18,4.18,0,0,0-1.14.49v-1.26a4.21,4.21,0,0,1,1.08-.47,5.9,5.9,0,0,1,1.54-.19,3.79,3.79,0,0,1,2.3.58,1.92,1.92,0,0,1,.77,1.66,1.76,1.76,0,0,1-.44,1.28,2.33,2.33,0,0,1-1.24.64,2.5,2.5,0,0,1,1.5.62A1.68,1.68,0,0,1,191.59,191.92Z"/><path class="cls-4" d="M197.07,194.5a4.36,4.36,0,0,1-1.59-.29,3.53,3.53,0,0,1-1.27-.84,3.86,3.86,0,0,1-.84-1.35,5.79,5.79,0,0,1,0-3.68,3.86,3.86,0,0,1,.84-1.35,3.63,3.63,0,0,1,1.27-.83,4.36,4.36,0,0,1,1.59-.29,4.42,4.42,0,0,1,1.6.29,3.63,3.63,0,0,1,1.27.83,4,4,0,0,1,.85,1.35,5.62,5.62,0,0,1,0,3.68,4,4,0,0,1-.85,1.35,3.53,3.53,0,0,1-1.27.84A4.42,4.42,0,0,1,197.07,194.5Zm0-1.25a2.7,2.7,0,0,0,1-.19,2.18,2.18,0,0,0,.82-.56,2.53,2.53,0,0,0,.55-.95,5,5,0,0,0,0-2.73,2.53,2.53,0,0,0-.55-.95,2.18,2.18,0,0,0-.82-.56,2.7,2.7,0,0,0-1-.19,2.63,2.63,0,0,0-1,.19,2.15,2.15,0,0,0-.81.56,2.64,2.64,0,0,0-.53.95,5,5,0,0,0,0,2.73,2.64,2.64,0,0,0,.53.95,2.15,2.15,0,0,0,.81.56A2.63,2.63,0,0,0,197.07,193.25Z"/><path class="cls-4" d="M202.81,186h3.11a4.14,4.14,0,0,1,2.27.52,1.84,1.84,0,0,1,.77,1.63,1.73,1.73,0,0,1-.38,1.17,2.09,2.09,0,0,1-1.06.64,1.83,1.83,0,0,1,1.77,2,2.21,2.21,0,0,1-.25,1.1,2.18,2.18,0,0,1-.71.74,3.09,3.09,0,0,1-1.08.42,7.33,7.33,0,0,1-1.37.13h-3.07Zm1.41,1.2v2.26h1.57a2.57,2.57,0,0,0,1.29-.29.91.91,0,0,0,.48-.83.93.93,0,0,0-.43-.9,2.58,2.58,0,0,0-1.23-.24Zm0,3.38v2.53h1.65a4.74,4.74,0,0,0,.8-.06,1.87,1.87,0,0,0,.63-.2,1,1,0,0,0,.41-.38,1.2,1.2,0,0,0,.14-.59,1.06,1.06,0,0,0-.49-1,3.09,3.09,0,0,0-1.49-.29Z"/><path class="cls-4" d="M216.27,192.75a4.44,4.44,0,0,1-.37.6,2.74,2.74,0,0,1-.56.57,3,3,0,0,1-.79.42,3.44,3.44,0,0,1-1.07.16,2.59,2.59,0,0,1-1.81-.63,2.39,2.39,0,0,1-.68-1.82,2.23,2.23,0,0,1,.95-2,4.8,4.8,0,0,1,2.71-.64h1.55v-.69a1.49,1.49,0,0,0-.45-1.23,2.4,2.4,0,0,0-1.53-.37,4.19,4.19,0,0,0-1.46.25,6.36,6.36,0,0,0-1.23.57v-1.27a6.17,6.17,0,0,1,1.21-.53,5,5,0,0,1,1.67-.27,3.75,3.75,0,0,1,2.38.65,2.39,2.39,0,0,1,.82,2V193c0,.1,0,.21,0,.33s0,.25,0,.38,0,.25,0,.36,0,.2,0,.28h-1.28q0-.22-.09-.63c0-.28,0-.51,0-.72Zm-2.48.5a2.21,2.21,0,0,0,1.12-.27,2.75,2.75,0,0,0,1.17-1.35,1.74,1.74,0,0,0,.12-.49v-.61h-1.41a3.54,3.54,0,0,0-1.83.36,1.21,1.21,0,0,0-.57,1.09,1.28,1.28,0,0,0,.34.91A1.4,1.4,0,0,0,213.79,193.25Z"/><path class="cls-4" d="M80.2,210.18a4.32,4.32,0,0,1-.35,1.82,3.86,3.86,0,0,1-2.37,2.15,5.75,5.75,0,0,1-1.72.31v2.71H74.35v-2.71a5.44,5.44,0,0,1-1.75-.32,4.26,4.26,0,0,1-1.42-.82,3.72,3.72,0,0,1-1-1.32,4.48,4.48,0,0,1-.35-1.82,4.35,4.35,0,0,1,.36-1.82,3.7,3.7,0,0,1,1-1.33,4.1,4.1,0,0,1,1.41-.81,5.77,5.77,0,0,1,1.74-.31v-3.2h1.41v3.2a5.71,5.71,0,0,1,1.73.31,4.31,4.31,0,0,1,1.41.83,3.85,3.85,0,0,1,.95,1.32A4.27,4.27,0,0,1,80.2,210.18Zm-8.88,0a3.31,3.31,0,0,0,.24,1.32,2.42,2.42,0,0,0,.64.94,2.56,2.56,0,0,0,1,.56,4.06,4.06,0,0,0,1.19.23v-6.1a4.19,4.19,0,0,0-1.21.23,2.86,2.86,0,0,0-1,.58,2.55,2.55,0,0,0-.63.93A3.29,3.29,0,0,0,71.32,210.17Zm7.44,0a3.4,3.4,0,0,0-.23-1.33,2.45,2.45,0,0,0-.64-.92,2.94,2.94,0,0,0-1-.57,4.05,4.05,0,0,0-1.18-.23v6.1A4.19,4.19,0,0,0,77,213a3,3,0,0,0,1-.57,2.47,2.47,0,0,0,.63-.93A3.32,3.32,0,0,0,78.76,210.17Z"/><path class="cls-4" d="M85.24,215.56a4.29,4.29,0,0,1-.72,1,2.5,2.5,0,0,1-.89.6,3.09,3.09,0,0,1-1.14.2,3.65,3.65,0,0,1-.59,0,1.94,1.94,0,0,1-.5-.14v-1.34a1.56,1.56,0,0,0,.45.2,2.22,2.22,0,0,0,.59.07,1.6,1.6,0,0,0,1-.28,2.92,2.92,0,0,0,.74-.9L80.78,206h1.55L85,213l2.63-7H89l-3.11,8.21A9.08,9.08,0,0,1,85.24,215.56Z"/><path class="cls-4" d="M95.77,210.66h-4v3.68H90.35V206h1.41v3.43h4V206h1.41v8.31H95.77Z"/><path class="cls-4" d="M101.63,210.8h-.74v3.54H99.48V206h1.41v3.57h.8L104.6,206h1.6l-3.4,4.1,3.47,4.21h-1.71Z"/><path class="cls-4" d="M114.52,214.34h-6.76V206h1.4v7.11h4.08V206h1.41v7.11h1.25v3.57h-1.2Z"/><path class="cls-4" d="M118.78,212.42l4.43-6.39h1.43v8.31h-1.41V208l-4.42,6.37h-1.44V206h1.41Z"/><path class="cls-4" d="M128.35,212.42l4.43-6.39h1.42v8.31h-1.41V208l-4.41,6.37h-1.44V206h1.41Z"/><path class="cls-4" d="M71.51,302.87h8.62v11.47H78.61V304.22H73v10.12h-1.5Z"/><path class="cls-4" d="M86,314.5a4.36,4.36,0,0,1-1.59-.29,3.53,3.53,0,0,1-1.27-.84,3.86,3.86,0,0,1-.84-1.35,5.79,5.79,0,0,1,0-3.68,3.86,3.86,0,0,1,.84-1.35,3.63,3.63,0,0,1,1.27-.83,4.36,4.36,0,0,1,1.59-.29,4.42,4.42,0,0,1,1.6.29,3.63,3.63,0,0,1,1.27.83,4,4,0,0,1,.85,1.35,5.62,5.62,0,0,1,0,3.68,4,4,0,0,1-.85,1.35,3.53,3.53,0,0,1-1.27.84A4.42,4.42,0,0,1,86,314.5Zm0-1.25a2.66,2.66,0,0,0,1-.19,2.18,2.18,0,0,0,.82-.56,2.53,2.53,0,0,0,.55-.95,5,5,0,0,0,0-2.73,2.53,2.53,0,0,0-.55-.95,2.18,2.18,0,0,0-.82-.56,2.66,2.66,0,0,0-1-.19,2.63,2.63,0,0,0-1,.19,2.11,2.11,0,0,0-.8.56,2.66,2.66,0,0,0-.54.95,5,5,0,0,0,0,2.73,2.66,2.66,0,0,0,.54.95,2.11,2.11,0,0,0,.8.56A2.63,2.63,0,0,0,86,313.25Z"/><path class="cls-4" d="M95.35,314.5a4.81,4.81,0,0,1-1.74-.3,3.55,3.55,0,0,1-2.15-2.2,5.39,5.39,0,0,1-.29-1.82,5.09,5.09,0,0,1,.3-1.81,3.52,3.52,0,0,1,.84-1.35,3.62,3.62,0,0,1,1.32-.85,5,5,0,0,1,1.78-.3,5.68,5.68,0,0,1,1.41.17,2.92,2.92,0,0,1,1.05.49v1.26a3.91,3.91,0,0,0-1.14-.5,5.15,5.15,0,0,0-1.3-.17,2.72,2.72,0,0,0-2.14.76,3.36,3.36,0,0,0-.68,2.3,3.47,3.47,0,0,0,.66,2.32,2.61,2.61,0,0,0,2.08.75,4.65,4.65,0,0,0,1.38-.19,5.34,5.34,0,0,0,1.14-.47v1.26a4.94,4.94,0,0,1-1.08.46A5.23,5.23,0,0,1,95.35,314.5Z"/><path class="cls-4" d="M100.4,311.76a10.23,10.23,0,0,0,.29-2.21c0-.92.06-2.1.06-3.52h5.59v8.31h-1.43v-7.11h-2.83c0,1.14,0,2.16-.1,3a9.75,9.75,0,0,1-.37,2.24,3,3,0,0,1-.82,1.39,2.09,2.09,0,0,1-1.43.47h-.13l-.14,0V313l.21,0C99.84,313,100.21,312.57,100.4,311.76Z"/><path class="cls-4" d="M115.23,313.64c-.11.08-.26.17-.43.27a5.33,5.33,0,0,1-.62.28,5.68,5.68,0,0,1-.84.22,5.37,5.37,0,0,1-1,.09,4.21,4.21,0,0,1-3.18-1.14,4.44,4.44,0,0,1-1.09-3.18,5.09,5.09,0,0,1,.3-1.81,3.88,3.88,0,0,1,.82-1.35,3.6,3.6,0,0,1,1.25-.85,4,4,0,0,1,1.57-.3,3.87,3.87,0,0,1,1.6.31,2.92,2.92,0,0,1,1.16.89,3.5,3.5,0,0,1,.62,1.47,6,6,0,0,1,0,2h-5.85a2.85,2.85,0,0,0,.8,2,3,3,0,0,0,2.14.67,4.53,4.53,0,0,0,1.65-.27,6.42,6.42,0,0,0,1.15-.6Zm-3.29-6.52a2.36,2.36,0,0,0-1.57.56,2.62,2.62,0,0,0-.83,1.7H114a2.06,2.06,0,0,0-.53-1.71A2.13,2.13,0,0,0,111.94,307.12Z"/><path class="cls-4" d="M120.75,306h3.11a4.12,4.12,0,0,1,2.27.52,1.84,1.84,0,0,1,.77,1.63,1.73,1.73,0,0,1-.38,1.17,2.09,2.09,0,0,1-1.06.64,1.83,1.83,0,0,1,1.77,2,2.21,2.21,0,0,1-.25,1.1,2.18,2.18,0,0,1-.71.74,3.09,3.09,0,0,1-1.08.42,7.33,7.33,0,0,1-1.37.13h-3.07Zm1.41,1.2v2.26h1.57a2.57,2.57,0,0,0,1.29-.29.91.91,0,0,0,.48-.83.93.93,0,0,0-.43-.9,2.58,2.58,0,0,0-1.23-.24Zm0,3.38v2.53h1.65a5,5,0,0,0,.81-.06,1.88,1.88,0,0,0,.62-.2,1,1,0,0,0,.41-.38,1.2,1.2,0,0,0,.14-.59,1.06,1.06,0,0,0-.49-1,3.09,3.09,0,0,0-1.49-.29Z"/><path class="cls-4" d="M135.49,311.57a2.88,2.88,0,0,1-.26,1.25,2.23,2.23,0,0,1-.72.86,3.17,3.17,0,0,1-1.1.5,6.09,6.09,0,0,1-1.39.16h-2.68V306h1.41v2.9h1.36a4.33,4.33,0,0,1,2.48.62A2.29,2.29,0,0,1,135.49,311.57Zm-4.74-1.44v3H132a2.84,2.84,0,0,0,1.48-.35,1.24,1.24,0,0,0,.56-1.14,1.32,1.32,0,0,0-.51-1.17,2.55,2.55,0,0,0-1.44-.35Zm7.35,4.21h-1.41V306h1.41Z"/><path class="cls-4" d="M140.4,306h6.65v8.31h-1.4v-7.11h-3.84v7.11H140.4Z"/><path class="cls-4" d="M152.77,314.5a4.36,4.36,0,0,1-1.59-.29,3.53,3.53,0,0,1-1.27-.84,3.86,3.86,0,0,1-.84-1.35,5.79,5.79,0,0,1,0-3.68,3.86,3.86,0,0,1,.84-1.35,3.63,3.63,0,0,1,1.27-.83,4.36,4.36,0,0,1,1.59-.29,4.42,4.42,0,0,1,1.6.29,3.63,3.63,0,0,1,1.27.83,4,4,0,0,1,.85,1.35,5.62,5.62,0,0,1,0,3.68,4,4,0,0,1-.85,1.35,3.53,3.53,0,0,1-1.27.84A4.42,4.42,0,0,1,152.77,314.5Zm0-1.25a2.7,2.7,0,0,0,1-.19,2.18,2.18,0,0,0,.82-.56,2.53,2.53,0,0,0,.55-.95,5,5,0,0,0,0-2.73,2.53,2.53,0,0,0-.55-.95,2.18,2.18,0,0,0-.82-.56,2.7,2.7,0,0,0-1-.19,2.63,2.63,0,0,0-1,.19,2.15,2.15,0,0,0-.81.56,2.8,2.8,0,0,0-.53.95,5,5,0,0,0,0,2.73,2.8,2.8,0,0,0,.53.95,2.15,2.15,0,0,0,.81.56A2.63,2.63,0,0,0,152.77,313.25Z"/><path class="cls-4" d="M158.91,311.76a10.23,10.23,0,0,0,.29-2.21c0-.92.06-2.1.06-3.52h5.59v8.31h-1.43v-7.11h-2.83c0,1.14,0,2.16-.1,3a9.75,9.75,0,0,1-.37,2.24,3,3,0,0,1-.82,1.39,2.09,2.09,0,0,1-1.43.47h-.13l-.14,0V313l.21,0C158.35,313,158.72,312.57,158.91,311.76Z"/><path class="cls-4" d="M172.56,310.66h-4v3.68h-1.41V306h1.41v3.43h4V306H174v8.31h-1.41Z"/><path class="cls-4" d="M182.88,313.64l-.43.27a4.85,4.85,0,0,1-.63.28,5.23,5.23,0,0,1-.83.22,5.52,5.52,0,0,1-1,.09,4.18,4.18,0,0,1-3.18-1.14,4.4,4.4,0,0,1-1.09-3.18,5.33,5.33,0,0,1,.29-1.81,3.9,3.9,0,0,1,.83-1.35,3.6,3.6,0,0,1,1.25-.85,4,4,0,0,1,1.56-.3,3.84,3.84,0,0,1,1.6.31,2.85,2.85,0,0,1,1.16.89,3.39,3.39,0,0,1,.63,1.47,6,6,0,0,1,0,2h-5.86a2.89,2.89,0,0,0,.8,2,3,3,0,0,0,2.15.67,4.53,4.53,0,0,0,1.65-.27,6.78,6.78,0,0,0,1.15-.6Zm-3.3-6.52a2.36,2.36,0,0,0-1.57.56,2.72,2.72,0,0,0-.83,1.7h4.47a2.1,2.1,0,0,0-.53-1.71A2.17,2.17,0,0,0,179.58,307.12Z"/><path class="cls-4" d="M190.3,310.66h-4v3.68h-1.41V306h1.41v3.43h4V306h1.41v8.31H190.3Z"/><path class="cls-4" d="M195.42,312.42l4.43-6.39h1.43v8.31h-1.41V308l-4.42,6.37H194V306h1.41Z"/><path class="cls-4" d="M203.58,308.72a2.67,2.67,0,0,1,.26-1.21,2.3,2.3,0,0,1,.72-.83,3.35,3.35,0,0,1,1.1-.49,6.09,6.09,0,0,1,1.39-.16h2.68v8.31h-1.41v-3H206.8l-2.13,3H203l2.4-3.36a2.85,2.85,0,0,1-1.34-.79A2.14,2.14,0,0,1,203.58,308.72Zm4.74,1.41v-2.9h-1.27a2.86,2.86,0,0,0-1.47.34,1.17,1.17,0,0,0-.57,1.09,1.27,1.27,0,0,0,.51,1.13,2.65,2.65,0,0,0,1.45.34Z"/><path class="cls-4" d="M219.13,314.5a4.76,4.76,0,0,1-1.73-.3,3.62,3.62,0,0,1-1.32-.85,3.5,3.5,0,0,1-.83-1.35,5.15,5.15,0,0,1-.29-1.82,5.33,5.33,0,0,1,.29-1.81,3.59,3.59,0,0,1,2.17-2.2,5,5,0,0,1,1.78-.3,5.68,5.68,0,0,1,1.41.17,3,3,0,0,1,1,.49v1.26a3.91,3.91,0,0,0-1.14-.5,5.17,5.17,0,0,0-1.31-.17,2.7,2.7,0,0,0-2.13.76,3.31,3.31,0,0,0-.68,2.3,3.53,3.53,0,0,0,.65,2.32,2.63,2.63,0,0,0,2.08.75,4.72,4.72,0,0,0,1.39-.19,5.34,5.34,0,0,0,1.14-.47v1.26a4.94,4.94,0,0,1-1.08.46A5.25,5.25,0,0,1,219.13,314.5Z"/><path class="cls-4" d="M226.89,307.23v7.11h-1.4v-7.11h-2.61V306h6.67v1.2Z"/><path class="cls-4" d="M235.36,314.5a3,3,0,0,1-1.66-.45,3.31,3.31,0,0,1-1.11-1.23v4.35h-1.41V306h1.23l.15,1.62a3.31,3.31,0,0,1,1.12-1.3,3,3,0,0,1,1.74-.48,3.7,3.7,0,0,1,1.39.27,3.06,3.06,0,0,1,1.16.8,3.63,3.63,0,0,1,.8,1.34,5.45,5.45,0,0,1,.3,1.9,5.51,5.51,0,0,1-.3,1.91,4,4,0,0,1-.82,1.34,3.21,3.21,0,0,1-1.18.8A3.76,3.76,0,0,1,235.36,314.5Zm-.21-1.25a2.25,2.25,0,0,0,1.78-.76,4.21,4.21,0,0,0,0-4.59,2.23,2.23,0,0,0-1.78-.78,2.89,2.89,0,0,0-1,.19,2.3,2.3,0,0,0-.81.57,2.78,2.78,0,0,0-.55,1,4.62,4.62,0,0,0,0,2.69,2.93,2.93,0,0,0,.55,1,2.15,2.15,0,0,0,.81.56A2.68,2.68,0,0,0,235.15,313.25Z"/><path class="cls-4" d="M244.19,314.5a4.4,4.4,0,0,1-1.59-.29,3.53,3.53,0,0,1-1.27-.84,4.18,4.18,0,0,1-.84-1.35,5.79,5.79,0,0,1,0-3.68,4.18,4.18,0,0,1,.84-1.35,3.63,3.63,0,0,1,1.27-.83,4.53,4.53,0,0,1,3.19,0,3.63,3.63,0,0,1,1.27.83,4,4,0,0,1,.85,1.35,5.62,5.62,0,0,1,0,3.68,4,4,0,0,1-.85,1.35,3.53,3.53,0,0,1-1.27.84A4.42,4.42,0,0,1,244.19,314.5Zm0-1.25a2.66,2.66,0,0,0,1-.19,2.11,2.11,0,0,0,.82-.56,2.53,2.53,0,0,0,.55-.95,5,5,0,0,0,0-2.73,2.53,2.53,0,0,0-.55-.95,2.11,2.11,0,0,0-.82-.56,2.66,2.66,0,0,0-1-.19,2.58,2.58,0,0,0-1,.19,2.15,2.15,0,0,0-.81.56,2.66,2.66,0,0,0-.54.95,5,5,0,0,0,0,2.73,2.66,2.66,0,0,0,.54.95,2.15,2.15,0,0,0,.81.56A2.58,2.58,0,0,0,244.19,313.25Z"/><path class="cls-4" d="M252.08,310.8h-.74v3.54h-1.41V306h1.41v3.57h.8l2.91-3.57h1.6l-3.4,4.1,3.47,4.21H255Z"/><path class="cls-4" d="M259.61,312.42,264,306h1.43v8.31h-1.41V308l-4.42,6.37h-1.43V306h1.4Z"/><path class="cls-4" d="M75.49,334.5a3,3,0,0,1-1.66-.45,3.31,3.31,0,0,1-1.11-1.23v4.35H71.31V326h1.24l.14,1.62a3.39,3.39,0,0,1,1.12-1.3,3,3,0,0,1,1.74-.48,3.66,3.66,0,0,1,1.39.27,3.18,3.18,0,0,1,1.17.8,3.92,3.92,0,0,1,.8,1.34,5.71,5.71,0,0,1,.29,1.9,5.51,5.51,0,0,1-.3,1.91,3.8,3.8,0,0,1-.82,1.34,3.13,3.13,0,0,1-1.18.8A3.76,3.76,0,0,1,75.49,334.5Zm-.21-1.25a2.29,2.29,0,0,0,1.79-.76,4.21,4.21,0,0,0,0-4.59,2.27,2.27,0,0,0-1.79-.78,2.79,2.79,0,0,0-1,.19,2.25,2.25,0,0,0-.82.57,2.62,2.62,0,0,0-.54,1,4.62,4.62,0,0,0,0,2.69,2.75,2.75,0,0,0,.54,1,2.11,2.11,0,0,0,.82.56A2.59,2.59,0,0,0,75.28,333.25Z"/><path class="cls-4" d="M87.52,333.64l-.43.27a5.33,5.33,0,0,1-.62.28,5.68,5.68,0,0,1-.84.22,5.44,5.44,0,0,1-1,.09,4.19,4.19,0,0,1-3.18-1.14,4.4,4.4,0,0,1-1.09-3.18,5.09,5.09,0,0,1,.3-1.81,3.88,3.88,0,0,1,.82-1.35,3.6,3.6,0,0,1,1.25-.85,4,4,0,0,1,1.57-.3,3.9,3.9,0,0,1,1.6.31,2.92,2.92,0,0,1,1.16.89,3.5,3.5,0,0,1,.62,1.47,6,6,0,0,1,0,2H81.78a2.85,2.85,0,0,0,.8,2,3,3,0,0,0,2.14.67,4.53,4.53,0,0,0,1.65-.27,6.42,6.42,0,0,0,1.15-.6Zm-3.29-6.52a2.34,2.34,0,0,0-1.57.56,2.62,2.62,0,0,0-.83,1.7h4.46a2.06,2.06,0,0,0-.53-1.71A2.14,2.14,0,0,0,84.23,327.12Z"/><path class="cls-4" d="M91.88,327.9a2.35,2.35,0,0,0-1.08,1.16v5.28H89.39V326h1.24l.14,1.81h0a3.94,3.94,0,0,1,1-1.29,3.19,3.19,0,0,1,1.69-.68v1.57A4.34,4.34,0,0,0,91.88,327.9Z"/><path class="cls-4" d="M97.87,334.5a5.79,5.79,0,0,1-1.16-.11,5.49,5.49,0,0,1-.88-.25,3.68,3.68,0,0,1-.63-.32,3.18,3.18,0,0,1-.4-.3v-1.26a3.59,3.59,0,0,0,.43.34,4.46,4.46,0,0,0,.66.35,6,6,0,0,0,.87.26,5.29,5.29,0,0,0,1.1.1,3,3,0,0,0,1.42-.28,1,1,0,0,0,.53-1,1,1,0,0,0-.17-.59,1.16,1.16,0,0,0-.45-.36,3.1,3.1,0,0,0-.67-.22l-.79-.16c-.35-.07-.7-.16-1-.25a3.23,3.23,0,0,1-.93-.4,2,2,0,0,1-.67-.69,2.12,2.12,0,0,1-.26-1.11,2.09,2.09,0,0,1,.88-1.76,4.09,4.09,0,0,1,2.44-.64,6.19,6.19,0,0,1,1.56.18,4.44,4.44,0,0,1,1,.38v1.27a3.79,3.79,0,0,0-1-.46,5.53,5.53,0,0,0-1.53-.18,3.24,3.24,0,0,0-1.44.25,1,1,0,0,0-.51.93.91.91,0,0,0,.15.54,1,1,0,0,0,.39.32,2.12,2.12,0,0,0,.57.18l.67.14,1.12.25a3.34,3.34,0,0,1,1,.39,2.49,2.49,0,0,1,.75.73,2.22,2.22,0,0,1,.3,1.23,2.32,2.32,0,0,1-.29,1.2,2.13,2.13,0,0,1-.76.76,3.49,3.49,0,0,1-1.07.4A6.26,6.26,0,0,1,97.87,334.5Z"/><path class="cls-4" d="M106.35,334.5a4.35,4.35,0,0,1-1.58-.29,3.53,3.53,0,0,1-1.27-.84,3.86,3.86,0,0,1-.84-1.35,5.62,5.62,0,0,1,0-3.68,3.86,3.86,0,0,1,.84-1.35,3.63,3.63,0,0,1,1.27-.83,4.5,4.5,0,0,1,3.18,0,3.68,3.68,0,0,1,1.28.83,4,4,0,0,1,.84,1.35,5.45,5.45,0,0,1,0,3.68,4,4,0,0,1-.84,1.35,3.56,3.56,0,0,1-1.28.84A4.38,4.38,0,0,1,106.35,334.5Zm0-1.25a2.71,2.71,0,0,0,1-.19,2.18,2.18,0,0,0,.82-.56,2.52,2.52,0,0,0,.54-.95,4.76,4.76,0,0,0,0-2.73,2.52,2.52,0,0,0-.54-.95,2.18,2.18,0,0,0-.82-.56,2.71,2.71,0,0,0-1-.19,2.61,2.61,0,0,0-1,.19,2.15,2.15,0,0,0-.81.56,2.5,2.5,0,0,0-.53.95,4.76,4.76,0,0,0,0,2.73,2.5,2.5,0,0,0,.53.95,2.15,2.15,0,0,0,.81.56A2.61,2.61,0,0,0,106.35,333.25Z"/><path class="cls-4" d="M116,327.12a2.6,2.6,0,0,0-1.56.44,3.33,3.33,0,0,0-1,1.13v5.65h-1.4V326h1.33l0,1.49h0a2.85,2.85,0,0,1,1.06-1.18,3.31,3.31,0,0,1,1.83-.47,2.86,2.86,0,0,1,2,.65,2.55,2.55,0,0,1,.72,2v5.83h-1.4v-5.68a1.42,1.42,0,0,0-.44-1.2A1.86,1.86,0,0,0,116,327.12Z"/><path class="cls-4" d="M124.19,328v-1.12h7.73V328Zm0,3v-1.12h7.73V331Z"/><path class="cls-4" d="M138.91,325.23a.89.89,0,0,1-.26.68,1,1,0,0,1-.71.27,1,1,0,0,1-.72-.29,1.13,1.13,0,0,1-.29-.85,2.48,2.48,0,0,1,.09-.65,3,3,0,0,1,.26-.61,5.74,5.74,0,0,1,.34-.55,2.61,2.61,0,0,1,.35-.43h1a4.35,4.35,0,0,0-.46.65,4.72,4.72,0,0,0-.36.85.93.93,0,0,1,.53.34A1,1,0,0,1,138.91,325.23Zm2.63,0a.9.9,0,0,1-.27.68.93.93,0,0,1-.71.27,1,1,0,0,1-.72-.29,1.17,1.17,0,0,1-.29-.85,2.14,2.14,0,0,1,.1-.65,3,3,0,0,1,.25-.61,5.74,5.74,0,0,1,.34-.55,4.29,4.29,0,0,1,.35-.43h1a3.7,3.7,0,0,0-.45.65,3.62,3.62,0,0,0-.36.85.9.9,0,0,1,.52.34A1,1,0,0,1,141.54,325.23Z"/><path class="cls-4" d="M147.09,327.23v7.11h-1.41v-7.11h-2.61V326h6.68v1.2Z"/><path class="cls-4" d="M154.54,334.5a4.35,4.35,0,0,1-1.58-.29,3.53,3.53,0,0,1-1.27-.84,3.86,3.86,0,0,1-.84-1.35,5.62,5.62,0,0,1,0-3.68,3.86,3.86,0,0,1,.84-1.35,3.63,3.63,0,0,1,1.27-.83,4.5,4.5,0,0,1,3.18,0,3.68,3.68,0,0,1,1.28.83,4,4,0,0,1,.84,1.35,5.45,5.45,0,0,1,0,3.68,4,4,0,0,1-.84,1.35,3.56,3.56,0,0,1-1.28.84A4.38,4.38,0,0,1,154.54,334.5Zm0-1.25a2.71,2.71,0,0,0,1-.19,2.18,2.18,0,0,0,.82-.56,2.52,2.52,0,0,0,.54-.95,4.76,4.76,0,0,0,0-2.73,2.52,2.52,0,0,0-.54-.95,2.18,2.18,0,0,0-.82-.56,2.71,2.71,0,0,0-1-.19,2.61,2.61,0,0,0-1,.19,2.15,2.15,0,0,0-.81.56,2.5,2.5,0,0,0-.53.95,4.76,4.76,0,0,0,0,2.73,2.5,2.5,0,0,0,.53.95,2.15,2.15,0,0,0,.81.56A2.61,2.61,0,0,0,154.54,333.25Z"/><path class="cls-4" d="M160.29,326h3.1a4.16,4.16,0,0,1,2.28.52,1.83,1.83,0,0,1,.76,1.63,1.73,1.73,0,0,1-.37,1.17A2.08,2.08,0,0,1,165,330a1.83,1.83,0,0,1,1.78,2,2.21,2.21,0,0,1-.26,1.1,2.07,2.07,0,0,1-.7.74,3.09,3.09,0,0,1-1.08.42,7.33,7.33,0,0,1-1.37.13h-3.07Zm1.41,1.2v2.26h1.56a2.51,2.51,0,0,0,1.29-.29.9.9,0,0,0,.49-.83.93.93,0,0,0-.43-.9,2.58,2.58,0,0,0-1.23-.24Zm0,3.38v2.53h1.64a5,5,0,0,0,.81-.06,1.94,1.94,0,0,0,.63-.2,1,1,0,0,0,.4-.38,1.1,1.1,0,0,0,.15-.59,1.06,1.06,0,0,0-.5-1,3,3,0,0,0-1.49-.29Z"/><path class="cls-4" d="M173.74,332.75a3.53,3.53,0,0,1-.36.6,2.74,2.74,0,0,1-.56.57,3,3,0,0,1-.8.42,3.33,3.33,0,0,1-1.06.16,2.57,2.57,0,0,1-1.81-.63,2.36,2.36,0,0,1-.69-1.82,2.23,2.23,0,0,1,1-2,4.8,4.8,0,0,1,2.71-.64h1.55v-.69a1.49,1.49,0,0,0-.45-1.23,2.42,2.42,0,0,0-1.53-.37,4.15,4.15,0,0,0-1.46.25,6.36,6.36,0,0,0-1.23.57v-1.27a6.17,6.17,0,0,1,1.21-.53,4.92,4.92,0,0,1,1.67-.27,3.77,3.77,0,0,1,2.38.65,2.39,2.39,0,0,1,.82,2V333c0,.1,0,.21,0,.33s0,.25,0,.38l0,.36c0,.11,0,.2,0,.28h-1.28q0-.22-.09-.63a6.62,6.62,0,0,1,0-.72Zm-2.48.5a2.16,2.16,0,0,0,1.12-.27,3,3,0,0,0,.76-.64,2.49,2.49,0,0,0,.41-.71,1.53,1.53,0,0,0,.13-.49v-.61h-1.41a3.54,3.54,0,0,0-1.83.36,1.21,1.21,0,0,0-.57,1.09,1.24,1.24,0,0,0,.34.91A1.36,1.36,0,0,0,171.26,333.25Z"/><path class="cls-4" d="M181.47,334.5a3,3,0,0,1-1.65-.45,3.25,3.25,0,0,1-1.12-1.23v4.35h-1.4V326h1.23l.14,1.62a3.39,3.39,0,0,1,1.12-1.3,3,3,0,0,1,1.75-.48,3.61,3.61,0,0,1,1.38.27,3.18,3.18,0,0,1,1.17.8,3.92,3.92,0,0,1,.8,1.34,6.3,6.3,0,0,1,0,3.81,3.66,3.66,0,0,1-.82,1.34,3.13,3.13,0,0,1-1.18.8A3.76,3.76,0,0,1,181.47,334.5Zm-.21-1.25a2.29,2.29,0,0,0,1.79-.76,4.21,4.21,0,0,0,0-4.59,2.27,2.27,0,0,0-1.79-.78,2.79,2.79,0,0,0-1,.19,2.25,2.25,0,0,0-.82.57,2.62,2.62,0,0,0-.54,1,4.62,4.62,0,0,0,0,2.69,2.75,2.75,0,0,0,.54,1,2.11,2.11,0,0,0,.82.56A2.59,2.59,0,0,0,181.26,333.25Z"/><path class="cls-4" d="M188.3,332.42l4.44-6.39h1.42v8.31h-1.41V328l-4.41,6.37H186.9V326h1.4Z"/><path class="cls-4" d="M206.83,333.14h1.25v3.57h-1.2l-.18-2.37H196.46V326h1.41v7.11h3.07V326h1.41v7.11h3.07V326h1.41Z"/><path class="cls-4" d="M211,323.92a2.5,2.5,0,0,1-.09.66,3.29,3.29,0,0,1-.26.61,5.28,5.28,0,0,1-.35.56,4.31,4.31,0,0,1-.34.43h-1a4.35,4.35,0,0,0,.46-.65,4.54,4.54,0,0,0,.36-.86.87.87,0,0,1-.53-.33,1,1,0,0,1-.19-.59.93.93,0,0,1,.26-.69,1.07,1.07,0,0,1,1.43,0A1.09,1.09,0,0,1,211,323.92Zm2.63,0a2.51,2.51,0,0,1-.1.66,3.29,3.29,0,0,1-.26.61,5.21,5.21,0,0,1-.34.56c-.12.17-.24.31-.34.43h-1a3.32,3.32,0,0,0,.48-.65,3.51,3.51,0,0,0,.34-.86.9.9,0,0,1-.53-.33,1,1,0,0,1-.19-.59.93.93,0,0,1,.27-.69,1,1,0,0,1,.71-.26,1,1,0,0,1,.72.29A1.13,1.13,0,0,1,213.67,323.92Z"/><path class="cls-4" d="M70.67,404.87h8.62v11.47H77.77V406.22h-5.6v10.12h-1.5Z"/><path class="cls-4" d="M85.18,416.5a4.31,4.31,0,0,1-1.58-.29,3.56,3.56,0,0,1-1.28-.84,4.18,4.18,0,0,1-.84-1.35,5.79,5.79,0,0,1,0-3.68,4.18,4.18,0,0,1,.84-1.35,3.68,3.68,0,0,1,1.28-.83,4.31,4.31,0,0,1,1.58-.29,4.38,4.38,0,0,1,1.6.29,3.63,3.63,0,0,1,1.27.83,4,4,0,0,1,.85,1.35,5.62,5.62,0,0,1,0,3.68,4,4,0,0,1-.85,1.35,3.53,3.53,0,0,1-1.27.84A4.38,4.38,0,0,1,85.18,416.5Zm0-1.25a2.66,2.66,0,0,0,1-.19,2.22,2.22,0,0,0,.83-.56,2.66,2.66,0,0,0,.54-.95,5,5,0,0,0,0-2.73,2.66,2.66,0,0,0-.54-.95,2.22,2.22,0,0,0-.83-.56,2.66,2.66,0,0,0-1-.19,2.61,2.61,0,0,0-1,.19,2.15,2.15,0,0,0-.81.56,2.66,2.66,0,0,0-.54.95,5,5,0,0,0,0,2.73,2.66,2.66,0,0,0,.54.95,2.15,2.15,0,0,0,.81.56A2.61,2.61,0,0,0,85.18,415.25Z"/><path class="cls-4" d="M94.44,408h3.11a4.12,4.12,0,0,1,2.27.52,1.84,1.84,0,0,1,.77,1.63,1.73,1.73,0,0,1-.38,1.17,2.05,2.05,0,0,1-1.06.64,1.83,1.83,0,0,1,1.77,2,2.21,2.21,0,0,1-.25,1.1,2.09,2.09,0,0,1-.71.74,3.09,3.09,0,0,1-1.08.42,7.24,7.24,0,0,1-1.37.13H94.44Zm1.41,1.2v2.26h1.57a2.57,2.57,0,0,0,1.29-.29.92.92,0,0,0,.49-.83.94.94,0,0,0-.44-.9,2.58,2.58,0,0,0-1.23-.24Zm0,3.38v2.53H97.5a5,5,0,0,0,.81-.06,1.88,1.88,0,0,0,.62-.2,1,1,0,0,0,.41-.38,1.2,1.2,0,0,0,.14-.59,1.06,1.06,0,0,0-.49-1,3.06,3.06,0,0,0-1.49-.29Z"/><path class="cls-4" d="M106.44,416.5a4.35,4.35,0,0,1-1.58-.29,3.44,3.44,0,0,1-1.27-.84,3.86,3.86,0,0,1-.84-1.35,5.62,5.62,0,0,1,0-3.68,3.86,3.86,0,0,1,.84-1.35,3.55,3.55,0,0,1,1.27-.83,4.5,4.5,0,0,1,3.18,0,3.55,3.55,0,0,1,1.27.83,3.88,3.88,0,0,1,.85,1.35,5.62,5.62,0,0,1,0,3.68,3.88,3.88,0,0,1-.85,1.35,3.44,3.44,0,0,1-1.27.84A4.38,4.38,0,0,1,106.44,416.5Zm0-1.25a2.63,2.63,0,0,0,1-.19,2.22,2.22,0,0,0,.83-.56,2.66,2.66,0,0,0,.54-.95,4.76,4.76,0,0,0,0-2.73,2.66,2.66,0,0,0-.54-.95,2.22,2.22,0,0,0-.83-.56,2.86,2.86,0,0,0-2,0,2.15,2.15,0,0,0-.81.56,2.5,2.5,0,0,0-.53.95,4.76,4.76,0,0,0,0,2.73,2.5,2.5,0,0,0,.53.95,2.15,2.15,0,0,0,.81.56A2.61,2.61,0,0,0,106.44,415.25Z"/><path class="cls-4" d="M118,413.92a2.33,2.33,0,0,1-.29,1.19,2.21,2.21,0,0,1-.75.8,3.38,3.38,0,0,1-1.12.45,6.28,6.28,0,0,1-1.32.14,6.38,6.38,0,0,1-1.6-.19,3.81,3.81,0,0,1-1.1-.47v-1.26a4.11,4.11,0,0,0,1.18.49,5.91,5.91,0,0,0,1.49.18A3.48,3.48,0,0,0,116,415a1.2,1.2,0,0,0,.1-2,3.33,3.33,0,0,0-1.6-.29h-1.1V411.5h1.15a2.32,2.32,0,0,0,1.35-.32,1.06,1.06,0,0,0,.46-.92.93.93,0,0,0-.15-.54,1.18,1.18,0,0,0-.41-.35,1.76,1.76,0,0,0-.6-.19,4.23,4.23,0,0,0-.73-.06,5,5,0,0,0-1.37.18,4.18,4.18,0,0,0-1.14.49v-1.26a4.21,4.21,0,0,1,1.08-.47,5.9,5.9,0,0,1,1.54-.19,3.79,3.79,0,0,1,2.3.58,1.92,1.92,0,0,1,.77,1.66,1.8,1.8,0,0,1-.43,1.28A2.41,2.41,0,0,1,116,412a2.47,2.47,0,0,1,1.49.62A1.69,1.69,0,0,1,118,413.92Z"/><path class="cls-4" d="M120.06,408h3.1a4.16,4.16,0,0,1,2.28.52,1.83,1.83,0,0,1,.76,1.63,1.73,1.73,0,0,1-.37,1.17,2.08,2.08,0,0,1-1.07.64,1.83,1.83,0,0,1,1.78,2,2.21,2.21,0,0,1-.26,1.1,2.07,2.07,0,0,1-.7.74,3.09,3.09,0,0,1-1.08.42,7.33,7.33,0,0,1-1.37.13h-3.07Zm1.41,1.2v2.26H123a2.5,2.5,0,0,0,1.28-.29.9.9,0,0,0,.49-.83.93.93,0,0,0-.43-.9,2.58,2.58,0,0,0-1.23-.24Zm0,3.38v2.53h1.65a4.92,4.92,0,0,0,.8-.06,1.94,1.94,0,0,0,.63-.2,1.07,1.07,0,0,0,.41-.38,1.2,1.2,0,0,0,.14-.59,1.06,1.06,0,0,0-.5-1,3,3,0,0,0-1.48-.29Z"/><path class="cls-4" d="M132.83,416.5a3,3,0,0,1-1.66-.45,3.31,3.31,0,0,1-1.11-1.23v4.35h-1.41V408h1.23l.15,1.62a3.31,3.31,0,0,1,1.12-1.3,3,3,0,0,1,1.74-.48,3.7,3.7,0,0,1,1.39.27,3.06,3.06,0,0,1,1.16.8,3.63,3.63,0,0,1,.8,1.34,5.45,5.45,0,0,1,.3,1.9,5.51,5.51,0,0,1-.3,1.91,4,4,0,0,1-.82,1.34,3.21,3.21,0,0,1-1.18.8A3.76,3.76,0,0,1,132.83,416.5Zm-.21-1.25a2.25,2.25,0,0,0,1.78-.76,4.21,4.21,0,0,0,0-4.59,2.23,2.23,0,0,0-1.78-.78,2.89,2.89,0,0,0-1,.19,2.3,2.3,0,0,0-.81.57,2.78,2.78,0,0,0-.55,1,4.62,4.62,0,0,0,0,2.69,2.93,2.93,0,0,0,.55,1,2.15,2.15,0,0,0,.81.56A2.68,2.68,0,0,0,132.62,415.25Z"/><path class="cls-4" d="M143,414.75a4.44,4.44,0,0,1-.37.6,2.74,2.74,0,0,1-.56.57,3.12,3.12,0,0,1-.79.42,3.44,3.44,0,0,1-1.07.16,2.57,2.57,0,0,1-1.81-.63,2.35,2.35,0,0,1-.68-1.82,2.23,2.23,0,0,1,1-2,4.8,4.8,0,0,1,2.71-.64H143v-.69a1.49,1.49,0,0,0-.45-1.23,2.42,2.42,0,0,0-1.53-.37,4.19,4.19,0,0,0-1.46.25,6.36,6.36,0,0,0-1.23.57v-1.27a6.17,6.17,0,0,1,1.21-.53,4.92,4.92,0,0,1,1.67-.27,3.77,3.77,0,0,1,2.38.65,2.39,2.39,0,0,1,.82,2V415c0,.1,0,.21,0,.33s0,.25,0,.38,0,.25,0,.36,0,.2,0,.28h-1.28q0-.22-.09-.63a6.62,6.62,0,0,1,0-.72Zm-2.48.5a2.21,2.21,0,0,0,1.12-.27,3,3,0,0,0,.75-.64,2.49,2.49,0,0,0,.41-.71,1.53,1.53,0,0,0,.13-.49v-.61h-1.41a3.54,3.54,0,0,0-1.83.36,1.21,1.21,0,0,0-.57,1.09,1.28,1.28,0,0,0,.34.91A1.39,1.39,0,0,0,140.56,415.25Z"/><path class="cls-4" d="M157,415.14h1.24v3.57H157l-.17-2.37H146.59V408H148v7.11h3.07V408h1.41v7.11h3.07V408H157Z"/><path class="cls-4" d="M166.12,415.64c-.11.08-.26.17-.43.27a5.33,5.33,0,0,1-.62.28,5.88,5.88,0,0,1-.83.22,5.52,5.52,0,0,1-1,.09,4.22,4.22,0,0,1-3.19-1.14,4.44,4.44,0,0,1-1.09-3.18,5.09,5.09,0,0,1,.3-1.81A3.88,3.88,0,0,1,160,409a3.7,3.7,0,0,1,1.25-.85,4,4,0,0,1,1.57-.3,3.87,3.87,0,0,1,1.6.31,2.85,2.85,0,0,1,1.16.89,3.5,3.5,0,0,1,.62,1.47,5.93,5.93,0,0,1,0,2h-5.86a2.85,2.85,0,0,0,.8,2,3,3,0,0,0,2.14.67A4.53,4.53,0,0,0,165,415a6.42,6.42,0,0,0,1.15-.6Zm-3.29-6.52a2.36,2.36,0,0,0-1.57.56,2.62,2.62,0,0,0-.83,1.7h4.46a2.06,2.06,0,0,0-.53-1.71A2.13,2.13,0,0,0,162.83,409.12Z"/><path class="cls-4" d="M173.55,412.66h-4v3.68h-1.41V408h1.41v3.43h4V408H175v8.31h-1.41Z"/><path class="cls-4" d="M178.67,414.42,183.1,408h1.42v8.31h-1.4V410l-4.42,6.37h-1.44V408h1.41Z"/><path class="cls-4" d="M188.23,414.42l4.44-6.39h1.42v8.31h-1.41V410l-4.41,6.37h-1.44V408h1.4Z"/><path class="cls-4" d="M70.48,428h3.1a4.12,4.12,0,0,1,2.27.52,1.84,1.84,0,0,1,.77,1.63,1.68,1.68,0,0,1-.38,1.17,2.05,2.05,0,0,1-1.06.64A1.84,1.84,0,0,1,77,434a2.21,2.21,0,0,1-.26,1.1,2.16,2.16,0,0,1-.7.74,3.09,3.09,0,0,1-1.08.42,7.33,7.33,0,0,1-1.37.13H70.48Zm1.4,1.2v2.26h1.57a2.51,2.51,0,0,0,1.29-.29.9.9,0,0,0,.49-.83,1,1,0,0,0-.43-.9,2.6,2.6,0,0,0-1.24-.24Zm0,3.38v2.53h1.65a5,5,0,0,0,.81-.06,1.81,1.81,0,0,0,.62-.2,1,1,0,0,0,.41-.38,1.1,1.1,0,0,0,.15-.59,1.06,1.06,0,0,0-.5-1,3.06,3.06,0,0,0-1.49-.29Z"/><path class="cls-4" d="M86,436.5a4.36,4.36,0,0,1-1.59-.29,3.53,3.53,0,0,1-1.27-.84A3.86,3.86,0,0,1,82.3,434a5.79,5.79,0,0,1,0-3.68,3.86,3.86,0,0,1,.84-1.35,3.63,3.63,0,0,1,1.27-.83,4.36,4.36,0,0,1,1.59-.29,4.46,4.46,0,0,1,1.6.29,3.63,3.63,0,0,1,1.27.83,4.2,4.2,0,0,1,.85,1.35,5.62,5.62,0,0,1,0,3.68,4.2,4.2,0,0,1-.85,1.35,3.53,3.53,0,0,1-1.27.84A4.46,4.46,0,0,1,86,436.5Zm0-1.25a2.7,2.7,0,0,0,1-.19,2.18,2.18,0,0,0,.82-.56,2.53,2.53,0,0,0,.55-.95,5,5,0,0,0,0-2.73,2.53,2.53,0,0,0-.55-.95,2.18,2.18,0,0,0-.82-.56,2.7,2.7,0,0,0-1-.19,2.63,2.63,0,0,0-1,.19,2.15,2.15,0,0,0-.81.56,2.64,2.64,0,0,0-.53.95,5,5,0,0,0,0,2.73,2.64,2.64,0,0,0,.53.95,2.15,2.15,0,0,0,.81.56A2.63,2.63,0,0,0,86,435.25Z"/><path class="cls-4" d="M95.32,436.5a4.76,4.76,0,0,1-1.73-.3,3.55,3.55,0,0,1-2.15-2.2,5.15,5.15,0,0,1-.29-1.82,5.33,5.33,0,0,1,.29-1.81,3.59,3.59,0,0,1,2.17-2.2,5,5,0,0,1,1.78-.3,5.68,5.68,0,0,1,1.41.17,3,3,0,0,1,1,.49v1.26a3.91,3.91,0,0,0-1.14-.5,5.17,5.17,0,0,0-1.31-.17,2.7,2.7,0,0,0-2.13.76,3.31,3.31,0,0,0-.68,2.3,3.53,3.53,0,0,0,.65,2.32,2.63,2.63,0,0,0,2.08.75,4.67,4.67,0,0,0,1.39-.19,5.34,5.34,0,0,0,1.14-.47v1.26a4.94,4.94,0,0,1-1.08.46A5.25,5.25,0,0,1,95.32,436.5Z"/><path class="cls-4" d="M105.16,432.66h-4v3.68H99.74V428h1.41v3.43h4V428h1.41v8.31h-1.41Z"/><path class="cls-4" d="M112.28,436.5a4.35,4.35,0,0,1-1.58-.29,3.53,3.53,0,0,1-1.27-.84,3.86,3.86,0,0,1-.84-1.35,5.62,5.62,0,0,1,0-3.68,3.86,3.86,0,0,1,.84-1.35,3.63,3.63,0,0,1,1.27-.83,4.5,4.5,0,0,1,3.18,0,3.68,3.68,0,0,1,1.28.83,4,4,0,0,1,.84,1.35,5.45,5.45,0,0,1,0,3.68,4,4,0,0,1-.84,1.35,3.56,3.56,0,0,1-1.28.84A4.38,4.38,0,0,1,112.28,436.5Zm0-1.25a2.71,2.71,0,0,0,1-.19,2.18,2.18,0,0,0,.82-.56,2.52,2.52,0,0,0,.54-.95,4.76,4.76,0,0,0,0-2.73,2.52,2.52,0,0,0-.54-.95,2.18,2.18,0,0,0-.82-.56,2.71,2.71,0,0,0-1-.19,2.61,2.61,0,0,0-1,.19,2.15,2.15,0,0,0-.81.56,2.5,2.5,0,0,0-.53.95,4.76,4.76,0,0,0,0,2.73,2.5,2.5,0,0,0,.53.95,2.15,2.15,0,0,0,.81.56A2.61,2.61,0,0,0,112.28,435.25Z"/><path class="cls-4" d="M118,428h3.1a4.12,4.12,0,0,1,2.27.52,1.82,1.82,0,0,1,.77,1.63,1.68,1.68,0,0,1-.38,1.17,2.05,2.05,0,0,1-1.06.64,1.83,1.83,0,0,1,1.78,2,2.21,2.21,0,0,1-.26,1.1,2.07,2.07,0,0,1-.7.74,3.09,3.09,0,0,1-1.08.42,7.33,7.33,0,0,1-1.37.13H118Zm1.4,1.2v2.26H121a2.51,2.51,0,0,0,1.29-.29.9.9,0,0,0,.49-.83,1,1,0,0,0-.43-.9,2.58,2.58,0,0,0-1.23-.24Zm0,3.38v2.53h1.65a5,5,0,0,0,.81-.06,1.81,1.81,0,0,0,.62-.2,1,1,0,0,0,.41-.38,1.1,1.1,0,0,0,.15-.59,1.06,1.06,0,0,0-.5-1,3.06,3.06,0,0,0-1.49-.29Z"/><path class="cls-4" d="M132,432.66h-4v3.68h-1.41V428H128v3.43h4V428h1.41v8.31H132Z"/><path class="cls-4" d="M139.23,437.56a5,5,0,0,1-.72,1,2.63,2.63,0,0,1-.9.6,3.09,3.09,0,0,1-1.14.2,3.65,3.65,0,0,1-.59,0,1.86,1.86,0,0,1-.49-.14v-1.34a1.39,1.39,0,0,0,.44.2,2.3,2.3,0,0,0,.6.07,1.57,1.57,0,0,0,1-.28,2.92,2.92,0,0,0,.74-.9L134.76,428h1.55l2.64,7,2.63-7h1.36l-3.11,8.21A10.31,10.31,0,0,1,139.23,437.56Z"/><path class="cls-4" d="M154.81,432.18a5.26,5.26,0,0,1-.3,1.84,4,4,0,0,1-.81,1.35,3.46,3.46,0,0,1-1.23.84,4.15,4.15,0,0,1-3,0,3.52,3.52,0,0,1-1.18-.74,3.91,3.91,0,0,1-.82-1.21,5.13,5.13,0,0,1-.39-1.63h-1.37v3.68h-1.41V428h1.41v3.43h1.41a4.64,4.64,0,0,1,.41-1.53,3.64,3.64,0,0,1,.83-1.12,3.39,3.39,0,0,1,1.15-.7,4,4,0,0,1,1.4-.24,4,4,0,0,1,1.53.29,3.57,3.57,0,0,1,1.23.83,4,4,0,0,1,.81,1.35A5.26,5.26,0,0,1,154.81,432.18Zm-3.87,3.07a2.4,2.4,0,0,0,1-.19,2.06,2.06,0,0,0,.76-.56,2.76,2.76,0,0,0,.5-.95,5.27,5.27,0,0,0,0-2.73,2.76,2.76,0,0,0-.5-.95,2.06,2.06,0,0,0-.76-.56,2.4,2.4,0,0,0-1-.19,2.3,2.3,0,0,0-.95.19,1.91,1.91,0,0,0-.76.56,2.61,2.61,0,0,0-.51.95,5.27,5.27,0,0,0,0,2.73,2.61,2.61,0,0,0,.51.95,1.91,1.91,0,0,0,.76.56A2.3,2.3,0,0,0,150.94,435.25Z"/><path class="cls-4" d="M160,428h6.66v8.31h-1.41v-7.11h-3.84v7.11H160Z"/><path class="cls-4" d="M173.18,436.5a3,3,0,0,1-1.66-.45,3.31,3.31,0,0,1-1.11-1.23v4.35H169V428h1.23l.15,1.62a3.39,3.39,0,0,1,1.12-1.3,3,3,0,0,1,1.74-.48,3.7,3.7,0,0,1,1.39.27,3.06,3.06,0,0,1,1.16.8,3.63,3.63,0,0,1,.8,1.34,5.45,5.45,0,0,1,.3,1.9,5.51,5.51,0,0,1-.3,1.91,4,4,0,0,1-.82,1.34,3.21,3.21,0,0,1-1.18.8A3.76,3.76,0,0,1,173.18,436.5Zm-.21-1.25a2.25,2.25,0,0,0,1.78-.76,4.21,4.21,0,0,0,0-4.59,2.23,2.23,0,0,0-1.78-.78,2.89,2.89,0,0,0-1,.19,2.3,2.3,0,0,0-.81.57,2.78,2.78,0,0,0-.55,1,4.62,4.62,0,0,0,0,2.69,2.93,2.93,0,0,0,.55,1,2.15,2.15,0,0,0,.81.56A2.68,2.68,0,0,0,173,435.25Z"/><path class="cls-4" d="M182,436.5a4.31,4.31,0,0,1-1.58-.29,3.56,3.56,0,0,1-1.28-.84,4.18,4.18,0,0,1-.84-1.35,5.79,5.79,0,0,1,0-3.68,4.18,4.18,0,0,1,.84-1.35,3.68,3.68,0,0,1,1.28-.83,4.31,4.31,0,0,1,1.58-.29,4.38,4.38,0,0,1,1.6.29,3.63,3.63,0,0,1,1.27.83,4,4,0,0,1,.85,1.35,5.62,5.62,0,0,1,0,3.68,4,4,0,0,1-.85,1.35,3.53,3.53,0,0,1-1.27.84A4.38,4.38,0,0,1,182,436.5Zm0-1.25a2.66,2.66,0,0,0,1-.19,2.22,2.22,0,0,0,.83-.56,2.66,2.66,0,0,0,.54-.95,5,5,0,0,0,0-2.73,2.66,2.66,0,0,0-.54-.95,2.22,2.22,0,0,0-.83-.56,2.66,2.66,0,0,0-1-.19,2.61,2.61,0,0,0-1,.19,2.15,2.15,0,0,0-.81.56,2.66,2.66,0,0,0-.54.95,5,5,0,0,0,0,2.73,2.66,2.66,0,0,0,.54.95,2.15,2.15,0,0,0,.81.56A2.61,2.61,0,0,0,182,435.25Z"/><path class="cls-4" d="M187.75,428H193v1.2h-3.87v7.11h-1.41Z"/><path class="cls-4" d="M198.92,436.5a3,3,0,0,1-1.65-.45,3.25,3.25,0,0,1-1.12-1.23v4.35h-1.4V428H196l.14,1.62a3.39,3.39,0,0,1,1.12-1.3,3,3,0,0,1,1.75-.48,3.61,3.61,0,0,1,1.38.27,3.18,3.18,0,0,1,1.17.8,3.92,3.92,0,0,1,.8,1.34,6.3,6.3,0,0,1,0,3.81,3.66,3.66,0,0,1-.82,1.34,3.13,3.13,0,0,1-1.18.8A3.76,3.76,0,0,1,198.92,436.5Zm-.21-1.25a2.29,2.29,0,0,0,1.79-.76,4.21,4.21,0,0,0,0-4.59,2.27,2.27,0,0,0-1.79-.78,2.79,2.79,0,0,0-1,.19,2.25,2.25,0,0,0-.82.57,2.62,2.62,0,0,0-.54,1,4.62,4.62,0,0,0,0,2.69,2.75,2.75,0,0,0,.54,1,2.11,2.11,0,0,0,.82.56A2.59,2.59,0,0,0,198.71,435.25Z"/><path class="cls-4" d="M209.13,434.75a4.44,4.44,0,0,1-.37.6,2.74,2.74,0,0,1-.56.57,3,3,0,0,1-.79.42,3.38,3.38,0,0,1-1.06.16,2.57,2.57,0,0,1-1.81-.63,2.36,2.36,0,0,1-.69-1.82,2.25,2.25,0,0,1,1-2,4.83,4.83,0,0,1,2.71-.64h1.56v-.69a1.49,1.49,0,0,0-.45-1.23,2.43,2.43,0,0,0-1.54-.37,4.09,4.09,0,0,0-1.45.25,6.75,6.75,0,0,0-1.24.57v-1.27a6.17,6.17,0,0,1,1.21-.53,5,5,0,0,1,1.67-.27,3.8,3.8,0,0,1,2.39.65,2.41,2.41,0,0,1,.81,2V435c0,.1,0,.21,0,.33s0,.25,0,.38,0,.25,0,.36,0,.2,0,.28h-1.28a5.27,5.27,0,0,1-.08-.63,6.62,6.62,0,0,1,0-.72Zm-2.48.5a2.19,2.19,0,0,0,1.12-.27,2.75,2.75,0,0,0,1.17-1.35,1.87,1.87,0,0,0,.13-.49v-.61h-1.41a3.5,3.5,0,0,0-1.83.36,1.21,1.21,0,0,0-.57,1.09,1.27,1.27,0,0,0,.33.91A1.4,1.4,0,0,0,206.65,435.25Z"/><path class="cls-4" d="M220.6,429.67l-2.81,5.74h-1.12L214,429.63v6.71h-1.33V428h2.1l2.54,5.57L220,428h2v8.31H220.6Z"/><path class="cls-4" d="M232.22,429.67l-2.82,5.74h-1.12l-2.65-5.78v6.71H224.3V428h2.09l2.55,5.57,2.72-5.57h2v8.31h-1.39Z"/><path class="cls-4" d="M239.39,437.56a5,5,0,0,1-.72,1,2.63,2.63,0,0,1-.9.6,3.09,3.09,0,0,1-1.14.2,3.65,3.65,0,0,1-.59,0,1.86,1.86,0,0,1-.49-.14v-1.34a1.39,1.39,0,0,0,.44.2,2.25,2.25,0,0,0,.6.07,1.57,1.57,0,0,0,1-.28,2.92,2.92,0,0,0,.74-.9L234.92,428h1.55l2.64,7,2.63-7h1.36L240,436.24A10.31,10.31,0,0,1,239.39,437.56Z"/><path class="cls-4" d="M335.14,98.26a2.53,2.53,0,0,0-1.56.44,3.4,3.4,0,0,0-1,1.12v5.65H331.2v-8.3h1.33l.05,1.49h0a2.81,2.81,0,0,1,1.06-1.19,3.28,3.28,0,0,1,1.82-.46,2.81,2.81,0,0,1,2,.65,2.5,2.5,0,0,1,.73,2v5.82h-1.41V99.79a1.45,1.45,0,0,0-.43-1.2A1.94,1.94,0,0,0,335.14,98.26Z"/><path class="cls-4" d="M345.27,103.89a5.16,5.16,0,0,1-.37.6,3,3,0,0,1-.56.57,2.68,2.68,0,0,1-.79.41,3.17,3.17,0,0,1-1.07.16,2.59,2.59,0,0,1-1.81-.63,2.38,2.38,0,0,1-.68-1.82,2.24,2.24,0,0,1,.95-2,4.89,4.89,0,0,1,2.71-.64h1.55v-.68a1.53,1.53,0,0,0-.45-1.24,2.47,2.47,0,0,0-1.53-.36,4.43,4.43,0,0,0-1.46.24,7.82,7.82,0,0,0-1.23.57V97.81a6.77,6.77,0,0,1,1.21-.54,5.22,5.22,0,0,1,1.67-.26,3.69,3.69,0,0,1,2.38.65,2.38,2.38,0,0,1,.82,2v4.47c0,.09,0,.2,0,.33s0,.24,0,.37,0,.25,0,.36,0,.21,0,.28h-1.28q0-.23-.09-.63c0-.27,0-.51,0-.71Zm-2.48.49a2.21,2.21,0,0,0,1.12-.27,2.49,2.49,0,0,0,.75-.64,2.76,2.76,0,0,0,.42-.7,1.82,1.82,0,0,0,.12-.49v-.62h-1.41A3.43,3.43,0,0,0,342,102a1.19,1.19,0,0,0-.57,1.08,1.3,1.3,0,0,0,.34.92A1.4,1.4,0,0,0,342.79,104.38Z"/><path class="cls-4" d="M350.23,105.47h-1.41v-8.3h1.23l.15,1.49h0a2.94,2.94,0,0,1,1-1.18A3,3,0,0,1,353,97a2.6,2.6,0,0,1,1.57.45,2.22,2.22,0,0,1,.82,1.37,3,3,0,0,1,1.08-1.33,3.09,3.09,0,0,1,1.77-.49,2.5,2.5,0,0,1,1.83.65,2.67,2.67,0,0,1,.67,2v5.82h-1.42V99.82a1.6,1.6,0,0,0-.4-1.19,1.53,1.53,0,0,0-1.09-.37,2.31,2.31,0,0,0-.82.13,2.07,2.07,0,0,0-.62.38,3,3,0,0,0-.5.56,7.57,7.57,0,0,0-.42.67v5.47h-1.4V99.66a1.32,1.32,0,0,0-.4-1.1,1.78,1.78,0,0,0-1.09-.3,2.46,2.46,0,0,0-.8.11,1.87,1.87,0,0,0-.63.32,2.41,2.41,0,0,0-.51.5,6,6,0,0,0-.41.65Z"/><path class="cls-4" d="M369.55,104.77a2.68,2.68,0,0,1-.43.27,4.06,4.06,0,0,1-.62.28,4.55,4.55,0,0,1-.83.22,5.52,5.52,0,0,1-1,.09,4.25,4.25,0,0,1-3.19-1.13,4.45,4.45,0,0,1-1.09-3.19,5.17,5.17,0,0,1,.3-1.81,4,4,0,0,1,.82-1.35,3.7,3.7,0,0,1,1.25-.85,4.26,4.26,0,0,1,1.57-.29,4,4,0,0,1,1.6.3,2.79,2.79,0,0,1,1.16.9,3.41,3.41,0,0,1,.62,1.46,6,6,0,0,1,0,2h-5.86a2.87,2.87,0,0,0,.8,2,3.08,3.08,0,0,0,2.14.66,4.53,4.53,0,0,0,1.65-.27,5.12,5.12,0,0,0,1.15-.6Zm-3.29-6.51a2.31,2.31,0,0,0-1.57.56,2.64,2.64,0,0,0-.83,1.69h4.46a2,2,0,0,0-.53-1.7A2.13,2.13,0,0,0,366.26,98.26Z"/><line class="cls-5" x1="400" y1="100.5" x2="477" y2="100.5"/><circle class="cls-4" cx="400" cy="100.5" r="2.19"/><polygon class="cls-4" points="476.01 103.89 481.87 100.5 476.01 97.11 476.01 103.89"/><path class="cls-4" d="M518.61,96.37a.91.91,0,0,1-.27.68,1,1,0,0,1-.71.26.94.94,0,0,1-.72-.29,1.14,1.14,0,0,1-.29-.84,2.44,2.44,0,0,1,.1-.65,2.62,2.62,0,0,1,.26-.62,4.86,4.86,0,0,1,.33-.54,3.39,3.39,0,0,1,.35-.43h1a3.61,3.61,0,0,0-.45.64,3.53,3.53,0,0,0-.36.86.91.91,0,0,1,.53.34A1,1,0,0,1,518.61,96.37Zm2.62,0a.94.94,0,0,1-.26.68,1,1,0,0,1-.71.26.94.94,0,0,1-.72-.29,1.1,1.1,0,0,1-.29-.84,2.43,2.43,0,0,1,.09-.65,3.12,3.12,0,0,1,.26-.62c.11-.19.22-.37.34-.54a2.25,2.25,0,0,1,.35-.43h1a4.23,4.23,0,0,0-.46.64,4.54,4.54,0,0,0-.36.86.88.88,0,0,1,.53.34A.93.93,0,0,1,521.23,96.37Z"/><path class="cls-4" d="M523.63,94h8.63v11.47h-1.52V95.36h-5.6v10.11h-1.51Z"/><path class="cls-4" d="M541.34,104.77a2.68,2.68,0,0,1-.43.27,4.06,4.06,0,0,1-.62.28,4.55,4.55,0,0,1-.83.22,5.52,5.52,0,0,1-1,.09,4.25,4.25,0,0,1-3.19-1.13,4.45,4.45,0,0,1-1.09-3.19,5.17,5.17,0,0,1,.3-1.81,4,4,0,0,1,.82-1.35,3.7,3.7,0,0,1,1.25-.85,4.22,4.22,0,0,1,1.57-.29,4,4,0,0,1,1.6.3,2.79,2.79,0,0,1,1.16.9,3.41,3.41,0,0,1,.62,1.46,6,6,0,0,1,0,2H535.6a2.87,2.87,0,0,0,.8,2,3.06,3.06,0,0,0,2.14.66,4.53,4.53,0,0,0,1.65-.27,5.35,5.35,0,0,0,1.15-.6Zm-3.29-6.51a2.31,2.31,0,0,0-1.57.56,2.64,2.64,0,0,0-.83,1.69h4.46a2,2,0,0,0-.53-1.7A2.13,2.13,0,0,0,538.05,98.26Z"/><path class="cls-4" d="M546.61,98.37v7.1H545.2v-7.1h-2.61v-1.2h6.67v1.2Z"/><path class="cls-4" d="M550.42,99.86a2.64,2.64,0,0,1,.25-1.21,2.14,2.14,0,0,1,.72-.83,3.13,3.13,0,0,1,1.11-.49,5.53,5.53,0,0,1,1.39-.16h2.67v8.3h-1.41v-3h-1.52l-2.13,3h-1.68l2.4-3.36a2.81,2.81,0,0,1-1.33-.78A2.1,2.1,0,0,1,550.42,99.86Zm4.73,1.4V98.37h-1.26a2.91,2.91,0,0,0-1.47.33,1.17,1.17,0,0,0-.58,1.09,1.27,1.27,0,0,0,.51,1.13,2.61,2.61,0,0,0,1.46.34Z"/><path class="cls-4" d="M560.75,95.06a2.37,2.37,0,0,1-.09.65,3.7,3.7,0,0,1-.26.62,5.74,5.74,0,0,1-.34.55c-.13.17-.24.31-.35.43h-1a4.35,4.35,0,0,0,.46-.65,4.43,4.43,0,0,0,.36-.85.93.93,0,0,1-.53-.34A1,1,0,0,1,559,94.2a1,1,0,0,1,.71-.26,1,1,0,0,1,.72.28A1.12,1.12,0,0,1,560.75,95.06Zm2.63,0a2.38,2.38,0,0,1-.1.65,3,3,0,0,1-.26.62,4.26,4.26,0,0,1-.34.55c-.12.17-.24.31-.34.43h-1a3.75,3.75,0,0,0,.47-.65,3.43,3.43,0,0,0,.34-.85,1,1,0,0,1-.53-.34,1,1,0,0,1-.19-.59.91.91,0,0,1,.27-.68.93.93,0,0,1,.71-.26,1,1,0,0,1,.72.28A1.16,1.16,0,0,1,563.38,95.06Z"/><path class="cls-4" d="M335.14,172.26a2.53,2.53,0,0,0-1.56.44,3.4,3.4,0,0,0-1,1.12v5.65H331.2v-8.3h1.33l.05,1.49h0a2.81,2.81,0,0,1,1.06-1.19,3.28,3.28,0,0,1,1.82-.46,2.81,2.81,0,0,1,2,.65,2.5,2.5,0,0,1,.73,2v5.82h-1.41v-5.68a1.45,1.45,0,0,0-.43-1.2A1.94,1.94,0,0,0,335.14,172.26Z"/><path class="cls-4" d="M345.27,177.89a5.16,5.16,0,0,1-.37.6,3,3,0,0,1-.56.57,2.68,2.68,0,0,1-.79.41,3.17,3.17,0,0,1-1.07.16,2.59,2.59,0,0,1-1.81-.63,2.38,2.38,0,0,1-.68-1.82,2.24,2.24,0,0,1,.95-2,4.89,4.89,0,0,1,2.71-.64h1.55v-.68a1.53,1.53,0,0,0-.45-1.24,2.47,2.47,0,0,0-1.53-.36,4.43,4.43,0,0,0-1.46.24,7.82,7.82,0,0,0-1.23.57v-1.26a6.77,6.77,0,0,1,1.21-.54,5.22,5.22,0,0,1,1.67-.26,3.69,3.69,0,0,1,2.38.65,2.38,2.38,0,0,1,.82,2v4.47c0,.09,0,.2,0,.33s0,.24,0,.37,0,.25,0,.36,0,.21,0,.28h-1.28q0-.22-.09-.63c0-.27,0-.51,0-.71Zm-2.48.49a2.21,2.21,0,0,0,1.12-.27,2.49,2.49,0,0,0,.75-.64,2.76,2.76,0,0,0,.42-.7,1.82,1.82,0,0,0,.12-.49v-.62h-1.41A3.43,3.43,0,0,0,342,176a1.19,1.19,0,0,0-.57,1.08,1.3,1.3,0,0,0,.34.92A1.4,1.4,0,0,0,342.79,178.38Z"/><path class="cls-4" d="M350.23,179.47h-1.41v-8.3h1.23l.15,1.49h0a2.94,2.94,0,0,1,1-1.18A3,3,0,0,1,353,171a2.6,2.6,0,0,1,1.57.45,2.22,2.22,0,0,1,.82,1.37,3,3,0,0,1,1.08-1.33,3.09,3.09,0,0,1,1.77-.49,2.5,2.5,0,0,1,1.83.65,2.67,2.67,0,0,1,.67,2v5.82h-1.42v-5.65a1.6,1.6,0,0,0-.4-1.19,1.53,1.53,0,0,0-1.09-.37,2.31,2.31,0,0,0-.82.13,2.07,2.07,0,0,0-.62.38,3,3,0,0,0-.5.56,7.57,7.57,0,0,0-.42.67v5.47h-1.4v-5.81a1.32,1.32,0,0,0-.4-1.1,1.78,1.78,0,0,0-1.09-.3,2.46,2.46,0,0,0-.8.11,1.87,1.87,0,0,0-.63.32,2.41,2.41,0,0,0-.51.5,6,6,0,0,0-.41.65Z"/><path class="cls-4" d="M369.55,178.77a2.68,2.68,0,0,1-.43.27,4.06,4.06,0,0,1-.62.28,4.55,4.55,0,0,1-.83.22,5.52,5.52,0,0,1-1,.09,4.25,4.25,0,0,1-3.19-1.13,4.45,4.45,0,0,1-1.09-3.19,5.17,5.17,0,0,1,.3-1.81,4,4,0,0,1,.82-1.35,3.7,3.7,0,0,1,1.25-.85,4.26,4.26,0,0,1,1.57-.29,4,4,0,0,1,1.6.3,2.79,2.79,0,0,1,1.16.9,3.41,3.41,0,0,1,.62,1.46,6,6,0,0,1,0,2h-5.86a2.87,2.87,0,0,0,.8,2,3.08,3.08,0,0,0,2.14.66,4.53,4.53,0,0,0,1.65-.27,5.12,5.12,0,0,0,1.15-.6Zm-3.29-6.51a2.31,2.31,0,0,0-1.57.56,2.64,2.64,0,0,0-.83,1.69h4.46a2,2,0,0,0-.53-1.7A2.13,2.13,0,0,0,366.26,172.26Z"/><path class="cls-4" d="M302,25h9V36.47H309V26.66h-5.09v9.81H302Z"/><path class="cls-4" d="M320.13,35.86c-.12.08-.26.16-.43.25a3.51,3.51,0,0,1-.61.25,6.68,6.68,0,0,1-.82.19,6.6,6.6,0,0,1-1,.08,4.65,4.65,0,0,1-3.42-1.13,4.34,4.34,0,0,1-1.13-3.19A5,5,0,0,1,313,30.5a3.86,3.86,0,0,1,.84-1.35,3.81,3.81,0,0,1,1.3-.85,4.61,4.61,0,0,1,1.65-.29,4.44,4.44,0,0,1,1.67.3,2.93,2.93,0,0,1,1.22.91,3.54,3.54,0,0,1,.67,1.51,6.32,6.32,0,0,1,0,2.09h-5.75a2.57,2.57,0,0,0,.75,1.71,3,3,0,0,0,2,.57,4.88,4.88,0,0,0,1.66-.25,8.11,8.11,0,0,0,1.13-.52Zm-3.36-6.38a2,2,0,0,0-1.38.5,2.45,2.45,0,0,0-.73,1.47h3.9a2,2,0,0,0-.45-1.49A1.82,1.82,0,0,0,316.77,29.48Z"/><path class="cls-4" d="M326.64,36.63a3,3,0,0,1-1.62-.42,3.28,3.28,0,0,1-1.1-1.15V39.3h-1.86V28.17h1.7l.13,1.47a3.24,3.24,0,0,1,1.1-1.19,3,3,0,0,1,1.68-.44,3.87,3.87,0,0,1,1.4.26,3.18,3.18,0,0,1,1.16.8,3.89,3.89,0,0,1,.79,1.35,6.17,6.17,0,0,1,0,3.8,3.75,3.75,0,0,1-.8,1.35,3.26,3.26,0,0,1-1.17.8A4,4,0,0,1,326.64,36.63Zm-.45-1.53a2.06,2.06,0,0,0,1.61-.69,3,3,0,0,0,.62-2.09,3.07,3.07,0,0,0-.62-2.09,2,2,0,0,0-1.59-.69,2.42,2.42,0,0,0-.91.17,2,2,0,0,0-.73.52,2.58,2.58,0,0,0-.49.88,3.71,3.71,0,0,0-.18,1.21,3.8,3.8,0,0,0,.18,1.23,2.64,2.64,0,0,0,.48.86,2,2,0,0,0,.73.52A2.44,2.44,0,0,0,326.19,35.1Z"/><path class="cls-4" d="M338.83,35.86c-.12.08-.26.16-.43.25a3.21,3.21,0,0,1-.61.25,6.09,6.09,0,0,1-.81.19,6.64,6.64,0,0,1-1.06.08,4.68,4.68,0,0,1-3.42-1.13,4.34,4.34,0,0,1-1.12-3.19,5.17,5.17,0,0,1,.3-1.81,3.88,3.88,0,0,1,.85-1.35,3.67,3.67,0,0,1,1.29-.85,4.69,4.69,0,0,1,1.65-.29,4.4,4.4,0,0,1,1.67.3,3,3,0,0,1,1.23.91,3.53,3.53,0,0,1,.66,1.51,5.82,5.82,0,0,1,0,2.09H333.3a2.49,2.49,0,0,0,.75,1.71,3,3,0,0,0,2,.57,5,5,0,0,0,1.66-.25,7.94,7.94,0,0,0,1.12-.52Zm-3.36-6.38a2,2,0,0,0-1.37.5,2.46,2.46,0,0,0-.74,1.47h3.9a1.91,1.91,0,0,0-.44-1.49A1.83,1.83,0,0,0,335.47,29.48Z"/><path class="cls-4" d="M348.56,30.46l-2.45,5.21h-1.36l-2.3-5.26v6.06h-1.68v-8.3h2.54l2.27,5.15,2.4-5.15h2.44v8.3h-1.86Z"/><path class="cls-4" d="M359.44,35.86c-.12.08-.26.16-.43.25a3.51,3.51,0,0,1-.61.25,6.27,6.27,0,0,1-.82.19,6.6,6.6,0,0,1-1.05.08,4.65,4.65,0,0,1-3.42-1.13A4.34,4.34,0,0,1,352,32.31a5,5,0,0,1,.31-1.81,3.74,3.74,0,0,1,.85-1.35,3.67,3.67,0,0,1,1.29-.85,4.61,4.61,0,0,1,1.65-.29,4.4,4.4,0,0,1,1.67.3,3,3,0,0,1,1.23.91,3.53,3.53,0,0,1,.66,1.51,6.06,6.06,0,0,1,0,2.09H353.9a2.54,2.54,0,0,0,.76,1.71,2.93,2.93,0,0,0,2,.57,4.86,4.86,0,0,0,1.65-.25,8.11,8.11,0,0,0,1.13-.52Zm-3.36-6.38a2,2,0,0,0-1.38.5,2.45,2.45,0,0,0-.73,1.47h3.9a2,2,0,0,0-.45-1.49A1.8,1.8,0,0,0,356.08,29.48Z"/><path class="cls-4" d="M366.74,33h-3.51v3.5h-1.85v-8.3h1.85v3.29h3.51V28.17h1.85v8.3h-1.85Z"/><path class="cls-4" d="M376,33h-3.5v3.5h-1.86v-8.3h1.86v3.29H376V28.17h1.86v8.3H376Z"/><path class="cls-4" d="M386.56,33.61a2.92,2.92,0,0,1-.26,1.26,2.57,2.57,0,0,1-.73.9,3.36,3.36,0,0,1-1.11.53,5.54,5.54,0,0,1-1.4.17H380v-8.3h1.85v2.69h1.3a4.19,4.19,0,0,1,2.54.67A2.43,2.43,0,0,1,386.56,33.61Zm-4.74-1.28V35h1.09a2.31,2.31,0,0,0,1.26-.32,1.13,1.13,0,0,0,.49-1,1.18,1.18,0,0,0-.44-1,2.06,2.06,0,0,0-1.24-.31Zm7.54,4.14H387.5v-8.3h1.86Z"/><path class="cls-4" d="M398.38,35.86a3.81,3.81,0,0,1-.43.25,3.21,3.21,0,0,1-.61.25,6.09,6.09,0,0,1-.81.19,6.64,6.64,0,0,1-1.06.08,4.64,4.64,0,0,1-3.41-1.13,4.3,4.3,0,0,1-1.13-3.19,5.17,5.17,0,0,1,.3-1.81,3.88,3.88,0,0,1,.85-1.35,3.63,3.63,0,0,1,1.3-.85A4.59,4.59,0,0,1,395,28a4.49,4.49,0,0,1,1.68.3,3,3,0,0,1,1.22.91,3.53,3.53,0,0,1,.66,1.51,5.82,5.82,0,0,1,0,2.09h-5.74a2.49,2.49,0,0,0,.75,1.71,3,3,0,0,0,2,.57,5,5,0,0,0,1.66-.25,7.94,7.94,0,0,0,1.12-.52ZM395,29.48a2,2,0,0,0-1.37.5,2.46,2.46,0,0,0-.74,1.47h3.91a2,2,0,0,0-.45-1.49A1.83,1.83,0,0,0,395,29.48Z"/><path class="cls-4" d="M468.94,36.63a6.3,6.3,0,0,1-2.19-.38A5,5,0,0,1,465,35.11a5.37,5.37,0,0,1-1.17-1.85,7.52,7.52,0,0,1,0-5.07A5.32,5.32,0,0,1,465,26.35a5,5,0,0,1,1.76-1.12,6.7,6.7,0,0,1,4.39,0,4.91,4.91,0,0,1,2.94,2.95,7,7,0,0,1,.42,2.53,7.1,7.1,0,0,1-.42,2.53,5.15,5.15,0,0,1-1.18,1.86,5,5,0,0,1-1.76,1.14A6.1,6.1,0,0,1,468.94,36.63Zm0-1.66a4.28,4.28,0,0,0,1.4-.23,2.84,2.84,0,0,0,1.12-.72,3.64,3.64,0,0,0,.74-1.32,7.21,7.21,0,0,0,0-3.91,3.55,3.55,0,0,0-.74-1.3,2.89,2.89,0,0,0-1.12-.74,4.28,4.28,0,0,0-1.4-.23,4.24,4.24,0,0,0-1.4.23,2.93,2.93,0,0,0-1.11.74,3.55,3.55,0,0,0-.74,1.3,7.21,7.21,0,0,0,0,3.91,3.64,3.64,0,0,0,.74,1.32,2.88,2.88,0,0,0,1.11.72A4.24,4.24,0,0,0,468.94,35Z"/><path class="cls-4" d="M484,32.34a5,5,0,0,1-.32,1.84,3.75,3.75,0,0,1-.87,1.35,3.63,3.63,0,0,1-1.31.82,4.67,4.67,0,0,1-1.64.28,4.4,4.4,0,0,1-1.65-.3,3.48,3.48,0,0,1-1.3-.92,4.31,4.31,0,0,1-.85-1.54,6.68,6.68,0,0,1-.31-2.17c0-.75,0-1.45.09-2.08a8.73,8.73,0,0,1,.33-1.69,4.48,4.48,0,0,1,.63-1.32,3.9,3.9,0,0,1,1-1,4.11,4.11,0,0,1,1.57-.59,15.92,15.92,0,0,1,1.72-.16,8.25,8.25,0,0,0,1.47-.17,3.36,3.36,0,0,0,.85-.31V26a1.81,1.81,0,0,1-.37.18,2.07,2.07,0,0,1-.45.12,4.1,4.1,0,0,1-.59.09c-.22,0-.48.05-.78.07l-1.49.16a2.67,2.67,0,0,0-1.2.4,2.47,2.47,0,0,0-.89,1.16,6.09,6.09,0,0,0-.39,1.79,3,3,0,0,1,3.09-1.81,3.47,3.47,0,0,1,2.56,1.09,3.77,3.77,0,0,1,.78,1.29A4.85,4.85,0,0,1,484,32.34Zm-4.14,2.76a2.12,2.12,0,0,0,1.6-.67,2.85,2.85,0,0,0,.64-2,2.82,2.82,0,0,0-.64-2,2.23,2.23,0,0,0-3.18,0,2.87,2.87,0,0,0-.61,2,2.94,2.94,0,0,0,.62,2.08A2.09,2.09,0,0,0,479.82,35.1Z"/><path class="cls-4" d="M484.75,28.17h4v2.69h1.37a4.19,4.19,0,0,1,2.54.67,2.43,2.43,0,0,1,.9,2.08,2.92,2.92,0,0,1-.25,1.26,2.57,2.57,0,0,1-.73.9,3.22,3.22,0,0,1-1.1.53,5.68,5.68,0,0,1-1.41.17h-3.2v-6.8h-2.12Zm4,4.16V35h1.18a2.25,2.25,0,0,0,1.25-.32,1.13,1.13,0,0,0,.48-1,1.2,1.2,0,0,0-.43-1,2.12,2.12,0,0,0-1.25-.31Z"/><path class="cls-4" d="M502.06,35.86c-.12.08-.26.16-.43.25a3.87,3.87,0,0,1-.61.25,6.68,6.68,0,0,1-.82.19,6.6,6.6,0,0,1-1.05.08,4.65,4.65,0,0,1-3.42-1.13,4.34,4.34,0,0,1-1.13-3.19,5,5,0,0,1,.31-1.81,3.86,3.86,0,0,1,.84-1.35,3.81,3.81,0,0,1,1.3-.85A4.61,4.61,0,0,1,498.7,28a4.44,4.44,0,0,1,1.67.3,2.93,2.93,0,0,1,1.22.91,3.67,3.67,0,0,1,.67,1.51,6.32,6.32,0,0,1,0,2.09h-5.75a2.57,2.57,0,0,0,.75,1.71,3,3,0,0,0,2,.57,4.92,4.92,0,0,0,1.66-.25,8.11,8.11,0,0,0,1.13-.52Zm-3.36-6.38a2,2,0,0,0-1.38.5,2.51,2.51,0,0,0-.74,1.47h3.91A2,2,0,0,0,500,30,1.82,1.82,0,0,0,498.7,29.48Z"/><path class="cls-4" d="M506.57,33.1h-.72v3.37H504v-8.3h1.86v3.42h.78l2.64-3.42h2l-3.14,4,3.26,4.3h-2.19Z"/><path class="cls-4" d="M516.3,29.67v6.8h-1.86v-6.8h-2.51v-1.5h6.93v1.5Z"/><path class="cls-4" d="M526.86,33.61a2.78,2.78,0,0,1-.27,1.26,2.46,2.46,0,0,1-.73.9,3.31,3.31,0,0,1-1.1.53,5.68,5.68,0,0,1-1.41.17h-3.09v-8.3h1.86v2.69h1.3a4.16,4.16,0,0,1,2.53.67A2.43,2.43,0,0,1,526.86,33.61Zm-4.74-1.28V35h1.09a2.25,2.25,0,0,0,1.25-.32,1.11,1.11,0,0,0,.49-1,1.18,1.18,0,0,0-.43-1,2.1,2.1,0,0,0-1.25-.31Zm7.54,4.14H527.8v-8.3h1.86Z"/><path class="cls-4" d="M537.91,38.7a9.44,9.44,0,0,1-1.83-3.24,12.26,12.26,0,0,1-.6-3.9,13.94,13.94,0,0,1,.15-2,10.87,10.87,0,0,1,.46-1.93,9.07,9.07,0,0,1,.76-1.74,7.48,7.48,0,0,1,1.06-1.46h1.87a6.91,6.91,0,0,0-1.11,1.43,9.7,9.7,0,0,0-.78,1.73,11.71,11.71,0,0,0-.47,1.92,14,14,0,0,0-.15,2.05,12.09,12.09,0,0,0,.61,3.91,9.58,9.58,0,0,0,1.9,3.28Z"/><path class="cls-4" d="M547.5,34.09a2.3,2.3,0,0,1-.28,1.15,2.42,2.42,0,0,1-.77.79,3.6,3.6,0,0,1-1.15.46,6.82,6.82,0,0,1-1.39.14,6,6,0,0,1-1.73-.21,5.68,5.68,0,0,1-1-.44V34.46a4,4,0,0,0,1.16.48,5.65,5.65,0,0,0,1.52.19,3,3,0,0,0,1.34-.26.9.9,0,0,0,.5-.86.87.87,0,0,0-.45-.83,3.07,3.07,0,0,0-1.39-.24h-1.17V31.53h1.2a2.19,2.19,0,0,0,1.16-.26.86.86,0,0,0,.41-.77.78.78,0,0,0-.46-.77,2.67,2.67,0,0,0-1.18-.22,4.65,4.65,0,0,0-1.4.19,4.32,4.32,0,0,0-1.11.48V28.66a4.21,4.21,0,0,1,1.09-.45,5.91,5.91,0,0,1,1.7-.2,4,4,0,0,1,2.33.56,1.87,1.87,0,0,1,.8,1.63,1.73,1.73,0,0,1-.45,1.27,2.58,2.58,0,0,1-1.31.67Q547.5,32.46,547.5,34.09Z"/><path class="cls-4" d="M554.66,33h-3.5v3.5H549.3v-8.3h1.86v3.29h3.5V28.17h1.86v8.3h-1.86Z"/><path class="cls-4" d="M563.38,35a2.86,2.86,0,0,1-.34.57,2.38,2.38,0,0,1-.53.52,2.58,2.58,0,0,1-.74.38,3.42,3.42,0,0,1-1,.14,3.29,3.29,0,0,1-1-.15,2.16,2.16,0,0,1-.81-.46,2,2,0,0,1-.54-.76,2.61,2.61,0,0,1-.2-1,2.3,2.3,0,0,1,1-2,5,5,0,0,1,2.85-.68h1.26V31a1.3,1.3,0,0,0-.42-1.12,2.28,2.28,0,0,0-1.37-.32,4.72,4.72,0,0,0-1.53.24,7,7,0,0,0-1.26.53V28.76a6.76,6.76,0,0,1,1.32-.51,6.21,6.21,0,0,1,1.77-.24,4,4,0,0,1,2.47.66,2.5,2.5,0,0,1,.88,2.12v4.67c0,.12,0,.24,0,.37s0,.25,0,.36,0,.21,0,.28h-1.72a5.34,5.34,0,0,1-.08-.62q0-.41-.06-.72Zm-2.11.17a1.8,1.8,0,0,0,1-.25,2.18,2.18,0,0,0,.63-.57,2.1,2.1,0,0,0,.33-.65,1.61,1.61,0,0,0,.1-.45v-.56h-1.15a3,3,0,0,0-1.62.35,1.1,1.1,0,0,0-.51,1,1.15,1.15,0,0,0,.31.86A1.25,1.25,0,0,0,561.27,35.19Z"/><path class="cls-4" d="M573.74,36.47h-1.86V33a3.44,3.44,0,0,1-1,.48,4.51,4.51,0,0,1-1.28.17,2.89,2.89,0,0,1-2.16-.76,3.16,3.16,0,0,1-.75-2.31V28.17h1.87v2.37a1.35,1.35,0,0,0,1.54,1.6,3.34,3.34,0,0,0,.94-.14,2.74,2.74,0,0,0,.82-.41V28.17h1.86Z"/><path class="cls-4" d="M582.74,35.86a3.81,3.81,0,0,1-.43.25,3.21,3.21,0,0,1-.61.25,6.09,6.09,0,0,1-.81.19,6.64,6.64,0,0,1-1.06.08,4.64,4.64,0,0,1-3.41-1.13,4.3,4.3,0,0,1-1.13-3.19,5.17,5.17,0,0,1,.3-1.81,3.88,3.88,0,0,1,.85-1.35,3.63,3.63,0,0,1,1.3-.85,4.59,4.59,0,0,1,1.64-.29,4.49,4.49,0,0,1,1.68.3,3,3,0,0,1,1.22.91,3.53,3.53,0,0,1,.66,1.51,5.82,5.82,0,0,1,0,2.09h-5.74a2.49,2.49,0,0,0,.75,1.71,3,3,0,0,0,2,.57,5,5,0,0,0,1.66-.25,7.94,7.94,0,0,0,1.12-.52Zm-3.36-6.38A2,2,0,0,0,578,30a2.46,2.46,0,0,0-.74,1.47h3.91a2,2,0,0,0-.45-1.49A1.83,1.83,0,0,0,579.38,29.48Z"/><path class="cls-4" d="M590,33h-3.5v3.5h-1.86v-8.3h1.86v3.29H590V28.17h1.86v8.3H590Z"/><path class="cls-4" d="M595.82,34l3.84-5.79h1.82v8.3h-1.84V30.71l-3.81,5.76H594v-8.3h1.84Z"/><path class="cls-4" d="M603.48,30.89a2.51,2.51,0,0,1,.26-1.19,2.33,2.33,0,0,1,.71-.85,3,3,0,0,1,1.1-.51,5.34,5.34,0,0,1,1.43-.17h3.09v8.3h-1.86V33.66H607l-2,2.81H603l2.29-3.21a2.66,2.66,0,0,1-1.33-.84A2.35,2.35,0,0,1,603.48,30.89Zm4.73,1.29V29.64h-1.08a2.5,2.5,0,0,0-1.26.29,1,1,0,0,0-.49,1,1.12,1.12,0,0,0,.44,1,2.26,2.26,0,0,0,1.26.3Z"/><path class="cls-4" d="M611.67,38.7a9.45,9.45,0,0,0,1.91-3.28,12.37,12.37,0,0,0,.6-3.91,14,14,0,0,0-.15-2.05,10.76,10.76,0,0,0-.46-1.92,9.07,9.07,0,0,0-.79-1.73,6.29,6.29,0,0,0-1.11-1.43h1.87a7.52,7.52,0,0,1,1.07,1.46,9.74,9.74,0,0,1,.76,1.74,11.81,11.81,0,0,1,.45,1.93,13.94,13.94,0,0,1,.16,2,12.26,12.26,0,0,1-.6,3.9,9.31,9.31,0,0,1-1.84,3.24Z"/><path class="cls-4" d="M330.5,229.63a3,3,0,0,1-1.66-.45,3.31,3.31,0,0,1-1.11-1.23v4.35h-1.41V221.17h1.23l.15,1.61a3.43,3.43,0,0,1,1.12-1.29,3,3,0,0,1,1.74-.48,3.89,3.89,0,0,1,1.39.26,3.18,3.18,0,0,1,1.16.8,3.75,3.75,0,0,1,.8,1.35,6.17,6.17,0,0,1,0,3.8,4.1,4.1,0,0,1-.82,1.35,3.48,3.48,0,0,1-1.18.8A4,4,0,0,1,330.5,229.63Zm-.21-1.25a2.25,2.25,0,0,0,1.78-.76,4.21,4.21,0,0,0,0-4.59,2.26,2.26,0,0,0-1.78-.77,2.68,2.68,0,0,0-1,.19,2.3,2.3,0,0,0-.81.57,2.83,2.83,0,0,0-.55.95,4.66,4.66,0,0,0,0,2.7,3,3,0,0,0,.55,1,2.07,2.07,0,0,0,.81.57A2.88,2.88,0,0,0,330.29,228.38Z"/><path class="cls-4" d="M342.53,228.77a3.22,3.22,0,0,1-.43.27,3.79,3.79,0,0,1-.63.28,4.34,4.34,0,0,1-.83.22,5.44,5.44,0,0,1-1,.09,4.21,4.21,0,0,1-3.18-1.13,4.41,4.41,0,0,1-1.09-3.19,5.17,5.17,0,0,1,.3-1.81,3.82,3.82,0,0,1,.82-1.35,3.6,3.6,0,0,1,1.25-.85,4.22,4.22,0,0,1,1.57-.29,4.07,4.07,0,0,1,1.6.3,2.92,2.92,0,0,1,1.16.9,3.41,3.41,0,0,1,.62,1.46,6,6,0,0,1,0,2h-5.85a2.87,2.87,0,0,0,.8,2,3.06,3.06,0,0,0,2.14.66,4.53,4.53,0,0,0,1.65-.27,5.35,5.35,0,0,0,1.15-.6Zm-3.3-6.51a2.28,2.28,0,0,0-1.56.56,2.65,2.65,0,0,0-.84,1.69h4.47a2.07,2.07,0,0,0-.53-1.7A2.15,2.15,0,0,0,339.23,222.26Z"/><path class="cls-4" d="M346.89,223a2.31,2.31,0,0,0-1.08,1.16v5.28H344.4v-8.3h1.23l.15,1.81h0a3.69,3.69,0,0,1,1-1.29,3.11,3.11,0,0,1,1.68-.68v1.57A4.33,4.33,0,0,0,346.89,223Z"/><path class="cls-4" d="M352.88,229.63a5.76,5.76,0,0,1-1.16-.1,5.45,5.45,0,0,1-.88-.26,3.68,3.68,0,0,1-.63-.32,4.79,4.79,0,0,1-.4-.29v-1.27a3.55,3.55,0,0,0,.43.35,4,4,0,0,0,.66.34,4.49,4.49,0,0,0,.87.26,5.25,5.25,0,0,0,1.1.11,3,3,0,0,0,1.42-.29,1,1,0,0,0,.53-1,1,1,0,0,0-.17-.59,1.12,1.12,0,0,0-.46-.36,2.84,2.84,0,0,0-.66-.21l-.79-.16-1-.25a3.53,3.53,0,0,1-.93-.4,2,2,0,0,1-.93-1.8,2.05,2.05,0,0,1,.87-1.76,4.06,4.06,0,0,1,2.44-.64,6.59,6.59,0,0,1,1.56.17,4.33,4.33,0,0,1,1.05.39v1.26a3.94,3.94,0,0,0-1-.45,5.15,5.15,0,0,0-1.53-.19,3.3,3.3,0,0,0-1.45.26,1,1,0,0,0-.5.93.92.92,0,0,0,.14.53,1.07,1.07,0,0,0,.4.32,2.62,2.62,0,0,0,.56.19l.68.14,1.12.24a3.45,3.45,0,0,1,1,.4,2.27,2.27,0,0,1,.75.73,2.18,2.18,0,0,1,.3,1.22,2.32,2.32,0,0,1-.29,1.2,2.21,2.21,0,0,1-.76.76,3.34,3.34,0,0,1-1.07.4A6.26,6.26,0,0,1,352.88,229.63Z"/><path class="cls-4" d="M361.36,229.63a4.15,4.15,0,0,1-1.58-.29,3.44,3.44,0,0,1-1.27-.84,3.69,3.69,0,0,1-.84-1.35,5.59,5.59,0,0,1,0-3.67,3.69,3.69,0,0,1,.84-1.35,3.55,3.55,0,0,1,1.27-.83,4.5,4.5,0,0,1,3.18,0,3.55,3.55,0,0,1,1.27.83,3.84,3.84,0,0,1,.85,1.35,5.59,5.59,0,0,1,0,3.67,3.84,3.84,0,0,1-.85,1.35,3.44,3.44,0,0,1-1.27.84A4.18,4.18,0,0,1,361.36,229.63Zm0-1.25a2.82,2.82,0,0,0,1-.18,2.22,2.22,0,0,0,.83-.56,2.62,2.62,0,0,0,.54-1,5,5,0,0,0,0-2.72,2.62,2.62,0,0,0-.54-1,2.22,2.22,0,0,0-.83-.56,3,3,0,0,0-2.05,0,2.15,2.15,0,0,0-.81.56,2.62,2.62,0,0,0-.54,1,5,5,0,0,0,0,2.72,2.62,2.62,0,0,0,.54,1,2.15,2.15,0,0,0,.81.56A2.8,2.8,0,0,0,361.36,228.38Z"/><path class="cls-4" d="M371,222.26a2.53,2.53,0,0,0-1.56.44,3.4,3.4,0,0,0-1,1.12v5.65h-1.4v-8.3h1.32l.05,1.49h0a2.88,2.88,0,0,1,1.06-1.19,3.3,3.3,0,0,1,1.82-.46,2.8,2.8,0,0,1,2,.65,2.5,2.5,0,0,1,.73,2v5.82h-1.41v-5.68a1.45,1.45,0,0,0-.43-1.2A1.94,1.94,0,0,0,371,222.26Z"/><path class="cls-4" d="M518.61,292.37a.91.91,0,0,1-.27.68,1,1,0,0,1-.71.26.94.94,0,0,1-.72-.29,1.14,1.14,0,0,1-.29-.84,2.44,2.44,0,0,1,.1-.65,2.62,2.62,0,0,1,.26-.62,4.86,4.86,0,0,1,.33-.54,3.39,3.39,0,0,1,.35-.43h1a3.61,3.61,0,0,0-.45.64,3.53,3.53,0,0,0-.36.86.91.91,0,0,1,.53.34A1,1,0,0,1,518.61,292.37Zm2.62,0a.94.94,0,0,1-.26.68,1,1,0,0,1-.71.26.94.94,0,0,1-.72-.29,1.1,1.1,0,0,1-.29-.84,2.43,2.43,0,0,1,.09-.65,3.12,3.12,0,0,1,.26-.62c.11-.19.22-.37.34-.54a2.25,2.25,0,0,1,.35-.43h1a4.23,4.23,0,0,0-.46.64,4.54,4.54,0,0,0-.36.86.88.88,0,0,1,.53.34A.93.93,0,0,1,521.23,292.37Z"/><path class="cls-4" d="M523.63,290h8.63v11.47h-1.52V291.36h-5.6v10.11h-1.51Z"/><path class="cls-4" d="M541.34,300.77a2.68,2.68,0,0,1-.43.27,4.06,4.06,0,0,1-.62.28,4.55,4.55,0,0,1-.83.22,5.52,5.52,0,0,1-1,.09,4.25,4.25,0,0,1-3.19-1.13,4.45,4.45,0,0,1-1.09-3.19,5.17,5.17,0,0,1,.3-1.81,4,4,0,0,1,.82-1.35,3.7,3.7,0,0,1,1.25-.85,4.22,4.22,0,0,1,1.57-.29,4,4,0,0,1,1.6.3,2.79,2.79,0,0,1,1.16.9,3.41,3.41,0,0,1,.62,1.46,6,6,0,0,1,0,2H535.6a2.87,2.87,0,0,0,.8,2,3.06,3.06,0,0,0,2.14.66,4.53,4.53,0,0,0,1.65-.27,5.35,5.35,0,0,0,1.15-.6Zm-3.29-6.51a2.31,2.31,0,0,0-1.57.56,2.64,2.64,0,0,0-.83,1.69h4.46a2,2,0,0,0-.53-1.7A2.13,2.13,0,0,0,538.05,294.26Z"/><path class="cls-4" d="M546.61,294.37v7.1H545.2v-7.1h-2.61v-1.2h6.67v1.2Z"/><path class="cls-4" d="M550.42,295.86a2.64,2.64,0,0,1,.25-1.21,2.14,2.14,0,0,1,.72-.83,3.13,3.13,0,0,1,1.11-.49,5.53,5.53,0,0,1,1.39-.16h2.67v8.3h-1.41v-3h-1.52l-2.13,3h-1.68l2.4-3.36a2.81,2.81,0,0,1-1.33-.78A2.1,2.1,0,0,1,550.42,295.86Zm4.73,1.4v-2.89h-1.26a2.91,2.91,0,0,0-1.47.33,1.17,1.17,0,0,0-.58,1.09,1.27,1.27,0,0,0,.51,1.13,2.61,2.61,0,0,0,1.46.34Z"/><path class="cls-4" d="M560.75,291.06a2.37,2.37,0,0,1-.09.65,3.7,3.7,0,0,1-.26.62,5.74,5.74,0,0,1-.34.55c-.13.17-.24.31-.35.43h-1a4.35,4.35,0,0,0,.46-.65,4.43,4.43,0,0,0,.36-.85.93.93,0,0,1-.53-.34,1,1,0,0,1,.07-1.27,1,1,0,0,1,.71-.26,1,1,0,0,1,.72.28A1.12,1.12,0,0,1,560.75,291.06Zm2.63,0a2.38,2.38,0,0,1-.1.65,3,3,0,0,1-.26.62,4.26,4.26,0,0,1-.34.55c-.12.17-.24.31-.34.43h-1a3.75,3.75,0,0,0,.47-.65,3.43,3.43,0,0,0,.34-.85,1,1,0,0,1-.53-.34,1,1,0,0,1-.19-.59.91.91,0,0,1,.27-.68.93.93,0,0,1,.71-.26,1,1,0,0,1,.72.28A1.16,1.16,0,0,1,563.38,291.06Z"/><path class="cls-4" d="M503.62,340.37a.91.91,0,0,1-.27.68,1,1,0,0,1-.71.26.94.94,0,0,1-.72-.29,1.14,1.14,0,0,1-.29-.84,2.44,2.44,0,0,1,.1-.65,3.09,3.09,0,0,1,.25-.62c.11-.19.22-.37.34-.54a3.39,3.39,0,0,1,.35-.43h1a3.61,3.61,0,0,0-.45.64,3.53,3.53,0,0,0-.36.86.86.86,0,0,1,.52.34A.94.94,0,0,1,503.62,340.37Zm2.62,0a.94.94,0,0,1-.26.68,1,1,0,0,1-.72.26,1,1,0,0,1-.72-.29,1.14,1.14,0,0,1-.28-.84,2.43,2.43,0,0,1,.09-.65,3.12,3.12,0,0,1,.26-.62c.11-.19.22-.37.34-.54a2.25,2.25,0,0,1,.35-.43h1a3.63,3.63,0,0,0-.46.64,4.54,4.54,0,0,0-.36.86.88.88,0,0,1,.53.34A.93.93,0,0,1,506.24,340.37Z"/><path class="cls-4" d="M511.79,342.37v7.1h-1.41v-7.1h-2.6v-1.2h6.67v1.2Z"/><path class="cls-4" d="M519.25,349.63a4.2,4.2,0,0,1-1.59-.29,3.53,3.53,0,0,1-1.27-.84,3.83,3.83,0,0,1-.84-1.35,5.76,5.76,0,0,1,0-3.67,3.83,3.83,0,0,1,.84-1.35,3.63,3.63,0,0,1,1.27-.83,4.53,4.53,0,0,1,3.19,0,3.63,3.63,0,0,1,1.27.83,3.84,3.84,0,0,1,.85,1.35,5.59,5.59,0,0,1,0,3.67,3.84,3.84,0,0,1-.85,1.35,3.53,3.53,0,0,1-1.27.84A4.21,4.21,0,0,1,519.25,349.63Zm0-1.25a2.86,2.86,0,0,0,1-.18,2.18,2.18,0,0,0,.82-.56,2.5,2.5,0,0,0,.55-1,5,5,0,0,0,0-2.72,2.5,2.5,0,0,0-.55-1,2.18,2.18,0,0,0-.82-.56,3,3,0,0,0-2.06,0,2.19,2.19,0,0,0-.8.56,2.62,2.62,0,0,0-.54,1,5,5,0,0,0,0,2.72,2.62,2.62,0,0,0,.54,1,2.19,2.19,0,0,0,.8.56A2.86,2.86,0,0,0,519.25,348.38Z"/><path class="cls-4" d="M525,341.17h3.11a4,4,0,0,1,2.27.52,1.82,1.82,0,0,1,.77,1.62,1.78,1.78,0,0,1-.38,1.18,2.15,2.15,0,0,1-1.06.63,1.84,1.84,0,0,1,1.77,2,2.2,2.2,0,0,1-.25,1.09,2.13,2.13,0,0,1-.71.75,3.08,3.08,0,0,1-1.08.41,6.57,6.57,0,0,1-1.37.13H525Zm1.41,1.2v2.25H528a2.57,2.57,0,0,0,1.29-.28,1,1,0,0,0,0-1.73,2.58,2.58,0,0,0-1.23-.24Zm0,3.37v2.53h1.65a6.51,6.51,0,0,0,.81,0,2.15,2.15,0,0,0,.62-.2,1.1,1.1,0,0,0,.41-.39A1.2,1.2,0,0,0,530,347a1.07,1.07,0,0,0-.49-1,3.06,3.06,0,0,0-1.49-.29Z"/><path class="cls-4" d="M538.45,347.89a5.16,5.16,0,0,1-.37.6,3,3,0,0,1-.56.57,2.68,2.68,0,0,1-.79.41,3.17,3.17,0,0,1-1.07.16,2.55,2.55,0,0,1-1.8-.63,2.34,2.34,0,0,1-.69-1.82,2.26,2.26,0,0,1,1-2,4.89,4.89,0,0,1,2.71-.64h1.55v-.68a1.56,1.56,0,0,0-.44-1.24,2.51,2.51,0,0,0-1.54-.36,4.43,4.43,0,0,0-1.46.24,8.27,8.27,0,0,0-1.23.57v-1.26a6.77,6.77,0,0,1,1.21-.54,5.22,5.22,0,0,1,1.67-.26,3.74,3.74,0,0,1,2.39.65,2.41,2.41,0,0,1,.81,2v4.47c0,.09,0,.2,0,.33s0,.24,0,.37,0,.25,0,.36,0,.21,0,.28h-1.28q0-.23-.09-.63c0-.27,0-.51,0-.71Zm-2.48.49a2.19,2.19,0,0,0,1.12-.27,2.49,2.49,0,0,0,.75-.64,2.76,2.76,0,0,0,.42-.7,1.82,1.82,0,0,0,.12-.49v-.62H537a3.45,3.45,0,0,0-1.84.37,1.19,1.19,0,0,0-.56,1.08,1.3,1.3,0,0,0,.33.92A1.4,1.4,0,0,0,536,348.38Z"/><path class="cls-4" d="M546.18,349.63a3,3,0,0,1-1.66-.45,3.23,3.23,0,0,1-1.11-1.23v4.35H542V341.17h1.23l.15,1.61a3.35,3.35,0,0,1,1.12-1.29,3,3,0,0,1,1.74-.48,3.8,3.8,0,0,1,1.38.26,3.14,3.14,0,0,1,1.17.8,3.9,3.9,0,0,1,.8,1.35,5.39,5.39,0,0,1,.3,1.89,5.2,5.2,0,0,1-.31,1.91,3.92,3.92,0,0,1-.81,1.35,3.42,3.42,0,0,1-1.19.8A3.87,3.87,0,0,1,546.18,349.63Zm-.21-1.25a2.26,2.26,0,0,0,1.78-.76,4.21,4.21,0,0,0,0-4.59,2.27,2.27,0,0,0-1.78-.77,2.64,2.64,0,0,0-1,.19,2.3,2.3,0,0,0-.81.57,2.67,2.67,0,0,0-.55,1,4.66,4.66,0,0,0,0,2.7,2.81,2.81,0,0,0,.55,1,2.07,2.07,0,0,0,.81.57A2.84,2.84,0,0,0,546,348.38Z"/><path class="cls-4" d="M553,347.55l4.43-6.38h1.42v8.3h-1.4V343.1L553,349.47H551.6v-8.3H553Z"/><path class="cls-4" d="M571.54,348.27h1.24v3.57h-1.2l-.17-2.37H561.17v-8.3h1.41v7.1h3.07v-7.1h1.41v7.1h3.07v-7.1h1.41Z"/><path class="cls-4" d="M575.74,339.06a2.37,2.37,0,0,1-.09.65,3.7,3.7,0,0,1-.26.62,4.64,4.64,0,0,1-.69,1h-1a3.73,3.73,0,0,0,.46-.65,4.43,4.43,0,0,0,.36-.85,1,1,0,0,1-.53-.34,1,1,0,0,1,.07-1.27,1,1,0,0,1,.72-.26,1,1,0,0,1,.72.28A1.15,1.15,0,0,1,575.74,339.06Zm2.63,0a2.05,2.05,0,0,1-.1.65,3.66,3.66,0,0,1-.25.62,5.77,5.77,0,0,1-.35.55c-.12.17-.24.31-.34.43h-1a3.29,3.29,0,0,0,.47-.65,3.43,3.43,0,0,0,.34-.85.9.9,0,0,1-.52-.34,1,1,0,0,1-.2-.59.91.91,0,0,1,.27-.68.93.93,0,0,1,.71-.26,1,1,0,0,1,.72.28A1.16,1.16,0,0,1,578.37,339.06Z"/><path class="cls-4" d="M518.61,416.37a.91.91,0,0,1-.27.68,1,1,0,0,1-.71.26.94.94,0,0,1-.72-.29,1.14,1.14,0,0,1-.29-.84,2.44,2.44,0,0,1,.1-.65,2.62,2.62,0,0,1,.26-.62,4.86,4.86,0,0,1,.33-.54,3.39,3.39,0,0,1,.35-.43h1a3.61,3.61,0,0,0-.45.64,3.53,3.53,0,0,0-.36.86.91.91,0,0,1,.53.34A1,1,0,0,1,518.61,416.37Zm2.62,0a.94.94,0,0,1-.26.68,1,1,0,0,1-.71.26.94.94,0,0,1-.72-.29,1.1,1.1,0,0,1-.29-.84,2.43,2.43,0,0,1,.09-.65,3.12,3.12,0,0,1,.26-.62c.11-.19.22-.37.34-.54a2.25,2.25,0,0,1,.35-.43h1a4.23,4.23,0,0,0-.46.64,4.54,4.54,0,0,0-.36.86.88.88,0,0,1,.53.34A.93.93,0,0,1,521.23,416.37Z"/><path class="cls-4" d="M523.63,414h8.63v11.47h-1.52V415.36h-5.6v10.11h-1.51Z"/><path class="cls-4" d="M541.34,424.77a2.68,2.68,0,0,1-.43.27,4.06,4.06,0,0,1-.62.28,4.55,4.55,0,0,1-.83.22,5.52,5.52,0,0,1-1,.09,4.25,4.25,0,0,1-3.19-1.13,4.45,4.45,0,0,1-1.09-3.19,5.17,5.17,0,0,1,.3-1.81,4,4,0,0,1,.82-1.35,3.7,3.7,0,0,1,1.25-.85,4.22,4.22,0,0,1,1.57-.29,4,4,0,0,1,1.6.3,2.79,2.79,0,0,1,1.16.9,3.41,3.41,0,0,1,.62,1.46,6,6,0,0,1,0,2H535.6a2.87,2.87,0,0,0,.8,2,3.06,3.06,0,0,0,2.14.66,4.53,4.53,0,0,0,1.65-.27,5.35,5.35,0,0,0,1.15-.6Zm-3.29-6.51a2.31,2.31,0,0,0-1.57.56,2.64,2.64,0,0,0-.83,1.69h4.46a2,2,0,0,0-.53-1.7A2.13,2.13,0,0,0,538.05,418.26Z"/><path class="cls-4" d="M546.61,418.37v7.1H545.2v-7.1h-2.61v-1.2h6.67v1.2Z"/><path class="cls-4" d="M550.42,419.86a2.64,2.64,0,0,1,.25-1.21,2.14,2.14,0,0,1,.72-.83,3.13,3.13,0,0,1,1.11-.49,5.53,5.53,0,0,1,1.39-.16h2.67v8.3h-1.41v-3h-1.52l-2.13,3h-1.68l2.4-3.36a2.81,2.81,0,0,1-1.33-.78A2.1,2.1,0,0,1,550.42,419.86Zm4.73,1.4v-2.89h-1.26a2.91,2.91,0,0,0-1.47.33,1.17,1.17,0,0,0-.58,1.09,1.27,1.27,0,0,0,.51,1.13,2.61,2.61,0,0,0,1.46.34Z"/><path class="cls-4" d="M560.75,415.06a2.37,2.37,0,0,1-.09.65,3.7,3.7,0,0,1-.26.62,5.74,5.74,0,0,1-.34.55c-.13.17-.24.31-.35.43h-1a4.35,4.35,0,0,0,.46-.65,4.43,4.43,0,0,0,.36-.85.93.93,0,0,1-.53-.34,1,1,0,0,1,.07-1.27,1,1,0,0,1,.71-.26,1,1,0,0,1,.72.28A1.12,1.12,0,0,1,560.75,415.06Zm2.63,0a2.38,2.38,0,0,1-.1.65,3,3,0,0,1-.26.62,4.26,4.26,0,0,1-.34.55c-.12.17-.24.31-.34.43h-1a3.75,3.75,0,0,0,.47-.65,3.43,3.43,0,0,0,.34-.85,1,1,0,0,1-.53-.34,1,1,0,0,1-.19-.59.91.91,0,0,1,.27-.68.93.93,0,0,1,.71-.26,1,1,0,0,1,.72.28A1.16,1.16,0,0,1,563.38,415.06Z"/><rect class="cls-3" x="300" y="277.5" width="100" height="35" rx="2"/><path class="cls-4" d="M335.14,292.26a2.53,2.53,0,0,0-1.56.44,3.4,3.4,0,0,0-1,1.12v5.65H331.2v-8.3h1.33l.05,1.49h0a2.81,2.81,0,0,1,1.06-1.19,3.28,3.28,0,0,1,1.82-.46,2.81,2.81,0,0,1,2,.65,2.5,2.5,0,0,1,.73,2v5.82h-1.41v-5.68a1.45,1.45,0,0,0-.43-1.2A1.94,1.94,0,0,0,335.14,292.26Z"/><path class="cls-4" d="M345.27,297.89a5.16,5.16,0,0,1-.37.6,3,3,0,0,1-.56.57,2.68,2.68,0,0,1-.79.41,3.17,3.17,0,0,1-1.07.16,2.59,2.59,0,0,1-1.81-.63,2.38,2.38,0,0,1-.68-1.82,2.24,2.24,0,0,1,.95-2,4.89,4.89,0,0,1,2.71-.64h1.55v-.68a1.53,1.53,0,0,0-.45-1.24,2.47,2.47,0,0,0-1.53-.36,4.43,4.43,0,0,0-1.46.24,7.82,7.82,0,0,0-1.23.57v-1.26a6.77,6.77,0,0,1,1.21-.54,5.22,5.22,0,0,1,1.67-.26,3.69,3.69,0,0,1,2.38.65,2.38,2.38,0,0,1,.82,2v4.47c0,.09,0,.2,0,.33s0,.24,0,.37,0,.25,0,.36,0,.21,0,.28h-1.28q0-.23-.09-.63c0-.27,0-.51,0-.71Zm-2.48.49a2.21,2.21,0,0,0,1.12-.27,2.49,2.49,0,0,0,.75-.64,2.76,2.76,0,0,0,.42-.7,1.82,1.82,0,0,0,.12-.49v-.62h-1.41A3.43,3.43,0,0,0,342,296a1.19,1.19,0,0,0-.57,1.08,1.3,1.3,0,0,0,.34.92A1.4,1.4,0,0,0,342.79,298.38Z"/><path class="cls-4" d="M350.23,299.47h-1.41v-8.3h1.23l.15,1.49h0a2.94,2.94,0,0,1,1-1.18A3,3,0,0,1,353,291a2.6,2.6,0,0,1,1.57.45,2.22,2.22,0,0,1,.82,1.37,3,3,0,0,1,1.08-1.33,3.09,3.09,0,0,1,1.77-.49,2.5,2.5,0,0,1,1.83.65,2.67,2.67,0,0,1,.67,2v5.82h-1.42v-5.65a1.6,1.6,0,0,0-.4-1.19,1.53,1.53,0,0,0-1.09-.37,2.31,2.31,0,0,0-.82.13,2.07,2.07,0,0,0-.62.38,3,3,0,0,0-.5.56,7.57,7.57,0,0,0-.42.67v5.47h-1.4v-5.81a1.32,1.32,0,0,0-.4-1.1,1.78,1.78,0,0,0-1.09-.3,2.46,2.46,0,0,0-.8.11,1.87,1.87,0,0,0-.63.32,2.41,2.41,0,0,0-.51.5,6,6,0,0,0-.41.65Z"/><path class="cls-4" d="M369.55,298.77a2.68,2.68,0,0,1-.43.27,4.06,4.06,0,0,1-.62.28,4.55,4.55,0,0,1-.83.22,5.52,5.52,0,0,1-1,.09,4.25,4.25,0,0,1-3.19-1.13,4.45,4.45,0,0,1-1.09-3.19,5.17,5.17,0,0,1,.3-1.81,4,4,0,0,1,.82-1.35,3.7,3.7,0,0,1,1.25-.85,4.26,4.26,0,0,1,1.57-.29,4,4,0,0,1,1.6.3,2.79,2.79,0,0,1,1.16.9,3.41,3.41,0,0,1,.62,1.46,6,6,0,0,1,0,2h-5.86a2.87,2.87,0,0,0,.8,2,3.08,3.08,0,0,0,2.14.66,4.53,4.53,0,0,0,1.65-.27,5.12,5.12,0,0,0,1.15-.6Zm-3.29-6.51a2.31,2.31,0,0,0-1.57.56,2.64,2.64,0,0,0-.83,1.69h4.46a2,2,0,0,0-.53-1.7A2.13,2.13,0,0,0,366.26,292.26Z"/><line class="cls-5" x1="400" y1="294.5" x2="478" y2="294.5"/><circle class="cls-4" cx="400" cy="294.5" r="2.19"/><polygon class="cls-4" points="477.01 297.89 482.87 294.5 477.01 291.11 477.01 297.89"/><rect class="cls-3" x="300" y="327.5" width="100" height="35" rx="2"/><path class="cls-4" d="M330.5,349.63a3,3,0,0,1-1.66-.45,3.31,3.31,0,0,1-1.11-1.23v4.35h-1.41V341.17h1.23l.15,1.61a3.43,3.43,0,0,1,1.12-1.29,3,3,0,0,1,1.74-.48,3.89,3.89,0,0,1,1.39.26,3.18,3.18,0,0,1,1.16.8,3.75,3.75,0,0,1,.8,1.35,6.17,6.17,0,0,1,0,3.8,4.1,4.1,0,0,1-.82,1.35,3.48,3.48,0,0,1-1.18.8A4,4,0,0,1,330.5,349.63Zm-.21-1.25a2.25,2.25,0,0,0,1.78-.76,4.21,4.21,0,0,0,0-4.59,2.26,2.26,0,0,0-1.78-.77,2.68,2.68,0,0,0-1,.19,2.3,2.3,0,0,0-.81.57,2.83,2.83,0,0,0-.55,1,4.66,4.66,0,0,0,0,2.7,3,3,0,0,0,.55,1,2.07,2.07,0,0,0,.81.57A2.88,2.88,0,0,0,330.29,348.38Z"/><path class="cls-4" d="M342.53,348.77a3.22,3.22,0,0,1-.43.27,3.79,3.79,0,0,1-.63.28,4.34,4.34,0,0,1-.83.22,5.44,5.44,0,0,1-1,.09,4.21,4.21,0,0,1-3.18-1.13,4.41,4.41,0,0,1-1.09-3.19,5.17,5.17,0,0,1,.3-1.81,3.82,3.82,0,0,1,.82-1.35,3.6,3.6,0,0,1,1.25-.85,4.22,4.22,0,0,1,1.57-.29,4.07,4.07,0,0,1,1.6.3,2.92,2.92,0,0,1,1.16.9,3.41,3.41,0,0,1,.62,1.46,6,6,0,0,1,0,2h-5.85a2.87,2.87,0,0,0,.8,2,3.06,3.06,0,0,0,2.14.66,4.53,4.53,0,0,0,1.65-.27,5.35,5.35,0,0,0,1.15-.6Zm-3.3-6.51a2.28,2.28,0,0,0-1.56.56,2.65,2.65,0,0,0-.84,1.69h4.47a2.07,2.07,0,0,0-.53-1.7A2.15,2.15,0,0,0,339.23,342.26Z"/><path class="cls-4" d="M346.89,343a2.31,2.31,0,0,0-1.08,1.16v5.28H344.4v-8.3h1.23l.15,1.81h0a3.69,3.69,0,0,1,1-1.29,3.11,3.11,0,0,1,1.68-.68v1.57A4.33,4.33,0,0,0,346.89,343Z"/><path class="cls-4" d="M352.88,349.63a5.76,5.76,0,0,1-1.16-.1,5.45,5.45,0,0,1-.88-.26,3.68,3.68,0,0,1-.63-.32,4.79,4.79,0,0,1-.4-.29v-1.27a3.55,3.55,0,0,0,.43.35,4,4,0,0,0,.66.34,4.49,4.49,0,0,0,.87.26,5.25,5.25,0,0,0,1.1.11,3,3,0,0,0,1.42-.29,1,1,0,0,0,.53-1,1,1,0,0,0-.17-.59,1.12,1.12,0,0,0-.46-.36,2.84,2.84,0,0,0-.66-.21l-.79-.16-1-.25a3.53,3.53,0,0,1-.93-.4,2,2,0,0,1-.93-1.8,2.05,2.05,0,0,1,.87-1.76,4.06,4.06,0,0,1,2.44-.64,6.59,6.59,0,0,1,1.56.17,4.33,4.33,0,0,1,1.05.39v1.26a3.94,3.94,0,0,0-1-.45,5.15,5.15,0,0,0-1.53-.19,3.3,3.3,0,0,0-1.45.26,1,1,0,0,0-.5.93.92.92,0,0,0,.14.53,1.07,1.07,0,0,0,.4.32,2.62,2.62,0,0,0,.56.19l.68.14,1.12.24a3.45,3.45,0,0,1,1,.4,2.27,2.27,0,0,1,.75.73,2.18,2.18,0,0,1,.3,1.22,2.32,2.32,0,0,1-.29,1.2,2.21,2.21,0,0,1-.76.76,3.34,3.34,0,0,1-1.07.4A6.26,6.26,0,0,1,352.88,349.63Z"/><path class="cls-4" d="M361.36,349.63a4.15,4.15,0,0,1-1.58-.29,3.44,3.44,0,0,1-1.27-.84,3.69,3.69,0,0,1-.84-1.35,5.59,5.59,0,0,1,0-3.67,3.69,3.69,0,0,1,.84-1.35,3.55,3.55,0,0,1,1.27-.83,4.5,4.5,0,0,1,3.18,0,3.55,3.55,0,0,1,1.27.83,3.84,3.84,0,0,1,.85,1.35,5.59,5.59,0,0,1,0,3.67,3.84,3.84,0,0,1-.85,1.35,3.44,3.44,0,0,1-1.27.84A4.18,4.18,0,0,1,361.36,349.63Zm0-1.25a2.82,2.82,0,0,0,1-.18,2.22,2.22,0,0,0,.83-.56,2.62,2.62,0,0,0,.54-1,5,5,0,0,0,0-2.72,2.62,2.62,0,0,0-.54-1,2.22,2.22,0,0,0-.83-.56,3,3,0,0,0-2.05,0,2.15,2.15,0,0,0-.81.56,2.62,2.62,0,0,0-.54,1,5,5,0,0,0,0,2.72,2.62,2.62,0,0,0,.54,1,2.15,2.15,0,0,0,.81.56A2.8,2.8,0,0,0,361.36,348.38Z"/><path class="cls-4" d="M371,342.26a2.53,2.53,0,0,0-1.56.44,3.4,3.4,0,0,0-1,1.12v5.65h-1.4v-8.3h1.32l.05,1.49h0a2.88,2.88,0,0,1,1.06-1.19,3.3,3.3,0,0,1,1.82-.46,2.8,2.8,0,0,1,2,.65,2.5,2.5,0,0,1,.73,2v5.82h-1.41v-5.68a1.45,1.45,0,0,0-.43-1.2A1.94,1.94,0,0,0,371,342.26Z"/><line class="cls-5" x1="400" y1="344.5" x2="479" y2="344.5"/><circle class="cls-4" cx="400" cy="344.5" r="2.19"/><polygon class="cls-4" points="478.01 347.89 483.87 344.5 478.01 341.11 478.01 347.89"/><rect class="cls-3" x="300" y="402.5" width="100" height="35" rx="2"/><path class="cls-4" d="M335.14,417.26a2.53,2.53,0,0,0-1.56.44,3.4,3.4,0,0,0-1,1.12v5.65H331.2v-8.3h1.33l.05,1.49h0a2.81,2.81,0,0,1,1.06-1.19,3.28,3.28,0,0,1,1.82-.46,2.81,2.81,0,0,1,2,.65,2.5,2.5,0,0,1,.73,2v5.82h-1.41v-5.68a1.45,1.45,0,0,0-.43-1.2A1.94,1.94,0,0,0,335.14,417.26Z"/><path class="cls-4" d="M345.27,422.89a5.16,5.16,0,0,1-.37.6,3,3,0,0,1-.56.57,2.68,2.68,0,0,1-.79.41,3.17,3.17,0,0,1-1.07.16,2.59,2.59,0,0,1-1.81-.63,2.38,2.38,0,0,1-.68-1.82,2.24,2.24,0,0,1,.95-2,4.89,4.89,0,0,1,2.71-.64h1.55v-.68a1.53,1.53,0,0,0-.45-1.24,2.47,2.47,0,0,0-1.53-.36,4.43,4.43,0,0,0-1.46.24,7.82,7.82,0,0,0-1.23.57v-1.26a6.77,6.77,0,0,1,1.21-.54,5.22,5.22,0,0,1,1.67-.26,3.69,3.69,0,0,1,2.38.65,2.38,2.38,0,0,1,.82,2v4.47c0,.09,0,.2,0,.33s0,.24,0,.37,0,.25,0,.36,0,.21,0,.28h-1.28q0-.23-.09-.63c0-.27,0-.51,0-.71Zm-2.48.49a2.21,2.21,0,0,0,1.12-.27,2.49,2.49,0,0,0,.75-.64,2.76,2.76,0,0,0,.42-.7,1.82,1.82,0,0,0,.12-.49v-.62h-1.41A3.43,3.43,0,0,0,342,421a1.19,1.19,0,0,0-.57,1.08,1.3,1.3,0,0,0,.34.92A1.4,1.4,0,0,0,342.79,423.38Z"/><path class="cls-4" d="M350.23,424.47h-1.41v-8.3h1.23l.15,1.49h0a2.94,2.94,0,0,1,1-1.18A3,3,0,0,1,353,416a2.6,2.6,0,0,1,1.57.45,2.22,2.22,0,0,1,.82,1.37,3,3,0,0,1,1.08-1.33,3.09,3.09,0,0,1,1.77-.49,2.5,2.5,0,0,1,1.83.65,2.67,2.67,0,0,1,.67,2v5.82h-1.42v-5.65a1.6,1.6,0,0,0-.4-1.19,1.53,1.53,0,0,0-1.09-.37,2.31,2.31,0,0,0-.82.13,2.07,2.07,0,0,0-.62.38,3,3,0,0,0-.5.56,7.57,7.57,0,0,0-.42.67v5.47h-1.4v-5.81a1.32,1.32,0,0,0-.4-1.1,1.78,1.78,0,0,0-1.09-.3,2.46,2.46,0,0,0-.8.11,1.87,1.87,0,0,0-.63.32,2.41,2.41,0,0,0-.51.5,6,6,0,0,0-.41.65Z"/><path class="cls-4" d="M369.55,423.77a2.68,2.68,0,0,1-.43.27,4.06,4.06,0,0,1-.62.28,4.55,4.55,0,0,1-.83.22,5.52,5.52,0,0,1-1,.09,4.25,4.25,0,0,1-3.19-1.13,4.45,4.45,0,0,1-1.09-3.19,5.17,5.17,0,0,1,.3-1.81,4,4,0,0,1,.82-1.35,3.7,3.7,0,0,1,1.25-.85,4.26,4.26,0,0,1,1.57-.29,4,4,0,0,1,1.6.3,2.79,2.79,0,0,1,1.16.9,3.41,3.41,0,0,1,.62,1.46,6,6,0,0,1,0,2h-5.86a2.87,2.87,0,0,0,.8,2,3.08,3.08,0,0,0,2.14.66,4.53,4.53,0,0,0,1.65-.27,5.12,5.12,0,0,0,1.15-.6Zm-3.29-6.51a2.31,2.31,0,0,0-1.57.56,2.64,2.64,0,0,0-.83,1.69h4.46a2,2,0,0,0-.53-1.7A2.13,2.13,0,0,0,366.26,417.26Z"/><line class="cls-5" x1="400" y1="420" x2="477" y2="420"/><circle class="cls-4" cx="400" cy="420" r="2.19"/><polygon class="cls-4" points="476.01 423.39 481.87 420 476.01 416.61 476.01 423.39"/><path class="cls-5" d="M400,224h45.5a2,2,0,0,0,2-2V183a2,2,0,0,1,2-2H478"/><circle class="cls-4" cx="400" cy="224" r="2.19"/><polygon class="cls-4" points="477.01 184.39 482.87 181 477.01 177.61 477.01 184.39"/><line class="cls-5" x1="400" y1="169.5" x2="477.5" y2="169.5"/><circle class="cls-4" cx="400" cy="169.5" r="2.19"/><polygon class="cls-4" points="476.51 172.89 482.37 169.5 476.51 166.11 476.51 172.89"/><rect class="cls-2" x="485" y="157" width="110" height="35" rx="17.5"/><path class="cls-4" d="M518.61,170.37a.91.91,0,0,1-.27.68,1,1,0,0,1-.71.26.94.94,0,0,1-.72-.29,1.14,1.14,0,0,1-.29-.84,2.44,2.44,0,0,1,.1-.65,2.62,2.62,0,0,1,.26-.62,4.86,4.86,0,0,1,.33-.54,3.39,3.39,0,0,1,.35-.43h1a3.61,3.61,0,0,0-.45.64,3.53,3.53,0,0,0-.36.86.91.91,0,0,1,.53.34A1,1,0,0,1,518.61,170.37Zm2.62,0a.94.94,0,0,1-.26.68,1,1,0,0,1-.71.26.94.94,0,0,1-.72-.29,1.1,1.1,0,0,1-.29-.84,2.43,2.43,0,0,1,.09-.65,3.12,3.12,0,0,1,.26-.62c.11-.19.22-.37.34-.54a2.25,2.25,0,0,1,.35-.43h1a4.23,4.23,0,0,0-.46.64,4.54,4.54,0,0,0-.36.86.88.88,0,0,1,.53.34A.93.93,0,0,1,521.23,170.37Z"/><path class="cls-4" d="M523.63,168h8.63v11.47h-1.52V169.36h-5.6v10.11h-1.51Z"/><path class="cls-4" d="M541.34,178.77a2.68,2.68,0,0,1-.43.27,4.06,4.06,0,0,1-.62.28,4.55,4.55,0,0,1-.83.22,5.52,5.52,0,0,1-1,.09,4.25,4.25,0,0,1-3.19-1.13,4.45,4.45,0,0,1-1.09-3.19,5.17,5.17,0,0,1,.3-1.81,4,4,0,0,1,.82-1.35,3.7,3.7,0,0,1,1.25-.85,4.22,4.22,0,0,1,1.57-.29,4,4,0,0,1,1.6.3,2.79,2.79,0,0,1,1.16.9,3.41,3.41,0,0,1,.62,1.46,6,6,0,0,1,0,2H535.6a2.87,2.87,0,0,0,.8,2,3.06,3.06,0,0,0,2.14.66,4.53,4.53,0,0,0,1.65-.27,5.35,5.35,0,0,0,1.15-.6Zm-3.29-6.51a2.31,2.31,0,0,0-1.57.56,2.64,2.64,0,0,0-.83,1.69h4.46a2,2,0,0,0-.53-1.7A2.13,2.13,0,0,0,538.05,172.26Z"/><path class="cls-4" d="M546.61,172.37v7.1H545.2v-7.1h-2.61v-1.2h6.67v1.2Z"/><path class="cls-4" d="M550.42,173.86a2.64,2.64,0,0,1,.25-1.21,2.14,2.14,0,0,1,.72-.83,3.13,3.13,0,0,1,1.11-.49,5.53,5.53,0,0,1,1.39-.16h2.67v8.3h-1.41v-3h-1.52l-2.13,3h-1.68l2.4-3.36a2.81,2.81,0,0,1-1.33-.78A2.1,2.1,0,0,1,550.42,173.86Zm4.73,1.4v-2.89h-1.26a2.91,2.91,0,0,0-1.47.33,1.17,1.17,0,0,0-.58,1.09,1.27,1.27,0,0,0,.51,1.13,2.61,2.61,0,0,0,1.46.34Z"/><path class="cls-4" d="M560.75,169.06a2.37,2.37,0,0,1-.09.65,3.7,3.7,0,0,1-.26.62,5.74,5.74,0,0,1-.34.55c-.13.17-.24.31-.35.43h-1a4.35,4.35,0,0,0,.46-.65,4.43,4.43,0,0,0,.36-.85.93.93,0,0,1-.53-.34,1,1,0,0,1,.07-1.27,1,1,0,0,1,.71-.26,1,1,0,0,1,.72.28A1.12,1.12,0,0,1,560.75,169.06Zm2.63,0a2.38,2.38,0,0,1-.1.65,3,3,0,0,1-.26.62,4.26,4.26,0,0,1-.34.55c-.12.17-.24.31-.34.43h-1a3.75,3.75,0,0,0,.47-.65,3.43,3.43,0,0,0,.34-.85,1,1,0,0,1-.53-.34,1,1,0,0,1-.19-.59.91.91,0,0,1,.27-.68.93.93,0,0,1,.71-.26,1,1,0,0,1,.72.28A1.16,1.16,0,0,1,563.38,169.06Z"/></g></svg>