<svg xmlns="http://www.w3.org/2000/svg" viewBox="0 0 600 160"><defs><style>.cls-1{fill:#ffdb4d;}.cls-2{fill:#333;}.cls-3{fill:none;stroke:#333;stroke-miterlimit:10;stroke-width:0.97px;}</style></defs><title>stroke-s-list-a03</title><g id="Light_grey_rows" data-name="Light grey rows"><rect class="cls-1" x="40" y="30" width="140" height="80" rx="2"/><rect class="cls-1" x="380" y="30" width="180" height="80" rx="2"/></g><g id="Layer_1" data-name="Layer 1"><path class="cls-2" d="M83.68,60.63a6.71,6.71,0,0,1-2.4-.4,5,5,0,0,1-1.83-1.16,5,5,0,0,1-1.17-1.85,7.13,7.13,0,0,1-.41-2.48,7.38,7.38,0,0,1,.39-2.48,5.07,5.07,0,0,1,1.14-1.84,4.78,4.78,0,0,1,1.82-1.16,6.86,6.86,0,0,1,2.44-.4,7.52,7.52,0,0,1,2,.23,5.16,5.16,0,0,1,1.33.53v1.73a4.7,4.7,0,0,0-1.49-.61,7.16,7.16,0,0,0-1.8-.22,3.64,3.64,0,0,0-2.87,1,4.62,4.62,0,0,0-.94,3.17q0,4.23,3.9,4.23a6.38,6.38,0,0,0,1.72-.23A4.58,4.58,0,0,0,87,58v1.71a4.2,4.2,0,0,1-1.29.61A6.84,6.84,0,0,1,83.68,60.63Z"/><path class="cls-2" d="M92.51,53.67v6.8H90.66v-6.8H88.14v-1.5h6.93v1.5Z"/><path class="cls-2" d="M101.06,60.63a3,3,0,0,1-1.63-.42,3.25,3.25,0,0,1-1.09-1.15V63.3H96.48V52.17h1.7l.12,1.47a3.26,3.26,0,0,1,1.11-1.19,3,3,0,0,1,1.68-.44,3.91,3.91,0,0,1,1.4.26,3.18,3.18,0,0,1,1.16.8,4,4,0,0,1,.79,1.35,6.17,6.17,0,0,1,0,3.8,3.9,3.9,0,0,1-.8,1.35,3.38,3.38,0,0,1-1.18.8A3.87,3.87,0,0,1,101.06,60.63Zm-.45-1.53a2.07,2.07,0,0,0,1.61-.69,3,3,0,0,0,.61-2.09,3.07,3.07,0,0,0-.61-2.09,2.07,2.07,0,0,0-1.6-.69,2.46,2.46,0,0,0-.91.17,2,2,0,0,0-.73.52,2.56,2.56,0,0,0-.48.88,3.71,3.71,0,0,0-.18,1.21,3.8,3.8,0,0,0,.18,1.23,2.32,2.32,0,0,0,.48.86,2,2,0,0,0,.72.52A2.53,2.53,0,0,0,100.61,59.1Z"/><path class="cls-2" d="M109.9,60.63a4.37,4.37,0,0,1-1.63-.29,3.64,3.64,0,0,1-1.3-.84,3.75,3.75,0,0,1-.87-1.35,5.62,5.62,0,0,1,0-3.68,3.93,3.93,0,0,1,.87-1.35,3.49,3.49,0,0,1,1.3-.83A4.58,4.58,0,0,1,109.9,52a4.63,4.63,0,0,1,1.64.28,3.61,3.61,0,0,1,1.31.83,4.1,4.1,0,0,1,.88,1.35,5.45,5.45,0,0,1,0,3.68,3.9,3.9,0,0,1-.88,1.35,3.77,3.77,0,0,1-1.31.84A4.42,4.42,0,0,1,109.9,60.63Zm0-1.53a2.12,2.12,0,0,0,1.6-.68,3.8,3.8,0,0,0,0-4.19,2.1,2.1,0,0,0-1.6-.69,2,2,0,0,0-1.57.69,3.8,3.8,0,0,0,0,4.19A2.06,2.06,0,0,0,109.9,59.1Z"/><path class="cls-2" d="M118.18,57.1h-.72v3.37H115.6v-8.3h1.86v3.42h.78l2.64-3.42h2l-3.13,4,3.26,4.3h-2.19Z"/><path class="cls-2" d="M128.82,59a2.92,2.92,0,0,1-.35.57,2.38,2.38,0,0,1-.53.52,2.45,2.45,0,0,1-.74.38,3.37,3.37,0,0,1-1,.14,3.29,3.29,0,0,1-1-.15,2.2,2.2,0,0,1-.8-.46,2.16,2.16,0,0,1-.55-.76,2.61,2.61,0,0,1-.2-1,2.3,2.3,0,0,1,1-2,5,5,0,0,1,2.85-.68h1.26V55a1.33,1.33,0,0,0-.41-1.12,2.34,2.34,0,0,0-1.38-.32,4.81,4.81,0,0,0-1.53.24,6.91,6.91,0,0,0-1.25.53V52.76a6.64,6.64,0,0,1,1.31-.51,6.21,6.21,0,0,1,1.77-.24,4.06,4.06,0,0,1,2.48.66,2.49,2.49,0,0,1,.87,2.12v4.34c0,.09,0,.2,0,.33s0,.24,0,.37,0,.25,0,.36,0,.21,0,.28H129a5,5,0,0,1-.09-.62q0-.41-.06-.72Zm-2.12.17a1.77,1.77,0,0,0,1-.25,2.18,2.18,0,0,0,.63-.57,2.4,2.4,0,0,0,.34-.65,1.91,1.91,0,0,0,.09-.45v-.56H127.6a3,3,0,0,0-1.62.35,1.1,1.1,0,0,0-.51,1,1.19,1.19,0,0,0,.31.86A1.25,1.25,0,0,0,126.7,59.19Z"/><path class="cls-2" d="M138.86,60.63a5.49,5.49,0,0,1-1.12-.1,5.34,5.34,0,0,1-.89-.25,5.07,5.07,0,0,1-.65-.3,4.12,4.12,0,0,1-.42-.29V58.22a2.69,2.69,0,0,0,.44.31,4.38,4.38,0,0,0,.65.32,5.53,5.53,0,0,0,.86.25,5.85,5.85,0,0,0,1.07.09,2.49,2.49,0,0,0,1.29-.26.88.88,0,0,0,.41-.78.86.86,0,0,0-.16-.53,1.18,1.18,0,0,0-.44-.3,3.18,3.18,0,0,0-.63-.17l-.74-.13c-.33-.07-.66-.15-1-.25a3,3,0,0,1-.88-.43,2.16,2.16,0,0,1-.64-.7,2.27,2.27,0,0,1-.24-1.1,2.21,2.21,0,0,1,.88-1.86,4,4,0,0,1,2.51-.67,5.93,5.93,0,0,1,1.61.19,4,4,0,0,1,1,.4v1.49a4.08,4.08,0,0,0-1-.45,5.06,5.06,0,0,0-1.53-.19,2.78,2.78,0,0,0-1.33.24.78.78,0,0,0-.42.74.61.61,0,0,0,.16.45,1,1,0,0,0,.4.27,3.34,3.34,0,0,0,.57.15l.68.12c.33.06.67.14,1,.23a3.31,3.31,0,0,1,.94.41,2.29,2.29,0,0,1,.7.75,2.37,2.37,0,0,1,.27,1.2,2.49,2.49,0,0,1-.29,1.25,2.22,2.22,0,0,1-.77.81,3.22,3.22,0,0,1-1.08.43A5.74,5.74,0,0,1,138.86,60.63Z"/><path class="cls-2" d="M56,74h1.53l-.16,3.31H56.18Z"/><path class="cls-2" d="M64.75,85.47H63.3V75.81l-3.17,2.43V76.62L63.54,74h1.21Z"/><path class="cls-2" d="M76,78.7a13.56,13.56,0,0,1-.28,2.91,6.53,6.53,0,0,1-.85,2.18,3.85,3.85,0,0,1-1.44,1.37,4.4,4.4,0,0,1-2.08.47,4.92,4.92,0,0,1-1.45-.17,4.73,4.73,0,0,1-1-.42V83.63a4.46,4.46,0,0,0,2.47.71A2.64,2.64,0,0,0,72.6,84a2.72,2.72,0,0,0,1-.86,4.48,4.48,0,0,0,.62-1.3,7.51,7.51,0,0,0,.28-1.62,3,3,0,0,1-1.18.92,3.67,3.67,0,0,1-1.49.3,4.27,4.27,0,0,1-1.44-.25,3.36,3.36,0,0,1-1.17-.73,3.23,3.23,0,0,1-.77-1.18,4.3,4.3,0,0,1-.28-1.62,4.14,4.14,0,0,1,.29-1.57,3.57,3.57,0,0,1,2-2,3.89,3.89,0,0,1,1.5-.28,4.35,4.35,0,0,1,1.84.36,3.22,3.22,0,0,1,1.24,1,4.29,4.29,0,0,1,.71,1.54A8,8,0,0,1,76,78.7Zm-4-3.56a2.37,2.37,0,0,0-.88.16,2,2,0,0,0-.75.47,2.4,2.4,0,0,0-.51.78,2.88,2.88,0,0,0-.19,1.1,3.13,3.13,0,0,0,.18,1.1,2.52,2.52,0,0,0,.5.81,2.14,2.14,0,0,0,.69.49,2.24,2.24,0,0,0,.8.16,2.9,2.9,0,0,0,1-.17,2.13,2.13,0,0,0,.78-.5,2.26,2.26,0,0,0,.52-.8,3,3,0,0,0,.19-1.12,2.53,2.53,0,0,0-.62-1.8A2.17,2.17,0,0,0,72,75.14Z"/><path class="cls-2" d="M84.5,85.47H77.18V84c1-.78,1.82-1.48,2.52-2.09a18.27,18.27,0,0,0,1.76-1.68,6.12,6.12,0,0,0,1-1.47,3.32,3.32,0,0,0,.34-1.45,2.1,2.1,0,0,0-.57-1.53,2.21,2.21,0,0,0-1.66-.58,3.32,3.32,0,0,0-1.69.45,5.28,5.28,0,0,0-1.41,1.13V75.14a4.81,4.81,0,0,1,1.37-1,4.35,4.35,0,0,1,1.78-.35,4.83,4.83,0,0,1,1.59.24,3.18,3.18,0,0,1,1.17.67,2.9,2.9,0,0,1,.72,1,3.49,3.49,0,0,1,.25,1.35A4.32,4.32,0,0,1,84,78.89a6.61,6.61,0,0,1-1.07,1.63,14.72,14.72,0,0,1-1.73,1.69c-.69.58-1.48,1.22-2.36,1.9H84.5Z"/><path class="cls-2" d="M87.63,85.57a1,1,0,0,1-1-1,1,1,0,0,1,.29-.74,1.13,1.13,0,0,1,1.49,0,1,1,0,0,1,.29.74,1,1,0,0,1-.29.71A1,1,0,0,1,87.63,85.57Z"/><path class="cls-2" d="M96,85.47H94.5V75.81l-3.17,2.43V76.62L94.74,74H96Z"/><path class="cls-2" d="M107.15,81.71a4.3,4.3,0,0,1-.29,1.6,3.81,3.81,0,0,1-.81,1.24,3.41,3.41,0,0,1-1.21.8,3.89,3.89,0,0,1-1.5.28,4.11,4.11,0,0,1-1.84-.37,3.2,3.2,0,0,1-1.24-1,4.46,4.46,0,0,1-.71-1.59,8.65,8.65,0,0,1-.22-2,13,13,0,0,1,.27-2.75,6.6,6.6,0,0,1,.83-2.14,4,4,0,0,1,1.43-1.38,4.08,4.08,0,0,1,2.08-.5,4.72,4.72,0,0,1,1.42.18,5,5,0,0,1,1,.41v1.43a4.2,4.2,0,0,0-2.41-.71,2.66,2.66,0,0,0-1.32.32,3.15,3.15,0,0,0-1,.87,4.47,4.47,0,0,0-.61,1.32,7.4,7.4,0,0,0-.29,1.62A3.47,3.47,0,0,1,102,78.21a3.2,3.2,0,0,1,1.51-.35,4.27,4.27,0,0,1,1.44.24,3.35,3.35,0,0,1,1.17.75,3.49,3.49,0,0,1,.77,1.21A4.46,4.46,0,0,1,107.15,81.71Zm-3.85,2.64a2.37,2.37,0,0,0,1.63-.65,2.54,2.54,0,0,0,.51-.81,3.12,3.12,0,0,0,.19-1.15,3.31,3.31,0,0,0-.18-1.13,2.36,2.36,0,0,0-.5-.83,2,2,0,0,0-.7-.51,2,2,0,0,0-.79-.17,2.68,2.68,0,0,0-1,.18,2.29,2.29,0,0,0-.78.51,2.49,2.49,0,0,0-.52.83,3.17,3.17,0,0,0-.19,1.16,2.7,2.7,0,0,0,.62,1.86A2.16,2.16,0,0,0,103.3,84.35Z"/><path class="cls-2" d="M115.84,82.34a3.25,3.25,0,0,1-.29,1.38,2.93,2.93,0,0,1-.8,1,3.65,3.65,0,0,1-1.2.65,4.81,4.81,0,0,1-1.5.22,5.33,5.33,0,0,1-1.55-.21,3.63,3.63,0,0,1-1.22-.64,3.08,3.08,0,0,1-.8-1,3.14,3.14,0,0,1-.29-1.37,3,3,0,0,1,.59-1.88,3.43,3.43,0,0,1,1.57-1.12,2.84,2.84,0,0,1-1.27-1,2.68,2.68,0,0,1-.47-1.62,2.86,2.86,0,0,1,.26-1.24,2.73,2.73,0,0,1,.72-.92,3.23,3.23,0,0,1,1.09-.57,4.63,4.63,0,0,1,1.37-.19,4.7,4.7,0,0,1,1.33.18,3.24,3.24,0,0,1,1.08.55,2.58,2.58,0,0,1,.73.91,3,3,0,0,1-.21,2.89,3,3,0,0,1-1.27,1,3.26,3.26,0,0,1,1.55,1.08A3,3,0,0,1,115.84,82.34Zm-3.79,2a2.77,2.77,0,0,0,.92-.15,2.22,2.22,0,0,0,.73-.44,1.84,1.84,0,0,0,.49-.69,2.57,2.57,0,0,0,0-1.89,2,2,0,0,0-.49-.7,2.2,2.2,0,0,0-.73-.43,2.77,2.77,0,0,0-.92-.15,2.91,2.91,0,0,0-1,.15,2.25,2.25,0,0,0-.76.43,1.87,1.87,0,0,0-.5.7,2.57,2.57,0,0,0,0,1.89,1.76,1.76,0,0,0,.5.69,2.27,2.27,0,0,0,.76.44A2.91,2.91,0,0,0,112.05,84.37Zm0-5.57a2,2,0,0,0,1.41-.49,2,2,0,0,0,0-2.7,2,2,0,0,0-1.41-.49,2.09,2.09,0,0,0-1.43.49,1.91,1.91,0,0,0,0,2.7A2.09,2.09,0,0,0,112.05,78.8Z"/><path class="cls-2" d="M118.83,85.57a1,1,0,0,1-1-1,1,1,0,0,1,.29-.74,1.13,1.13,0,0,1,1.49,0,1,1,0,0,1,.29.74,1,1,0,0,1-.29.71A1,1,0,0,1,118.83,85.57Z"/><path class="cls-2" d="M127.15,85.47H125.7V75.81l-3.17,2.43V76.62L125.94,74h1.21Z"/><path class="cls-2" d="M137.9,81.68a4.37,4.37,0,0,1-.28,1.62,3.32,3.32,0,0,1-.8,1.25,3.36,3.36,0,0,1-1.26.8,4.63,4.63,0,0,1-1.66.28,6.61,6.61,0,0,1-1.77-.21,4.34,4.34,0,0,1-1.28-.6V83.25a5.34,5.34,0,0,0,1.25.76,4.51,4.51,0,0,0,1.8.31,2.37,2.37,0,0,0,1.84-.72,2.72,2.72,0,0,0,.64-1.89,2.32,2.32,0,0,0-.64-1.82,2.27,2.27,0,0,0-1.61-.58,2.5,2.5,0,0,0-1.15.23,2.56,2.56,0,0,0-.65.49h-1.16V74h6.21v1.36h-4.9v3.3a3.18,3.18,0,0,1,.78-.43,3.07,3.07,0,0,1,1.11-.18,3.92,3.92,0,0,1,1.38.23,3.05,3.05,0,0,1,1.13.69,3.11,3.11,0,0,1,.75,1.13A4.29,4.29,0,0,1,137.9,81.68Z"/><path class="cls-2" d="M141.23,85.57a1,1,0,0,1-1-1,1,1,0,0,1,.29-.74,1,1,0,0,1,1.77.74,1,1,0,0,1-.28.71A1,1,0,0,1,141.23,85.57Z"/><path class="cls-2" d="M149.55,85.47h-1.46V75.81l-3.16,2.43V76.62l3.4-2.62h1.22Z"/><path class="cls-2" d="M156.83,85.63a3.35,3.35,0,0,1-1.51-.34,3.13,3.13,0,0,1-1.2-1.07,5.67,5.67,0,0,1-.79-1.84,10.37,10.37,0,0,1-.29-2.65,10.27,10.27,0,0,1,.29-2.65,5.52,5.52,0,0,1,.79-1.83,3.1,3.1,0,0,1,1.2-1.06,3.48,3.48,0,0,1,1.51-.33,3.4,3.4,0,0,1,1.5.33,3.2,3.2,0,0,1,1.19,1,5.37,5.37,0,0,1,.77,1.82,10.63,10.63,0,0,1,.28,2.64,10.74,10.74,0,0,1-.28,2.64,5.73,5.73,0,0,1-.77,1.85,3.24,3.24,0,0,1-1.19,1.09A3.28,3.28,0,0,1,156.83,85.63Zm0-1.26a1.75,1.75,0,0,0,1.67-1,4.84,4.84,0,0,0,.44-1.43,13.24,13.24,0,0,0,.15-2.17,14.55,14.55,0,0,0-.14-2.16,4.63,4.63,0,0,0-.44-1.44,1.86,1.86,0,0,0-.7-.78,1.9,1.9,0,0,0-1-.24,1.94,1.94,0,0,0-1,.24,2,2,0,0,0-.72.78,5.21,5.21,0,0,0-.45,1.44,15.7,15.7,0,0,0,0,4.33,5.16,5.16,0,0,0,.44,1.43,1.86,1.86,0,0,0,.72.79A1.9,1.9,0,0,0,156.81,84.37Z"/><path class="cls-2" d="M162.43,74H164l-.16,3.31h-1.22Z"/><path class="cls-2" d="M241.2,48.89a4.08,4.08,0,0,1-.37.6,2.74,2.74,0,0,1-.56.57,2.56,2.56,0,0,1-.79.41,3.11,3.11,0,0,1-1.06.16,2.57,2.57,0,0,1-1.81-.63,2.34,2.34,0,0,1-.69-1.82,2.26,2.26,0,0,1,1-2,4.93,4.93,0,0,1,2.72-.64h1.55v-.68a1.53,1.53,0,0,0-.45-1.24,2.51,2.51,0,0,0-1.54-.36,4.37,4.37,0,0,0-1.45.24,7.82,7.82,0,0,0-1.23.57V42.81a6.63,6.63,0,0,1,1.2-.54,5.28,5.28,0,0,1,1.68-.26,3.71,3.71,0,0,1,2.38.65,2.41,2.41,0,0,1,.82,2v4.8c0,.12,0,.24,0,.37s0,.25,0,.36,0,.21,0,.28h-1.28a3.61,3.61,0,0,1-.09-.63,6.45,6.45,0,0,1,0-.71Zm-2.48.49a2.19,2.19,0,0,0,1.12-.27A2.79,2.79,0,0,0,241,47.77a2,2,0,0,0,.13-.49v-.62h-1.41a3.43,3.43,0,0,0-1.83.37,1.19,1.19,0,0,0-.57,1.08,1.26,1.26,0,0,0,.34.92A1.36,1.36,0,0,0,238.72,49.38Z"/><path class="cls-2" d="M247.65,44.12V43h7.73v1.12Zm0,3V46h7.73v1.12Z"/><path class="cls-2" d="M263.23,50.63a5.76,5.76,0,0,1-1.16-.1,5.45,5.45,0,0,1-.88-.26,3.68,3.68,0,0,1-.63-.32,4.79,4.79,0,0,1-.4-.29V48.39a3.55,3.55,0,0,0,.43.35,4,4,0,0,0,.66.34,4.49,4.49,0,0,0,.87.26,5.25,5.25,0,0,0,1.1.11,3,3,0,0,0,1.42-.29,1,1,0,0,0,.53-1,1,1,0,0,0-.17-.59,1.12,1.12,0,0,0-.46-.36,2.84,2.84,0,0,0-.66-.21l-.79-.16-1-.25a3.53,3.53,0,0,1-.93-.4,2,2,0,0,1-.93-1.8,2.05,2.05,0,0,1,.87-1.76A4.06,4.06,0,0,1,263.5,42a6.59,6.59,0,0,1,1.56.17,4.33,4.33,0,0,1,1.05.39v1.26a3.94,3.94,0,0,0-1-.45,5.15,5.15,0,0,0-1.53-.19,3.3,3.3,0,0,0-1.45.26,1,1,0,0,0-.5.93.86.86,0,0,0,.15.53,1,1,0,0,0,.39.32,2.54,2.54,0,0,0,.57.19l.67.14,1.12.24a3.45,3.45,0,0,1,1,.4,2.27,2.27,0,0,1,.75.73,2.18,2.18,0,0,1,.3,1.22,2.32,2.32,0,0,1-.29,1.2,2.21,2.21,0,0,1-.76.76,3.34,3.34,0,0,1-1.07.4A6.26,6.26,0,0,1,263.23,50.63Z"/><path class="cls-2" d="M269.07,50.57a1,1,0,0,1-1-1,1,1,0,0,1,.29-.74,1.13,1.13,0,0,1,1.49,0,1,1,0,0,1,.29.74,1,1,0,0,1-.29.71A1,1,0,0,1,269.07,50.57Z"/><path class="cls-2" d="M274.78,50.63a5.83,5.83,0,0,1-1.16-.1,5.77,5.77,0,0,1-.88-.26,3.68,3.68,0,0,1-.63-.32,4.79,4.79,0,0,1-.4-.29V48.39a3.55,3.55,0,0,0,.43.35,4.48,4.48,0,0,0,.66.34,5,5,0,0,0,.87.26,5.25,5.25,0,0,0,1.1.11,3,3,0,0,0,1.42-.29,1,1,0,0,0,.53-1,.92.92,0,0,0-.17-.59,1.16,1.16,0,0,0-.45-.36,3.1,3.1,0,0,0-.67-.21l-.79-.16-1-.25a3.53,3.53,0,0,1-.93-.4,2.21,2.21,0,0,1-.67-.69,2.12,2.12,0,0,1-.26-1.11,2.06,2.06,0,0,1,.88-1.76,4,4,0,0,1,2.44-.64,6.71,6.71,0,0,1,1.56.17,4.68,4.68,0,0,1,1.05.39v1.26a4,4,0,0,0-1-.45,5.15,5.15,0,0,0-1.53-.19,3.22,3.22,0,0,0-1.44.26,1,1,0,0,0-.51.93.86.86,0,0,0,.15.53,1,1,0,0,0,.39.32,2.54,2.54,0,0,0,.57.19l.67.14,1.12.24a3.35,3.35,0,0,1,1,.4,2.27,2.27,0,0,1,.75.73,2.18,2.18,0,0,1,.3,1.22,2.32,2.32,0,0,1-.29,1.2,2.13,2.13,0,0,1-.76.76,3.26,3.26,0,0,1-1.07.4A6.26,6.26,0,0,1,274.78,50.63Z"/><path class="cls-2" d="M284,50.63a3,3,0,0,1-1.65-.45A3.25,3.25,0,0,1,281.26,49V53.3h-1.4V42.17h1.23l.14,1.61a3.43,3.43,0,0,1,1.12-1.29A3,3,0,0,1,284.1,42a3.8,3.8,0,0,1,1.38.26,3.3,3.3,0,0,1,1.17.8,4.06,4.06,0,0,1,.8,1.35,6.27,6.27,0,0,1,0,3.8,3.79,3.79,0,0,1-.82,1.35,3.38,3.38,0,0,1-1.18.8A4,4,0,0,1,284,50.63Zm-.21-1.25a2.29,2.29,0,0,0,1.79-.76,3.38,3.38,0,0,0,.68-2.3,3.4,3.4,0,0,0-.68-2.29,2.29,2.29,0,0,0-1.79-.77,2.59,2.59,0,0,0-1,.19A2.25,2.25,0,0,0,282,44a2.66,2.66,0,0,0-.54.95,4.66,4.66,0,0,0,0,2.7,2.79,2.79,0,0,0,.54,1,2,2,0,0,0,.82.57A2.79,2.79,0,0,0,283.82,49.38Z"/><path class="cls-2" d="M290.86,39V50.47h-1.4V39Z"/><path class="cls-2" d="M293.87,41a.94.94,0,0,1-.69-.26.9.9,0,0,1-.25-.65.94.94,0,0,1,.25-.66.9.9,0,0,1,.69-.27.84.84,0,0,1,.66.27,1,1,0,0,1,.24.66.93.93,0,0,1-.24.65A.87.87,0,0,1,293.87,41Zm.69,1.22v8.3h-1.41v-8.3Z"/><path class="cls-2" d="M300.25,50.54a3.73,3.73,0,0,1-.84.09,2.81,2.81,0,0,1-1-.17,1.89,1.89,0,0,1-.7-.48,1.74,1.74,0,0,1-.39-.67,2.53,2.53,0,0,1-.12-.77V43.37h-1v-1.2h1V40.42h1.41v1.75H301v1.2h-2.41v5a1,1,0,0,0,.26.77,1.42,1.42,0,0,0,.94.24,1.91,1.91,0,0,0,1.13-.35V50.3A3.09,3.09,0,0,1,300.25,50.54Z"/><path class="cls-2" d="M305.38,52.7a9.2,9.2,0,0,1-1.86-3.26,12.13,12.13,0,0,1-.61-3.88,13.83,13.83,0,0,1,.15-2,11.21,11.21,0,0,1,.47-1.94,9.84,9.84,0,0,1,.76-1.75,7,7,0,0,1,1.09-1.47h1.39a5.92,5.92,0,0,0-1.12,1.44,9.8,9.8,0,0,0-.78,1.74,10.16,10.16,0,0,0-.45,1.94,13.6,13.6,0,0,0-.15,2,12.47,12.47,0,0,0,.6,3.89,9.18,9.18,0,0,0,1.9,3.3Z"/><path class="cls-2" d="M308.53,39h1.53l-.16,3.31h-1.21Z"/><path class="cls-2" d="M313.23,50.57a1,1,0,0,1-1-1,1,1,0,0,1,.29-.74,1,1,0,0,1,1.77.74,1,1,0,0,1-.28.71A1,1,0,0,1,313.23,50.57Z"/><path class="cls-2" d="M316.37,39h1.53l-.16,3.31h-1.21Z"/><path class="cls-2" d="M319.68,52.7a9.31,9.31,0,0,0,1.89-3.3,12.47,12.47,0,0,0,.6-3.89,13.58,13.58,0,0,0-.14-2,11,11,0,0,0-.46-1.94,9.1,9.1,0,0,0-.77-1.74,5.92,5.92,0,0,0-1.12-1.44h1.39a6.64,6.64,0,0,1,1.08,1.47,10.65,10.65,0,0,1,.77,1.75,11.2,11.2,0,0,1,.46,1.94,13.83,13.83,0,0,1,.15,2,12.41,12.41,0,0,1-.6,3.88,9.51,9.51,0,0,1-1.86,3.26Z"/><path class="cls-2" d="M442.68,60.63a6.71,6.71,0,0,1-2.4-.4,5,5,0,0,1-1.83-1.16,5,5,0,0,1-1.17-1.85,7.13,7.13,0,0,1-.41-2.48,7.38,7.38,0,0,1,.39-2.48,5.07,5.07,0,0,1,1.14-1.84,4.78,4.78,0,0,1,1.82-1.16,6.86,6.86,0,0,1,2.44-.4,7.52,7.52,0,0,1,2,.23,5.16,5.16,0,0,1,1.33.53v1.73a4.7,4.7,0,0,0-1.49-.61,7.16,7.16,0,0,0-1.8-.22,3.64,3.64,0,0,0-2.87,1,4.62,4.62,0,0,0-.94,3.17q0,4.23,3.9,4.23a6.38,6.38,0,0,0,1.72-.23A4.58,4.58,0,0,0,446,58v1.71a4.2,4.2,0,0,1-1.29.61A6.84,6.84,0,0,1,442.68,60.63Z"/><path class="cls-2" d="M448,52.17H455v8.3h-1.86v-6.8h-3.34v6.8H448Z"/><path class="cls-2" d="M458.94,58l3.84-5.79h1.82v8.3h-1.84V54.71L459,60.47H457.1v-8.3h1.84Z"/><path class="cls-2" d="M470.52,60.63a5.37,5.37,0,0,1-1.81-.29,3.63,3.63,0,0,1-2.22-2.2,5,5,0,0,1-.31-1.83,5,5,0,0,1,.31-1.81,3.77,3.77,0,0,1,.86-1.35,3.7,3.7,0,0,1,1.38-.85,5.47,5.47,0,0,1,1.82-.29,5.23,5.23,0,0,1,1.51.19,3.36,3.36,0,0,1,1,.48v1.54a4.41,4.41,0,0,0-1.08-.5,4.67,4.67,0,0,0-1.36-.18c-1.71,0-2.57.93-2.57,2.78s.84,2.78,2.53,2.78a4.79,4.79,0,0,0,1.4-.19,5.78,5.78,0,0,0,1.08-.47V60a4.38,4.38,0,0,1-1,.47A4.92,4.92,0,0,1,470.52,60.63Z"/><path class="cls-2" d="M478.41,60.63a4.33,4.33,0,0,1-1.63-.29,3.6,3.6,0,0,1-1.31-.84,3.73,3.73,0,0,1-.86-1.35,5.62,5.62,0,0,1,0-3.68,3.91,3.91,0,0,1,.86-1.35,3.45,3.45,0,0,1,1.31-.83,4.88,4.88,0,0,1,3.26,0,3.53,3.53,0,0,1,1.31.83,4,4,0,0,1,.88,1.35,5.45,5.45,0,0,1,0,3.68,3.77,3.77,0,0,1-.88,1.35,3.68,3.68,0,0,1-1.31.84A4.37,4.37,0,0,1,478.41,60.63Zm0-1.53a2.09,2.09,0,0,0,1.59-.68,3.8,3.8,0,0,0,0-4.19,2.17,2.17,0,0,0-3.17,0,3.8,3.8,0,0,0,0,4.19A2.08,2.08,0,0,0,478.41,59.1Z"/><path class="cls-2" d="M486.68,57.1H486v3.37H484.1v-8.3H486v3.42h.78l2.64-3.42h2l-3.14,4,3.26,4.3h-2.19Z"/><path class="cls-2" d="M501,59a3.42,3.42,0,0,1-.34.57,2.9,2.9,0,0,1-.53.52,2.64,2.64,0,0,1-.75.38,3.35,3.35,0,0,1-1,.14,3.24,3.24,0,0,1-1-.15A2.2,2.2,0,0,1,496,59.26a2.61,2.61,0,0,1-.2-1,2.3,2.3,0,0,1,1-2,5,5,0,0,1,2.85-.68h1.26V55a1.3,1.3,0,0,0-.41-1.12,2.34,2.34,0,0,0-1.38-.32,4.7,4.7,0,0,0-1.52.24,6.73,6.73,0,0,0-1.26.53V52.76a6.89,6.89,0,0,1,1.31-.51,6.28,6.28,0,0,1,1.78-.24,4,4,0,0,1,2.47.66,2.49,2.49,0,0,1,.87,2.12v4.34c0,.09,0,.2,0,.33s0,.24,0,.37,0,.25,0,.36,0,.21,0,.28h-1.71c0-.15-.06-.36-.09-.62s0-.51-.06-.72Zm-2.11.17a1.76,1.76,0,0,0,1-.25,2.18,2.18,0,0,0,.63-.57,2.4,2.4,0,0,0,.34-.65,1.91,1.91,0,0,0,.09-.45v-.56h-1.15a2.93,2.93,0,0,0-1.61.35,1.1,1.1,0,0,0-.51,1,1.15,1.15,0,0,0,.31.86A1.22,1.22,0,0,0,498.89,59.19Z"/><path class="cls-2" d="M395.75,73.38h4.45v1.2h-3.09V86.5h3.09v1.2h-4.45Z"/><path class="cls-2" d="M401.91,74h1.54l-.16,3.31h-1.22Z"/><path class="cls-2" d="M410.65,85.47h-1.46V75.81L406,78.24V76.62l3.4-2.62h1.22Z"/><path class="cls-2" d="M421.85,78.7a13.56,13.56,0,0,1-.28,2.91,6.75,6.75,0,0,1-.85,2.18,3.88,3.88,0,0,1-1.45,1.37,4.37,4.37,0,0,1-2.08.47,4.85,4.85,0,0,1-1.44-.17,4.73,4.73,0,0,1-1-.42V83.63a4.43,4.43,0,0,0,2.46.71A2.67,2.67,0,0,0,418.5,84a2.72,2.72,0,0,0,1-.86,4.46,4.46,0,0,0,.61-1.3,7.5,7.5,0,0,0,.29-1.62,3,3,0,0,1-1.18.92,3.71,3.71,0,0,1-1.49.3,4.27,4.27,0,0,1-1.44-.25,3.28,3.28,0,0,1-1.95-1.91,4.51,4.51,0,0,1-.27-1.62,4,4,0,0,1,.29-1.57,3.78,3.78,0,0,1,.81-1.21,3.71,3.71,0,0,1,1.21-.78,3.87,3.87,0,0,1,1.49-.28,4.28,4.28,0,0,1,1.84.36,3.18,3.18,0,0,1,1.25,1,4.11,4.11,0,0,1,.7,1.54A8,8,0,0,1,421.85,78.7Zm-4-3.56a2.46,2.46,0,0,0-.89.16,2,2,0,0,0-.74.47,2.4,2.4,0,0,0-.51.78,2.88,2.88,0,0,0-.2,1.1,3.13,3.13,0,0,0,.19,1.1,2.5,2.5,0,0,0,.49.81,2.17,2.17,0,0,0,.7.49,2.19,2.19,0,0,0,.8.16,2.94,2.94,0,0,0,1-.17,2.13,2.13,0,0,0,.78-.5,2.26,2.26,0,0,0,.52-.8,3,3,0,0,0,.19-1.12,2.57,2.57,0,0,0-.62-1.8A2.17,2.17,0,0,0,417.88,75.14Z"/><path class="cls-2" d="M430.39,85.47h-7.31V84c1-.78,1.81-1.48,2.52-2.09a18,18,0,0,0,1.75-1.68,6.49,6.49,0,0,0,1-1.47,3.31,3.31,0,0,0,.33-1.45,2.1,2.1,0,0,0-.57-1.53,2.18,2.18,0,0,0-1.65-.58,3.38,3.38,0,0,0-1.7.45,5.61,5.61,0,0,0-1.41,1.13V75.14a5,5,0,0,1,1.38-1,4.31,4.31,0,0,1,1.78-.35,4.87,4.87,0,0,1,1.59.24,3.35,3.35,0,0,1,1.17.67,3,3,0,0,1,.72,1,3.68,3.68,0,0,1,.24,1.35,4.48,4.48,0,0,1-.35,1.75,6.61,6.61,0,0,1-1.07,1.63,14.86,14.86,0,0,1-1.74,1.69c-.68.58-1.47,1.22-2.35,1.9h5.64Z"/><path class="cls-2" d="M432.33,74h1.53l-.15,3.31h-1.22Z"/><path class="cls-2" d="M436,87.18a2.5,2.5,0,0,0,.28-.38,4.25,4.25,0,0,0,.27-.46,3.25,3.25,0,0,0,.19-.44,2.72,2.72,0,0,0,.1-.38,1,1,0,0,1-.54-.34.91.91,0,0,1-.21-.6,1,1,0,0,1,.27-.7.91.91,0,0,1,.71-.28,1,1,0,0,1,.73.3,1.21,1.21,0,0,1,.28.82,3,3,0,0,1-.1.7,4,4,0,0,1-.24.69,4.51,4.51,0,0,1-.33.62,2.53,2.53,0,0,1-.36.45Z"/><path class="cls-2" d="M443.69,74h1.53l-.16,3.31h-1.21Z"/><path class="cls-2" d="M452.42,85.47H451V75.81l-3.17,2.43V76.62L451.21,74h1.21Z"/><path class="cls-2" d="M463.62,81.71a4.3,4.3,0,0,1-.29,1.6,3.81,3.81,0,0,1-.81,1.24,3.32,3.32,0,0,1-1.21.8,3.87,3.87,0,0,1-1.49.28,4.12,4.12,0,0,1-1.85-.37,3.2,3.2,0,0,1-1.24-1,4.46,4.46,0,0,1-.71-1.59,8.65,8.65,0,0,1-.22-2,13,13,0,0,1,.27-2.75,6.6,6.6,0,0,1,.83-2.14,4,4,0,0,1,3.51-1.88,4.72,4.72,0,0,1,1.42.18,4.54,4.54,0,0,1,1,.41v1.43a4.17,4.17,0,0,0-2.41-.71,2.62,2.62,0,0,0-1.31.32,3.07,3.07,0,0,0-1,.87,4.47,4.47,0,0,0-.61,1.32,7.4,7.4,0,0,0-.29,1.62,3.41,3.41,0,0,1,1.22-1.07,3.16,3.16,0,0,1,1.5-.35,4.27,4.27,0,0,1,1.44.24,3.26,3.26,0,0,1,1.17.75,3.35,3.35,0,0,1,.77,1.21A4.46,4.46,0,0,1,463.62,81.71Zm-3.85,2.64a2.27,2.27,0,0,0,.89-.17,2.15,2.15,0,0,0,.74-.48,2.54,2.54,0,0,0,.51-.81,3.12,3.12,0,0,0,.19-1.15,3.31,3.31,0,0,0-.18-1.13,2.36,2.36,0,0,0-.5-.83,1.91,1.91,0,0,0-.7-.51,2,2,0,0,0-.79-.17,2.72,2.72,0,0,0-1,.18,2.29,2.29,0,0,0-.78.51,2.49,2.49,0,0,0-.52.83,3.17,3.17,0,0,0-.19,1.16,2.75,2.75,0,0,0,.62,1.86A2.16,2.16,0,0,0,459.77,84.35Z"/><path class="cls-2" d="M472.31,82.34a3.25,3.25,0,0,1-.29,1.38,2.93,2.93,0,0,1-.8,1,3.65,3.65,0,0,1-1.2.65,4.81,4.81,0,0,1-1.5.22,5.38,5.38,0,0,1-1.55-.21,3.63,3.63,0,0,1-1.22-.64,3.08,3.08,0,0,1-.8-1,3.14,3.14,0,0,1-.29-1.37,3,3,0,0,1,.59-1.88,3.43,3.43,0,0,1,1.57-1.12,2.89,2.89,0,0,1-1.27-1,2.74,2.74,0,0,1-.47-1.62,2.86,2.86,0,0,1,.26-1.24,2.73,2.73,0,0,1,.72-.92,3.23,3.23,0,0,1,1.09-.57,4.63,4.63,0,0,1,1.37-.19,4.82,4.82,0,0,1,1.34.18,3.24,3.24,0,0,1,1.08.55,2.67,2.67,0,0,1,.72.91,3,3,0,0,1-.21,2.89,2.91,2.91,0,0,1-1.27,1,3.26,3.26,0,0,1,1.55,1.08A3,3,0,0,1,472.31,82.34Zm-3.79,2a2.73,2.73,0,0,0,.92-.15,2.22,2.22,0,0,0,.73-.44,1.74,1.74,0,0,0,.49-.69,2.57,2.57,0,0,0,0-1.89,1.85,1.85,0,0,0-.49-.7,2.2,2.2,0,0,0-.73-.43,2.73,2.73,0,0,0-.92-.15,2.91,2.91,0,0,0-.95.15,2.25,2.25,0,0,0-.76.43,1.87,1.87,0,0,0-.5.7,2.71,2.71,0,0,0,0,1.89,1.76,1.76,0,0,0,.5.69,2.27,2.27,0,0,0,.76.44A2.91,2.91,0,0,0,468.52,84.37Zm0-5.57a2,2,0,0,0,1.41-.49,2,2,0,0,0,0-2.7,2,2,0,0,0-1.41-.49,2,2,0,0,0-1.42.49,1.91,1.91,0,0,0,0,2.7A2,2,0,0,0,468.52,78.8Z"/><path class="cls-2" d="M474.1,74h1.54l-.16,3.31h-1.22Z"/><path class="cls-2" d="M477.75,87.18a2.51,2.51,0,0,0,.29-.38c.09-.15.18-.3.26-.46a3.36,3.36,0,0,0,.2-.44c0-.15.08-.27.1-.38a1,1,0,0,1-.55-.34,1,1,0,0,1,.06-1.3.92.92,0,0,1,.71-.28,1,1,0,0,1,.73.3,1.17,1.17,0,0,1,.28.82,2.52,2.52,0,0,1-.1.7,5.08,5.08,0,0,1-.23.69,4.51,4.51,0,0,1-.33.62,3.91,3.91,0,0,1-.36.45Z"/><path class="cls-2" d="M485.46,74H487l-.16,3.31h-1.22Z"/><path class="cls-2" d="M494.2,85.47h-1.46V75.81l-3.17,2.43V76.62L493,74h1.22Z"/><path class="cls-2" d="M505,81.68a4.37,4.37,0,0,1-.28,1.62,3.44,3.44,0,0,1-2.06,2,4.63,4.63,0,0,1-1.66.28,6.69,6.69,0,0,1-1.78-.21,4.46,4.46,0,0,1-1.28-.6V83.25a5.41,5.41,0,0,0,1.26.76,4.44,4.44,0,0,0,1.8.31,2.33,2.33,0,0,0,1.83-.72,2.73,2.73,0,0,0,.65-1.89,2.12,2.12,0,0,0-2.26-2.4,2.42,2.42,0,0,0-1.14.23,2.56,2.56,0,0,0-.65.49h-1.17V74h6.21v1.36h-4.89v3.3a3.18,3.18,0,0,1,.78-.43,3.06,3.06,0,0,1,1.1-.18,4,4,0,0,1,1.39.23,3.05,3.05,0,0,1,1.13.69,3.11,3.11,0,0,1,.75,1.13A4.29,4.29,0,0,1,505,81.68Z"/><path class="cls-2" d="M507.08,74h1.53l-.16,3.31h-1.21Z"/><path class="cls-2" d="M510.73,87.18a2.5,2.5,0,0,0,.28-.38,4.25,4.25,0,0,0,.27-.46,3.25,3.25,0,0,0,.19-.44,2.72,2.72,0,0,0,.1-.38,1,1,0,0,1-.54-.34.91.91,0,0,1-.21-.6,1,1,0,0,1,.26-.7.94.94,0,0,1,.72-.28,1,1,0,0,1,.73.3,1.21,1.21,0,0,1,.28.82,3,3,0,0,1-.1.7,4,4,0,0,1-.24.69,4.51,4.51,0,0,1-.33.62,2.53,2.53,0,0,1-.36.45Z"/><path class="cls-2" d="M514.92,74h1.53l-.16,3.31h-1.21Z"/><path class="cls-2" d="M523.65,85.47H522.2V75.81L519,78.24V76.62L522.44,74h1.21Z"/><path class="cls-2" d="M530.93,85.63a3.35,3.35,0,0,1-1.51-.34,3.28,3.28,0,0,1-1.2-1.07,5.67,5.67,0,0,1-.79-1.84,10.84,10.84,0,0,1-.29-2.65,10.73,10.73,0,0,1,.29-2.65,5.52,5.52,0,0,1,.79-1.83,3.25,3.25,0,0,1,1.2-1.06,3.62,3.62,0,0,1,3,0,3.18,3.18,0,0,1,1.18,1,5.58,5.58,0,0,1,.78,1.82,11.12,11.12,0,0,1,.28,2.64,11.25,11.25,0,0,1-.28,2.64,6,6,0,0,1-.78,1.85,3.21,3.21,0,0,1-1.18,1.09A3.32,3.32,0,0,1,530.93,85.63Zm0-1.26a1.73,1.73,0,0,0,1.66-1,4.84,4.84,0,0,0,.44-1.43,13.24,13.24,0,0,0,.15-2.17,14.55,14.55,0,0,0-.14-2.16,4.93,4.93,0,0,0-.43-1.44,1.87,1.87,0,0,0-.71-.78,1.85,1.85,0,0,0-1-.24,2,2,0,0,0-1,.24,1.87,1.87,0,0,0-.71.78,4.61,4.61,0,0,0-.45,1.44,14.73,14.73,0,0,0,0,4.33,4.56,4.56,0,0,0,.44,1.43,1.84,1.84,0,0,0,.71.79A1.91,1.91,0,0,0,530.92,84.37Z"/><path class="cls-2" d="M536.53,74h1.54l-.16,3.31h-1.22Z"/><path class="cls-2" d="M544.24,87.7H539.8V86.5h3.08V74.58H539.8v-1.2h4.44Z"/><line class="cls-3" x1="180" y1="60" x2="372" y2="60"/><path class="cls-2" d="M180,62.19A2.19,2.19,0,1,1,182.19,60,2.19,2.19,0,0,1,180,62.19Z"/><polygon class="cls-2" points="371.01 63.39 376.87 60 371.01 56.61 371.01 63.39"/><path class="cls-2" d="M239.46,100.63a5.66,5.66,0,0,1-1.15-.1,5.59,5.59,0,0,1-.89-.26,3.68,3.68,0,0,1-.63-.32,4.79,4.79,0,0,1-.4-.29V98.39a3.06,3.06,0,0,0,.44.35,4.34,4.34,0,0,0,.65.34,5,5,0,0,0,.87.26,5.25,5.25,0,0,0,1.1.11,3,3,0,0,0,1.42-.29,1,1,0,0,0,.53-1,.92.92,0,0,0-.17-.59,1.16,1.16,0,0,0-.45-.36,3.1,3.1,0,0,0-.67-.21l-.79-.16-1-.25a3.53,3.53,0,0,1-.93-.4,2.21,2.21,0,0,1-.67-.69,2.12,2.12,0,0,1-.26-1.11,2.06,2.06,0,0,1,.88-1.76,4,4,0,0,1,2.44-.64,6.71,6.71,0,0,1,1.56.17,4.68,4.68,0,0,1,1,.39v1.26a4,4,0,0,0-1-.45,5.12,5.12,0,0,0-1.52-.19,3.27,3.27,0,0,0-1.45.26,1,1,0,0,0-.51.93.86.86,0,0,0,.15.53,1,1,0,0,0,.39.32,2.54,2.54,0,0,0,.57.19l.67.14,1.12.24a3.35,3.35,0,0,1,1,.4,2.1,2.1,0,0,1,.75.73,2.18,2.18,0,0,1,.3,1.22,2.32,2.32,0,0,1-.29,1.2,2.13,2.13,0,0,1-.76.76,3.26,3.26,0,0,1-1.07.4A6.26,6.26,0,0,1,239.46,100.63Z"/><path class="cls-2" d="M247.43,94.12V93h7.73v1.12Zm0,3V96h7.73v1.12Z"/><path class="cls-2" d="M260.44,89H262l-.16,3.31H260.6Z"/><path class="cls-2" d="M265.14,100.57a1,1,0,0,1-1-1,1,1,0,0,1,.29-.74,1.13,1.13,0,0,1,1.49,0,1,1,0,0,1,.29.74,1,1,0,0,1-.29.71A1,1,0,0,1,265.14,100.57Z"/><path class="cls-2" d="M268.28,89h1.54l-.16,3.31h-1.22Z"/><path class="cls-2" d="M273,100.57a1,1,0,0,1-1-1,1,1,0,0,1,.29-.74,1.13,1.13,0,0,1,1.49,0,1,1,0,0,1,.29.74,1,1,0,0,1-.29.71A1,1,0,0,1,273,100.57Z"/><path class="cls-2" d="M277.9,101.18a3.17,3.17,0,0,1-.13.88,1.91,1.91,0,0,1-.41.72,2,2,0,0,1-.71.5,2.67,2.67,0,0,1-1,.18,3.6,3.6,0,0,1-.7-.07,2.57,2.57,0,0,1-.75-.26v-1.35a2.24,2.24,0,0,0,.53.31,1.83,1.83,0,0,0,.68.13.95.95,0,0,0,1.11-1v-9h1.41ZM277.19,91a.89.89,0,0,1-.93-.91,1,1,0,0,1,.26-.66,1,1,0,0,1,1.34,0,1,1,0,0,1,.24.66.93.93,0,0,1-.24.65A.9.9,0,0,1,277.19,91Z"/><path class="cls-2" d="M283.59,100.63a4.15,4.15,0,0,1-1.58-.29,3.44,3.44,0,0,1-1.27-.84,3.69,3.69,0,0,1-.84-1.35,5.59,5.59,0,0,1,0-3.67,3.69,3.69,0,0,1,.84-1.35A3.55,3.55,0,0,1,282,92.3a4.5,4.5,0,0,1,3.18,0,3.55,3.55,0,0,1,1.27.83,3.84,3.84,0,0,1,.85,1.35,5.59,5.59,0,0,1,0,3.67,3.84,3.84,0,0,1-.85,1.35,3.44,3.44,0,0,1-1.27.84A4.18,4.18,0,0,1,283.59,100.63Zm0-1.25a2.86,2.86,0,0,0,1-.18,2.22,2.22,0,0,0,.83-.56,2.62,2.62,0,0,0,.54-1A5,5,0,0,0,286,95a2.62,2.62,0,0,0-.54-1,2.22,2.22,0,0,0-.83-.56,2.86,2.86,0,0,0-1-.18,2.8,2.8,0,0,0-1,.18,2.15,2.15,0,0,0-.81.56,2.62,2.62,0,0,0-.54,1,5,5,0,0,0,0,2.72,2.62,2.62,0,0,0,.54,1,2.15,2.15,0,0,0,.81.56A2.8,2.8,0,0,0,283.59,99.38Z"/><path class="cls-2" d="M290.06,91a.94.94,0,0,1-.69-.26.91.91,0,0,1-.26-.65,1,1,0,0,1,.26-.66.9.9,0,0,1,.69-.27.83.83,0,0,1,.65.27A1,1,0,0,1,291,90a.93.93,0,0,1-.24.65A.86.86,0,0,1,290.06,91Zm.68,1.22v8.3h-1.4v-8.3Z"/><path class="cls-2" d="M297,93.26a2.53,2.53,0,0,0-1.56.44,3.28,3.28,0,0,0-1,1.12v5.65H293v-8.3h1.33l.05,1.49h0a2.75,2.75,0,0,1,1.06-1.19,3.26,3.26,0,0,1,1.82-.46,2.81,2.81,0,0,1,2,.65,2.54,2.54,0,0,1,.73,2v5.82H298.6V94.79a1.45,1.45,0,0,0-.43-1.2A1.94,1.94,0,0,0,297,93.26Z"/><path class="cls-2" d="M308.34,102.7a9.33,9.33,0,0,1-1.85-3.26,12.13,12.13,0,0,1-.61-3.88,13.83,13.83,0,0,1,.15-2,12.19,12.19,0,0,1,.46-1.94,10.65,10.65,0,0,1,.77-1.75,7.34,7.34,0,0,1,1.08-1.47h1.39a6.17,6.17,0,0,0-1.12,1.44,9.77,9.77,0,0,0-.77,1.74,11,11,0,0,0-.46,1.94,15.09,15.09,0,0,0-.14,2,12.47,12.47,0,0,0,.6,3.89,9.31,9.31,0,0,0,1.89,3.3Z"/><path class="cls-2" d="M316.28,98.89a5.16,5.16,0,0,1-.37.6,3,3,0,0,1-.56.57,2.68,2.68,0,0,1-.79.41,3.17,3.17,0,0,1-1.07.16,2.55,2.55,0,0,1-1.8-.63,2.34,2.34,0,0,1-.69-1.82,2.26,2.26,0,0,1,.95-2,4.89,4.89,0,0,1,2.71-.64h1.55v-.68a1.56,1.56,0,0,0-.44-1.24,2.51,2.51,0,0,0-1.54-.36,4.43,4.43,0,0,0-1.46.24,8.27,8.27,0,0,0-1.23.57V92.81a6.77,6.77,0,0,1,1.21-.54,5.22,5.22,0,0,1,1.67-.26,3.74,3.74,0,0,1,2.39.65,2.41,2.41,0,0,1,.81,2v4.47c0,.09,0,.2,0,.33s0,.24,0,.37,0,.25,0,.36,0,.21,0,.28h-1.28q0-.23-.09-.63c0-.27,0-.51,0-.71Zm-2.48.49a2.19,2.19,0,0,0,1.12-.27,2.49,2.49,0,0,0,.75-.64,2.76,2.76,0,0,0,.42-.7,1.82,1.82,0,0,0,.12-.49v-.62h-1.4A3.45,3.45,0,0,0,313,97a1.19,1.19,0,0,0-.56,1.08,1.3,1.3,0,0,0,.33.92A1.4,1.4,0,0,0,313.8,99.38Z"/><path class="cls-2" d="M319.21,102.7a9.31,9.31,0,0,0,1.89-3.3,12.47,12.47,0,0,0,.6-3.89,15.09,15.09,0,0,0-.14-2,11,11,0,0,0-.46-1.94,10.54,10.54,0,0,0-.77-1.74,6.17,6.17,0,0,0-1.12-1.44h1.39a7.34,7.34,0,0,1,1.08,1.47,10.65,10.65,0,0,1,.77,1.75,12.19,12.19,0,0,1,.46,1.94,13.83,13.83,0,0,1,.15,2,12.13,12.13,0,0,1-.61,3.88,9.33,9.33,0,0,1-1.85,3.26Z"/><line class="cls-3" x1="380" y1="80" x2="188" y2="80"/><path class="cls-2" d="M380,77.81A2.19,2.19,0,1,1,377.81,80,2.19,2.19,0,0,1,380,77.81Z"/><polygon class="cls-2" points="188.99 76.61 183.13 80 188.99 83.39 188.99 76.61"/></g></svg>