<svg xmlns="http://www.w3.org/2000/svg" viewBox="0 0 680 280"><defs><style>.cls-1{fill:#333;}.cls-2{fill:#ffdb4d;stroke:#000;stroke-miterlimit:10;stroke-width:0.97px;}</style></defs><title>Mnogestva-02</title><g id="Layer_1" data-name="Layer 1"><path class="cls-1" d="M269.16,41a9.09,9.09,0,0,1-3.28-.58,7.36,7.36,0,0,1-2.64-1.7,8.16,8.16,0,0,1-1.76-2.77,10.42,10.42,0,0,1-.65-3.81,10.32,10.32,0,0,1,.65-3.8,7.93,7.93,0,0,1,1.76-2.76,7.18,7.18,0,0,1,2.64-1.68,9.78,9.78,0,0,1,6.58,0,7.24,7.24,0,0,1,2.65,1.67,7.72,7.72,0,0,1,1.77,2.74,10.64,10.64,0,0,1,.63,3.81,10.6,10.6,0,0,1-.63,3.79,8,8,0,0,1-1.77,2.78,7.36,7.36,0,0,1-2.65,1.72A9.16,9.16,0,0,1,269.16,41Zm0-2.5a6.51,6.51,0,0,0,2.1-.33,4.1,4.1,0,0,0,1.68-1.1,5.46,5.46,0,0,0,1.12-2,9.37,9.37,0,0,0,.4-2.94,9.22,9.22,0,0,0-.4-2.93,5.54,5.54,0,0,0-1.12-2,4.2,4.2,0,0,0-1.68-1.1,6.25,6.25,0,0,0-2.1-.35,6.15,6.15,0,0,0-2.09.35,4.31,4.31,0,0,0-1.67,1.1,5.38,5.38,0,0,0-1.11,2,9.2,9.2,0,0,0-.41,2.93,9.35,9.35,0,0,0,.41,2.94,5.3,5.3,0,0,0,1.11,2,4.2,4.2,0,0,0,1.67,1.1A6.4,6.4,0,0,0,269.16,38.45Z"/><path class="cls-1" d="M291.7,34.52a7.39,7.39,0,0,1-.48,2.76,5.79,5.79,0,0,1-1.31,2,5.37,5.37,0,0,1-2,1.24,7.06,7.06,0,0,1-2.46.42,6.39,6.39,0,0,1-2.47-.46,5.12,5.12,0,0,1-1.95-1.38,6.62,6.62,0,0,1-1.28-2.3,10.22,10.22,0,0,1-.47-3.25,29.66,29.66,0,0,1,.15-3.12,12.83,12.83,0,0,1,.49-2.55,7,7,0,0,1,.95-2,5.65,5.65,0,0,1,1.53-1.47,6.11,6.11,0,0,1,2.37-.89,21.69,21.69,0,0,1,2.58-.24,12.9,12.9,0,0,0,2.2-.25,5.44,5.44,0,0,0,1.28-.47v2.47a3.66,3.66,0,0,1-.56.28,4.27,4.27,0,0,1-.67.18l-.89.13-1.17.11-2.23.22a4.11,4.11,0,0,0-1.8.62,3.63,3.63,0,0,0-1.35,1.72,9.7,9.7,0,0,0-.57,2.69q1.2-2.72,4.63-2.71a5.39,5.39,0,0,1,2.1.42,5.1,5.1,0,0,1,1.74,1.21,5.73,5.73,0,0,1,1.17,1.95A7.38,7.38,0,0,1,291.7,34.52Zm-6.22,4.12a3.15,3.15,0,0,0,2.41-1,4.3,4.3,0,0,0,.95-3.06,4.32,4.32,0,0,0-.95-3.07,3.15,3.15,0,0,0-2.41-1,3.07,3.07,0,0,0-2.36,1,4.26,4.26,0,0,0-.93,3,4.38,4.38,0,0,0,.94,3.11A3.07,3.07,0,0,0,285.48,38.64Z"/><path class="cls-1" d="M292.87,28.25h6v4h2.07a6.27,6.27,0,0,1,3.8,1,3.64,3.64,0,0,1,1.36,3.12,4.39,4.39,0,0,1-.39,1.9,3.45,3.45,0,0,1-1.08,1.34,4.69,4.69,0,0,1-1.65.79,7.83,7.83,0,0,1-2.12.27h-4.8V30.51h-3.19Zm6,6.24v4h1.78a3.39,3.39,0,0,0,1.87-.46,1.72,1.72,0,0,0,.72-1.55,1.79,1.79,0,0,0-.65-1.55,3.16,3.16,0,0,0-1.87-.47Z"/><path class="cls-1" d="M318.84,39.8l-.65.37a5.71,5.71,0,0,1-.91.37,9,9,0,0,1-2.81.41,6.91,6.91,0,0,1-5.12-1.71,6.45,6.45,0,0,1-1.69-4.77,7.66,7.66,0,0,1,.45-2.71,5.89,5.89,0,0,1,1.27-2,5.58,5.58,0,0,1,1.95-1.27A6.58,6.58,0,0,1,313.8,28a6.49,6.49,0,0,1,2.51.46,4.39,4.39,0,0,1,1.83,1.37,5.22,5.22,0,0,1,1,2.25,9.19,9.19,0,0,1,0,3.15h-8.61a3.75,3.75,0,0,0,1.12,2.55,4.42,4.42,0,0,0,3,.85,7.14,7.14,0,0,0,2.49-.37,11.29,11.29,0,0,0,1.69-.78Zm-5-9.58a3,3,0,0,0-2.06.74,3.79,3.79,0,0,0-1.11,2.21h5.86a2.9,2.9,0,0,0-.67-2.23A2.74,2.74,0,0,0,313.8,30.22Z"/><path class="cls-1" d="M321.41,38.45a3.18,3.18,0,0,0,.87-1.32,10,10,0,0,0,.52-2.1c.13-.84.22-1.82.29-2.94s.12-2.4.17-3.84h9.12v10.2h1.87v5.81h-2.43l-.21-3.55H323l-.22,3.55h-2.45V38.45Zm8.18,0V30.51h-3.93c-.08,2-.22,3.59-.4,4.88a8.84,8.84,0,0,1-.9,3.06Z"/><path class="cls-1" d="M339.1,36.94l5.76-8.69h2.73V40.71h-2.76V32.07l-5.71,8.64h-2.78V28.25h2.76Z"/><path class="cls-1" d="M358.78,35.45h-5.26v5.26h-2.78V28.25h2.78v5h5.26v-5h2.78V40.71h-2.78Z"/><path class="cls-1" d="M375.1,39.8l-.65.37a6.13,6.13,0,0,1-.91.37,9.75,9.75,0,0,1-1.23.29,9.32,9.32,0,0,1-1.58.12,6.94,6.94,0,0,1-5.13-1.71,6.49,6.49,0,0,1-1.69-4.77,7.44,7.44,0,0,1,.46-2.71,5.75,5.75,0,0,1,1.27-2,5.45,5.45,0,0,1,1.94-1.27,6.67,6.67,0,0,1,2.48-.45,6.44,6.44,0,0,1,2.5.46,4.36,4.36,0,0,1,1.84,1.37,5.34,5.34,0,0,1,1,2.25,9.44,9.44,0,0,1,0,3.15h-8.62a3.76,3.76,0,0,0,1.13,2.55,4.42,4.42,0,0,0,3,.85,7.08,7.08,0,0,0,2.48-.37,11.44,11.44,0,0,0,1.7-.78Zm-5-9.58A3,3,0,0,0,368,31a3.72,3.72,0,0,0-1.1,2.21h5.85a2.87,2.87,0,0,0-.67-2.23A2.72,2.72,0,0,0,370.06,30.22Z"/><path class="cls-1" d="M386,35.45h-5.26v5.26H378V28.25h2.78v5H386v-5h2.78V40.71H386Z"/><path class="cls-1" d="M394.7,36.94l5.76-8.69h2.74V40.71h-2.76V32.07l-5.71,8.64h-2.79V28.25h2.76Z"/><path class="cls-1" d="M416.76,39.8l-.65.37a5.71,5.71,0,0,1-.91.37,9,9,0,0,1-2.81.41,6.91,6.91,0,0,1-5.12-1.71,6.45,6.45,0,0,1-1.69-4.77,7.66,7.66,0,0,1,.45-2.71,5.75,5.75,0,0,1,1.27-2,5.58,5.58,0,0,1,1.95-1.27,6.58,6.58,0,0,1,2.47-.45,6.49,6.49,0,0,1,2.51.46,4.39,4.39,0,0,1,1.83,1.37,5.22,5.22,0,0,1,1,2.25,9.19,9.19,0,0,1,0,3.15h-8.61a3.75,3.75,0,0,0,1.12,2.55,4.42,4.42,0,0,0,3,.85,7.14,7.14,0,0,0,2.49-.37,11.78,11.78,0,0,0,1.69-.78Zm-5-9.58a3,3,0,0,0-2.06.74,3.73,3.73,0,0,0-1.11,2.21h5.86a2.94,2.94,0,0,0-.67-2.23A2.76,2.76,0,0,0,411.72,30.22Z"/><path class="cls-1" d="M252.66,248h-1.41v-8.3h1.23l.15,1.49h0a2.94,2.94,0,0,1,1-1.18,3,3,0,0,1,1.75-.47A2.62,2.62,0,0,1,257,240a2.22,2.22,0,0,1,.82,1.37A3,3,0,0,1,258.9,240a3.09,3.09,0,0,1,1.77-.49,2.5,2.5,0,0,1,1.83.65,2.67,2.67,0,0,1,.67,2V248h-1.42v-5.65a1.56,1.56,0,0,0-.41-1.19,1.51,1.51,0,0,0-1.08-.37,2.28,2.28,0,0,0-.82.13,2.07,2.07,0,0,0-.62.38,2.7,2.7,0,0,0-.5.56,7.57,7.57,0,0,0-.42.67V248h-1.4v-5.81a1.32,1.32,0,0,0-.4-1.1,1.78,1.78,0,0,0-1.09-.3,2.46,2.46,0,0,0-.8.11,1.87,1.87,0,0,0-.63.32,2.41,2.41,0,0,0-.51.5,6,6,0,0,0-.41.65Z"/><path class="cls-1" d="M268.85,249.2a4.54,4.54,0,0,1-.72,1,2.63,2.63,0,0,1-.9.6,2.88,2.88,0,0,1-1.13.2,3.78,3.78,0,0,1-.6,0,1.86,1.86,0,0,1-.49-.13v-1.35a1.33,1.33,0,0,0,.45.2,2.16,2.16,0,0,0,.59.08,1.57,1.57,0,0,0,1-.29,2.78,2.78,0,0,0,.74-.9l-3.38-8.86h1.56l2.64,7,2.62-7h1.36l-3.1,8.21A11.84,11.84,0,0,1,268.85,249.2Z"/><path class="cls-1" d="M272.56,248.61h6.56v1.2h-6.56Z"/><path class="cls-1" d="M282.77,248.13a5.76,5.76,0,0,1-1.16-.1,5.16,5.16,0,0,1-.88-.26,3.68,3.68,0,0,1-.63-.32,3.54,3.54,0,0,1-.4-.29v-1.27a2.91,2.91,0,0,0,.43.35,4,4,0,0,0,.66.34,4.49,4.49,0,0,0,.87.26,5.15,5.15,0,0,0,1.09.11,3,3,0,0,0,1.43-.29,1,1,0,0,0,.53-1,1,1,0,0,0-.17-.59,1.27,1.27,0,0,0-.46-.36,2.84,2.84,0,0,0-.66-.21l-.79-.16-1.05-.25a3.33,3.33,0,0,1-.92-.4A2.1,2.1,0,0,1,280,243a2,2,0,0,1-.26-1.11,2.05,2.05,0,0,1,.87-1.76,4,4,0,0,1,2.44-.64,6.59,6.59,0,0,1,1.56.17,4.68,4.68,0,0,1,1,.39v1.26a3.94,3.94,0,0,0-1-.45,5.15,5.15,0,0,0-1.53-.19,3.3,3.3,0,0,0-1.45.26.94.94,0,0,0-.5.93.85.85,0,0,0,.14.53,1.12,1.12,0,0,0,.39.32,2.93,2.93,0,0,0,.57.19l.67.14,1.12.24a3.26,3.26,0,0,1,1,.4,2.21,2.21,0,0,1,.76.73,2.27,2.27,0,0,1,.29,1.22,2.32,2.32,0,0,1-.28,1.2,2.24,2.24,0,0,1-.77.76,3.26,3.26,0,0,1-1.07.4A6.23,6.23,0,0,1,282.77,248.13Z"/><path class="cls-1" d="M294.45,247.27a3.22,3.22,0,0,1-.43.27,3.79,3.79,0,0,1-.63.28,4.34,4.34,0,0,1-.83.22,5.52,5.52,0,0,1-1,.09,4.21,4.21,0,0,1-3.18-1.13,4.41,4.41,0,0,1-1.09-3.19,5.41,5.41,0,0,1,.29-1.81,4,4,0,0,1,.83-1.35,3.6,3.6,0,0,1,1.25-.85,4.2,4.2,0,0,1,1.56-.29,4,4,0,0,1,1.6.3,2.79,2.79,0,0,1,1.16.9,3.3,3.3,0,0,1,.63,1.46,6,6,0,0,1,0,2H288.7a2.91,2.91,0,0,0,.8,2,3.09,3.09,0,0,0,2.15.66,4.53,4.53,0,0,0,1.65-.27,5.59,5.59,0,0,0,1.15-.6Zm-3.3-6.51a2.31,2.31,0,0,0-1.57.56,2.69,2.69,0,0,0-.83,1.69h4.47a2.07,2.07,0,0,0-.53-1.7A2.17,2.17,0,0,0,291.15,240.76Z"/><path class="cls-1" d="M299.73,248a3.89,3.89,0,0,1-.85.09,2.81,2.81,0,0,1-1-.17,2,2,0,0,1-.7-.48,1.74,1.74,0,0,1-.39-.67,2.53,2.53,0,0,1-.12-.77v-5.17h-1v-1.2h1v-1.75h1.41v1.75h2.41v1.2h-2.41v5a1,1,0,0,0,.26.77,1.42,1.42,0,0,0,.94.24,1.91,1.91,0,0,0,1.13-.35v1.27A3.19,3.19,0,0,1,299.73,248Z"/><path class="cls-1" d="M307.06,248H305.6v-9.66l-3.17,2.43v-1.62l3.41-2.62h1.22Z"/><path class="cls-1" d="M372.16,248h-1.41v-8.3H372l.15,1.49h0a2.94,2.94,0,0,1,1-1.18,3,3,0,0,1,1.75-.47,2.62,2.62,0,0,1,1.58.45,2.22,2.22,0,0,1,.82,1.37A3,3,0,0,1,378.4,240a3.09,3.09,0,0,1,1.77-.49,2.5,2.5,0,0,1,1.83.65,2.67,2.67,0,0,1,.67,2V248h-1.42v-5.65a1.56,1.56,0,0,0-.41-1.19,1.51,1.51,0,0,0-1.08-.37,2.28,2.28,0,0,0-.82.13,2.07,2.07,0,0,0-.62.38,2.7,2.7,0,0,0-.5.56,7.57,7.57,0,0,0-.42.67V248H376v-5.81a1.32,1.32,0,0,0-.4-1.1,1.78,1.78,0,0,0-1.09-.3,2.46,2.46,0,0,0-.8.11,1.87,1.87,0,0,0-.63.32,2.41,2.41,0,0,0-.51.5,6,6,0,0,0-.41.65Z"/><path class="cls-1" d="M388.35,249.2a4.54,4.54,0,0,1-.72,1,2.63,2.63,0,0,1-.9.6,2.88,2.88,0,0,1-1.13.2,3.78,3.78,0,0,1-.6,0,1.86,1.86,0,0,1-.49-.13v-1.35a1.33,1.33,0,0,0,.45.2,2.16,2.16,0,0,0,.59.08,1.57,1.57,0,0,0,1-.29,2.78,2.78,0,0,0,.74-.9l-3.38-8.86h1.56l2.64,7,2.62-7h1.36l-3.1,8.21A11.84,11.84,0,0,1,388.35,249.2Z"/><path class="cls-1" d="M392.06,248.61h6.56v1.2h-6.56Z"/><path class="cls-1" d="M402.27,248.13a5.76,5.76,0,0,1-1.16-.1,5.16,5.16,0,0,1-.88-.26,3.68,3.68,0,0,1-.63-.32,3.54,3.54,0,0,1-.4-.29v-1.27a2.91,2.91,0,0,0,.43.35,4,4,0,0,0,.66.34,4.49,4.49,0,0,0,.87.26,5.15,5.15,0,0,0,1.09.11,3,3,0,0,0,1.43-.29,1,1,0,0,0,.53-1,1,1,0,0,0-.17-.59,1.27,1.27,0,0,0-.46-.36,2.84,2.84,0,0,0-.66-.21l-.79-.16-1.05-.25a3.33,3.33,0,0,1-.92-.4,2.1,2.1,0,0,1-.67-.69,2,2,0,0,1-.26-1.11,2.05,2.05,0,0,1,.87-1.76,4,4,0,0,1,2.44-.64,6.59,6.59,0,0,1,1.56.17,4.68,4.68,0,0,1,1,.39v1.26a3.94,3.94,0,0,0-1-.45,5.15,5.15,0,0,0-1.53-.19,3.3,3.3,0,0,0-1.45.26.94.94,0,0,0-.5.93.85.85,0,0,0,.14.53,1.12,1.12,0,0,0,.39.32,2.93,2.93,0,0,0,.57.19l.67.14,1.12.24a3.26,3.26,0,0,1,1,.4,2.21,2.21,0,0,1,.76.73,2.27,2.27,0,0,1,.29,1.22,2.32,2.32,0,0,1-.28,1.2,2.24,2.24,0,0,1-.77.76,3.26,3.26,0,0,1-1.07.4A6.23,6.23,0,0,1,402.27,248.13Z"/><path class="cls-1" d="M414,247.27a3.22,3.22,0,0,1-.43.27,3.79,3.79,0,0,1-.63.28,4.34,4.34,0,0,1-.83.22,5.52,5.52,0,0,1-1,.09,4.21,4.21,0,0,1-3.18-1.13,4.41,4.41,0,0,1-1.09-3.19A5.41,5.41,0,0,1,407,242a4,4,0,0,1,.83-1.35,3.6,3.6,0,0,1,1.25-.85,4.2,4.2,0,0,1,1.56-.29,4,4,0,0,1,1.6.3,2.79,2.79,0,0,1,1.16.9,3.3,3.3,0,0,1,.63,1.46,6,6,0,0,1,0,2H408.2a2.91,2.91,0,0,0,.8,2,3.09,3.09,0,0,0,2.15.66,4.53,4.53,0,0,0,1.65-.27A5.59,5.59,0,0,0,414,246Zm-3.3-6.51a2.31,2.31,0,0,0-1.57.56,2.69,2.69,0,0,0-.83,1.69h4.47a2.07,2.07,0,0,0-.53-1.7A2.17,2.17,0,0,0,410.65,240.76Z"/><path class="cls-1" d="M419.23,248a3.89,3.89,0,0,1-.85.09,2.81,2.81,0,0,1-1-.17,2,2,0,0,1-.7-.48,1.74,1.74,0,0,1-.39-.67,2.53,2.53,0,0,1-.12-.77v-5.17h-1v-1.2h1v-1.75h1.41v1.75H420v1.2h-2.41v5a1,1,0,0,0,.26.77,1.42,1.42,0,0,0,.94.24,1.91,1.91,0,0,0,1.13-.35v1.27A3.19,3.19,0,0,1,419.23,248Z"/><path class="cls-1" d="M428.7,248h-7.31v-1.5c1-.78,1.81-1.48,2.52-2.09a18,18,0,0,0,1.75-1.68,6.12,6.12,0,0,0,1-1.47,3.19,3.19,0,0,0,.34-1.45,2.1,2.1,0,0,0-.57-1.53,2.2,2.2,0,0,0-1.65-.58,3.35,3.35,0,0,0-1.7.45,5.61,5.61,0,0,0-1.41,1.13v-1.61a5,5,0,0,1,1.38-.95,4.27,4.27,0,0,1,1.77-.35,4.94,4.94,0,0,1,1.6.24,3.22,3.22,0,0,1,1.16.67,2.78,2.78,0,0,1,.72,1,3.49,3.49,0,0,1,.25,1.35,4.32,4.32,0,0,1-.36,1.75,6.56,6.56,0,0,1-1.06,1.63,14.86,14.86,0,0,1-1.74,1.69c-.69.58-1.47,1.22-2.36,1.9h5.65Z"/><path class="cls-2" d="M362.5,140.84a80.69,80.69,0,0,1-22.5,56,80.91,80.91,0,0,1,0-112A80.67,80.67,0,0,1,362.5,140.84ZM340,85a81,81,0,1,0,0,112,80.91,80.91,0,0,1,0-112Zm58.5-25A80.75,80.75,0,0,0,340,85a80.91,80.91,0,0,1,0,112A81,81,0,1,0,398.5,60Z"/></g></svg>