<svg xmlns="http://www.w3.org/2000/svg" viewBox="0 0 680 280"><defs><style>.cls-1{fill:#333;}.cls-2{fill:#ffdb4d;stroke:#000;stroke-miterlimit:10;stroke-width:0.97px;}</style></defs><title>Mnogestva-01</title><g id="Layer_1" data-name="Layer 1"><path class="cls-1" d="M208.2,41a10.22,10.22,0,0,1-3.6-.6,7.39,7.39,0,0,1-4.5-4.53,10.48,10.48,0,0,1-.61-3.7,10.92,10.92,0,0,1,.59-3.72,7.6,7.6,0,0,1,1.7-2.78,7.35,7.35,0,0,1,2.73-1.74,10.42,10.42,0,0,1,3.67-.6,11.58,11.58,0,0,1,3,.35,7.74,7.74,0,0,1,2,.81V27A7.58,7.58,0,0,0,211,26.1a11.47,11.47,0,0,0-2.7-.32,5.46,5.46,0,0,0-4.3,1.57,7,7,0,0,0-1.41,4.77q0,6.33,5.86,6.33a9.81,9.81,0,0,0,2.58-.33,7.11,7.11,0,0,0,2.22-1.06v2.57a6.85,6.85,0,0,1-1.95.91A10.14,10.14,0,0,1,208.2,41Z"/><path class="cls-1" d="M218.88,36.94l5.76-8.69h2.74V40.71h-2.76V32.07l-5.71,8.64h-2.79V28.25h2.76Z"/><path class="cls-1" d="M242.21,31.68l-3.67,7.83h-2L233,31.61v9.1h-2.52V28.25h3.82L237.75,36l3.59-7.73H245V40.71h-2.78Z"/><path class="cls-1" d="M259.8,31.68l-3.67,7.83h-2l-3.46-7.9v9.1h-2.52V28.25h3.82L255.34,36l3.6-7.73h3.64V40.71H259.8Z"/><path class="cls-1" d="M276.12,39.8l-.65.37a5.71,5.71,0,0,1-.91.37,9,9,0,0,1-2.81.41,6.91,6.91,0,0,1-5.12-1.71,6.45,6.45,0,0,1-1.69-4.77,7.66,7.66,0,0,1,.45-2.71,5.89,5.89,0,0,1,1.27-2,5.58,5.58,0,0,1,1.95-1.27,6.58,6.58,0,0,1,2.47-.45,6.49,6.49,0,0,1,2.51.46,4.39,4.39,0,0,1,1.83,1.37,5.22,5.22,0,0,1,1,2.25,9.19,9.19,0,0,1,0,3.15h-8.61a3.75,3.75,0,0,0,1.12,2.55,4.42,4.42,0,0,0,3,.85,7.14,7.14,0,0,0,2.49-.37,11.29,11.29,0,0,0,1.69-.78Zm-5-9.58A3,3,0,0,0,269,31a3.79,3.79,0,0,0-1.11,2.21h5.86a2.9,2.9,0,0,0-.67-2.23A2.74,2.74,0,0,0,271.08,30.22Z"/><path class="cls-1" d="M284.42,30.51v10.2h-2.78V30.51h-3.77V28.25h10.39v2.26Z"/><path class="cls-1" d="M297.24,41a4.48,4.48,0,0,1-2.44-.64,4.81,4.81,0,0,1-1.64-1.71V45h-2.78V28.25h2.54l.19,2.21a4.94,4.94,0,0,1,1.66-1.79,4.59,4.59,0,0,1,2.52-.66,5.56,5.56,0,0,1,2.1.4,4.69,4.69,0,0,1,1.74,1.2,6.09,6.09,0,0,1,1.19,2,9.51,9.51,0,0,1,0,5.72,5.94,5.94,0,0,1-1.2,2,4.8,4.8,0,0,1-1.77,1.2A5.58,5.58,0,0,1,297.24,41Zm-.67-2.31a3.11,3.11,0,0,0,2.41-1,4.55,4.55,0,0,0,.92-3.14,4.55,4.55,0,0,0-.92-3.13,3.05,3.05,0,0,0-2.39-1,3.63,3.63,0,0,0-1.37.25,3,3,0,0,0-1.09.78,3.85,3.85,0,0,0-.73,1.31,6.57,6.57,0,0,0,0,3.66,3.86,3.86,0,0,0,.72,1.3,2.79,2.79,0,0,0,1.09.77A3.65,3.65,0,0,0,296.57,38.64Z"/><path class="cls-1" d="M307.87,36.94l5.76-8.69h2.74V40.71h-2.76V32.07l-5.71,8.64h-2.79V28.25h2.76Z"/><path class="cls-1" d="M329.71,40.71h-2.78V35.52a4.8,4.8,0,0,1-1.47.72,6.27,6.27,0,0,1-1.92.27,4.38,4.38,0,0,1-3.24-1.14,4.76,4.76,0,0,1-1.12-3.47V28.25H322V31.8a2.51,2.51,0,0,0,.58,1.88,2.49,2.49,0,0,0,1.73.52,4.69,4.69,0,0,0,1.4-.2,4.1,4.1,0,0,0,1.24-.61V28.25h2.78Z"/><path class="cls-1" d="M340.85,35.45h-5.26v5.26h-2.78V28.25h2.78v5h5.26v-5h2.78V40.71h-2.78Z"/><path class="cls-1" d="M353.93,38.52a4.44,4.44,0,0,1-.52.87,3.66,3.66,0,0,1-.79.78,3.79,3.79,0,0,1-1.12.56A4.58,4.58,0,0,1,350,41a4.88,4.88,0,0,1-1.51-.23,3.42,3.42,0,0,1-1.21-.68,3.27,3.27,0,0,1-.82-1.14,3.91,3.91,0,0,1-.3-1.58,3.46,3.46,0,0,1,1.51-3.06,7.63,7.63,0,0,1,4.28-1h1.89v-.76a2,2,0,0,0-.62-1.7,3.56,3.56,0,0,0-2.07-.46,7.42,7.42,0,0,0-2.29.34,10.62,10.62,0,0,0-1.88.81V29.14a10,10,0,0,1,2-.77A9.35,9.35,0,0,1,351.6,28a6,6,0,0,1,3.71,1,3.74,3.74,0,0,1,1.31,3.18v6.5c0,.15,0,.31,0,.49s0,.38,0,.57,0,.37,0,.54a3.47,3.47,0,0,0,.05.42h-2.57a8.89,8.89,0,0,1-.13-.94q-.06-.6-.09-1.08Zm-3.17.27a2.82,2.82,0,0,0,1.48-.37,3.43,3.43,0,0,0,.94-.87,3.37,3.37,0,0,0,.51-1,3,3,0,0,0,.14-.67v-.84H352.1a4.47,4.47,0,0,0-2.42.51,1.67,1.67,0,0,0-.77,1.46,1.74,1.74,0,0,0,.47,1.28A1.87,1.87,0,0,0,350.76,38.79Z"/><path class="cls-1" d="M359.47,32.33a3.85,3.85,0,0,1,.39-1.77,3.59,3.59,0,0,1,1.06-1.29,4.8,4.8,0,0,1,1.66-.77,8.94,8.94,0,0,1,2.15-.25h4.63V40.71h-2.78V36.48H364.8l-2.95,4.23h-3.12l3.43-4.83a3.87,3.87,0,0,1-2-1.24A3.56,3.56,0,0,1,359.47,32.33Zm7.11,2V30.46h-1.64a3.66,3.66,0,0,0-1.88.43,1.54,1.54,0,0,0-.73,1.44,1.68,1.68,0,0,0,.66,1.49,3.32,3.32,0,0,0,1.88.46Z"/><path class="cls-1" d="M384.62,41a4.45,4.45,0,0,1-2.43-.64,4.83,4.83,0,0,1-1.65-1.71V45h-2.78V28.25h2.54l.2,2.21a4.83,4.83,0,0,1,1.65-1.79,4.59,4.59,0,0,1,2.52-.66,5.49,5.49,0,0,1,2.1.4,4.54,4.54,0,0,1,1.74,1.2,5.92,5.92,0,0,1,1.19,2,8.21,8.21,0,0,1,.44,2.85,8.29,8.29,0,0,1-.44,2.87,5.94,5.94,0,0,1-1.2,2,4.69,4.69,0,0,1-1.76,1.2A5.66,5.66,0,0,1,384.62,41ZM384,38.64a3.09,3.09,0,0,0,2.41-1,4.55,4.55,0,0,0,.93-3.14,4.56,4.56,0,0,0-.93-3.13,3,3,0,0,0-2.38-1,3.56,3.56,0,0,0-1.37.25,2.89,2.89,0,0,0-1.09.78,3.7,3.7,0,0,0-.74,1.31,6.57,6.57,0,0,0,0,3.66,3.86,3.86,0,0,0,.72,1.3,2.82,2.82,0,0,0,1.1.77A3.56,3.56,0,0,0,384,38.64Z"/><path class="cls-1" d="M399.55,38.52a4.92,4.92,0,0,1-.51.87,3.71,3.71,0,0,1-.8.78,3.85,3.85,0,0,1-1.11.56,4.62,4.62,0,0,1-1.51.22,4.94,4.94,0,0,1-1.52-.23,3.51,3.51,0,0,1-1.21-.68,3.37,3.37,0,0,1-.81-1.14,3.91,3.91,0,0,1-.3-1.58,3.44,3.44,0,0,1,1.51-3.06,7.59,7.59,0,0,1,4.27-1h1.9v-.76a2,2,0,0,0-.63-1.7,3.5,3.5,0,0,0-2.06-.46,7.37,7.37,0,0,0-2.29.34,10.73,10.73,0,0,0-1.89.81V29.14a10.25,10.25,0,0,1,2-.77,9.4,9.4,0,0,1,2.66-.36,6,6,0,0,1,3.71,1,3.74,3.74,0,0,1,1.31,3.18v6.5c0,.15,0,.31,0,.49l0,.57c0,.19,0,.37,0,.54s0,.31.05.42h-2.57a8.89,8.89,0,0,1-.13-.94c0-.4-.07-.76-.08-1.08Zm-3.17.27a2.77,2.77,0,0,0,1.48-.37,3.48,3.48,0,0,0,.95-.87,3.1,3.1,0,0,0,.5-1,2.67,2.67,0,0,0,.15-.67v-.84h-1.73a4.51,4.51,0,0,0-2.43.51,1.66,1.66,0,0,0-.76,1.46,1.73,1.73,0,0,0,.46,1.28A1.91,1.91,0,0,0,396.38,38.79Z"/><path class="cls-1" d="M414.41,37.13a3.38,3.38,0,0,1-.42,1.73,3.44,3.44,0,0,1-1.15,1.19,5.2,5.2,0,0,1-1.72.68A9.31,9.31,0,0,1,409,41a8.5,8.5,0,0,1-2.59-.33,7,7,0,0,1-1.56-.66V37.68a6.08,6.08,0,0,0,1.74.74,9.06,9.06,0,0,0,2.27.27,4.54,4.54,0,0,0,2-.38,1.36,1.36,0,0,0,.74-1.3,1.28,1.28,0,0,0-.67-1.23,4.47,4.47,0,0,0-2.09-.38h-1.75V33.29h1.8a3.35,3.35,0,0,0,1.74-.38,1.27,1.27,0,0,0,.61-1.15,1.19,1.19,0,0,0-.68-1.17,4.28,4.28,0,0,0-1.77-.32,7.61,7.61,0,0,0-2.11.27,6.63,6.63,0,0,0-1.66.74V29a6.26,6.26,0,0,1,1.64-.69,9.16,9.16,0,0,1,2.54-.3,6.07,6.07,0,0,1,3.5.84A2.81,2.81,0,0,1,414,31.3a2.6,2.6,0,0,1-.67,1.91,4,4,0,0,1-2,1Q414.42,34.68,414.41,37.13Z"/><path class="cls-1" d="M425.16,35.45H419.9v5.26h-2.78V28.25h2.78v5h5.26v-5h2.78V40.71h-2.78Z"/><path class="cls-1" d="M436.46,41a6.91,6.91,0,0,1-2.44-.43,5.51,5.51,0,0,1-2-1.26,6.05,6.05,0,0,1-1.3-2,8.51,8.51,0,0,1,0-5.52,6,6,0,0,1,1.3-2,5.35,5.35,0,0,1,2-1.25,7.33,7.33,0,0,1,4.89,0,5.56,5.56,0,0,1,2,1.25,5.85,5.85,0,0,1,1.32,2,8.17,8.17,0,0,1,0,5.52,6,6,0,0,1-1.32,2,5.73,5.73,0,0,1-2,1.26A7,7,0,0,1,436.46,41Zm0-2.31a3.11,3.11,0,0,0,2.39-1,4.48,4.48,0,0,0,.95-3.15,4.5,4.5,0,0,0-.95-3.14,3.12,3.12,0,0,0-2.39-1,3.09,3.09,0,0,0-2.36,1,4.5,4.5,0,0,0-1,3.14,4.48,4.48,0,0,0,1,3.15A3.08,3.08,0,0,0,436.46,38.64Z"/><path class="cls-1" d="M450.74,41A7.7,7.7,0,0,1,448,40.5a5.6,5.6,0,0,1-2-1.27,5.52,5.52,0,0,1-1.29-2,8.27,8.27,0,0,1,0-5.44,5.36,5.36,0,0,1,3.36-3.3,7.82,7.82,0,0,1,2.73-.45,8.08,8.08,0,0,1,2.27.29,4.87,4.87,0,0,1,1.55.72v2.3a6.61,6.61,0,0,0-1.62-.74,7,7,0,0,0-2-.26c-2.58,0-3.86,1.38-3.86,4.16s1.26,4.16,3.79,4.16a7.24,7.24,0,0,0,2.1-.27,8.45,8.45,0,0,0,1.62-.71V40a6.68,6.68,0,0,1-1.56.7A7.66,7.66,0,0,1,450.74,41Z"/><path class="cls-1" d="M462.74,30.51v10.2H460V30.51h-3.77V28.25h10.39v2.26Z"/><path class="cls-1" d="M478.73,36.41a4.39,4.39,0,0,1-.4,1.9,3.67,3.67,0,0,1-1.09,1.34,4.82,4.82,0,0,1-1.66.79,7.76,7.76,0,0,1-2.11.27h-4.8V28.25h2.79v4h2.08a6.35,6.35,0,0,1,3.82,1A3.62,3.62,0,0,1,478.73,36.41Zm-7.27-1.92v4h1.79a3.42,3.42,0,0,0,1.88-.46,1.72,1.72,0,0,0,.72-1.55A1.79,1.79,0,0,0,475.2,35a3.19,3.19,0,0,0-1.87-.47Z"/><path class="cls-2" d="M339.5,86a80,80,0,1,0,0,106.92A80,80,0,0,1,339.5,86Z"/><path class="cls-2" d="M399,59.5A79.77,79.77,0,0,0,339.5,86a80,80,0,0,1,0,106.92A80,80,0,1,0,399,59.5Z"/><path class="cls-1" d="M252.16,248h-1.41v-8.3H252l.15,1.49h0a2.94,2.94,0,0,1,1-1.18,3,3,0,0,1,1.75-.47,2.62,2.62,0,0,1,1.58.45,2.22,2.22,0,0,1,.82,1.37A3,3,0,0,1,258.4,240a3.09,3.09,0,0,1,1.77-.49,2.5,2.5,0,0,1,1.83.65,2.67,2.67,0,0,1,.67,2V248h-1.42v-5.65a1.56,1.56,0,0,0-.41-1.19,1.51,1.51,0,0,0-1.08-.37,2.28,2.28,0,0,0-.82.13,2.07,2.07,0,0,0-.62.38,2.7,2.7,0,0,0-.5.56,7.57,7.57,0,0,0-.42.67V248H256v-5.81a1.32,1.32,0,0,0-.4-1.1,1.78,1.78,0,0,0-1.09-.3,2.46,2.46,0,0,0-.8.11,1.87,1.87,0,0,0-.63.32,2.41,2.41,0,0,0-.51.5,6,6,0,0,0-.41.65Z"/><path class="cls-1" d="M268.35,249.2a4.54,4.54,0,0,1-.72,1,2.63,2.63,0,0,1-.9.6,2.88,2.88,0,0,1-1.13.2,3.78,3.78,0,0,1-.6,0,1.86,1.86,0,0,1-.49-.13v-1.35a1.33,1.33,0,0,0,.45.2,2.16,2.16,0,0,0,.59.08,1.57,1.57,0,0,0,1-.29,2.78,2.78,0,0,0,.74-.9l-3.38-8.86h1.56l2.64,7,2.62-7h1.36l-3.1,8.21A11.84,11.84,0,0,1,268.35,249.2Z"/><path class="cls-1" d="M272.06,248.61h6.56v1.2h-6.56Z"/><path class="cls-1" d="M282.27,248.13a5.76,5.76,0,0,1-1.16-.1,5.16,5.16,0,0,1-.88-.26,3.68,3.68,0,0,1-.63-.32,3.54,3.54,0,0,1-.4-.29v-1.27a2.91,2.91,0,0,0,.43.35,4,4,0,0,0,.66.34,4.49,4.49,0,0,0,.87.26,5.15,5.15,0,0,0,1.09.11,3,3,0,0,0,1.43-.29,1,1,0,0,0,.53-1,1,1,0,0,0-.17-.59,1.27,1.27,0,0,0-.46-.36,2.84,2.84,0,0,0-.66-.21l-.79-.16-1.05-.25a3.33,3.33,0,0,1-.92-.4,2.1,2.1,0,0,1-.67-.69,2,2,0,0,1-.26-1.11,2.05,2.05,0,0,1,.87-1.76,4,4,0,0,1,2.44-.64,6.59,6.59,0,0,1,1.56.17,4.68,4.68,0,0,1,1,.39v1.26a3.94,3.94,0,0,0-1-.45,5.15,5.15,0,0,0-1.53-.19,3.3,3.3,0,0,0-1.45.26.94.94,0,0,0-.5.93.85.85,0,0,0,.14.53,1.12,1.12,0,0,0,.39.32,2.93,2.93,0,0,0,.57.19l.67.14,1.12.24a3.26,3.26,0,0,1,1,.4,2.21,2.21,0,0,1,.76.73,2.27,2.27,0,0,1,.29,1.22,2.32,2.32,0,0,1-.28,1.2,2.24,2.24,0,0,1-.77.76,3.26,3.26,0,0,1-1.07.4A6.23,6.23,0,0,1,282.27,248.13Z"/><path class="cls-1" d="M294,247.27a3.22,3.22,0,0,1-.43.27,3.79,3.79,0,0,1-.63.28,4.34,4.34,0,0,1-.83.22,5.52,5.52,0,0,1-1,.09,4.21,4.21,0,0,1-3.18-1.13,4.41,4.41,0,0,1-1.09-3.19A5.41,5.41,0,0,1,287,242a4,4,0,0,1,.83-1.35,3.6,3.6,0,0,1,1.25-.85,4.2,4.2,0,0,1,1.56-.29,4,4,0,0,1,1.6.3,2.79,2.79,0,0,1,1.16.9,3.3,3.3,0,0,1,.63,1.46,6,6,0,0,1,0,2H288.2a2.91,2.91,0,0,0,.8,2,3.09,3.09,0,0,0,2.15.66,4.53,4.53,0,0,0,1.65-.27A5.59,5.59,0,0,0,294,246Zm-3.3-6.51a2.31,2.31,0,0,0-1.57.56,2.69,2.69,0,0,0-.83,1.69h4.47a2.07,2.07,0,0,0-.53-1.7A2.17,2.17,0,0,0,290.65,240.76Z"/><path class="cls-1" d="M299.23,248a3.89,3.89,0,0,1-.85.09,2.81,2.81,0,0,1-1-.17,2,2,0,0,1-.7-.48,1.74,1.74,0,0,1-.39-.67,2.53,2.53,0,0,1-.12-.77v-5.17h-1v-1.2h1v-1.75h1.41v1.75H300v1.2h-2.41v5a1,1,0,0,0,.26.77,1.42,1.42,0,0,0,.94.24,1.91,1.91,0,0,0,1.13-.35v1.27A3.19,3.19,0,0,1,299.23,248Z"/><path class="cls-1" d="M306.56,248H305.1v-9.66l-3.17,2.43v-1.62l3.41-2.62h1.22Z"/><path class="cls-1" d="M372.66,248h-1.41v-8.3h1.23l.15,1.49h0a2.94,2.94,0,0,1,1-1.18,3,3,0,0,1,1.75-.47A2.62,2.62,0,0,1,377,240a2.22,2.22,0,0,1,.82,1.37A3,3,0,0,1,378.9,240a3.09,3.09,0,0,1,1.77-.49,2.5,2.5,0,0,1,1.83.65,2.67,2.67,0,0,1,.67,2V248h-1.42v-5.65a1.56,1.56,0,0,0-.41-1.19,1.51,1.51,0,0,0-1.08-.37,2.28,2.28,0,0,0-.82.13,2.07,2.07,0,0,0-.62.38,2.7,2.7,0,0,0-.5.56,7.57,7.57,0,0,0-.42.67V248h-1.4v-5.81a1.32,1.32,0,0,0-.4-1.1,1.78,1.78,0,0,0-1.09-.3,2.46,2.46,0,0,0-.8.11,1.87,1.87,0,0,0-.63.32,2.41,2.41,0,0,0-.51.5,6,6,0,0,0-.41.65Z"/><path class="cls-1" d="M388.85,249.2a4.54,4.54,0,0,1-.72,1,2.63,2.63,0,0,1-.9.6,2.88,2.88,0,0,1-1.13.2,3.78,3.78,0,0,1-.6,0,1.86,1.86,0,0,1-.49-.13v-1.35a1.33,1.33,0,0,0,.45.2,2.16,2.16,0,0,0,.59.08,1.57,1.57,0,0,0,1-.29,2.78,2.78,0,0,0,.74-.9l-3.38-8.86h1.56l2.64,7,2.62-7h1.36l-3.1,8.21A11.84,11.84,0,0,1,388.85,249.2Z"/><path class="cls-1" d="M392.56,248.61h6.56v1.2h-6.56Z"/><path class="cls-1" d="M402.77,248.13a5.76,5.76,0,0,1-1.16-.1,5.16,5.16,0,0,1-.88-.26,3.68,3.68,0,0,1-.63-.32,3.54,3.54,0,0,1-.4-.29v-1.27a2.91,2.91,0,0,0,.43.35,4,4,0,0,0,.66.34,4.49,4.49,0,0,0,.87.26,5.15,5.15,0,0,0,1.09.11,3,3,0,0,0,1.43-.29,1,1,0,0,0,.53-1,1,1,0,0,0-.17-.59,1.27,1.27,0,0,0-.46-.36,2.84,2.84,0,0,0-.66-.21l-.79-.16-1.05-.25a3.33,3.33,0,0,1-.92-.4A2.1,2.1,0,0,1,400,243a2,2,0,0,1-.26-1.11,2.05,2.05,0,0,1,.87-1.76,4,4,0,0,1,2.44-.64,6.59,6.59,0,0,1,1.56.17,4.68,4.68,0,0,1,1,.39v1.26a3.94,3.94,0,0,0-1-.45,5.15,5.15,0,0,0-1.53-.19,3.3,3.3,0,0,0-1.45.26.94.94,0,0,0-.5.93.85.85,0,0,0,.14.53,1.12,1.12,0,0,0,.39.32,2.93,2.93,0,0,0,.57.19l.67.14,1.12.24a3.26,3.26,0,0,1,1,.4,2.21,2.21,0,0,1,.76.73,2.27,2.27,0,0,1,.29,1.22,2.32,2.32,0,0,1-.28,1.2,2.24,2.24,0,0,1-.77.76,3.26,3.26,0,0,1-1.07.4A6.23,6.23,0,0,1,402.77,248.13Z"/><path class="cls-1" d="M414.45,247.27a3.22,3.22,0,0,1-.43.27,3.79,3.79,0,0,1-.63.28,4.34,4.34,0,0,1-.83.22,5.52,5.52,0,0,1-1,.09,4.21,4.21,0,0,1-3.18-1.13,4.41,4.41,0,0,1-1.09-3.19,5.41,5.41,0,0,1,.29-1.81,4,4,0,0,1,.83-1.35,3.6,3.6,0,0,1,1.25-.85,4.2,4.2,0,0,1,1.56-.29,4,4,0,0,1,1.6.3,2.79,2.79,0,0,1,1.16.9,3.3,3.3,0,0,1,.63,1.46,6,6,0,0,1,0,2H408.7a2.91,2.91,0,0,0,.8,2,3.09,3.09,0,0,0,2.15.66,4.53,4.53,0,0,0,1.65-.27,5.59,5.59,0,0,0,1.15-.6Zm-3.3-6.51a2.31,2.31,0,0,0-1.57.56,2.69,2.69,0,0,0-.83,1.69h4.47a2.07,2.07,0,0,0-.53-1.7A2.17,2.17,0,0,0,411.15,240.76Z"/><path class="cls-1" d="M419.73,248a3.89,3.89,0,0,1-.85.09,2.81,2.81,0,0,1-1-.17,2,2,0,0,1-.7-.48,1.74,1.74,0,0,1-.39-.67,2.53,2.53,0,0,1-.12-.77v-5.17h-1v-1.2h1v-1.75h1.41v1.75h2.41v1.2h-2.41v5a1,1,0,0,0,.26.77,1.42,1.42,0,0,0,.94.24,1.91,1.91,0,0,0,1.13-.35v1.27A3.19,3.19,0,0,1,419.73,248Z"/><path class="cls-1" d="M429.2,248h-7.31v-1.5c1-.78,1.81-1.48,2.52-2.09a18,18,0,0,0,1.75-1.68,6.12,6.12,0,0,0,1-1.47,3.19,3.19,0,0,0,.34-1.45,2.1,2.1,0,0,0-.57-1.53,2.2,2.2,0,0,0-1.65-.58,3.35,3.35,0,0,0-1.7.45,5.61,5.61,0,0,0-1.41,1.13v-1.61a5,5,0,0,1,1.38-.95,4.27,4.27,0,0,1,1.77-.35,4.94,4.94,0,0,1,1.6.24,3.22,3.22,0,0,1,1.16.67,2.78,2.78,0,0,1,.72,1,3.49,3.49,0,0,1,.25,1.35,4.32,4.32,0,0,1-.36,1.75,6.56,6.56,0,0,1-1.06,1.63,14.86,14.86,0,0,1-1.74,1.69c-.69.58-1.47,1.22-2.36,1.9h5.65Z"/></g></svg>