<svg xmlns="http://www.w3.org/2000/svg" viewBox="0 0 680 280"><defs><style>.cls-1{fill:#ffdb4d;}.cls-1,.cls-3{stroke:#000;stroke-miterlimit:10;stroke-width:0.97px;}.cls-2{fill:#333;}.cls-3{fill:#fff;}</style></defs><title>s3</title><g id="Layer_1" data-name="Layer 1"><ellipse class="cls-1" cx="339.01" cy="140.36" rx="22.58" ry="55.74"/><path class="cls-2" d="M265.14,23.5h13.4V40.63h-2.91V26H268V40.63h-2.89Z"/><path class="cls-2" d="M292.28,39.72l-.65.37a5.57,5.57,0,0,1-.9.37,9.57,9.57,0,0,1-1.22.29,9.32,9.32,0,0,1-1.58.12,6.9,6.9,0,0,1-5.1-1.7,6.47,6.47,0,0,1-1.68-4.76,7.65,7.65,0,0,1,.45-2.7,5.61,5.61,0,0,1,1.27-2,5.41,5.41,0,0,1,1.93-1.27,7.13,7.13,0,0,1,5,0,4.45,4.45,0,0,1,1.83,1.36,5.52,5.52,0,0,1,1,2.25,9.07,9.07,0,0,1,0,3.13H284a3.71,3.71,0,0,0,1.13,2.54,4.37,4.37,0,0,0,3,.85,7,7,0,0,0,2.47-.37,10,10,0,0,0,1.69-.78Zm-5-9.53a2.94,2.94,0,0,0-2.05.74,3.64,3.64,0,0,0-1.1,2.19h5.83a2.89,2.89,0,0,0-.67-2.22A2.71,2.71,0,0,0,287.26,30.19Z"/><path class="cls-2" d="M302,40.87a4.48,4.48,0,0,1-2.42-.64,4.81,4.81,0,0,1-1.64-1.71v6.33h-2.77V28.23h2.53l.19,2.19a5,5,0,0,1,1.65-1.78,4.64,4.64,0,0,1,2.51-.65,5.66,5.66,0,0,1,2.09.39,4.58,4.58,0,0,1,1.73,1.2,5.87,5.87,0,0,1,1.19,2,8.37,8.37,0,0,1,.44,2.83,8.47,8.47,0,0,1-.44,2.86,6,6,0,0,1-1.2,2,4.82,4.82,0,0,1-1.75,1.19A5.78,5.78,0,0,1,302,40.87Zm-.67-2.3a3.11,3.11,0,0,0,2.41-1,4.56,4.56,0,0,0,.92-3.12,4.59,4.59,0,0,0-.92-3.12,3,3,0,0,0-2.38-1,3.51,3.51,0,0,0-1.36.25,2.89,2.89,0,0,0-1.09.78,3.85,3.85,0,0,0-.73,1.31,5.53,5.53,0,0,0-.26,1.81,5.61,5.61,0,0,0,.26,1.83,3.64,3.64,0,0,0,.72,1.29,2.75,2.75,0,0,0,1.08.77A3.63,3.63,0,0,0,301.33,38.57Z"/><path class="cls-2" d="M320.21,39.72l-.65.37a5.57,5.57,0,0,1-.9.37,9.57,9.57,0,0,1-1.22.29,9.32,9.32,0,0,1-1.58.12,6.9,6.9,0,0,1-5.1-1.7,6.47,6.47,0,0,1-1.68-4.76,7.65,7.65,0,0,1,.45-2.7,5.61,5.61,0,0,1,1.27-2,5.41,5.41,0,0,1,1.93-1.27,7.13,7.13,0,0,1,5,0,4.45,4.45,0,0,1,1.83,1.36,5.52,5.52,0,0,1,1,2.25,9.07,9.07,0,0,1,0,3.13h-8.58a3.71,3.71,0,0,0,1.13,2.54,4.37,4.37,0,0,0,3,.85,7,7,0,0,0,2.47-.37,10,10,0,0,0,1.69-.78Zm-5-9.53a2.94,2.94,0,0,0-2.05.74,3.64,3.64,0,0,0-1.1,2.19h5.83a2.89,2.89,0,0,0-.67-2.22A2.71,2.71,0,0,0,315.19,30.19Z"/><path class="cls-2" d="M328.81,40.87a7.65,7.65,0,0,1-2.7-.45,5.4,5.4,0,0,1-3.32-3.28,7.73,7.73,0,0,1-.46-2.73,7.64,7.64,0,0,1,.46-2.7,5.43,5.43,0,0,1,3.34-3.28,7.86,7.86,0,0,1,2.73-.44,8.07,8.07,0,0,1,2.26.28,4.91,4.91,0,0,1,1.54.72v2.29a6.82,6.82,0,0,0-1.62-.74,7.16,7.16,0,0,0-2-.26q-3.86,0-3.85,4.15T329,38.57A7.07,7.07,0,0,0,331,38.3a8.19,8.19,0,0,0,1.62-.71v2.28a6.68,6.68,0,0,1-1.56.7A7.53,7.53,0,0,1,328.81,40.87Z"/><path class="cls-2" d="M345.58,39.72c-.17.11-.39.23-.64.37a6.13,6.13,0,0,1-.91.37,9.57,9.57,0,0,1-1.22.29,9.32,9.32,0,0,1-1.58.12,6.93,6.93,0,0,1-5.1-1.7,6.47,6.47,0,0,1-1.68-4.76,7.65,7.65,0,0,1,.45-2.7,5.9,5.9,0,0,1,1.27-2,5.5,5.5,0,0,1,1.93-1.27,7.13,7.13,0,0,1,5,0,4.45,4.45,0,0,1,1.83,1.36,5.26,5.26,0,0,1,1,2.25,9.07,9.07,0,0,1,0,3.13h-8.57a3.7,3.7,0,0,0,1.12,2.54,4.38,4.38,0,0,0,3,.85,7.08,7.08,0,0,0,2.48-.37,10.24,10.24,0,0,0,1.68-.78Zm-5-9.53a3,3,0,0,0-2.06.74,3.69,3.69,0,0,0-1.1,2.19h5.83a2.89,2.89,0,0,0-.67-2.22A2.7,2.7,0,0,0,340.57,30.19Z"/><path class="cls-2" d="M358.44,40.63h-2.78V35.46a4.69,4.69,0,0,1-1.45.72,6.27,6.27,0,0,1-1.92.27,4.32,4.32,0,0,1-3.22-1.14A4.73,4.73,0,0,1,348,31.86V28.23h2.79v3.53a2.45,2.45,0,0,0,.58,1.87,2.46,2.46,0,0,0,1.72.52,5,5,0,0,0,1.39-.2,3.93,3.93,0,0,0,1.23-.61V28.23h2.78Z"/><path class="cls-2" d="M371.89,39.72l-.65.37a5.71,5.71,0,0,1-.91.37,8.88,8.88,0,0,1-2.79.41,6.9,6.9,0,0,1-5.1-1.7,6.44,6.44,0,0,1-1.69-4.76,7.42,7.42,0,0,1,.46-2.7,5.73,5.73,0,0,1,1.26-2,5.45,5.45,0,0,1,1.94-1.27,7.13,7.13,0,0,1,5,0,4.36,4.36,0,0,1,1.82,1.36,5.4,5.4,0,0,1,1,2.25,9.32,9.32,0,0,1,0,3.13h-8.58a3.75,3.75,0,0,0,1.12,2.54,4.41,4.41,0,0,0,3,.85,7,7,0,0,0,2.47-.37,10.78,10.78,0,0,0,1.69-.78Zm-5-9.53a2.94,2.94,0,0,0-2.05.74,3.64,3.64,0,0,0-1.1,2.19h5.83a2.93,2.93,0,0,0-.67-2.22A2.71,2.71,0,0,0,366.87,30.19Z"/><path class="cls-2" d="M382.78,35.39h-5.23v5.24h-2.77V28.23h2.77v4.92h5.23V28.23h2.77v12.4h-2.77Z"/><path class="cls-2" d="M391.41,36.88l5.73-8.65h2.72v12.4h-2.74V32l-5.69,8.61h-2.77V28.23h2.75Z"/><path class="cls-2" d="M413.36,39.72c-.17.11-.39.23-.64.37a6.13,6.13,0,0,1-.91.37,9.57,9.57,0,0,1-1.22.29,9.32,9.32,0,0,1-1.58.12,6.93,6.93,0,0,1-5.1-1.7,6.47,6.47,0,0,1-1.68-4.76,7.65,7.65,0,0,1,.45-2.7,5.9,5.9,0,0,1,1.27-2,5.5,5.5,0,0,1,1.93-1.27,7.13,7.13,0,0,1,5,0,4.45,4.45,0,0,1,1.83,1.36,5.26,5.26,0,0,1,1,2.25,9.07,9.07,0,0,1,0,3.13H405.1a3.7,3.7,0,0,0,1.12,2.54,4.39,4.39,0,0,0,3,.85,7.06,7.06,0,0,0,2.47-.37,10.24,10.24,0,0,0,1.68-.78Zm-5-9.53a3,3,0,0,0-2.06.74,3.69,3.69,0,0,0-1.1,2.19H411a2.89,2.89,0,0,0-.67-2.22A2.69,2.69,0,0,0,408.35,30.19Z"/><path class="cls-2" d="M252.66,248.8h-1.41v-8.31h1.23l.15,1.49h0a2.85,2.85,0,0,1,2.76-1.65,2.62,2.62,0,0,1,1.58.46,2.2,2.2,0,0,1,.82,1.37,3,3,0,0,1,1.08-1.34,3.17,3.17,0,0,1,1.77-.49,2.54,2.54,0,0,1,1.83.65,2.69,2.69,0,0,1,.67,2v5.83h-1.42v-5.65a1.54,1.54,0,0,0-.41-1.19,1.51,1.51,0,0,0-1.08-.38,2.27,2.27,0,0,0-.82.14,2,2,0,0,0-.62.37,3,3,0,0,0-.5.56,7.74,7.74,0,0,0-.42.68v5.47h-1.4V243a1.36,1.36,0,0,0-.4-1.11,1.78,1.78,0,0,0-1.09-.3,2.76,2.76,0,0,0-.8.11,2.08,2.08,0,0,0-.63.32,2.46,2.46,0,0,0-.51.51,4.52,4.52,0,0,0-.41.65Z"/><path class="cls-2" d="M268.85,250a4.62,4.62,0,0,1-.72,1,2.63,2.63,0,0,1-.9.6,3.08,3.08,0,0,1-1.13.2,3.78,3.78,0,0,1-.6,0,1.86,1.86,0,0,1-.49-.14v-1.34a1.56,1.56,0,0,0,.45.2,2.17,2.17,0,0,0,.59.07,1.57,1.57,0,0,0,1-.28,2.78,2.78,0,0,0,.74-.9l-3.38-8.87h1.56l2.64,7,2.62-7h1.36l-3.1,8.21A11.84,11.84,0,0,1,268.85,250Z"/><path class="cls-2" d="M272.56,249.44h6.56v1.2h-6.56Z"/><path class="cls-2" d="M282.77,249a5.71,5.71,0,0,1-1.16-.11,5.21,5.21,0,0,1-.88-.25,3.68,3.68,0,0,1-.63-.32,2.58,2.58,0,0,1-.4-.3v-1.26a2.93,2.93,0,0,0,.43.34,4,4,0,0,0,.66.35,5.31,5.31,0,0,0,.87.26,5.19,5.19,0,0,0,1.09.1,3,3,0,0,0,1.43-.28,1,1,0,0,0,.53-1,1,1,0,0,0-.17-.59,1.27,1.27,0,0,0-.46-.36,2.84,2.84,0,0,0-.66-.22l-.79-.16c-.36-.07-.7-.16-1.05-.25a3.06,3.06,0,0,1-.92-.4,1.93,1.93,0,0,1-.67-.69,2,2,0,0,1-.26-1.11,2.08,2.08,0,0,1,.87-1.76,4.11,4.11,0,0,1,2.44-.64,6.08,6.08,0,0,1,1.56.18,4.73,4.73,0,0,1,1,.38v1.27a3.94,3.94,0,0,0-1-.46,5.53,5.53,0,0,0-1.53-.18,3.31,3.31,0,0,0-1.45.25.94.94,0,0,0-.5.93.91.91,0,0,0,.14.54,1.12,1.12,0,0,0,.39.32,2.38,2.38,0,0,0,.57.18l.67.14,1.12.25a3.24,3.24,0,0,1,1,.39,2.41,2.41,0,0,1,.76.73,2.73,2.73,0,0,1,0,2.43,2.24,2.24,0,0,1-.77.76,3.49,3.49,0,0,1-1.07.4A6.23,6.23,0,0,1,282.77,249Z"/><path class="cls-2" d="M294.45,248.1l-.43.27a4.85,4.85,0,0,1-.63.28,5.23,5.23,0,0,1-.83.22,5.52,5.52,0,0,1-1,.09,4.18,4.18,0,0,1-3.18-1.14,4.4,4.4,0,0,1-1.09-3.18,5.33,5.33,0,0,1,.29-1.81,3.9,3.9,0,0,1,.83-1.35,3.6,3.6,0,0,1,1.25-.85,4,4,0,0,1,1.56-.3,3.84,3.84,0,0,1,1.6.31,2.85,2.85,0,0,1,1.16.89,3.39,3.39,0,0,1,.63,1.47,6,6,0,0,1,0,2H288.7a2.89,2.89,0,0,0,.8,2,3,3,0,0,0,2.15.67,4.53,4.53,0,0,0,1.65-.27,6.78,6.78,0,0,0,1.15-.6Zm-3.3-6.52a2.36,2.36,0,0,0-1.57.56,2.72,2.72,0,0,0-.83,1.7h4.47a2.1,2.1,0,0,0-.53-1.71A2.17,2.17,0,0,0,291.15,241.58Z"/><path class="cls-2" d="M299.73,248.86a3.88,3.88,0,0,1-.85.1,2.6,2.6,0,0,1-1-.18,2,2,0,0,1-.7-.47,1.82,1.82,0,0,1-.39-.67,2.54,2.54,0,0,1-.12-.78v-5.17h-1v-1.2h1v-1.74h1.41v1.74h2.41v1.2h-2.41v5a1,1,0,0,0,.26.77,1.42,1.42,0,0,0,.94.24,2,2,0,0,0,1.13-.35v1.27A2.71,2.71,0,0,1,299.73,248.86Z"/><path class="cls-2" d="M307.06,248.8H305.6v-9.67l-3.17,2.43V240l3.41-2.62h1.22Z"/><path class="cls-2" d="M372.66,248.8h-1.41v-8.31h1.23l.15,1.49h0a2.85,2.85,0,0,1,2.76-1.65,2.62,2.62,0,0,1,1.58.46,2.2,2.2,0,0,1,.82,1.37,3,3,0,0,1,1.08-1.34,3.17,3.17,0,0,1,1.77-.49,2.54,2.54,0,0,1,1.83.65,2.69,2.69,0,0,1,.67,2v5.83h-1.42v-5.65a1.54,1.54,0,0,0-.41-1.19,1.51,1.51,0,0,0-1.08-.38,2.27,2.27,0,0,0-.82.14,2,2,0,0,0-.62.37,3,3,0,0,0-.5.56,7.74,7.74,0,0,0-.42.68v5.47h-1.4V243a1.36,1.36,0,0,0-.4-1.11,1.78,1.78,0,0,0-1.09-.3,2.76,2.76,0,0,0-.8.11,2.08,2.08,0,0,0-.63.32,2.46,2.46,0,0,0-.51.51,4.52,4.52,0,0,0-.41.65Z"/><path class="cls-2" d="M388.85,250a4.62,4.62,0,0,1-.72,1,2.63,2.63,0,0,1-.9.6,3.08,3.08,0,0,1-1.13.2,3.78,3.78,0,0,1-.6,0,1.86,1.86,0,0,1-.49-.14v-1.34a1.56,1.56,0,0,0,.45.2,2.17,2.17,0,0,0,.59.07,1.57,1.57,0,0,0,1-.28,2.78,2.78,0,0,0,.74-.9l-3.38-8.87h1.56l2.64,7,2.62-7h1.36l-3.1,8.21A11.84,11.84,0,0,1,388.85,250Z"/><path class="cls-2" d="M392.56,249.44h6.56v1.2h-6.56Z"/><path class="cls-2" d="M402.77,249a5.71,5.71,0,0,1-1.16-.11,5.21,5.21,0,0,1-.88-.25,3.68,3.68,0,0,1-.63-.32,2.58,2.58,0,0,1-.4-.3v-1.26a2.93,2.93,0,0,0,.43.34,4,4,0,0,0,.66.35,5.31,5.31,0,0,0,.87.26,5.19,5.19,0,0,0,1.09.1,3,3,0,0,0,1.43-.28,1,1,0,0,0,.53-1,1,1,0,0,0-.17-.59,1.27,1.27,0,0,0-.46-.36,2.84,2.84,0,0,0-.66-.22l-.79-.16c-.36-.07-.7-.16-1.05-.25a3.06,3.06,0,0,1-.92-.4,1.93,1.93,0,0,1-.67-.69,2,2,0,0,1-.26-1.11,2.08,2.08,0,0,1,.87-1.76,4.11,4.11,0,0,1,2.44-.64,6.08,6.08,0,0,1,1.56.18,4.73,4.73,0,0,1,1,.38v1.27a3.94,3.94,0,0,0-1-.46,5.53,5.53,0,0,0-1.53-.18,3.31,3.31,0,0,0-1.45.25.94.94,0,0,0-.5.93.91.91,0,0,0,.14.54,1.12,1.12,0,0,0,.39.32,2.38,2.38,0,0,0,.57.18l.67.14,1.12.25a3.24,3.24,0,0,1,1,.39,2.41,2.41,0,0,1,.76.73,2.73,2.73,0,0,1,0,2.43,2.24,2.24,0,0,1-.77.76,3.49,3.49,0,0,1-1.07.4A6.23,6.23,0,0,1,402.77,249Z"/><path class="cls-2" d="M414.45,248.1l-.43.27a4.85,4.85,0,0,1-.63.28,5.23,5.23,0,0,1-.83.22,5.52,5.52,0,0,1-1,.09,4.18,4.18,0,0,1-3.18-1.14,4.4,4.4,0,0,1-1.09-3.18,5.33,5.33,0,0,1,.29-1.81,3.9,3.9,0,0,1,.83-1.35,3.6,3.6,0,0,1,1.25-.85,4,4,0,0,1,1.56-.3,3.84,3.84,0,0,1,1.6.31,2.85,2.85,0,0,1,1.16.89,3.39,3.39,0,0,1,.63,1.47,6,6,0,0,1,0,2H408.7a2.89,2.89,0,0,0,.8,2,3,3,0,0,0,2.15.67,4.53,4.53,0,0,0,1.65-.27,6.78,6.78,0,0,0,1.15-.6Zm-3.3-6.52a2.36,2.36,0,0,0-1.57.56,2.72,2.72,0,0,0-.83,1.7h4.47a2.1,2.1,0,0,0-.53-1.71A2.17,2.17,0,0,0,411.15,241.58Z"/><path class="cls-2" d="M419.73,248.86a3.88,3.88,0,0,1-.85.1,2.6,2.6,0,0,1-1-.18,2,2,0,0,1-.7-.47,1.82,1.82,0,0,1-.39-.67,2.54,2.54,0,0,1-.12-.78v-5.17h-1v-1.2h1v-1.74h1.41v1.74h2.41v1.2h-2.41v5a1,1,0,0,0,.26.77,1.42,1.42,0,0,0,.94.24,2,2,0,0,0,1.13-.35v1.27A2.71,2.71,0,0,1,419.73,248.86Z"/><path class="cls-2" d="M429.2,248.8h-7.31v-1.51c1-.78,1.81-1.47,2.52-2.08a19.33,19.33,0,0,0,1.75-1.68,6.54,6.54,0,0,0,1-1.47,3.25,3.25,0,0,0,.34-1.45,2.1,2.1,0,0,0-.57-1.53,2.2,2.2,0,0,0-1.65-.59,3.35,3.35,0,0,0-1.7.45,5.89,5.89,0,0,0-1.41,1.14v-1.62a5,5,0,0,1,1.38-.94,4.11,4.11,0,0,1,1.77-.35,4.94,4.94,0,0,1,1.6.24,3.22,3.22,0,0,1,1.16.67,2.71,2.71,0,0,1,.72,1,3.45,3.45,0,0,1,.25,1.35,4.24,4.24,0,0,1-.36,1.74,6.6,6.6,0,0,1-1.06,1.64,15.71,15.71,0,0,1-1.74,1.69c-.69.58-1.47,1.21-2.36,1.9h5.65Z"/><path class="cls-3" d="M339,84.62A81.35,81.35,0,0,0,280.3,59.73c-44.9,0-81.29,36.1-81.29,80.63S235.4,221,280.3,221A81.32,81.32,0,0,0,339,196.1a80.09,80.09,0,0,1,0-111.48Z"/><path class="cls-3" d="M397.72,59.73A81.35,81.35,0,0,0,339,84.62a80.09,80.09,0,0,1,0,111.48A81.32,81.32,0,0,0,397.72,221c44.89,0,81.29-36.1,81.29-80.64S442.61,59.73,397.72,59.73Z"/></g></svg>