<svg xmlns="http://www.w3.org/2000/svg" viewBox="0 0 680 280"><defs><style>.cls-1{fill:#333;}.cls-2{fill:#ffdb4d;}.cls-2,.cls-3{stroke:#000;stroke-miterlimit:10;stroke-width:0.97px;}.cls-3{fill:#fff;}</style></defs><title>s4</title><g id="Layer_1" data-name="Layer 1"><path class="cls-1" d="M289.22,22.5h5.62a8.18,8.18,0,0,1,4.85,1.25,4.55,4.55,0,0,1,1.73,4,6.3,6.3,0,0,1-.48,2.57,4.53,4.53,0,0,1-1.36,1.77,5.47,5.47,0,0,1-2.11,1,10.69,10.69,0,0,1-2.75.33h-2.59v6.31h-2.91Zm2.91,2.5v5.9h2.59a4.74,4.74,0,0,0,2.76-.7,2.72,2.72,0,0,0,1-2.41,2.45,2.45,0,0,0-.92-2.13,4.7,4.7,0,0,0-2.73-.66Z"/><path class="cls-1" d="M310.73,37.52a4.44,4.44,0,0,1-.52.87,3.66,3.66,0,0,1-.79.78,3.79,3.79,0,0,1-1.12.56,4.58,4.58,0,0,1-1.51.22,4.88,4.88,0,0,1-1.51-.23,3.42,3.42,0,0,1-1.21-.68,3.27,3.27,0,0,1-.82-1.14,3.91,3.91,0,0,1-.3-1.58,3.46,3.46,0,0,1,1.51-3.06,7.63,7.63,0,0,1,4.28-1h1.89v-.76a2,2,0,0,0-.62-1.7,3.56,3.56,0,0,0-2.07-.46,7.42,7.42,0,0,0-2.29.34,10.62,10.62,0,0,0-1.88.81V28.14a10,10,0,0,1,2-.77A9.35,9.35,0,0,1,308.4,27a6,6,0,0,1,3.71,1,3.74,3.74,0,0,1,1.31,3.18v6.5c0,.15,0,.31,0,.49s0,.38,0,.57,0,.37,0,.54a3.47,3.47,0,0,0,.05.42H311a8.89,8.89,0,0,1-.13-.94q-.06-.6-.09-1.08Zm-3.17.27a2.82,2.82,0,0,0,1.48-.37,3.43,3.43,0,0,0,.94-.87,3.37,3.37,0,0,0,.51-1,3,3,0,0,0,.14-.67v-.84H308.9a4.47,4.47,0,0,0-2.42.51,1.67,1.67,0,0,0-.77,1.46,1.74,1.74,0,0,0,.47,1.28A1.87,1.87,0,0,0,307.56,37.79Z"/><path class="cls-1" d="M325.58,36.13a3.38,3.38,0,0,1-.42,1.73A3.44,3.44,0,0,1,324,39.05a5.23,5.23,0,0,1-1.71.68,9.43,9.43,0,0,1-2.09.22,8.45,8.45,0,0,1-2.59-.33,6.6,6.6,0,0,1-1.56-.66V36.68a5.84,5.84,0,0,0,1.74.74,9,9,0,0,0,2.26.27,4.54,4.54,0,0,0,2-.38,1.34,1.34,0,0,0,.74-1.3,1.28,1.28,0,0,0-.67-1.23,4.44,4.44,0,0,0-2.09-.38h-1.75V32.29h1.8a3.35,3.35,0,0,0,1.74-.38,1.27,1.27,0,0,0,.61-1.15,1.18,1.18,0,0,0-.68-1.17,4.23,4.23,0,0,0-1.76-.32,7.68,7.68,0,0,0-2.12.27,6.56,6.56,0,0,0-1.65.74V28a6.17,6.17,0,0,1,1.63-.69,9.26,9.26,0,0,1,2.54-.3,6.1,6.1,0,0,1,3.51.84,2.81,2.81,0,0,1,1.2,2.45,2.64,2.64,0,0,1-.67,1.91,4,4,0,0,1-2,1Q325.58,33.68,325.58,36.13Z"/><path class="cls-1" d="M336.34,34.45h-5.26v5.26H328.3V27.25h2.78v5h5.26v-5h2.78V39.71h-2.78Z"/><path class="cls-1" d="M347.64,40a7,7,0,0,1-2.45-.43,5.56,5.56,0,0,1-1.95-1.26,5.76,5.76,0,0,1-1.3-2,8.34,8.34,0,0,1,0-5.52,5.67,5.67,0,0,1,1.3-2,5.4,5.4,0,0,1,1.95-1.25,7.36,7.36,0,0,1,4.9,0,5.56,5.56,0,0,1,2,1.25,5.85,5.85,0,0,1,1.32,2,8.17,8.17,0,0,1,0,5.52,6,6,0,0,1-1.32,2,5.73,5.73,0,0,1-2,1.26A7,7,0,0,1,347.64,40Zm0-2.31a3.11,3.11,0,0,0,2.39-1,4.48,4.48,0,0,0,1-3.15,4.5,4.5,0,0,0-1-3.14,3.12,3.12,0,0,0-2.39-1,3.09,3.09,0,0,0-2.36,1,4.45,4.45,0,0,0-.95,3.14,4.43,4.43,0,0,0,.95,3.15A3.08,3.08,0,0,0,347.64,37.64Z"/><path class="cls-1" d="M361.92,40a7.66,7.66,0,0,1-2.71-.45,5.6,5.6,0,0,1-2-1.27,5.54,5.54,0,0,1-1.3-2,8.45,8.45,0,0,1,0-5.44,5.54,5.54,0,0,1,1.3-2,5.6,5.6,0,0,1,2.06-1.27A7.91,7.91,0,0,1,362,27a8.13,8.13,0,0,1,2.27.29,4.8,4.8,0,0,1,1.54.72v2.3a6.29,6.29,0,0,0-1.62-.74,6.9,6.9,0,0,0-2-.26c-2.57,0-3.86,1.38-3.86,4.16s1.27,4.16,3.79,4.16a7.14,7.14,0,0,0,2.1-.27,7.94,7.94,0,0,0,1.62-.71V39a6.32,6.32,0,0,1-1.56.7A7.59,7.59,0,0,1,361.92,40Z"/><path class="cls-1" d="M373.92,29.51v10.2h-2.79V29.51h-3.76V27.25h10.39v2.26Z"/><path class="cls-1" d="M389.9,35.41a4.39,4.39,0,0,1-.39,1.9,3.69,3.69,0,0,1-1.1,1.34,4.69,4.69,0,0,1-1.65.79,7.81,7.81,0,0,1-2.11.27h-4.8V27.25h2.78v4h2.09a6.32,6.32,0,0,1,3.81,1A3.6,3.6,0,0,1,389.9,35.41Zm-7.27-1.92v4h1.8a3.39,3.39,0,0,0,1.87-.46,1.72,1.72,0,0,0,.72-1.55,1.78,1.78,0,0,0-.64-1.55,3.22,3.22,0,0,0-1.88-.47Z"/><path class="cls-1" d="M252.66,248h-1.41v-8.3h1.23l.15,1.49h0a2.94,2.94,0,0,1,1-1.18,3,3,0,0,1,1.75-.47A2.62,2.62,0,0,1,257,240a2.22,2.22,0,0,1,.82,1.37A3,3,0,0,1,258.9,240a3.09,3.09,0,0,1,1.77-.49,2.5,2.5,0,0,1,1.83.65,2.67,2.67,0,0,1,.67,2V248h-1.42v-5.65a1.56,1.56,0,0,0-.41-1.19,1.51,1.51,0,0,0-1.08-.37,2.28,2.28,0,0,0-.82.13,2.07,2.07,0,0,0-.62.38,2.7,2.7,0,0,0-.5.56,7.57,7.57,0,0,0-.42.67V248h-1.4v-5.81a1.32,1.32,0,0,0-.4-1.1,1.78,1.78,0,0,0-1.09-.3,2.46,2.46,0,0,0-.8.11,1.87,1.87,0,0,0-.63.32,2.41,2.41,0,0,0-.51.5,6,6,0,0,0-.41.65Z"/><path class="cls-1" d="M268.85,249.2a4.54,4.54,0,0,1-.72,1,2.63,2.63,0,0,1-.9.6,2.88,2.88,0,0,1-1.13.2,3.78,3.78,0,0,1-.6,0,1.86,1.86,0,0,1-.49-.13v-1.35a1.33,1.33,0,0,0,.45.2,2.16,2.16,0,0,0,.59.08,1.57,1.57,0,0,0,1-.29,2.78,2.78,0,0,0,.74-.9l-3.38-8.86h1.56l2.64,7,2.62-7h1.36l-3.1,8.21A11.84,11.84,0,0,1,268.85,249.2Z"/><path class="cls-1" d="M272.56,248.61h6.56v1.2h-6.56Z"/><path class="cls-1" d="M282.77,248.13a5.76,5.76,0,0,1-1.16-.1,5.16,5.16,0,0,1-.88-.26,3.68,3.68,0,0,1-.63-.32,3.54,3.54,0,0,1-.4-.29v-1.27a2.91,2.91,0,0,0,.43.35,4,4,0,0,0,.66.34,4.49,4.49,0,0,0,.87.26,5.15,5.15,0,0,0,1.09.11,3,3,0,0,0,1.43-.29,1,1,0,0,0,.53-1,1,1,0,0,0-.17-.59,1.27,1.27,0,0,0-.46-.36,2.84,2.84,0,0,0-.66-.21l-.79-.16-1.05-.25a3.33,3.33,0,0,1-.92-.4A2.1,2.1,0,0,1,280,243a2,2,0,0,1-.26-1.11,2.05,2.05,0,0,1,.87-1.76,4,4,0,0,1,2.44-.64,6.59,6.59,0,0,1,1.56.17,4.68,4.68,0,0,1,1,.39v1.26a3.94,3.94,0,0,0-1-.45,5.15,5.15,0,0,0-1.53-.19,3.3,3.3,0,0,0-1.45.26.94.94,0,0,0-.5.93.85.85,0,0,0,.14.53,1.12,1.12,0,0,0,.39.32,2.93,2.93,0,0,0,.57.19l.67.14,1.12.24a3.26,3.26,0,0,1,1,.4,2.21,2.21,0,0,1,.76.73,2.27,2.27,0,0,1,.29,1.22,2.32,2.32,0,0,1-.28,1.2,2.24,2.24,0,0,1-.77.76,3.26,3.26,0,0,1-1.07.4A6.23,6.23,0,0,1,282.77,248.13Z"/><path class="cls-1" d="M294.45,247.27a3.22,3.22,0,0,1-.43.27,3.79,3.79,0,0,1-.63.28,4.34,4.34,0,0,1-.83.22,5.52,5.52,0,0,1-1,.09,4.21,4.21,0,0,1-3.18-1.13,4.41,4.41,0,0,1-1.09-3.19,5.41,5.41,0,0,1,.29-1.81,4,4,0,0,1,.83-1.35,3.6,3.6,0,0,1,1.25-.85,4.2,4.2,0,0,1,1.56-.29,4,4,0,0,1,1.6.3,2.79,2.79,0,0,1,1.16.9,3.3,3.3,0,0,1,.63,1.46,6,6,0,0,1,0,2H288.7a2.91,2.91,0,0,0,.8,2,3.09,3.09,0,0,0,2.15.66,4.53,4.53,0,0,0,1.65-.27,5.59,5.59,0,0,0,1.15-.6Zm-3.3-6.51a2.31,2.31,0,0,0-1.57.56,2.69,2.69,0,0,0-.83,1.69h4.47a2.07,2.07,0,0,0-.53-1.7A2.17,2.17,0,0,0,291.15,240.76Z"/><path class="cls-1" d="M299.73,248a3.89,3.89,0,0,1-.85.09,2.81,2.81,0,0,1-1-.17,2,2,0,0,1-.7-.48,1.74,1.74,0,0,1-.39-.67,2.53,2.53,0,0,1-.12-.77v-5.17h-1v-1.2h1v-1.75h1.41v1.75h2.41v1.2h-2.41v5a1,1,0,0,0,.26.77,1.42,1.42,0,0,0,.94.24,1.91,1.91,0,0,0,1.13-.35v1.27A3.19,3.19,0,0,1,299.73,248Z"/><path class="cls-1" d="M307.06,248H305.6v-9.66l-3.17,2.43v-1.62l3.41-2.62h1.22Z"/><path class="cls-1" d="M372.66,248h-1.41v-8.3h1.23l.15,1.49h0a2.94,2.94,0,0,1,1-1.18,3,3,0,0,1,1.75-.47A2.62,2.62,0,0,1,377,240a2.22,2.22,0,0,1,.82,1.37A3,3,0,0,1,378.9,240a3.09,3.09,0,0,1,1.77-.49,2.5,2.5,0,0,1,1.83.65,2.67,2.67,0,0,1,.67,2V248h-1.42v-5.65a1.56,1.56,0,0,0-.41-1.19,1.51,1.51,0,0,0-1.08-.37,2.28,2.28,0,0,0-.82.13,2.07,2.07,0,0,0-.62.38,2.7,2.7,0,0,0-.5.56,7.57,7.57,0,0,0-.42.67V248h-1.4v-5.81a1.32,1.32,0,0,0-.4-1.1,1.78,1.78,0,0,0-1.09-.3,2.46,2.46,0,0,0-.8.11,1.87,1.87,0,0,0-.63.32,2.41,2.41,0,0,0-.51.5,6,6,0,0,0-.41.65Z"/><path class="cls-1" d="M388.85,249.2a4.54,4.54,0,0,1-.72,1,2.63,2.63,0,0,1-.9.6,2.88,2.88,0,0,1-1.13.2,3.78,3.78,0,0,1-.6,0,1.86,1.86,0,0,1-.49-.13v-1.35a1.33,1.33,0,0,0,.45.2,2.16,2.16,0,0,0,.59.08,1.57,1.57,0,0,0,1-.29,2.78,2.78,0,0,0,.74-.9l-3.38-8.86h1.56l2.64,7,2.62-7h1.36l-3.1,8.21A11.84,11.84,0,0,1,388.85,249.2Z"/><path class="cls-1" d="M392.56,248.61h6.56v1.2h-6.56Z"/><path class="cls-1" d="M402.77,248.13a5.76,5.76,0,0,1-1.16-.1,5.16,5.16,0,0,1-.88-.26,3.68,3.68,0,0,1-.63-.32,3.54,3.54,0,0,1-.4-.29v-1.27a2.91,2.91,0,0,0,.43.35,4,4,0,0,0,.66.34,4.49,4.49,0,0,0,.87.26,5.15,5.15,0,0,0,1.09.11,3,3,0,0,0,1.43-.29,1,1,0,0,0,.53-1,1,1,0,0,0-.17-.59,1.27,1.27,0,0,0-.46-.36,2.84,2.84,0,0,0-.66-.21l-.79-.16-1.05-.25a3.33,3.33,0,0,1-.92-.4A2.1,2.1,0,0,1,400,243a2,2,0,0,1-.26-1.11,2.05,2.05,0,0,1,.87-1.76,4,4,0,0,1,2.44-.64,6.59,6.59,0,0,1,1.56.17,4.68,4.68,0,0,1,1,.39v1.26a3.94,3.94,0,0,0-1-.45,5.15,5.15,0,0,0-1.53-.19,3.3,3.3,0,0,0-1.45.26.94.94,0,0,0-.5.93.85.85,0,0,0,.14.53,1.12,1.12,0,0,0,.39.32,2.93,2.93,0,0,0,.57.19l.67.14,1.12.24a3.26,3.26,0,0,1,1,.4,2.21,2.21,0,0,1,.76.73,2.27,2.27,0,0,1,.29,1.22,2.32,2.32,0,0,1-.28,1.2,2.24,2.24,0,0,1-.77.76,3.26,3.26,0,0,1-1.07.4A6.23,6.23,0,0,1,402.77,248.13Z"/><path class="cls-1" d="M414.45,247.27a3.22,3.22,0,0,1-.43.27,3.79,3.79,0,0,1-.63.28,4.34,4.34,0,0,1-.83.22,5.52,5.52,0,0,1-1,.09,4.21,4.21,0,0,1-3.18-1.13,4.41,4.41,0,0,1-1.09-3.19,5.41,5.41,0,0,1,.29-1.81,4,4,0,0,1,.83-1.35,3.6,3.6,0,0,1,1.25-.85,4.2,4.2,0,0,1,1.56-.29,4,4,0,0,1,1.6.3,2.79,2.79,0,0,1,1.16.9,3.3,3.3,0,0,1,.63,1.46,6,6,0,0,1,0,2H408.7a2.91,2.91,0,0,0,.8,2,3.09,3.09,0,0,0,2.15.66,4.53,4.53,0,0,0,1.65-.27,5.59,5.59,0,0,0,1.15-.6Zm-3.3-6.51a2.31,2.31,0,0,0-1.57.56,2.69,2.69,0,0,0-.83,1.69h4.47a2.07,2.07,0,0,0-.53-1.7A2.17,2.17,0,0,0,411.15,240.76Z"/><path class="cls-1" d="M419.73,248a3.89,3.89,0,0,1-.85.09,2.81,2.81,0,0,1-1-.17,2,2,0,0,1-.7-.48,1.74,1.74,0,0,1-.39-.67,2.53,2.53,0,0,1-.12-.77v-5.17h-1v-1.2h1v-1.75h1.41v1.75h2.41v1.2h-2.41v5a1,1,0,0,0,.26.77,1.42,1.42,0,0,0,.94.24,1.91,1.91,0,0,0,1.13-.35v1.27A3.19,3.19,0,0,1,419.73,248Z"/><path class="cls-1" d="M429.2,248h-7.31v-1.5c1-.78,1.81-1.48,2.52-2.09a18,18,0,0,0,1.75-1.68,6.12,6.12,0,0,0,1-1.47,3.19,3.19,0,0,0,.34-1.45,2.1,2.1,0,0,0-.57-1.53,2.2,2.2,0,0,0-1.65-.58,3.35,3.35,0,0,0-1.7.45,5.61,5.61,0,0,0-1.41,1.13v-1.61a5,5,0,0,1,1.38-.95,4.27,4.27,0,0,1,1.77-.35,4.94,4.94,0,0,1,1.6.24,3.22,3.22,0,0,1,1.16.67,2.78,2.78,0,0,1,.72,1,3.49,3.49,0,0,1,.25,1.35,4.32,4.32,0,0,1-.36,1.75,6.56,6.56,0,0,1-1.06,1.63,14.86,14.86,0,0,1-1.74,1.69c-.69.58-1.47,1.22-2.36,1.9h5.65Z"/><path class="cls-2" d="M340,85.7A81.67,81.67,0,0,0,281.29,61C236.39,61,200,96.82,200,141s36.39,80,81.29,80A81.67,81.67,0,0,0,340,196.3a79,79,0,0,1,0-110.6Z"/><path class="cls-3" d="M398.71,61A81.67,81.67,0,0,0,340,85.7a79,79,0,0,1,0,110.6A81.67,81.67,0,0,0,398.71,221c44.9,0,81.29-35.82,81.29-80S443.61,61,398.71,61Z"/></g></svg>