<svg xmlns="http://www.w3.org/2000/svg" viewBox="0 0 680 400"><defs><style>.cls-1{isolation:isolate;}.cls-2{fill:#f5f5f5;}.cls-2,.cls-5{mix-blend-mode:multiply;}.cls-3{fill:#333;}.cls-4{opacity:0.4;}.cls-5{fill:#ffdb4d;}.cls-6{fill:none;stroke:#ffdb4d;stroke-miterlimit:10;stroke-width:2px;}</style></defs><title>s12 копия</title><g class="cls-1"><g id="Layer_1" data-name="Layer 1"><rect class="cls-2" x="250" y="102" width="430" height="259" rx="100"/><path class="cls-3" d="M280,66.31a10.22,10.22,0,0,1-3.6-.6A7.51,7.51,0,0,1,273.63,64a7.62,7.62,0,0,1-1.75-2.78,10.53,10.53,0,0,1-.62-3.71,11,11,0,0,1,.59-3.72A7.58,7.58,0,0,1,273.56,51a7.31,7.31,0,0,1,2.72-1.74,10.46,10.46,0,0,1,3.67-.6,11.6,11.6,0,0,1,3,.35,7.88,7.88,0,0,1,2,.8v2.59a7.51,7.51,0,0,0-2.24-.92,11,11,0,0,0-2.7-.32,5.48,5.48,0,0,0-4.31,1.57,6.94,6.94,0,0,0-1.4,4.76q0,6.35,5.85,6.34a9.35,9.35,0,0,0,2.58-.34A6.69,6.69,0,0,0,285,62.42V65a6.76,6.76,0,0,1-1.94.92A10.21,10.21,0,0,1,280,66.31Z"/><path class="cls-3" d="M287.9,53.62h10.58V66.07H295.7V55.87h-5v10.2H287.9Z"/><path class="cls-3" d="M304.36,62.31l5.76-8.69h2.74V66.07H310.1V57.43l-5.72,8.64H301.6V53.62h2.76Z"/><path class="cls-3" d="M321.74,66.31a7.72,7.72,0,0,1-2.72-.44,5.74,5.74,0,0,1-2-1.27,5.6,5.6,0,0,1-1.29-2,8.3,8.3,0,0,1,0-5.45,5.6,5.6,0,0,1,1.29-2,5.69,5.69,0,0,1,2.07-1.27,8.1,8.1,0,0,1,2.73-.44,7.73,7.73,0,0,1,2.27.29,5,5,0,0,1,1.55.71v2.31A6.26,6.26,0,0,0,324,56a6.88,6.88,0,0,0-2-.27q-3.85,0-3.86,4.17T321.88,64a6.8,6.8,0,0,0,2.1-.28A7.87,7.87,0,0,0,325.6,63v2.29A6.68,6.68,0,0,1,324,66,8,8,0,0,1,321.74,66.31Z"/><path class="cls-3" d="M333.57,66.31a6.75,6.75,0,0,1-2.45-.43,5.69,5.69,0,0,1-2-1.26,5.79,5.79,0,0,1-1.29-2,8.34,8.34,0,0,1,0-5.52,5.88,5.88,0,0,1,1.29-2,5.5,5.5,0,0,1,2-1.24,7.36,7.36,0,0,1,4.9,0A5.5,5.5,0,0,1,338,55a6,6,0,0,1,1.32,2,8.18,8.18,0,0,1,0,5.52,5.85,5.85,0,0,1-1.32,2,5.69,5.69,0,0,1-2,1.26A6.79,6.79,0,0,1,333.57,66.31Zm0-2.3A3.16,3.16,0,0,0,336,63a4.51,4.51,0,0,0,.94-3.15A4.53,4.53,0,0,0,336,56.7a3.29,3.29,0,0,0-4.76,0,4.53,4.53,0,0,0-.94,3.15A4.51,4.51,0,0,0,331.2,63,3.14,3.14,0,0,0,333.57,64Z"/><path class="cls-3" d="M346,61H344.9v5.06h-2.79V53.62h2.79v5.13h1.17l4-5.13H353l-4.7,6,4.89,6.45h-3.29Z"/><path class="cls-3" d="M364.26,69.41a14.11,14.11,0,0,1-2.74-4.85,18.48,18.48,0,0,1-.9-5.85,21,21,0,0,1,.22-3.08,18.3,18.3,0,0,1,.69-2.9,13.55,13.55,0,0,1,1.14-2.6,11.77,11.77,0,0,1,1.59-2.2h2.81a9.9,9.9,0,0,0-1.67,2.15,14.12,14.12,0,0,0-1.17,2.59,16.71,16.71,0,0,0-.7,2.89,20.84,20.84,0,0,0-.23,3.07,18.28,18.28,0,0,0,.92,5.87,14,14,0,0,0,2.85,4.91Z"/><path class="cls-3" d="M372.26,48.87v17.2h-2.79V48.87Z"/><path class="cls-3" d="M376.79,52a1.69,1.69,0,0,1-1.75-1.7,1.65,1.65,0,0,1,.49-1.2,1.67,1.67,0,0,1,1.26-.5,1.69,1.69,0,0,1,1.73,1.7,1.66,1.66,0,0,1-.49,1.2A1.64,1.64,0,0,1,376.79,52Zm1.39,1.59V66.07H375.4V53.62Z"/><path class="cls-3" d="M385.41,66.31a8.81,8.81,0,0,1-1.7-.15,10.86,10.86,0,0,1-1.33-.37,6.33,6.33,0,0,1-1-.46,5.16,5.16,0,0,1-.63-.43V62.69a4.25,4.25,0,0,0,.66.47,6,6,0,0,0,1,.48,7.53,7.53,0,0,0,1.28.37,8,8,0,0,0,1.61.14,3.69,3.69,0,0,0,1.93-.39,1.31,1.31,0,0,0,.62-1.17,1.2,1.2,0,0,0-.24-.79,1.64,1.64,0,0,0-.65-.45,4,4,0,0,0-1-.26c-.36-.05-.73-.12-1.12-.2s-1-.22-1.47-.37a4.76,4.76,0,0,1-1.32-.64,3.13,3.13,0,0,1-1-1.05,3.72,3.72,0,0,1,.94-4.45,6.13,6.13,0,0,1,3.77-1,8.72,8.72,0,0,1,2.42.29,5.61,5.61,0,0,1,1.5.6V56.5a6.12,6.12,0,0,0-1.49-.68,7.92,7.92,0,0,0-2.31-.28,4.31,4.31,0,0,0-2,.35,1.22,1.22,0,0,0-.62,1.12,1,1,0,0,0,.22.68,1.53,1.53,0,0,0,.61.39,4.26,4.26,0,0,0,.86.23l1,.18c.5.09,1,.21,1.52.35a4.64,4.64,0,0,1,1.42.62,3.3,3.3,0,0,1,1,1.12,3.53,3.53,0,0,1,.41,1.8,3.71,3.71,0,0,1-.43,1.88,3.34,3.34,0,0,1-1.15,1.21,4.86,4.86,0,0,1-1.64.65A8.71,8.71,0,0,1,385.41,66.31Z"/><path class="cls-3" d="M398.37,66.13a5.58,5.58,0,0,1-1.49.18,4.6,4.6,0,0,1-1.69-.27,3,3,0,0,1-1.12-.76,2.89,2.89,0,0,1-.62-1.11,4.66,4.66,0,0,1-.19-1.36V55.87h-1.49V53.62h1.49V51H396v2.62h3.58v2.25H396v6.65a1.51,1.51,0,0,0,.37,1.13,1.75,1.75,0,0,0,1.24.36,2.7,2.7,0,0,0,1.8-.63V65.7A4.19,4.19,0,0,1,398.37,66.13Z"/><path class="cls-3" d="M401.32,69.41a14,14,0,0,0,2.86-4.91,18.56,18.56,0,0,0,.91-5.87,20.84,20.84,0,0,0-.23-3.07,15.84,15.84,0,0,0-.7-2.89A14.12,14.12,0,0,0,403,50.08a9.9,9.9,0,0,0-1.67-2.15h2.81a11.33,11.33,0,0,1,1.59,2.2,13.55,13.55,0,0,1,1.14,2.6,17.27,17.27,0,0,1,.69,2.9,21,21,0,0,1,.23,3.08,18.48,18.48,0,0,1-.9,5.85,14.13,14.13,0,0,1-2.75,4.85Z"/><g class="cls-4"><rect class="cls-5" x="0.5" y="102" width="429.5" height="259" rx="100"/></g><path class="cls-3" d="M58.81,135.89a6.07,6.07,0,0,1-.37,2.16,4.52,4.52,0,0,1-1,1.63,4.37,4.37,0,0,1-1.59,1,5.68,5.68,0,0,1-2.06.35,6,6,0,0,1-1.86-.26,4.15,4.15,0,0,1-1.18-.59v-1.26a4.4,4.4,0,0,0,1.42.71,5.52,5.52,0,0,0,1.52.21,3.77,3.77,0,0,0,2.65-.85,3.65,3.65,0,0,0,1-2.59H52.65v-1.19h4.7a3.75,3.75,0,0,0-1-2.47,3.36,3.36,0,0,0-2.45-.82,6.64,6.64,0,0,0-1.58.2,5.54,5.54,0,0,0-1.43.6v-1.26a4.91,4.91,0,0,1,1.25-.51,6.11,6.11,0,0,1,1.75-.22,5.91,5.91,0,0,1,2.09.35,4.09,4.09,0,0,1,1.54,1,4.49,4.49,0,0,1,.94,1.62A6.64,6.64,0,0,1,58.81,135.89Z"/><path class="cls-3" d="M60.75,138.65a8.81,8.81,0,0,0,.25-1.93c0-.81.06-1.84.06-3.08H66v7.26H64.7v-6.21H62.22c0,1,0,1.88-.09,2.66a8.9,8.9,0,0,1-.32,2,2.53,2.53,0,0,1-.72,1.21,1.84,1.84,0,0,1-1.25.41H59.6V139.7h.19C60.26,139.71,60.58,139.36,60.75,138.65Z"/><path class="cls-3" d="M73.73,140.29a3.67,3.67,0,0,1-.38.24,4.76,4.76,0,0,1-.54.24,4.53,4.53,0,0,1-.73.2,5.1,5.1,0,0,1-.91.07,3.7,3.7,0,0,1-2.79-1,3.88,3.88,0,0,1-.95-2.79,4.63,4.63,0,0,1,.26-1.58,3.26,3.26,0,0,1,.72-1.18,3.15,3.15,0,0,1,1.09-.74,3.45,3.45,0,0,1,1.37-.26,3.6,3.6,0,0,1,1.4.26,2.56,2.56,0,0,1,1,.79,2.92,2.92,0,0,1,.54,1.28,5.24,5.24,0,0,1,0,1.77H68.7a2.53,2.53,0,0,0,.7,1.77,2.68,2.68,0,0,0,1.88.58,3.88,3.88,0,0,0,1.44-.24,5,5,0,0,0,1-.52Zm-2.88-5.7a2,2,0,0,0-1.38.49,2.34,2.34,0,0,0-.72,1.48h3.9a1.81,1.81,0,0,0-.46-1.49A1.9,1.9,0,0,0,70.85,134.59Z"/><path class="cls-3" d="M82.41,135.07l-2.46,5H79L76.64,135v5.86H75.48v-7.26h1.83l2.23,4.87,2.38-4.87h1.71v7.26H82.41Z"/><path class="cls-3" d="M91.43,140.29c-.11.08-.23.15-.38.24a4.71,4.71,0,0,1-1.28.44,5,5,0,0,1-.91.07,3.67,3.67,0,0,1-2.78-1,3.84,3.84,0,0,1-1-2.79,4.64,4.64,0,0,1,.25-1.58,3.42,3.42,0,0,1,.73-1.18,3.06,3.06,0,0,1,1.09-.74,3.45,3.45,0,0,1,1.37-.26,3.64,3.64,0,0,1,1.4.26,2.46,2.46,0,0,1,1,.79,2.93,2.93,0,0,1,.55,1.28,5,5,0,0,1,0,1.77H86.4a2.53,2.53,0,0,0,.7,1.77A2.66,2.66,0,0,0,89,140a3.88,3.88,0,0,0,1.44-.24,5,5,0,0,0,1-.52Zm-2.89-5.7a2,2,0,0,0-1.37.49,2.35,2.35,0,0,0-.73,1.48h3.91a1.84,1.84,0,0,0-.46-1.49A1.92,1.92,0,0,0,88.54,134.59Z"/><path class="cls-3" d="M97.92,137.68H94.41v3.22H93.18v-7.26h1.23v3h3.51v-3h1.23v7.26H97.92Z"/><path class="cls-3" d="M104.1,134.69v6.21h-1.24v-6.21h-2.28v-1.05h5.84v1.05Z"/><path class="cls-3" d="M113.22,138.48a2.44,2.44,0,0,1-.22,1.09,2,2,0,0,1-.63.76,2.61,2.61,0,0,1-1,.43,4.67,4.67,0,0,1-1.21.14h-2.34v-7.26h1.23v2.53h1.19a3.71,3.71,0,0,1,2.17.55A2,2,0,0,1,113.22,138.48Zm-4.14-1.26v2.63h1.11a2.46,2.46,0,0,0,1.29-.3,1.08,1.08,0,0,0,.5-1,1.15,1.15,0,0,0-.45-1,2.17,2.17,0,0,0-1.26-.31Zm6.43,3.68h-1.24v-7.26h1.24Z"/><path class="cls-3" d="M127.53,135.07l-2.46,5h-1L121.76,135v5.86H120.6v-7.26h1.84l2.22,4.87,2.38-4.87h1.71v7.26h-1.22Z"/><path class="cls-3" d="M133.75,141a3.73,3.73,0,0,1-1.39-.25,3.11,3.11,0,0,1-1.11-.73,3.58,3.58,0,0,1-.74-1.19,4.65,4.65,0,0,1-.26-1.61,4.71,4.71,0,0,1,.26-1.6,3.35,3.35,0,0,1,.74-1.18,3.11,3.11,0,0,1,1.11-.73,3.73,3.73,0,0,1,1.39-.25,3.78,3.78,0,0,1,1.4.25,3.11,3.11,0,0,1,1.11.73,3.35,3.35,0,0,1,.74,1.18,4.47,4.47,0,0,1,.28,1.6,4.41,4.41,0,0,1-.28,1.61,3.58,3.58,0,0,1-.74,1.19,3.11,3.11,0,0,1-1.11.73A3.78,3.78,0,0,1,133.75,141Zm0-1.09a2.44,2.44,0,0,0,.9-.16,1.89,1.89,0,0,0,.72-.49,2.16,2.16,0,0,0,.48-.84,4.25,4.25,0,0,0,0-2.38,2.16,2.16,0,0,0-.48-.84,1.89,1.89,0,0,0-.72-.49,2.44,2.44,0,0,0-.9-.16,2.36,2.36,0,0,0-.9.16,2,2,0,0,0-.71.49,2.26,2.26,0,0,0-.46.84,4.25,4.25,0,0,0,0,2.38,2.26,2.26,0,0,0,.46.84,2,2,0,0,0,.71.49A2.36,2.36,0,0,0,133.75,140Z"/><path class="cls-3" d="M138.77,133.64h4.62v1.05H140v6.21h-1.24Z"/><path class="cls-3" d="M148.14,142a3.83,3.83,0,0,1-.63.85,2.51,2.51,0,0,1-.78.53,2.83,2.83,0,0,1-1,.17,4.17,4.17,0,0,1-.52,0,2.43,2.43,0,0,1-.43-.12v-1.18a1.42,1.42,0,0,0,.39.18,2.12,2.12,0,0,0,.52.06,1.34,1.34,0,0,0,.85-.25,2.45,2.45,0,0,0,.65-.79l-3-7.75h1.36l2.31,6.13,2.3-6.13h1.19l-2.72,7.18A8.31,8.31,0,0,1,148.14,142Z"/><path class="cls-3" d="M155.6,134.69v6.21h-1.23v-6.21h-2.28v-1.05h5.84v1.05Z"/><path class="cls-3" d="M169,137.26a4.41,4.41,0,0,1-.28,1.61,3.58,3.58,0,0,1-.74,1.19,3.11,3.11,0,0,1-1.11.73,3.78,3.78,0,0,1-1.4.25,3.63,3.63,0,0,1-1.42-.26,2.77,2.77,0,0,1-1.1-.79,3.65,3.65,0,0,1-.72-1.34,6.11,6.11,0,0,1-.26-1.92c0-.6,0-1.18,0-1.73a7.17,7.17,0,0,1,.26-1.54,4.42,4.42,0,0,1,.56-1.27,3.14,3.14,0,0,1,1-.95,3.08,3.08,0,0,1,.73-.31,5,5,0,0,1,.77-.16,6.48,6.48,0,0,1,.77-.07l.77,0a6.12,6.12,0,0,0,.94-.14,2.54,2.54,0,0,0,.67-.27v1.12a2,2,0,0,1-.65.28c-.23.05-.51.09-.83.13-.53.05-1,.08-1.46.1a3.06,3.06,0,0,0-1.22.32,2.15,2.15,0,0,0-1,1.17,6.74,6.74,0,0,0-.36,1.84,2.71,2.71,0,0,1,2.74-1.68,3.35,3.35,0,0,1,1.28.24,3,3,0,0,1,1,.72,3.39,3.39,0,0,1,.69,1.17A4.65,4.65,0,0,1,169,137.26ZM165.46,140a2.44,2.44,0,0,0,.9-.16,1.89,1.89,0,0,0,.72-.49,2.16,2.16,0,0,0,.48-.84,4.25,4.25,0,0,0,0-2.38,2.16,2.16,0,0,0-.48-.84,1.89,1.89,0,0,0-.72-.49,2.44,2.44,0,0,0-.9-.16,2.14,2.14,0,0,0-1.61.65,2.75,2.75,0,0,0-.63,2,3.64,3.64,0,0,0,.17,1.21,2.31,2.31,0,0,0,.46.85,1.92,1.92,0,0,0,.71.5A2.36,2.36,0,0,0,165.46,140Z"/><path class="cls-3" d="M175.9,138.48a2.44,2.44,0,0,1-.22,1.09,2,2,0,0,1-.63.76,2.61,2.61,0,0,1-1,.43,4.7,4.7,0,0,1-1.22.14h-2.33v-7.26h1.23v2.53H173a3.73,3.73,0,0,1,2.17.55A2,2,0,0,1,175.9,138.48Zm-4.14-1.26v2.63h1.1a2.48,2.48,0,0,0,1.3-.3,1.08,1.08,0,0,0,.5-1,1.15,1.15,0,0,0-.45-1,2.17,2.17,0,0,0-1.26-.31Zm6.42,3.68H177v-7.26h1.23Z"/><path class="cls-3" d="M183.12,134.69v6.21h-1.23v-6.21h-2.28v-1.05h5.84v1.05Z"/><path class="cls-3" d="M192.28,138.48a2.44,2.44,0,0,1-.22,1.09,2,2,0,0,1-.63.76,2.68,2.68,0,0,1-1,.43,4.7,4.7,0,0,1-1.22.14h-2.41v-7.26h1.24v2.53h1.26a3.73,3.73,0,0,1,2.17.55A2,2,0,0,1,192.28,138.48Zm-4.21-1.26v2.63h1.17a2.48,2.48,0,0,0,1.3-.3,1.08,1.08,0,0,0,.5-1,1.15,1.15,0,0,0-.45-1,2.17,2.17,0,0,0-1.26-.31Z"/><path class="cls-3" d="M54.66,159a2.64,2.64,0,0,1-1.45-.39,2.83,2.83,0,0,1-1-1.08v3.81H51v-9.74h1.08l.12,1.41a3.08,3.08,0,0,1,1-1.13,2.65,2.65,0,0,1,1.53-.42,3.14,3.14,0,0,1,1.21.23,2.74,2.74,0,0,1,1,.7,3.23,3.23,0,0,1,.7,1.17,4.94,4.94,0,0,1,.26,1.66,4.74,4.74,0,0,1-.27,1.68,3.25,3.25,0,0,1-.71,1.17,2.81,2.81,0,0,1-1,.7A3.2,3.2,0,0,1,54.66,159ZM54.48,158a2,2,0,0,0,1.56-.67,3.65,3.65,0,0,0,0-4,2,2,0,0,0-1.56-.68,2.39,2.39,0,0,0-.89.17,2,2,0,0,0-.71.5,2.39,2.39,0,0,0-.48.83,4.18,4.18,0,0,0,0,2.36,2.44,2.44,0,0,0,.48.84,1.84,1.84,0,0,0,.71.5A2.38,2.38,0,0,0,54.48,158Z"/><path class="cls-3" d="M63.59,157.52a3.33,3.33,0,0,1-.32.52,2.31,2.31,0,0,1-.49.5,2.51,2.51,0,0,1-.69.36,2.67,2.67,0,0,1-.93.14,2.22,2.22,0,0,1-1.58-.55A2,2,0,0,1,59,156.9a2,2,0,0,1,.84-1.75,4.23,4.23,0,0,1,2.37-.56h1.36V154a1.34,1.34,0,0,0-.39-1.08,2.21,2.21,0,0,0-1.35-.32,3.57,3.57,0,0,0-1.27.22,6.75,6.75,0,0,0-1.08.49v-1.1a5.16,5.16,0,0,1,1.06-.47A4.26,4.26,0,0,1,62,151.5a3.33,3.33,0,0,1,2.08.56,2.11,2.11,0,0,1,.72,1.76v3.91c0,.08,0,.18,0,.28s0,.22,0,.33a3,3,0,0,0,0,.32q0,.15,0,.24H63.72c0-.13,0-.31-.08-.55s0-.45,0-.62Zm-2.17.43a1.87,1.87,0,0,0,1-.24,2.42,2.42,0,0,0,.66-.55,2.24,2.24,0,0,0,.36-.62,1.49,1.49,0,0,0,.12-.43v-.54H62.3a3.1,3.1,0,0,0-1.6.32,1.05,1.05,0,0,0-.49,1,1.08,1.08,0,0,0,.29.8A1.2,1.2,0,0,0,61.42,158Z"/><path class="cls-3" d="M71.85,156.79a2.1,2.1,0,0,1-.24,1,2,2,0,0,1-.67.7,2.9,2.9,0,0,1-1,.39,5.95,5.95,0,0,1-2.56,0,3.36,3.36,0,0,1-1-.41v-1.1a3.83,3.83,0,0,0,1,.43,5.33,5.33,0,0,0,1.3.15,3.09,3.09,0,0,0,1.33-.26,1.05,1.05,0,0,0,.09-1.78,2.94,2.94,0,0,0-1.39-.25h-1v-1h1A2.1,2.1,0,0,0,70,154.4a.94.94,0,0,0,.41-.82.89.89,0,0,0-.13-.47,1.07,1.07,0,0,0-.36-.3,1.65,1.65,0,0,0-.53-.17,4.23,4.23,0,0,0-.63,0,4.59,4.59,0,0,0-1.2.15,3.94,3.94,0,0,0-1,.44v-1.11a3.45,3.45,0,0,1,.94-.4,4.64,4.64,0,0,1,1.36-.17,3.37,3.37,0,0,1,2,.5,1.68,1.68,0,0,1,.68,1.45,1.54,1.54,0,0,1-.38,1.12,2.06,2.06,0,0,1-1.09.56,2.24,2.24,0,0,1,1.31.55A1.47,1.47,0,0,1,71.85,156.79Z"/><path class="cls-3" d="M78.41,155.68H74.89v3.22H73.66v-7.26h1.23v3h3.52v-3h1.23v7.26H78.41Z"/><path class="cls-3" d="M87,156.48a2.44,2.44,0,0,1-.22,1.09,2,2,0,0,1-.63.76,2.76,2.76,0,0,1-1,.43,4.7,4.7,0,0,1-1.22.14H81.65v-7.26h1.24v2.53h1.19a3.73,3.73,0,0,1,2.17.55A2,2,0,0,1,87,156.48Zm-4.14-1.26v2.63H84a2.5,2.5,0,0,0,1.3-.3,1.07,1.07,0,0,0,.49-1,1.16,1.16,0,0,0-.44-1,2.17,2.17,0,0,0-1.26-.31Zm6.42,3.68H88.08v-7.26h1.23Z"/><path class="cls-3" d="M93.78,156l-2,2.88H90.53l2.63-3.76-2.32-3.5h1.43L94,154.2l1.75-2.56H97l-2.41,3.47,2.53,3.79H95.72Z"/><path class="cls-3" d="M104.37,152.69v6.21h-1.23v-6.21h-2.28v-1.05h5.84v1.05Z"/><path class="cls-3" d="M109.36,157.22l3.88-5.58h1.24v7.26h-1.23v-5.57l-3.86,5.57h-1.26v-7.26h1.23Z"/><path class="cls-3" d="M116.5,151.64h5.82v7.26h-1.23v-6.21h-3.36v6.21H116.5Z"/><path class="cls-3" d="M127.32,159a3.77,3.77,0,0,1-1.39-.25,3.2,3.2,0,0,1-1.11-.73,3.41,3.41,0,0,1-.73-1.19,4.42,4.42,0,0,1-.27-1.61,4.47,4.47,0,0,1,.27-1.6,3.15,3.15,0,0,1,1.84-1.91,4,4,0,0,1,2.79,0,3.11,3.11,0,0,1,1.11.73,3.37,3.37,0,0,1,.75,1.18,4.47,4.47,0,0,1,.27,1.6,4.42,4.42,0,0,1-.27,1.61,3.6,3.6,0,0,1-.75,1.19,3.11,3.11,0,0,1-1.11.73A3.75,3.75,0,0,1,127.32,159Zm0-1.09a2.36,2.36,0,0,0,.9-.16,2,2,0,0,0,.73-.49,2.27,2.27,0,0,0,.47-.84,4.25,4.25,0,0,0,0-2.38,2.27,2.27,0,0,0-.47-.84,2,2,0,0,0-.73-.49,2.36,2.36,0,0,0-.9-.16,2.4,2.4,0,0,0-.9.16,1.89,1.89,0,0,0-.7.49,2.27,2.27,0,0,0-.47.84,4.25,4.25,0,0,0,0,2.38,2.27,2.27,0,0,0,.47.84,1.89,1.89,0,0,0,.7.49A2.4,2.4,0,0,0,127.32,158Z"/><path class="cls-3" d="M132.35,151.64h2.71a3.6,3.6,0,0,1,2,.45,1.6,1.6,0,0,1,.67,1.42,1.52,1.52,0,0,1-.33,1,1.88,1.88,0,0,1-.93.56,1.61,1.61,0,0,1,1.56,1.72,2,2,0,0,1-.23,1,1.89,1.89,0,0,1-.61.65,2.62,2.62,0,0,1-1,.36,5.66,5.66,0,0,1-1.19.11h-2.69Zm1.23,1.05v2H135a2.2,2.2,0,0,0,1.13-.25.92.92,0,0,0,0-1.51,2.27,2.27,0,0,0-1.08-.21Zm0,2.95v2.21H135a3.89,3.89,0,0,0,.71,0,1.63,1.63,0,0,0,.54-.17.91.91,0,0,0,.36-.34,1,1,0,0,0,.13-.51,1,1,0,0,0-.44-.89,2.74,2.74,0,0,0-1.3-.25Z"/><path class="cls-3" d="M145.21,160.85a8.06,8.06,0,0,1-1.62-2.85,10.56,10.56,0,0,1-.53-3.39,11.71,11.71,0,0,1,.13-1.77,9.58,9.58,0,0,1,.41-1.7,8.14,8.14,0,0,1,.67-1.53,6.1,6.1,0,0,1,.94-1.29h1.22a5.32,5.32,0,0,0-1,1.26,8.46,8.46,0,0,0-.68,1.53,10.16,10.16,0,0,0-.4,1.69,13.12,13.12,0,0,0-.12,1.76,10.85,10.85,0,0,0,.52,3.4,8,8,0,0,0,1.66,2.89Z"/><path class="cls-3" d="M151,159a4.08,4.08,0,0,1-1.52-.26,3.1,3.1,0,0,1-1.89-1.92,4.93,4.93,0,0,1-.25-1.6,4.63,4.63,0,0,1,.26-1.58,3.16,3.16,0,0,1,.74-1.18,3.08,3.08,0,0,1,1.16-.74,4.2,4.2,0,0,1,1.55-.26,5.2,5.2,0,0,1,1.23.14,2.51,2.51,0,0,1,.93.43v1.11a3.11,3.11,0,0,0-1-.44,4.35,4.35,0,0,0-1.14-.15,2.39,2.39,0,0,0-1.87.66,2.92,2.92,0,0,0-.6,2,3,3,0,0,0,.58,2A2.29,2.29,0,0,0,151,158a4.22,4.22,0,0,0,1.21-.16,5.36,5.36,0,0,0,1-.41v1.09a4,4,0,0,1-.95.41A4.43,4.43,0,0,1,151,159Z"/><path class="cls-3" d="M157.83,152.69v6.21h-1.24v-6.21h-2.28v-1.05h5.84v1.05Z"/><path class="cls-3" d="M165.23,159a2.64,2.64,0,0,1-1.45-.39,2.83,2.83,0,0,1-1-1.08v3.81h-1.23v-9.74h1.08l.12,1.41a3.08,3.08,0,0,1,1-1.13,2.65,2.65,0,0,1,1.53-.42,3.14,3.14,0,0,1,1.21.23,2.74,2.74,0,0,1,1,.7,3.23,3.23,0,0,1,.7,1.17,4.94,4.94,0,0,1,.26,1.66,4.74,4.74,0,0,1-.27,1.68,3.25,3.25,0,0,1-.71,1.17,2.81,2.81,0,0,1-1,.7A3.2,3.2,0,0,1,165.23,159Zm-.18-1.09a2,2,0,0,0,1.56-.67,3.65,3.65,0,0,0,0-4,2,2,0,0,0-1.56-.68,2.39,2.39,0,0,0-.89.17,2,2,0,0,0-.71.5,2.39,2.39,0,0,0-.48.83,4.18,4.18,0,0,0,0,2.36,2.44,2.44,0,0,0,.48.84,1.84,1.84,0,0,0,.71.5A2.38,2.38,0,0,0,165.05,158Z"/><path class="cls-3" d="M173,159a3.73,3.73,0,0,1-1.39-.25,3.11,3.11,0,0,1-1.11-.73,3.41,3.41,0,0,1-.73-1.19,4.42,4.42,0,0,1-.27-1.61,4.47,4.47,0,0,1,.27-1.6,3.19,3.19,0,0,1,.73-1.18,3.11,3.11,0,0,1,1.11-.73,3.73,3.73,0,0,1,1.39-.25,3.78,3.78,0,0,1,1.4.25,3.11,3.11,0,0,1,1.11.73,3.21,3.21,0,0,1,.74,1.18,4.26,4.26,0,0,1,.28,1.6,4.21,4.21,0,0,1-.28,1.61,3.43,3.43,0,0,1-.74,1.19,3.11,3.11,0,0,1-1.11.73A3.78,3.78,0,0,1,173,159Zm0-1.09a2.36,2.36,0,0,0,.9-.16,1.89,1.89,0,0,0,.72-.49,2.16,2.16,0,0,0,.48-.84,4.25,4.25,0,0,0,0-2.38,2.16,2.16,0,0,0-.48-.84,1.89,1.89,0,0,0-.72-.49,2.61,2.61,0,0,0-1.8,0,1.89,1.89,0,0,0-.7.49,2.27,2.27,0,0,0-.47.84,4.25,4.25,0,0,0,0,2.38,2.27,2.27,0,0,0,.47.84,1.89,1.89,0,0,0,.7.49A2.36,2.36,0,0,0,173,158Z"/><path class="cls-3" d="M179.86,155.81h-.64v3.09H178v-7.26h1.23v3.12h.7l2.55-3.12h1.4l-3,3.58,3,3.68h-1.5Z"/><path class="cls-3" d="M186.46,157.22l3.87-5.58h1.25v7.26h-1.23v-5.57l-3.87,5.57h-1.26v-7.26h1.24Z"/><path class="cls-3" d="M193.34,160.4a2.37,2.37,0,0,0,.26-.33l.23-.4a4.34,4.34,0,0,0,.17-.4,3.29,3.29,0,0,0,.09-.32.86.86,0,0,1-.48-.3.81.81,0,0,1-.18-.53.83.83,0,0,1,.23-.61.92.92,0,0,1,1.26,0,1,1,0,0,1,.24.72,2.16,2.16,0,0,1-.08.6,5.46,5.46,0,0,1-.21.61,2.77,2.77,0,0,1-.29.54,2,2,0,0,1-.31.4Z"/><path class="cls-3" d="M56.64,176.9H55.4v-3.19a2.78,2.78,0,0,1-.87.46,3.9,3.9,0,0,1-1.13.16,2.67,2.67,0,0,1-1.88-.61,2.55,2.55,0,0,1-.65-1.95v-2.13h1.24v2.14a1.47,1.47,0,0,0,.4,1.19,1.66,1.66,0,0,0,1.1.34,3.31,3.31,0,0,0,1-.14,2.6,2.6,0,0,0,.84-.44v-3.09h1.24Z"/><path class="cls-3" d="M59.88,175.22l3.88-5.58H65v7.26H63.78v-5.57l-3.87,5.57H58.65v-7.26h1.23Z"/><path class="cls-3" d="M70.16,177a4.08,4.08,0,0,1-1.52-.26,3.12,3.12,0,0,1-1.88-1.92,5.18,5.18,0,0,1,0-3.18,3.3,3.3,0,0,1,.74-1.18,3.16,3.16,0,0,1,1.16-.74,4.26,4.26,0,0,1,1.56-.26,5.32,5.32,0,0,1,1.23.14,2.53,2.53,0,0,1,.92.43v1.11a3.11,3.11,0,0,0-1-.44,4.35,4.35,0,0,0-1.14-.15,2.4,2.4,0,0,0-1.87.66,2.92,2.92,0,0,0-.59,2,3,3,0,0,0,.57,2,2.29,2.29,0,0,0,1.82.66,4.22,4.22,0,0,0,1.21-.16,5.36,5.36,0,0,0,1-.41v1.09a4.09,4.09,0,0,1-.94.41A4.45,4.45,0,0,1,70.16,177Z"/><path class="cls-3" d="M74.58,174.65a9.37,9.37,0,0,0,.26-1.93c0-.81,0-1.84,0-3.08h4.89v7.26H78.53v-6.21H76.05c0,1,0,1.88-.09,2.66a8.9,8.9,0,0,1-.32,2,2.6,2.6,0,0,1-.71,1.21,1.87,1.87,0,0,1-1.26.41h-.23V175.7h.18C74.09,175.71,74.42,175.36,74.58,174.65Z"/><path class="cls-3" d="M86,175.52a4.45,4.45,0,0,1-.33.52,2.31,2.31,0,0,1-.49.5,2.25,2.25,0,0,1-.69.36,2.67,2.67,0,0,1-.93.14,2.24,2.24,0,0,1-1.58-.55,2.06,2.06,0,0,1-.6-1.59,2,2,0,0,1,.83-1.75,4.23,4.23,0,0,1,2.37-.56H86V172a1.34,1.34,0,0,0-.39-1.08,2.19,2.19,0,0,0-1.35-.32,3.61,3.61,0,0,0-1.27.22,6.75,6.75,0,0,0-1.08.49v-1.1a5.16,5.16,0,0,1,1.06-.47,4.26,4.26,0,0,1,1.46-.23,3.36,3.36,0,0,1,2.09.56,2.14,2.14,0,0,1,.71,1.76v3.91c0,.08,0,.18,0,.28s0,.22,0,.33,0,.22,0,.32,0,.18,0,.24H86.16c0-.13,0-.31-.08-.55s0-.45,0-.62Zm-2.17.43a1.92,1.92,0,0,0,1-.24,2.23,2.23,0,0,0,.65-.55,2.59,2.59,0,0,0,.37-.62,1.74,1.74,0,0,0,.11-.43v-.54H84.75a3.14,3.14,0,0,0-1.61.32,1.05,1.05,0,0,0-.49,1,1.12,1.12,0,0,0,.29.8A1.23,1.23,0,0,0,83.87,176Z"/><path class="cls-3" d="M89.82,177a.88.88,0,0,1-.66-.26.84.84,0,0,1-.25-.62.9.9,0,1,1,1.8,0,.84.84,0,0,1-.25.62A.87.87,0,0,1,89.82,177Z"/><path class="cls-3" d="M93.16,177a.9.9,0,0,1-.66-.26.84.84,0,0,1-.25-.62.87.87,0,0,1,.25-.65,1,1,0,0,1,1.31,0,.91.91,0,0,1,.25.65.87.87,0,0,1-.9.88Z"/><path class="cls-3" d="M96.51,177a.9.9,0,0,1-.66-.26.84.84,0,0,1-.25-.62.87.87,0,0,1,.25-.65.89.89,0,0,1,.66-.25.86.86,0,0,1,.89.9.84.84,0,0,1-.25.62A.87.87,0,0,1,96.51,177Z"/><path class="cls-3" d="M98.63,178.85a8,8,0,0,0,1.66-2.89,10.85,10.85,0,0,0,.53-3.4,11.68,11.68,0,0,0-.13-1.76,9.46,9.46,0,0,0-1.07-3.22,5.36,5.36,0,0,0-1-1.26h1.22a6.14,6.14,0,0,1,1,1.29,8.84,8.84,0,0,1,.67,1.53,10.54,10.54,0,0,1,.41,1.7,13.17,13.17,0,0,1,.13,1.77,10.84,10.84,0,0,1-.53,3.39,8.24,8.24,0,0,1-1.63,2.85Z"/><path class="cls-3" d="M104.81,177a.9.9,0,0,1-.66-.26.84.84,0,0,1-.25-.62.87.87,0,0,1,.25-.65.89.89,0,0,1,.66-.25.84.84,0,0,1,.64.25.87.87,0,0,1,.26.65.89.89,0,0,1-.9.88Z"/><path class="cls-3" d="M453.81,235.89a6.07,6.07,0,0,1-.37,2.16,4.52,4.52,0,0,1-1,1.63,4.37,4.37,0,0,1-1.59,1,5.68,5.68,0,0,1-2.06.35,6,6,0,0,1-1.86-.26,4.15,4.15,0,0,1-1.18-.59v-1.26a4.4,4.4,0,0,0,1.42.71,5.52,5.52,0,0,0,1.52.21,3.77,3.77,0,0,0,2.65-.85,3.65,3.65,0,0,0,1-2.59h-4.71v-1.19h4.7a3.75,3.75,0,0,0-1-2.47,3.36,3.36,0,0,0-2.45-.82,6.64,6.64,0,0,0-1.58.2,5.54,5.54,0,0,0-1.43.6v-1.26a4.91,4.91,0,0,1,1.25-.51,6.11,6.11,0,0,1,1.75-.22,5.91,5.91,0,0,1,2.09.35,4.09,4.09,0,0,1,1.54,1,4.49,4.49,0,0,1,.94,1.62A6.64,6.64,0,0,1,453.81,235.89Z"/><path class="cls-3" d="M455.75,238.65a8.81,8.81,0,0,0,.25-1.93c0-.81.06-1.84.06-3.08H461v7.26H459.7v-6.21h-2.48c0,1,0,1.88-.09,2.66a8.9,8.9,0,0,1-.32,2,2.53,2.53,0,0,1-.72,1.21,1.84,1.84,0,0,1-1.25.41h-.24V239.7h.19C455.26,239.71,455.58,239.36,455.75,238.65Z"/><path class="cls-3" d="M468.73,240.29a3.67,3.67,0,0,1-.38.24,4.76,4.76,0,0,1-.54.24,4.53,4.53,0,0,1-.73.2,5.1,5.1,0,0,1-.91.07,3.7,3.7,0,0,1-2.79-1,3.88,3.88,0,0,1-.95-2.79,4.63,4.63,0,0,1,.26-1.58,3.26,3.26,0,0,1,.72-1.18,3.15,3.15,0,0,1,1.09-.74,3.45,3.45,0,0,1,1.37-.26,3.6,3.6,0,0,1,1.4.26,2.56,2.56,0,0,1,1,.79,2.92,2.92,0,0,1,.54,1.28,5.24,5.24,0,0,1,0,1.77H463.7a2.53,2.53,0,0,0,.7,1.77,2.68,2.68,0,0,0,1.88.58,3.88,3.88,0,0,0,1.44-.24,5,5,0,0,0,1-.52Zm-2.88-5.7a2,2,0,0,0-1.38.49,2.34,2.34,0,0,0-.72,1.48h3.9a1.81,1.81,0,0,0-.46-1.49A1.9,1.9,0,0,0,465.85,234.59Z"/><path class="cls-3" d="M477.41,235.07l-2.46,5h-1L471.64,235v5.86h-1.16v-7.26h1.83l2.23,4.87,2.38-4.87h1.71v7.26h-1.22Z"/><path class="cls-3" d="M486.43,240.29c-.11.08-.23.15-.38.24a4.71,4.71,0,0,1-1.28.44,5,5,0,0,1-.91.07,3.67,3.67,0,0,1-2.78-1,3.84,3.84,0,0,1-.95-2.79,4.64,4.64,0,0,1,.25-1.58,3.42,3.42,0,0,1,.73-1.18,3.06,3.06,0,0,1,1.09-.74,3.45,3.45,0,0,1,1.37-.26,3.64,3.64,0,0,1,1.4.26,2.46,2.46,0,0,1,1,.79,2.93,2.93,0,0,1,.55,1.28,5,5,0,0,1,0,1.77H481.4a2.53,2.53,0,0,0,.7,1.77A2.66,2.66,0,0,0,484,240a3.88,3.88,0,0,0,1.44-.24,5,5,0,0,0,1-.52Zm-2.89-5.7a2,2,0,0,0-1.37.49,2.35,2.35,0,0,0-.73,1.48h3.91a1.84,1.84,0,0,0-.46-1.49A1.92,1.92,0,0,0,483.54,234.59Z"/><path class="cls-3" d="M492.92,237.68h-3.51v3.22h-1.23v-7.26h1.23v3h3.51v-3h1.23v7.26h-1.23Z"/><path class="cls-3" d="M499.1,234.69v6.21h-1.24v-6.21h-2.28v-1.05h5.84v1.05Z"/><path class="cls-3" d="M508.22,238.48a2.44,2.44,0,0,1-.22,1.09,2,2,0,0,1-.63.76,2.61,2.61,0,0,1-1,.43,4.67,4.67,0,0,1-1.21.14h-2.34v-7.26h1.23v2.53h1.19a3.71,3.71,0,0,1,2.17.55A2,2,0,0,1,508.22,238.48Zm-4.14-1.26v2.63h1.11a2.46,2.46,0,0,0,1.29-.3,1.08,1.08,0,0,0,.5-1,1.15,1.15,0,0,0-.45-1,2.17,2.17,0,0,0-1.26-.31Zm6.43,3.68h-1.24v-7.26h1.24Z"/><path class="cls-3" d="M515.15,236.13h11.48v1.05H515.15Z"/><path class="cls-3" d="M533.86,241a4.08,4.08,0,0,1-1.52-.26,3.16,3.16,0,0,1-1.16-.74,3.13,3.13,0,0,1-.72-1.18,5,5,0,0,1,0-3.18,3.16,3.16,0,0,1,.74-1.18,3.08,3.08,0,0,1,1.16-.74,4.2,4.2,0,0,1,1.55-.26,5.2,5.2,0,0,1,1.23.14,2.51,2.51,0,0,1,.93.43v1.11a3.11,3.11,0,0,0-1-.44,4.35,4.35,0,0,0-1.14-.15,2.39,2.39,0,0,0-1.87.66,2.92,2.92,0,0,0-.6,2,3,3,0,0,0,.58,2,2.29,2.29,0,0,0,1.82.66,4.22,4.22,0,0,0,1.21-.16,5.36,5.36,0,0,0,1-.41v1.09a4,4,0,0,1-1,.41A4.43,4.43,0,0,1,533.86,241Z"/><path class="cls-3" d="M539,239.22l3.88-5.58h1.25v7.26h-1.24v-5.57L539,240.9h-1.26v-7.26H539Z"/><path class="cls-3" d="M553,235.07l-2.46,5h-1L547.25,235v5.86h-1.16v-7.26h1.84l2.22,4.87,2.38-4.87h1.71v7.26H553Z"/><path class="cls-3" d="M556.26,233.64H559a3.6,3.6,0,0,1,2,.45,1.6,1.6,0,0,1,.67,1.42,1.52,1.52,0,0,1-.33,1,1.88,1.88,0,0,1-.93.56,1.61,1.61,0,0,1,1.56,1.72,2,2,0,0,1-.23,1,1.89,1.89,0,0,1-.61.65,2.62,2.62,0,0,1-1,.36,5.66,5.66,0,0,1-1.19.11h-2.69Zm1.23,1.05v2h1.37a2.2,2.2,0,0,0,1.13-.25.91.91,0,0,0,0-1.51,2.25,2.25,0,0,0-1.08-.21Zm0,2.95v2.21h1.44a3.89,3.89,0,0,0,.71,0,1.63,1.63,0,0,0,.54-.17.91.91,0,0,0,.36-.34,1,1,0,0,0,.13-.51,1,1,0,0,0-.44-.89,2.74,2.74,0,0,0-1.3-.25Z"/><path class="cls-3" d="M566.76,241a3.73,3.73,0,0,1-1.39-.25,3.11,3.11,0,0,1-1.11-.73,3.43,3.43,0,0,1-.74-1.19,4.42,4.42,0,0,1-.26-1.61,4.48,4.48,0,0,1,.26-1.6,3.21,3.21,0,0,1,.74-1.18,3.11,3.11,0,0,1,1.11-.73,3.73,3.73,0,0,1,1.39-.25,3.78,3.78,0,0,1,1.4.25,3.11,3.11,0,0,1,1.11.73,3.35,3.35,0,0,1,.74,1.18,4.47,4.47,0,0,1,.27,1.6,4.42,4.42,0,0,1-.27,1.61,3.58,3.58,0,0,1-.74,1.19,3.11,3.11,0,0,1-1.11.73A3.78,3.78,0,0,1,566.76,241Zm0-1.09a2.44,2.44,0,0,0,.9-.16,2.05,2.05,0,0,0,.72-.49,2.29,2.29,0,0,0,.48-.84,4.51,4.51,0,0,0,0-2.38,2.29,2.29,0,0,0-.48-.84,2.05,2.05,0,0,0-.72-.49,2.44,2.44,0,0,0-.9-.16,2.36,2.36,0,0,0-.9.16,1.93,1.93,0,0,0-.71.49,2.42,2.42,0,0,0-.47.84,4.51,4.51,0,0,0,0,2.38,2.42,2.42,0,0,0,.47.84,1.93,1.93,0,0,0,.71.49A2.36,2.36,0,0,0,566.76,240Z"/><path class="cls-3" d="M572.13,238.65a8.81,8.81,0,0,0,.25-1.93c0-.81.06-1.84.06-3.08h4.89v7.26h-1.25v-6.21H573.6c0,1,0,1.88-.09,2.66a8.9,8.9,0,0,1-.32,2,2.6,2.6,0,0,1-.71,1.21,1.87,1.87,0,0,1-1.26.41H571V239.7h.19C571.64,239.71,572,239.36,572.13,238.65Z"/><path class="cls-3" d="M584.68,242.85a8.24,8.24,0,0,1-1.63-2.85,10.84,10.84,0,0,1-.53-3.39,11.71,11.71,0,0,1,.13-1.77,10.54,10.54,0,0,1,.41-1.7,8.84,8.84,0,0,1,.67-1.53,6.14,6.14,0,0,1,.95-1.29h1.21a5.32,5.32,0,0,0-1,1.26,9.46,9.46,0,0,0-1.07,3.22,11.68,11.68,0,0,0-.13,1.76,10.85,10.85,0,0,0,.53,3.4,7.94,7.94,0,0,0,1.65,2.89Z"/><path class="cls-3" d="M590.5,241a4.08,4.08,0,0,1-1.52-.26,3.12,3.12,0,0,1-1.88-1.92,4.67,4.67,0,0,1-.25-1.6,4.4,4.4,0,0,1,.26-1.58,3.1,3.1,0,0,1,1.89-1.92,4.26,4.26,0,0,1,1.56-.26,5.26,5.26,0,0,1,1.23.14,2.53,2.53,0,0,1,.92.43v1.11a3.11,3.11,0,0,0-1-.44,4.35,4.35,0,0,0-1.14-.15,2.4,2.4,0,0,0-1.87.66,2.92,2.92,0,0,0-.59,2,3,3,0,0,0,.57,2,2.29,2.29,0,0,0,1.82.66,4.22,4.22,0,0,0,1.21-.16,5.36,5.36,0,0,0,1-.41v1.09a3.91,3.91,0,0,1-.94.41A4.45,4.45,0,0,1,590.5,241Z"/><path class="cls-3" d="M597.29,234.69v6.21h-1.23v-6.21h-2.28v-1.05h5.83v1.05Z"/><path class="cls-3" d="M604.7,241a2.62,2.62,0,0,1-1.45-.39,2.85,2.85,0,0,1-1-1.08v3.81H601v-9.74h1.08l.13,1.41a3,3,0,0,1,1-1.13,2.64,2.64,0,0,1,1.52-.42,3.1,3.1,0,0,1,1.21.23,2.86,2.86,0,0,1,1,.7,3.54,3.54,0,0,1,.7,1.17,5,5,0,0,1,.25,1.66,4.75,4.75,0,0,1-.26,1.68,3.41,3.41,0,0,1-.72,1.17,2.78,2.78,0,0,1-1,.7A3.24,3.24,0,0,1,604.7,241Zm-.19-1.09a2,2,0,0,0,1.57-.67,3.7,3.7,0,0,0,0-4,2,2,0,0,0-1.57-.68,2.43,2.43,0,0,0-.89.17,2,2,0,0,0-.71.5,2.23,2.23,0,0,0-.47.83,4,4,0,0,0,0,2.36,2.27,2.27,0,0,0,.47.84,1.84,1.84,0,0,0,.71.5A2.42,2.42,0,0,0,604.51,240Z"/><path class="cls-3" d="M612.42,241a3.72,3.72,0,0,1-1.38-.25,3.24,3.24,0,0,1-1.12-.73,3.56,3.56,0,0,1-.73-1.19,4.42,4.42,0,0,1-.27-1.61,4.47,4.47,0,0,1,.27-1.6,3.33,3.33,0,0,1,.73-1.18,3.24,3.24,0,0,1,1.12-.73,4,4,0,0,1,2.78,0,3.24,3.24,0,0,1,1.12.73,3.35,3.35,0,0,1,.74,1.18,4.47,4.47,0,0,1,.27,1.6,4.42,4.42,0,0,1-.27,1.61,3.58,3.58,0,0,1-.74,1.19,3.24,3.24,0,0,1-1.12.73A3.75,3.75,0,0,1,612.42,241Zm0-1.09a2.45,2.45,0,0,0,.91-.16,2.05,2.05,0,0,0,.72-.49,2.27,2.27,0,0,0,.47-.84,4.25,4.25,0,0,0,0-2.38,2.27,2.27,0,0,0-.47-.84,2.05,2.05,0,0,0-.72-.49,2.45,2.45,0,0,0-.91-.16,2.35,2.35,0,0,0-.89.16,1.93,1.93,0,0,0-.71.49,2.27,2.27,0,0,0-.47.84,4.25,4.25,0,0,0,0,2.38,2.27,2.27,0,0,0,.47.84,1.93,1.93,0,0,0,.71.49A2.35,2.35,0,0,0,612.42,240Z"/><path class="cls-3" d="M619.33,237.81h-.65v3.09h-1.23v-7.26h1.23v3.12h.7l2.55-3.12h1.4l-3,3.58,3,3.68h-1.5Z"/><path class="cls-3" d="M625.92,239.22l3.88-5.58H631v7.26h-1.23v-5.57L626,240.9h-1.26v-7.26h1.23Z"/><path class="cls-3" d="M451.79,258.29a3.67,3.67,0,0,1-.38.24,4.76,4.76,0,0,1-.54.24,4.53,4.53,0,0,1-.73.2,5.1,5.1,0,0,1-.91.07,3.7,3.7,0,0,1-2.79-1,3.88,3.88,0,0,1-.95-2.79,4.63,4.63,0,0,1,.26-1.58,3.26,3.26,0,0,1,.72-1.18,3.15,3.15,0,0,1,1.09-.74,3.45,3.45,0,0,1,1.37-.26,3.6,3.6,0,0,1,1.4.26,2.56,2.56,0,0,1,1,.79,2.81,2.81,0,0,1,.54,1.28,5.24,5.24,0,0,1,0,1.77h-5.13a2.53,2.53,0,0,0,.7,1.77,2.68,2.68,0,0,0,1.88.58,3.88,3.88,0,0,0,1.44-.24,5,5,0,0,0,1-.52Zm-2.88-5.7a2,2,0,0,0-1.38.49,2.34,2.34,0,0,0-.72,1.48h3.9a1.81,1.81,0,0,0-.46-1.49A1.9,1.9,0,0,0,448.91,252.59Z"/><path class="cls-3" d="M453.15,257.85a1.52,1.52,0,0,0,.61-.74,5,5,0,0,0,.35-1.27,14.34,14.34,0,0,0,.18-1.82c0-.7.06-1.5.09-2.38h5v6.21h1.09V261h-1.08l-.15-2.08h-5.41l-.12,2.08H452.6v-3.13Zm5,0v-5.16h-2.66a31.63,31.63,0,0,1-.26,3.29,4.41,4.41,0,0,1-.65,1.87Z"/><path class="cls-3" d="M463,257.22l3.88-5.58h1.24v7.26h-1.23v-5.57L463,258.9h-1.26v-7.26H463Z"/><path class="cls-3" d="M474.88,255.68h-3.52v3.22h-1.23v-7.26h1.23v3h3.52v-3h1.23v7.26h-1.23Z"/><path class="cls-3" d="M479.36,257.22l3.87-5.58h1.25v7.26h-1.23v-5.57l-3.87,5.57h-1.26v-7.26h1.24Z"/><path class="cls-3" d="M492.12,258.9h-1.23v-3.19a2.78,2.78,0,0,1-.87.46,3.9,3.9,0,0,1-1.13.16,2.67,2.67,0,0,1-1.88-.61,2.55,2.55,0,0,1-.65-1.95v-2.13h1.24v2.14A1.5,1.5,0,0,0,488,255a1.69,1.69,0,0,0,1.11.34,3.36,3.36,0,0,0,.95-.14,2.6,2.6,0,0,0,.84-.44v-3.09h1.23Z"/><path class="cls-3" d="M498.89,255.68h-3.52v3.22h-1.23v-7.26h1.23v3h3.52v-3h1.23v7.26h-1.23Z"/><path class="cls-3" d="M505.12,259a3.73,3.73,0,0,1-1.39-.25,3.11,3.11,0,0,1-1.11-.73,3.43,3.43,0,0,1-.74-1.19,4.42,4.42,0,0,1-.26-1.61,4.48,4.48,0,0,1,.26-1.6,3.21,3.21,0,0,1,.74-1.18,3.11,3.11,0,0,1,1.11-.73,3.73,3.73,0,0,1,1.39-.25,3.78,3.78,0,0,1,1.4.25,3.11,3.11,0,0,1,1.11.73,3.35,3.35,0,0,1,.74,1.18,4.47,4.47,0,0,1,.27,1.6,4.42,4.42,0,0,1-.27,1.61,3.58,3.58,0,0,1-.74,1.19,3.11,3.11,0,0,1-1.11.73A3.78,3.78,0,0,1,505.12,259Zm0-1.09a2.44,2.44,0,0,0,.9-.16,2.05,2.05,0,0,0,.72-.49,2.29,2.29,0,0,0,.48-.84,4.51,4.51,0,0,0,0-2.38,2.29,2.29,0,0,0-.48-.84,2.05,2.05,0,0,0-.72-.49,2.44,2.44,0,0,0-.9-.16,2.36,2.36,0,0,0-.9.16,1.93,1.93,0,0,0-.71.49,2.42,2.42,0,0,0-.47.84,4.51,4.51,0,0,0,0,2.38,2.42,2.42,0,0,0,.47.84,1.93,1.93,0,0,0,.71.49A2.36,2.36,0,0,0,505.12,258Z"/><path class="cls-3" d="M511.37,257.22l3.88-5.58h1.25v7.26h-1.23v-5.57l-3.87,5.57h-1.26v-7.26h1.23Zm2-6.55a2.88,2.88,0,0,1-1-.15,1.83,1.83,0,0,1-.68-.4,1.65,1.65,0,0,1-.41-.6,2,2,0,0,1-.13-.75h1.23a1,1,0,0,0,.26.77,1,1,0,0,0,.71.24,1,1,0,0,0,.7-.24,1,1,0,0,0,.25-.77h1.23a1.86,1.86,0,0,1-.54,1.35A2.2,2.2,0,0,1,513.35,250.67Z"/><path class="cls-3" d="M521.2,257.85a1.59,1.59,0,0,0,.62-.74,5.45,5.45,0,0,0,.35-1.27,16.67,16.67,0,0,0,.17-1.82c0-.7.07-1.5.09-2.38h5v6.21h1.09V261h-1.07l-.16-2.08h-5.4l-.13,2.08h-1.1v-3.13Zm5,0v-5.16h-2.66a29.07,29.07,0,0,1-.26,3.29,4.16,4.16,0,0,1-.65,1.87Z"/><path class="cls-3" d="M530.37,256.65a8.81,8.81,0,0,0,.25-1.93c0-.81.06-1.84.06-3.08h4.89v7.26h-1.25v-6.21h-2.48c0,1,0,1.88-.09,2.66a8.9,8.9,0,0,1-.32,2,2.53,2.53,0,0,1-.72,1.21,1.84,1.84,0,0,1-1.25.41h-.24V257.7h.19C529.88,257.71,530.2,257.36,530.37,256.65Z"/><path class="cls-3" d="M538.8,257.22l3.88-5.58h1.24v7.26h-1.23v-5.57l-3.86,5.57h-1.26v-7.26h1.23Z"/><path class="cls-3" d="M550.69,255.68h-3.52v3.22h-1.23v-7.26h1.23v3h3.52v-3h1.23v7.26h-1.23Z"/><path class="cls-3" d="M559.31,256.48a2.44,2.44,0,0,1-.22,1.09,2,2,0,0,1-.63.76,2.76,2.76,0,0,1-1,.43,4.7,4.7,0,0,1-1.22.14h-2.34v-7.26h1.24v2.53h1.19a3.73,3.73,0,0,1,2.17.55A2,2,0,0,1,559.31,256.48Zm-4.14-1.26v2.63h1.1a2.5,2.5,0,0,0,1.3-.3,1.07,1.07,0,0,0,.49-1,1.16,1.16,0,0,0-.44-1,2.17,2.17,0,0,0-1.26-.31Zm6.42,3.68h-1.23v-7.26h1.23Z"/><path class="cls-3" d="M563.06,260.85a8,8,0,0,0,1.66-2.89,10.85,10.85,0,0,0,.53-3.4,13.15,13.15,0,0,0-.13-1.76,9.26,9.26,0,0,0-.4-1.69,8.46,8.46,0,0,0-.68-1.53,5.32,5.32,0,0,0-1-1.26h1.22a6.1,6.1,0,0,1,.94,1.29,8.87,8.87,0,0,1,.68,1.53,10.52,10.52,0,0,1,.4,1.7,11.73,11.73,0,0,1,.14,1.77,10.56,10.56,0,0,1-.54,3.39,8.06,8.06,0,0,1-1.62,2.85Z"/><path class="cls-3" d="M569.24,259a.88.88,0,0,1-.66-.26.84.84,0,0,1-.25-.62.9.9,0,1,1,1.8,0,.84.84,0,0,1-.25.62A.87.87,0,0,1,569.24,259Z"/><path class="cls-3" d="M582.79,253.89a5.86,5.86,0,0,1-.37,2.16,4.52,4.52,0,0,1-1,1.63,4.37,4.37,0,0,1-1.59,1,5.68,5.68,0,0,1-2.06.35,6,6,0,0,1-1.86-.26,4.15,4.15,0,0,1-1.18-.59v-1.26a4.4,4.4,0,0,0,1.42.71,5.52,5.52,0,0,0,1.52.21,3.77,3.77,0,0,0,2.65-.85,3.69,3.69,0,0,0,1.05-2.59h-4.72v-1.19h4.7a3.75,3.75,0,0,0-1-2.47,3.36,3.36,0,0,0-2.45-.82,6.5,6.5,0,0,0-1.57.2,5.46,5.46,0,0,0-1.44.6v-1.26a4.91,4.91,0,0,1,1.25-.51,6.11,6.11,0,0,1,1.75-.22,5.91,5.91,0,0,1,2.09.35,4,4,0,0,1,1.54,1,4.51,4.51,0,0,1,1,1.62A6.92,6.92,0,0,1,582.79,253.89Z"/><path class="cls-3" d="M584.73,256.65a9.37,9.37,0,0,0,.26-1.93c0-.81,0-1.84,0-3.08h4.89v7.26h-1.25v-6.21H586.2c0,1,0,1.88-.09,2.66a8.9,8.9,0,0,1-.32,2,2.6,2.6,0,0,1-.71,1.21,1.87,1.87,0,0,1-1.26.41h-.24V257.7h.19C584.24,257.71,584.57,257.36,584.73,256.65Z"/><path class="cls-3" d="M597.71,258.29a3.67,3.67,0,0,1-.38.24,4.76,4.76,0,0,1-.54.24,4.53,4.53,0,0,1-.73.2,5,5,0,0,1-.91.07,3.71,3.71,0,0,1-2.79-1,3.88,3.88,0,0,1-1-2.79,4.63,4.63,0,0,1,.26-1.58,3.26,3.26,0,0,1,.72-1.18,3.15,3.15,0,0,1,1.09-.74,3.45,3.45,0,0,1,1.37-.26,3.6,3.6,0,0,1,1.4.26,2.49,2.49,0,0,1,1,.79,2.93,2.93,0,0,1,.55,1.28,5.53,5.53,0,0,1,0,1.77h-5.13a2.53,2.53,0,0,0,.7,1.77,2.68,2.68,0,0,0,1.88.58,3.88,3.88,0,0,0,1.44-.24,5,5,0,0,0,1-.52Zm-2.88-5.7a2,2,0,0,0-1.37.49,2.3,2.3,0,0,0-.73,1.48h3.9a1.78,1.78,0,0,0-.46-1.49A1.88,1.88,0,0,0,594.83,252.59Z"/><path class="cls-3" d="M606.39,253.07l-2.46,5h-1l-2.33-5v5.86h-1.16v-7.26h1.83l2.23,4.87,2.38-4.87h1.71v7.26h-1.22Z"/><path class="cls-3" d="M615.41,258.29c-.11.08-.23.15-.38.24a4.27,4.27,0,0,1-.55.24,4,4,0,0,1-.73.2,5,5,0,0,1-.91.07,3.67,3.67,0,0,1-2.78-1,3.84,3.84,0,0,1-.95-2.79,4.4,4.4,0,0,1,.26-1.58,3.26,3.26,0,0,1,.72-1.18,3.15,3.15,0,0,1,1.09-.74,3.45,3.45,0,0,1,1.37-.26,3.64,3.64,0,0,1,1.4.26,2.56,2.56,0,0,1,1,.79,3,3,0,0,1,.54,1.28,5,5,0,0,1,0,1.77h-5.12a2.53,2.53,0,0,0,.7,1.77A2.68,2.68,0,0,0,613,258a3.88,3.88,0,0,0,1.44-.24,5,5,0,0,0,1-.52Zm-2.89-5.7a2,2,0,0,0-1.37.49,2.4,2.4,0,0,0-.73,1.48h3.91a1.81,1.81,0,0,0-.46-1.49A1.92,1.92,0,0,0,612.52,252.59Z"/><path class="cls-3" d="M621.9,255.68h-3.51v3.22h-1.23v-7.26h1.23v3h3.51v-3h1.24v7.26H621.9Z"/><path class="cls-3" d="M628.08,252.69v6.21h-1.23v-6.21h-2.29v-1.05h5.84v1.05Z"/><path class="cls-3" d="M637.21,256.48a2.44,2.44,0,0,1-.23,1.09,2,2,0,0,1-.63.76,2.63,2.63,0,0,1-1,.43,4.75,4.75,0,0,1-1.22.14h-2.34v-7.26h1.23v2.53h1.19a3.71,3.71,0,0,1,2.17.55A2,2,0,0,1,637.21,256.48Zm-4.15-1.26v2.63h1.11a2.46,2.46,0,0,0,1.29-.3,1.08,1.08,0,0,0,.5-1,1.15,1.15,0,0,0-.45-1,2.17,2.17,0,0,0-1.26-.31Zm6.43,3.68h-1.24v-7.26h1.24Z"/><path class="cls-3" d="M450.75,273.68h-3.51v3.22H446v-7.26h1.23v3h3.51v-3H452v7.26h-1.24Z"/><path class="cls-3" d="M459.78,276.29a3.43,3.43,0,0,1-.37.24,4.71,4.71,0,0,1-1.28.44,5,5,0,0,1-.91.07,3.67,3.67,0,0,1-2.78-1,3.84,3.84,0,0,1-1-2.79,4.63,4.63,0,0,1,.26-1.58,3.56,3.56,0,0,1,.72-1.18,3.19,3.19,0,0,1,1.1-.74,3.41,3.41,0,0,1,1.37-.26,3.64,3.64,0,0,1,1.4.26,2.46,2.46,0,0,1,1,.79,2.93,2.93,0,0,1,.55,1.28,5.26,5.26,0,0,1,0,1.77h-5.12a2.49,2.49,0,0,0,.7,1.77,2.65,2.65,0,0,0,1.87.58,4,4,0,0,0,1.45-.24,4.88,4.88,0,0,0,1-.52Zm-2.88-5.7a2,2,0,0,0-1.37.49,2.35,2.35,0,0,0-.73,1.48h3.91a1.81,1.81,0,0,0-.47-1.49A1.88,1.88,0,0,0,456.9,270.59Z"/><path class="cls-3" d="M462.09,274.65a9.37,9.37,0,0,0,.26-1.93c0-.81,0-1.84,0-3.08h4.89v7.26H466v-6.21h-2.48c0,1,0,1.88-.09,2.66a8.9,8.9,0,0,1-.32,2,2.6,2.6,0,0,1-.71,1.21,1.87,1.87,0,0,1-1.26.41H461V275.7h.18C461.6,275.71,461.93,275.36,462.09,274.65Z"/><path class="cls-3" d="M474.69,274.48a2.44,2.44,0,0,1-.22,1.09,2,2,0,0,1-.63.76,2.61,2.61,0,0,1-1,.43,4.67,4.67,0,0,1-1.21.14h-2.41v-7.26h1.23v2.53h1.26a3.71,3.71,0,0,1,2.17.55A2,2,0,0,1,474.69,274.48Zm-4.21-1.26v2.63h1.18a2.46,2.46,0,0,0,1.29-.3,1.08,1.08,0,0,0,.5-1,1.15,1.15,0,0,0-.45-1,2.17,2.17,0,0,0-1.26-.31Z"/><path class="cls-3" d="M481.41,274.79a2.1,2.1,0,0,1-.24,1,2,2,0,0,1-.67.7,2.9,2.9,0,0,1-1,.39,5.95,5.95,0,0,1-2.56,0,3.36,3.36,0,0,1-1-.41v-1.1a3.83,3.83,0,0,0,1,.43,5.33,5.33,0,0,0,1.3.15,3.06,3.06,0,0,0,1.33-.26,1.05,1.05,0,0,0,.09-1.78,2.94,2.94,0,0,0-1.39-.25h-1v-1h1a2.1,2.1,0,0,0,1.17-.28.94.94,0,0,0,.41-.82.81.81,0,0,0-.13-.47,1.07,1.07,0,0,0-.36-.3,1.59,1.59,0,0,0-.52-.17,4.48,4.48,0,0,0-.64-.05,4.59,4.59,0,0,0-1.2.15,3.94,3.94,0,0,0-1,.44v-1.11a3.45,3.45,0,0,1,.94-.4,4.64,4.64,0,0,1,1.36-.17,3.43,3.43,0,0,1,2,.5,1.7,1.7,0,0,1,.67,1.45,1.54,1.54,0,0,1-.38,1.12,2.06,2.06,0,0,1-1.09.56,2.24,2.24,0,0,1,1.31.55A1.47,1.47,0,0,1,481.41,274.79Z"/><path class="cls-3" d="M483,272a2.33,2.33,0,0,1,.22-1.06,2.1,2.1,0,0,1,.63-.73,2.85,2.85,0,0,1,1-.42,4.7,4.7,0,0,1,1.22-.14h2.34v7.26h-1.24v-2.63h-1.33L484,276.9h-1.47l2.1-2.94a2.58,2.58,0,0,1-1.17-.68A1.9,1.9,0,0,1,483,272Zm4.14,1.23v-2.53h-1.1a2.62,2.62,0,0,0-1.29.29,1,1,0,0,0-.5.95,1.12,1.12,0,0,0,.44,1,2.31,2.31,0,0,0,1.28.3Z"/><path class="cls-3" d="M494.71,275.22l3.88-5.58h1.25v7.26h-1.23v-5.57l-3.87,5.57h-1.26v-7.26h1.23Z"/><path class="cls-3" d="M507,274.79a2.11,2.11,0,0,1-.25,1,1.93,1.93,0,0,1-.66.7,3,3,0,0,1-1,.39A5.4,5.4,0,0,1,504,277a5.47,5.47,0,0,1-1.41-.16,3.36,3.36,0,0,1-1-.41v-1.1a4,4,0,0,0,1,.43,5.33,5.33,0,0,0,1.3.15,3.14,3.14,0,0,0,1.34-.26,1,1,0,0,0,.08-1.78,2.94,2.94,0,0,0-1.39-.25h-1v-1h1a2.14,2.14,0,0,0,1.18-.28.93.93,0,0,0,.4-.82.81.81,0,0,0-.13-.47,1.07,1.07,0,0,0-.36-.3,1.59,1.59,0,0,0-.52-.17,4.37,4.37,0,0,0-.64-.05,4.59,4.59,0,0,0-1.2.15,3.94,3.94,0,0,0-1,.44v-1.11a3.39,3.39,0,0,1,.95-.4,4.52,4.52,0,0,1,1.35-.17,3.43,3.43,0,0,1,2,.5,1.71,1.71,0,0,1,.68,1.45,1.54,1.54,0,0,1-.39,1.12,2.07,2.07,0,0,1-1.08.56,2.23,2.23,0,0,1,1.3.55A1.48,1.48,0,0,1,507,274.79Z"/><path class="cls-3" d="M515.74,271.07l-2.46,5h-1L510,271v5.86h-1.16v-7.26h1.84l2.22,4.87,2.38-4.87H517v7.26h-1.22Z"/><path class="cls-3" d="M524.76,276.29a3.67,3.67,0,0,1-.38.24,4.27,4.27,0,0,1-.55.24,4.14,4.14,0,0,1-.72.2,5.17,5.17,0,0,1-.91.07,3.68,3.68,0,0,1-2.79-1,3.88,3.88,0,0,1-.95-2.79,4.4,4.4,0,0,1,.26-1.58,3.26,3.26,0,0,1,.72-1.18,3.15,3.15,0,0,1,1.09-.74,3.45,3.45,0,0,1,1.37-.26,3.64,3.64,0,0,1,1.4.26,2.56,2.56,0,0,1,1,.79,3,3,0,0,1,.54,1.28,5.24,5.24,0,0,1,0,1.77h-5.13a2.53,2.53,0,0,0,.7,1.77,2.68,2.68,0,0,0,1.88.58,3.88,3.88,0,0,0,1.44-.24,5,5,0,0,0,1-.52Zm-2.89-5.7a2,2,0,0,0-1.37.49,2.4,2.4,0,0,0-.73,1.48h3.91a1.81,1.81,0,0,0-.46-1.49A1.92,1.92,0,0,0,521.87,270.59Z"/><path class="cls-3" d="M531.25,273.68h-3.51v3.22h-1.23v-7.26h1.23v3h3.51v-3h1.24v7.26h-1.24Z"/><path class="cls-3" d="M534.5,272a2.33,2.33,0,0,1,.23-1.06,1.91,1.91,0,0,1,.63-.73,2.8,2.8,0,0,1,1-.42,4.75,4.75,0,0,1,1.22-.14h2.34v7.26h-1.23v-2.63h-1.33l-1.87,2.63H534l2.1-2.94a2.49,2.49,0,0,1-1.16-.68A1.86,1.86,0,0,1,534.5,272Zm4.15,1.23v-2.53h-1.11a2.62,2.62,0,0,0-1.29.29,1,1,0,0,0-.5.95,1.1,1.1,0,0,0,.45,1,2.27,2.27,0,0,0,1.27.3Z"/><path class="cls-3" d="M544.82,270.69v6.21h-1.23v-6.21h-2.28v-1.05h5.83v1.05Z"/><path class="cls-3" d="M554,274.48a2.44,2.44,0,0,1-.23,1.09,2,2,0,0,1-.63.76,2.63,2.63,0,0,1-1,.43,4.75,4.75,0,0,1-1.22.14h-2.41v-7.26h1.23v2.53H551a3.69,3.69,0,0,1,2.17.55A2,2,0,0,1,554,274.48Zm-4.22-1.26v2.63h1.18a2.46,2.46,0,0,0,1.29-.3,1.08,1.08,0,0,0,.5-1,1.15,1.15,0,0,0-.45-1,2.17,2.17,0,0,0-1.26-.31Z"/><path class="cls-3" d="M556.21,277a.87.87,0,0,1-.65-.26.85.85,0,0,1-.26-.62.91.91,0,1,1,1.81,0,.84.84,0,0,1-.25.62A.87.87,0,0,1,556.21,277Z"/><path class="cls-3" d="M452.38,321.31a10.26,10.26,0,0,1-3.6-.6A7.47,7.47,0,0,1,446,319a7.64,7.64,0,0,1-1.76-2.78,10.54,10.54,0,0,1-.61-3.71,11,11,0,0,1,.59-3.72A7.56,7.56,0,0,1,446,306a7.43,7.43,0,0,1,2.73-1.74,10.42,10.42,0,0,1,3.67-.6,11.66,11.66,0,0,1,3,.35,8,8,0,0,1,2,.8v2.59a7.51,7.51,0,0,0-2.24-.92,11.08,11.08,0,0,0-2.7-.32,5.47,5.47,0,0,0-4.31,1.57,6.94,6.94,0,0,0-1.41,4.76q0,6.34,5.86,6.34a9.4,9.4,0,0,0,2.58-.34,6.69,6.69,0,0,0,2.22-1.06V320a6.9,6.9,0,0,1-1.94.92A10.28,10.28,0,0,1,452.38,321.31Z"/><path class="cls-3" d="M465.63,310.87v10.2h-2.78v-10.2h-3.77v-2.25h10.39v2.25Z"/><path class="cls-3" d="M478.45,321.31a4.54,4.54,0,0,1-2.44-.63,4.83,4.83,0,0,1-1.64-1.72v6.36h-2.79v-16.7h2.55l.19,2.21A4.83,4.83,0,0,1,476,309a4.59,4.59,0,0,1,2.52-.66,5.68,5.68,0,0,1,2.1.39,4.77,4.77,0,0,1,1.74,1.2,5.81,5.81,0,0,1,1.19,2,9.28,9.28,0,0,1,0,5.71,5.68,5.68,0,0,1-1.2,2,4.93,4.93,0,0,1-1.76,1.2A5.81,5.81,0,0,1,478.45,321.31Zm-.68-2.3a3.11,3.11,0,0,0,2.42-1,5.8,5.8,0,0,0,0-6.27,3.08,3.08,0,0,0-2.39-1,3.79,3.79,0,0,0-1.37.25,2.81,2.81,0,0,0-1.09.79,3.69,3.69,0,0,0-.73,1.31,5.58,5.58,0,0,0-.27,1.82,5.66,5.66,0,0,0,.27,1.84,3.63,3.63,0,0,0,.72,1.3,2.82,2.82,0,0,0,1.09.77A3.77,3.77,0,0,0,477.77,319Z"/><path class="cls-3" d="M491.72,321.31a6.75,6.75,0,0,1-2.45-.43,5.69,5.69,0,0,1-2-1.26,5.79,5.79,0,0,1-1.29-2,8.34,8.34,0,0,1,0-5.52,5.88,5.88,0,0,1,1.29-2,5.5,5.5,0,0,1,2-1.24,7.36,7.36,0,0,1,4.9,0,5.5,5.5,0,0,1,2,1.24,6.12,6.12,0,0,1,1.33,2,8.34,8.34,0,0,1,0,5.52,6,6,0,0,1-1.33,2,5.69,5.69,0,0,1-2,1.26A6.79,6.79,0,0,1,491.72,321.31Zm0-2.3a3.16,3.16,0,0,0,2.39-1,5.75,5.75,0,0,0,0-6.3,3.29,3.29,0,0,0-4.76,0,5.75,5.75,0,0,0,0,6.3A3.14,3.14,0,0,0,491.72,319Z"/><path class="cls-3" d="M504.13,316h-1.08v5.06h-2.79V308.62h2.79v5.13h1.17l4-5.13h2.93l-4.7,6,4.89,6.45H508Z"/><path class="cls-3" d="M520.09,318.89a4.38,4.38,0,0,1-.52.86,3.66,3.66,0,0,1-.79.78,3.8,3.8,0,0,1-1.12.57,4.87,4.87,0,0,1-1.51.21,4.6,4.6,0,0,1-1.51-.23,3.28,3.28,0,0,1-1.21-.68,3.09,3.09,0,0,1-.82-1.14,3.86,3.86,0,0,1-.3-1.57,3.46,3.46,0,0,1,1.51-3.06,7.63,7.63,0,0,1,4.28-1H520v-.77a2,2,0,0,0-.62-1.69,3.55,3.55,0,0,0-2.07-.47A7.42,7.42,0,0,0,515,311a10.62,10.62,0,0,0-1.88.8V309.5a10,10,0,0,1,2-.76,9.35,9.35,0,0,1,2.66-.36,6,6,0,0,1,3.71,1,3.76,3.76,0,0,1,1.31,3.18v6.51c0,.14,0,.31,0,.49s0,.37,0,.56,0,.38,0,.54a3.47,3.47,0,0,0,0,.42h-2.57a8.28,8.28,0,0,1-.13-.93q-.06-.6-.09-1.08Zm-3.17.26a2.73,2.73,0,0,0,1.48-.37,3.44,3.44,0,0,0,1.45-1.83,3.08,3.08,0,0,0,.14-.68v-.84h-1.73a4.46,4.46,0,0,0-2.42.52,1.65,1.65,0,0,0-.77,1.45,1.76,1.76,0,0,0,.47,1.29A1.87,1.87,0,0,0,516.92,319.15Z"/><path class="cls-3" d="M535,324.41a14.13,14.13,0,0,1-2.75-4.85,18.48,18.48,0,0,1-.9-5.85,21,21,0,0,1,.23-3.08,18.28,18.28,0,0,1,.68-2.9,14.92,14.92,0,0,1,1.14-2.6,11.81,11.81,0,0,1,1.6-2.2h2.81a9.9,9.9,0,0,0-1.67,2.15,14.86,14.86,0,0,0-1.18,2.59,16.7,16.7,0,0,0-.69,2.89,20.84,20.84,0,0,0-.23,3.07,18.28,18.28,0,0,0,.91,5.87,14,14,0,0,0,2.86,4.91Z"/><path class="cls-3" d="M544.35,321.31a8.71,8.71,0,0,1-1.69-.15,9.94,9.94,0,0,1-1.33-.37,6.48,6.48,0,0,1-1-.46,6.09,6.09,0,0,1-.63-.43v-2.21a4.8,4.8,0,0,0,.66.47,6.89,6.89,0,0,0,1,.48,7.69,7.69,0,0,0,2.89.51,3.73,3.73,0,0,0,1.94-.39,1.32,1.32,0,0,0,.61-1.17,1.2,1.2,0,0,0-.24-.79,1.64,1.64,0,0,0-.65-.45,4,4,0,0,0-.95-.26c-.36,0-.73-.12-1.11-.2a15.24,15.24,0,0,1-1.48-.37,4.76,4.76,0,0,1-1.32-.64,3.23,3.23,0,0,1-1-1.05,3.7,3.7,0,0,1,.95-4.45,6.11,6.11,0,0,1,3.77-1,8.65,8.65,0,0,1,2.41.29,5.61,5.61,0,0,1,1.5.6v2.23a6.12,6.12,0,0,0-1.49-.68,7.89,7.89,0,0,0-2.3-.28,4.33,4.33,0,0,0-2,.35,1.22,1.22,0,0,0-.62,1.12,1,1,0,0,0,.23.68,1.42,1.42,0,0,0,.6.39,4.45,4.45,0,0,0,.86.23l1,.18c.5.09,1,.21,1.53.35a4.49,4.49,0,0,1,1.41.62,3.33,3.33,0,0,1,1,1.12,3.53,3.53,0,0,1,.4,1.8,3.71,3.71,0,0,1-.43,1.88,3.34,3.34,0,0,1-1.15,1.21,4.8,4.8,0,0,1-1.63.65A8.87,8.87,0,0,1,544.35,321.31Z"/><path class="cls-3" d="M557.31,321.13a5.58,5.58,0,0,1-1.49.18,4.64,4.64,0,0,1-1.69-.27,2.85,2.85,0,0,1-1.74-1.87,4.66,4.66,0,0,1-.19-1.36v-6.94h-1.49v-2.25h1.49V306H555v2.62h3.58v2.25H555v6.65a1.55,1.55,0,0,0,.37,1.13,1.75,1.75,0,0,0,1.24.36,2.85,2.85,0,0,0,1-.17,2.73,2.73,0,0,0,.79-.46v2.32A4.19,4.19,0,0,1,557.31,321.13Z"/><path class="cls-3" d="M565.45,311.74a3.31,3.31,0,0,0-1.68,1.44v7.89H561V308.62h2.55l.19,2.59h0a5.43,5.43,0,0,1,1.64-1.92,4.93,4.93,0,0,1,2.51-.91v2.93A6,6,0,0,0,565.45,311.74Z"/><path class="cls-3" d="M569.24,324.41a13.81,13.81,0,0,0,2.85-4.91,18.28,18.28,0,0,0,.92-5.87,20.84,20.84,0,0,0-.23-3.07,16.71,16.71,0,0,0-.7-2.89,14.12,14.12,0,0,0-1.17-2.59,10.21,10.21,0,0,0-1.67-2.15h2.81a11.77,11.77,0,0,1,1.59,2.2,13.55,13.55,0,0,1,1.14,2.6,18.3,18.3,0,0,1,.69,2.9,21,21,0,0,1,.22,3.08,18.48,18.48,0,0,1-.9,5.85,14.11,14.11,0,0,1-2.74,4.85Z"/><path class="cls-3" d="M293.23,145.89a6.08,6.08,0,0,1-.36,2.16,4.68,4.68,0,0,1-1,1.63,4.37,4.37,0,0,1-1.59,1,5.64,5.64,0,0,1-2.06.35,6,6,0,0,1-1.86-.26,4.29,4.29,0,0,1-1.18-.59v-1.26a4.4,4.4,0,0,0,1.42.71,5.52,5.52,0,0,0,1.52.21,3.77,3.77,0,0,0,2.65-.85,3.69,3.69,0,0,0,1.05-2.59h-4.72v-1.19h4.7a3.75,3.75,0,0,0-1-2.47,3.34,3.34,0,0,0-2.45-.82,6.5,6.5,0,0,0-1.57.2,5.46,5.46,0,0,0-1.44.6v-1.26a5.07,5.07,0,0,1,1.25-.51,6.15,6.15,0,0,1,1.75-.22,5.91,5.91,0,0,1,2.09.35,4,4,0,0,1,1.54,1,4.51,4.51,0,0,1,1,1.62A6.92,6.92,0,0,1,293.23,145.89Z"/><path class="cls-3" d="M295.17,148.65a9.37,9.37,0,0,0,.26-1.93c0-.81.05-1.84.05-3.08h4.89v7.26h-1.25v-6.21h-2.48c0,1,0,1.88-.09,2.66a8.9,8.9,0,0,1-.32,2,2.6,2.6,0,0,1-.71,1.21,1.85,1.85,0,0,1-1.26.41H294V149.7h.18C294.68,149.71,295,149.36,295.17,148.65Z"/><path class="cls-3" d="M308.15,150.29a3.67,3.67,0,0,1-.38.24,4.76,4.76,0,0,1-.54.24,4.53,4.53,0,0,1-.73.2,5,5,0,0,1-.91.07,3.71,3.71,0,0,1-2.79-1,3.88,3.88,0,0,1-.95-2.79,4.63,4.63,0,0,1,.26-1.58,3.26,3.26,0,0,1,.72-1.18,3.15,3.15,0,0,1,1.09-.74,3.46,3.46,0,0,1,1.38-.26,3.64,3.64,0,0,1,1.4.26,2.46,2.46,0,0,1,1,.79,2.93,2.93,0,0,1,.55,1.28,5.26,5.26,0,0,1,0,1.77h-5.12a2.49,2.49,0,0,0,.7,1.77,2.65,2.65,0,0,0,1.87.58,3.88,3.88,0,0,0,1.44-.24,4.73,4.73,0,0,0,1-.52Zm-2.88-5.7a2,2,0,0,0-1.37.49,2.3,2.3,0,0,0-.73,1.48h3.9a1.78,1.78,0,0,0-.46-1.49A1.88,1.88,0,0,0,305.27,144.59Z"/><path class="cls-3" d="M316.83,145.07l-2.46,5h-1L311.06,145v5.86H309.9v-7.26h1.84l2.22,4.87,2.38-4.87h1.71v7.26h-1.22Z"/><path class="cls-3" d="M325.85,150.29a3.67,3.67,0,0,1-.38.24,4.27,4.27,0,0,1-.55.24,4.14,4.14,0,0,1-.72.2,5.1,5.1,0,0,1-.91.07,3.68,3.68,0,0,1-2.79-1,3.88,3.88,0,0,1-.95-2.79,4.4,4.4,0,0,1,.26-1.58,3.26,3.26,0,0,1,.72-1.18,3.15,3.15,0,0,1,1.09-.74,3.45,3.45,0,0,1,1.37-.26,3.6,3.6,0,0,1,1.4.26,2.56,2.56,0,0,1,1,.79,2.92,2.92,0,0,1,.54,1.28,5.24,5.24,0,0,1,0,1.77h-5.13a2.53,2.53,0,0,0,.7,1.77,2.68,2.68,0,0,0,1.88.58,3.88,3.88,0,0,0,1.44-.24,5,5,0,0,0,1-.52Zm-2.89-5.7a2,2,0,0,0-1.37.49,2.4,2.4,0,0,0-.73,1.48h3.91a1.81,1.81,0,0,0-.46-1.49A1.91,1.91,0,0,0,323,144.59Z"/><path class="cls-3" d="M332.34,147.68h-3.51v3.22H327.6v-7.26h1.23v3h3.51v-3h1.24v7.26h-1.24Z"/><path class="cls-3" d="M338.52,144.69v6.21h-1.23v-6.21H335v-1.05h5.84v1.05Z"/><path class="cls-3" d="M347.65,148.48a2.44,2.44,0,0,1-.23,1.09,2,2,0,0,1-.63.76,2.63,2.63,0,0,1-1,.43,4.75,4.75,0,0,1-1.22.14h-2.34v-7.26h1.23v2.53h1.19a3.69,3.69,0,0,1,2.17.55A2,2,0,0,1,347.65,148.48Zm-4.15-1.26v2.63h1.11a2.46,2.46,0,0,0,1.29-.3,1.06,1.06,0,0,0,.5-1,1.15,1.15,0,0,0-.45-1,2.17,2.17,0,0,0-1.26-.31Zm6.43,3.68H348.7v-7.26h1.23Z"/><path class="cls-3" d="M362,145.07l-2.47,5h-1L356.19,145v5.86H355v-7.26h1.84l2.22,4.87,2.38-4.87h1.71v7.26H362Z"/><path class="cls-3" d="M368.17,151a3.77,3.77,0,0,1-1.39-.25,3.2,3.2,0,0,1-1.11-.73,3.41,3.41,0,0,1-.73-1.19,4.42,4.42,0,0,1-.27-1.61,4.47,4.47,0,0,1,.27-1.6,3.15,3.15,0,0,1,1.84-1.91,4,4,0,0,1,2.79,0,3.11,3.11,0,0,1,1.11.73,3.37,3.37,0,0,1,.75,1.18,4.47,4.47,0,0,1,.27,1.6,4.42,4.42,0,0,1-.27,1.61,3.6,3.6,0,0,1-.75,1.19,3.11,3.11,0,0,1-1.11.73A3.78,3.78,0,0,1,368.17,151Zm0-1.09a2.36,2.36,0,0,0,.9-.16,1.89,1.89,0,0,0,.72-.49,2.16,2.16,0,0,0,.48-.84,4.25,4.25,0,0,0,0-2.38,2.16,2.16,0,0,0-.48-.84,1.89,1.89,0,0,0-.72-.49,2.61,2.61,0,0,0-1.8,0,1.89,1.89,0,0,0-.7.49,2.27,2.27,0,0,0-.47.84,4.25,4.25,0,0,0,0,2.38,2.27,2.27,0,0,0,.47.84,1.89,1.89,0,0,0,.7.49A2.36,2.36,0,0,0,368.17,150Z"/><path class="cls-3" d="M377.86,143.64v3.12h.66l2.31-3.12h1.35l-2.7,3.55,2.8,3.71h-1.5l-2.32-3.09h-.6v3.09h-1.23v-3.09H376l-2.35,3.09H372.2l2.8-3.66-2.7-3.6h1.41l2.27,3.12h.65v-3.12Z"/><path class="cls-3" d="M388.33,147.68h-3.51v3.22h-1.24v-7.26h1.24v3h3.51v-3h1.23v7.26h-1.23Z"/><path class="cls-3" d="M394.56,151a3.77,3.77,0,0,1-1.39-.25,3.2,3.2,0,0,1-1.11-.73,3.41,3.41,0,0,1-.73-1.19,4.42,4.42,0,0,1-.27-1.61,4.47,4.47,0,0,1,.27-1.6,3.15,3.15,0,0,1,1.84-1.91,4,4,0,0,1,2.79,0,3.11,3.11,0,0,1,1.11.73,3.37,3.37,0,0,1,.75,1.18,4.47,4.47,0,0,1,.27,1.6,4.42,4.42,0,0,1-.27,1.61,3.6,3.6,0,0,1-.75,1.19,3.11,3.11,0,0,1-1.11.73A3.78,3.78,0,0,1,394.56,151Zm0-1.09a2.36,2.36,0,0,0,.9-.16,1.89,1.89,0,0,0,.72-.49,2.16,2.16,0,0,0,.48-.84,4.25,4.25,0,0,0,0-2.38,2.16,2.16,0,0,0-.48-.84,1.89,1.89,0,0,0-.72-.49,2.61,2.61,0,0,0-1.8,0,1.89,1.89,0,0,0-.7.49,2.27,2.27,0,0,0-.47.84,4.25,4.25,0,0,0,0,2.38,2.27,2.27,0,0,0,.47.84,1.89,1.89,0,0,0,.7.49A2.36,2.36,0,0,0,394.56,150Z"/><path class="cls-3" d="M302.31,161.64h5.83v7.26h-1.23v-6.21h-3.36v6.21h-1.24Z"/><path class="cls-3" d="M315.94,168.29c-.11.08-.23.15-.38.24a4.71,4.71,0,0,1-1.28.44,5,5,0,0,1-.91.07,3.67,3.67,0,0,1-2.78-1,3.84,3.84,0,0,1-.95-2.79,4.4,4.4,0,0,1,.26-1.58,3.26,3.26,0,0,1,.72-1.18,3.06,3.06,0,0,1,1.09-.74,3.45,3.45,0,0,1,1.37-.26,3.64,3.64,0,0,1,1.4.26,2.56,2.56,0,0,1,1,.79,3,3,0,0,1,.54,1.28,5,5,0,0,1,0,1.77h-5.12a2.53,2.53,0,0,0,.7,1.77,2.68,2.68,0,0,0,1.88.58,3.88,3.88,0,0,0,1.44-.24,5,5,0,0,0,1-.52Zm-2.89-5.7a2,2,0,0,0-1.37.49,2.35,2.35,0,0,0-.73,1.48h3.91a1.81,1.81,0,0,0-.46-1.49A1.92,1.92,0,0,0,313.05,162.59Z"/><path class="cls-3" d="M321.34,169a2.64,2.64,0,0,1-1.45-.39,2.83,2.83,0,0,1-1-1.08v3.81h-1.23v-9.74h1.07l.13,1.41a3,3,0,0,1,1-1.13,2.65,2.65,0,0,1,1.53-.42,3.14,3.14,0,0,1,1.21.23,2.74,2.74,0,0,1,1,.7,3.38,3.38,0,0,1,.7,1.17,4.94,4.94,0,0,1,.26,1.66,4.74,4.74,0,0,1-.27,1.68,3.25,3.25,0,0,1-.71,1.17,2.9,2.9,0,0,1-1,.7A3.2,3.2,0,0,1,321.34,169Zm-.18-1.09a2,2,0,0,0,1.56-.67,3.7,3.7,0,0,0,0-4,2,2,0,0,0-1.56-.68,2.35,2.35,0,0,0-.89.17,1.87,1.87,0,0,0-.71.5,2.24,2.24,0,0,0-.48.83,4,4,0,0,0,0,2.36,2.29,2.29,0,0,0,.48.84,1.77,1.77,0,0,0,.71.5A2.35,2.35,0,0,0,321.16,168Z"/><path class="cls-3" d="M331.87,168.29a3.67,3.67,0,0,1-.38.24,4.27,4.27,0,0,1-.55.24,4.14,4.14,0,0,1-.72.2,5.1,5.1,0,0,1-.91.07,3.68,3.68,0,0,1-2.79-1,3.88,3.88,0,0,1-.95-2.79,4.4,4.4,0,0,1,.26-1.58,3.26,3.26,0,0,1,.72-1.18,3.15,3.15,0,0,1,1.09-.74,3.45,3.45,0,0,1,1.37-.26,3.6,3.6,0,0,1,1.4.26,2.56,2.56,0,0,1,1,.79,3,3,0,0,1,.54,1.28,5.24,5.24,0,0,1,0,1.77h-5.13a2.53,2.53,0,0,0,.7,1.77,2.68,2.68,0,0,0,1.88.58,3.88,3.88,0,0,0,1.44-.24,5,5,0,0,0,1-.52Zm-2.89-5.7a2,2,0,0,0-1.37.49,2.4,2.4,0,0,0-.73,1.48h3.91a1.81,1.81,0,0,0-.46-1.49A1.91,1.91,0,0,0,329,162.59Z"/><path class="cls-3" d="M340.17,165.26a4.42,4.42,0,0,1-.27,1.61,3.58,3.58,0,0,1-.74,1.19,3.24,3.24,0,0,1-1.12.73,3.75,3.75,0,0,1-1.4.25,3.61,3.61,0,0,1-1.41-.26,2.8,2.8,0,0,1-1.11-.79,3.65,3.65,0,0,1-.72-1.34,6.41,6.41,0,0,1-.26-1.92c0-.6,0-1.18.06-1.73a7.87,7.87,0,0,1,.25-1.54,4.44,4.44,0,0,1,.57-1.27,3,3,0,0,1,1-.95,2.77,2.77,0,0,1,.73-.31,4.89,4.89,0,0,1,.76-.16,6.85,6.85,0,0,1,.78-.07l.77,0a6.16,6.16,0,0,0,.93-.14,2.61,2.61,0,0,0,.68-.27v1.12a2.17,2.17,0,0,1-.65.28c-.23.05-.51.09-.84.13-.53.05-1,.08-1.46.1a3,3,0,0,0-1.21.32,2.12,2.12,0,0,0-1,1.17,6.74,6.74,0,0,0-.36,1.84,2.73,2.73,0,0,1,2.75-1.68,3.39,3.39,0,0,1,1.28.24,3.13,3.13,0,0,1,1,.72,3.55,3.55,0,0,1,.69,1.17A4.65,4.65,0,0,1,340.17,165.26ZM336.64,168a2.36,2.36,0,0,0,.9-.16,2,2,0,0,0,.73-.49,2.27,2.27,0,0,0,.47-.84,4.25,4.25,0,0,0,0-2.38,2.27,2.27,0,0,0-.47-.84,2,2,0,0,0-.73-.49,2.36,2.36,0,0,0-.9-.16,2.12,2.12,0,0,0-1.6.65,2.71,2.71,0,0,0-.64,2,3.92,3.92,0,0,0,.17,1.21,2.32,2.32,0,0,0,.47.85,1.84,1.84,0,0,0,.71.5A2.35,2.35,0,0,0,336.64,168Z"/><path class="cls-3" d="M342.94,167.22l3.88-5.58h1.25v7.26h-1.24v-5.57L343,168.9h-1.26v-7.26h1.23Z"/><path class="cls-3" d="M353.74,169a2.62,2.62,0,0,1-1.45-.39,2.85,2.85,0,0,1-1-1.08v3.81h-1.23v-9.74h1.08l.13,1.41a3,3,0,0,1,1-1.13,2.64,2.64,0,0,1,1.52-.42,3.1,3.1,0,0,1,1.21.23,2.86,2.86,0,0,1,1,.7,3.54,3.54,0,0,1,.7,1.17,5,5,0,0,1,.25,1.66,4.75,4.75,0,0,1-.26,1.68,3.41,3.41,0,0,1-.72,1.17,2.78,2.78,0,0,1-1,.7A3.2,3.2,0,0,1,353.74,169Zm-.19-1.09a2,2,0,0,0,1.57-.67,3.7,3.7,0,0,0,0-4,2,2,0,0,0-1.57-.68,2.34,2.34,0,0,0-.88.17,1.91,1.91,0,0,0-.72.5,2.23,2.23,0,0,0-.47.83,4,4,0,0,0,0,2.36,2.27,2.27,0,0,0,.47.84,1.8,1.8,0,0,0,.72.5A2.33,2.33,0,0,0,353.55,168Z"/><path class="cls-3" d="M362.67,167.52a4.31,4.31,0,0,1-.32.52,2.89,2.89,0,0,1-.49.5,2.43,2.43,0,0,1-.7.36,2.6,2.6,0,0,1-.93.14,2.24,2.24,0,0,1-1.58-.55,2.06,2.06,0,0,1-.6-1.59,2,2,0,0,1,.83-1.75,4.28,4.28,0,0,1,2.37-.56h1.36V164a1.34,1.34,0,0,0-.39-1.08,2.19,2.19,0,0,0-1.35-.32,3.61,3.61,0,0,0-1.27.22,6.75,6.75,0,0,0-1.08.49v-1.1a5.42,5.42,0,0,1,1.06-.47,4.26,4.26,0,0,1,1.46-.23,3.36,3.36,0,0,1,2.09.56,2.11,2.11,0,0,1,.71,1.76v3.91c0,.08,0,.18,0,.28s0,.22,0,.33,0,.22,0,.32a1.44,1.44,0,0,0,0,.24h-1.12c0-.13-.05-.31-.07-.55a5,5,0,0,1,0-.62Zm-2.17.43a1.9,1.9,0,0,0,1-.24,2.42,2.42,0,0,0,.66-.55,2.9,2.9,0,0,0,.36-.62,1.74,1.74,0,0,0,.11-.43v-.54h-1.23a3.07,3.07,0,0,0-1.6.32,1.06,1.06,0,0,0-.5,1,1.12,1.12,0,0,0,.29.8A1.23,1.23,0,0,0,360.5,168Z"/><path class="cls-3" d="M368.63,162.69v6.21H367.4v-6.21h-2.28v-1.05H371v1.05Z"/><path class="cls-3" d="M377.79,166.48a2.44,2.44,0,0,1-.23,1.09,1.94,1.94,0,0,1-.63.76,2.63,2.63,0,0,1-1,.43,4.75,4.75,0,0,1-1.22.14h-2.41v-7.26h1.23v2.53h1.26a3.69,3.69,0,0,1,2.17.55A2,2,0,0,1,377.79,166.48Zm-4.22-1.26v2.63h1.18a2.46,2.46,0,0,0,1.29-.3,1.06,1.06,0,0,0,.5-1,1.15,1.15,0,0,0-.45-1,2.17,2.17,0,0,0-1.26-.31Z"/><path class="cls-3" d="M379.1,170.4a2.37,2.37,0,0,0,.26-.33l.23-.4a2.56,2.56,0,0,0,.16-.4,1.89,1.89,0,0,0,.1-.32.86.86,0,0,1-.48-.3.81.81,0,0,1-.18-.53.83.83,0,0,1,.23-.61.92.92,0,0,1,1.26,0,1,1,0,0,1,.24.72,2.16,2.16,0,0,1-.08.6,5.46,5.46,0,0,1-.21.61,2.77,2.77,0,0,1-.29.54,2,2,0,0,1-.31.4Z"/><path class="cls-3" d="M280.17,185.22l3.87-5.58h1.25v7.26h-1.23v-5.57l-3.87,5.57h-1.26v-7.26h1.24Z"/><path class="cls-3" d="M290.44,187a4.11,4.11,0,0,1-1.52-.26,3.21,3.21,0,0,1-1.15-.74,3.14,3.14,0,0,1-.73-1.18,4.67,4.67,0,0,1-.25-1.6,4.4,4.4,0,0,1,.26-1.58,3.28,3.28,0,0,1,.73-1.18,3.21,3.21,0,0,1,1.17-.74,4.17,4.17,0,0,1,1.55-.26,5.2,5.2,0,0,1,1.23.14,2.67,2.67,0,0,1,.93.43v1.11a3.16,3.16,0,0,0-1-.44,4.24,4.24,0,0,0-1.14-.15,2.4,2.4,0,0,0-1.87.66,3,3,0,0,0-.59,2,3,3,0,0,0,.57,2,2.3,2.3,0,0,0,1.82.66,4.17,4.17,0,0,0,1.21-.16,5.46,5.46,0,0,0,1-.41v1.09a4.18,4.18,0,0,1-1,.41A4.45,4.45,0,0,1,290.44,187Z"/><path class="cls-3" d="M294.31,179.64h5.82v7.26H298.9v-6.21h-3.36v6.21h-1.23Z"/><path class="cls-3" d="M305.13,187a3.73,3.73,0,0,1-1.39-.25,3.11,3.11,0,0,1-1.11-.73,3.58,3.58,0,0,1-.74-1.19,4.65,4.65,0,0,1-.26-1.61,4.71,4.71,0,0,1,.26-1.6,3.35,3.35,0,0,1,.74-1.18,3.11,3.11,0,0,1,1.11-.73,3.73,3.73,0,0,1,1.39-.25,3.78,3.78,0,0,1,1.4.25,3.11,3.11,0,0,1,1.11.73,3.35,3.35,0,0,1,.74,1.18,4.26,4.26,0,0,1,.28,1.6,4.21,4.21,0,0,1-.28,1.61,3.58,3.58,0,0,1-.74,1.19,3.11,3.11,0,0,1-1.11.73A3.78,3.78,0,0,1,305.13,187Zm0-1.09a2.36,2.36,0,0,0,.9-.16,1.89,1.89,0,0,0,.72-.49,2.16,2.16,0,0,0,.48-.84,4.25,4.25,0,0,0,0-2.38,2.16,2.16,0,0,0-.48-.84,1.89,1.89,0,0,0-.72-.49,2.61,2.61,0,0,0-1.8,0,1.89,1.89,0,0,0-.7.49,2.27,2.27,0,0,0-.47.84,4.25,4.25,0,0,0,0,2.38,2.27,2.27,0,0,0,.47.84,1.89,1.89,0,0,0,.7.49A2.36,2.36,0,0,0,305.13,186Z"/><path class="cls-3" d="M310.5,184.65a9.37,9.37,0,0,0,.26-1.93c0-.81.05-1.84.05-3.08h4.89v7.26h-1.25v-6.21H312c0,1,0,1.88-.09,2.66a8.9,8.9,0,0,1-.32,2,2.6,2.6,0,0,1-.71,1.21,1.85,1.85,0,0,1-1.26.41h-.23V185.7h.18C310,185.71,310.34,185.36,310.5,184.65Z"/><path class="cls-3" d="M323.1,184.48a2.44,2.44,0,0,1-.22,1.09,2,2,0,0,1-.63.76,2.61,2.61,0,0,1-1,.43,4.67,4.67,0,0,1-1.21.14h-2.41v-7.26h1.23v2.53h1.26a3.71,3.71,0,0,1,2.17.55A2,2,0,0,1,323.1,184.48Zm-4.21-1.26v2.63h1.18a2.46,2.46,0,0,0,1.29-.3,1.08,1.08,0,0,0,.5-1,1.15,1.15,0,0,0-.45-1,2.17,2.17,0,0,0-1.26-.31Z"/><path class="cls-3" d="M329.82,184.79a2.1,2.1,0,0,1-.24,1,2,2,0,0,1-.67.7,2.9,2.9,0,0,1-1,.39,5.95,5.95,0,0,1-2.56,0,3.36,3.36,0,0,1-1-.41v-1.1a3.83,3.83,0,0,0,1,.43,5.33,5.33,0,0,0,1.3.15,3.06,3.06,0,0,0,1.33-.26,1.05,1.05,0,0,0,.09-1.78,2.94,2.94,0,0,0-1.39-.25h-1v-1h1a2.1,2.1,0,0,0,1.17-.28.94.94,0,0,0,.41-.82.81.81,0,0,0-.13-.47,1.07,1.07,0,0,0-.36-.3,1.59,1.59,0,0,0-.52-.17,4.48,4.48,0,0,0-.64,0,4.59,4.59,0,0,0-1.2.15,3.94,3.94,0,0,0-1,.44v-1.11a3.45,3.45,0,0,1,.94-.4,4.64,4.64,0,0,1,1.36-.17,3.43,3.43,0,0,1,2,.5,1.7,1.7,0,0,1,.67,1.45,1.54,1.54,0,0,1-.38,1.12,2.06,2.06,0,0,1-1.09.56,2.24,2.24,0,0,1,1.31.55A1.47,1.47,0,0,1,329.82,184.79Z"/><path class="cls-3" d="M334.53,188a3.83,3.83,0,0,1-.63.85,2.44,2.44,0,0,1-.79.53,2.74,2.74,0,0,1-1,.17,4.17,4.17,0,0,1-.52,0,2.43,2.43,0,0,1-.43-.12v-1.18a1.42,1.42,0,0,0,.39.18,2.12,2.12,0,0,0,.52.06,1.36,1.36,0,0,0,.85-.25,2.45,2.45,0,0,0,.65-.79l-3-7.75H332l2.31,6.13,2.3-6.13h1.19l-2.72,7.18A9.68,9.68,0,0,1,334.53,188Z"/><path class="cls-3" d="M338.64,182a2.33,2.33,0,0,1,.23-1.06,2.1,2.1,0,0,1,.63-.73,2.8,2.8,0,0,1,1-.42,4.75,4.75,0,0,1,1.22-.14H344v7.26h-1.23v-2.63h-1.33l-1.86,2.63h-1.47l2.1-2.94a2.47,2.47,0,0,1-1.17-.68A1.86,1.86,0,0,1,338.64,182Zm4.15,1.23v-2.53h-1.11a2.62,2.62,0,0,0-1.29.29,1,1,0,0,0-.5,1,1.1,1.1,0,0,0,.45,1,2.27,2.27,0,0,0,1.27.3Z"/><path class="cls-3" d="M355,186.9h-5.92v-7.26h1.23v6.21h3.57v-6.21h1.23v6.21h1.09V189h-1.05Z"/><path class="cls-3" d="M358.76,185.22l3.88-5.58h1.25v7.26h-1.24v-5.57l-3.86,5.57h-1.26v-7.26h1.23Z"/><path class="cls-3" d="M367.78,183.81h-.65v3.09H365.9v-7.26h1.23v3.12h.7l2.55-3.12h1.4l-3,3.58,3,3.68h-1.5Z"/><path class="cls-3" d="M373.7,184.65a9.47,9.47,0,0,0,.25-1.93c0-.81.06-1.84.06-3.08h4.88v7.26h-1.24v-6.21h-2.48c0,1,0,1.88-.09,2.66a8.9,8.9,0,0,1-.32,2,2.61,2.61,0,0,1-.72,1.21,1.84,1.84,0,0,1-1.25.41h-.24V185.7h.18C373.21,185.71,373.53,185.36,373.7,184.65Z"/><path class="cls-3" d="M386,181v6h-1.61v-6h-.87v-1.31h.87v-.13a2.66,2.66,0,0,1,.76-2,2.74,2.74,0,0,1,2-.73,5,5,0,0,1,.61,0,1.93,1.93,0,0,1,.43.1v1.37a2.27,2.27,0,0,0-.36-.11,3,3,0,0,0-.55,0,1.3,1.3,0,0,0-.94.35,1.51,1.51,0,0,0-.35,1.08v.13H388V181Z"/><path class="cls-3" d="M392.28,187a3.91,3.91,0,0,1-1.43-.25,3.23,3.23,0,0,1-1.14-.73,3.47,3.47,0,0,1-.76-1.19,4.42,4.42,0,0,1-.27-1.61,4.49,4.49,0,0,1,.27-1.61,3.43,3.43,0,0,1,.76-1.18,3.23,3.23,0,0,1,1.14-.73,4.38,4.38,0,0,1,2.86,0,3.29,3.29,0,0,1,1.91,1.91,4.28,4.28,0,0,1,.28,1.61,4.21,4.21,0,0,1-.28,1.61,3.27,3.27,0,0,1-1.91,1.92A4,4,0,0,1,392.28,187Zm0-1.34a1.84,1.84,0,0,0,1.39-.59,3.34,3.34,0,0,0,0-3.67,1.9,1.9,0,0,0-2.77,0,3.34,3.34,0,0,0,0,3.67A1.83,1.83,0,0,0,392.28,185.7Z"/><path class="cls-3" d="M399.87,181.46a1.93,1.93,0,0,0-1,.84v4.6h-1.63v-7.26h1.49l.11,1.51h0a3.21,3.21,0,0,1,.95-1.12,2.86,2.86,0,0,1,1.47-.53v1.71A3.49,3.49,0,0,0,399.87,181.46Z"/><path class="cls-3" d="M403.41,187a.9.9,0,0,1-.66-.26.84.84,0,0,1-.25-.62.87.87,0,0,1,.25-.65.89.89,0,0,1,.66-.25.86.86,0,0,1,.89.9.84.84,0,0,1-.25.62A.87.87,0,0,1,403.41,187Z"/><path class="cls-3" d="M453.81,135.89a6.07,6.07,0,0,1-.37,2.16,4.52,4.52,0,0,1-1,1.63,4.37,4.37,0,0,1-1.59,1,5.68,5.68,0,0,1-2.06.35,6,6,0,0,1-1.86-.26,4.15,4.15,0,0,1-1.18-.59v-1.26a4.4,4.4,0,0,0,1.42.71,5.52,5.52,0,0,0,1.52.21,3.77,3.77,0,0,0,2.65-.85,3.65,3.65,0,0,0,1-2.59h-4.71v-1.19h4.7a3.75,3.75,0,0,0-1-2.47,3.36,3.36,0,0,0-2.45-.82,6.64,6.64,0,0,0-1.58.2,5.54,5.54,0,0,0-1.43.6v-1.26a4.91,4.91,0,0,1,1.25-.51,6.11,6.11,0,0,1,1.75-.22,5.91,5.91,0,0,1,2.09.35,4.09,4.09,0,0,1,1.54,1,4.49,4.49,0,0,1,.94,1.62A6.64,6.64,0,0,1,453.81,135.89Z"/><path class="cls-3" d="M455.75,138.65a8.81,8.81,0,0,0,.25-1.93c0-.81.06-1.84.06-3.08H461v7.26H459.7v-6.21h-2.48c0,1,0,1.88-.09,2.66a8.9,8.9,0,0,1-.32,2,2.53,2.53,0,0,1-.72,1.21,1.84,1.84,0,0,1-1.25.41h-.24V139.7h.19C455.26,139.71,455.58,139.36,455.75,138.65Z"/><path class="cls-3" d="M468.73,140.29a3.67,3.67,0,0,1-.38.24,4.76,4.76,0,0,1-.54.24,4.53,4.53,0,0,1-.73.2,5.1,5.1,0,0,1-.91.07,3.7,3.7,0,0,1-2.79-1,3.88,3.88,0,0,1-.95-2.79,4.63,4.63,0,0,1,.26-1.58,3.26,3.26,0,0,1,.72-1.18,3.15,3.15,0,0,1,1.09-.74,3.45,3.45,0,0,1,1.37-.26,3.6,3.6,0,0,1,1.4.26,2.56,2.56,0,0,1,1,.79,2.92,2.92,0,0,1,.54,1.28,5.24,5.24,0,0,1,0,1.77H463.7a2.53,2.53,0,0,0,.7,1.77,2.68,2.68,0,0,0,1.88.58,3.88,3.88,0,0,0,1.44-.24,5,5,0,0,0,1-.52Zm-2.88-5.7a2,2,0,0,0-1.38.49,2.34,2.34,0,0,0-.72,1.48h3.9a1.81,1.81,0,0,0-.46-1.49A1.9,1.9,0,0,0,465.85,134.59Z"/><path class="cls-3" d="M477.41,135.07l-2.46,5h-1L471.64,135v5.86h-1.16v-7.26h1.83l2.23,4.87,2.38-4.87h1.71v7.26h-1.22Z"/><path class="cls-3" d="M486.43,140.29c-.11.08-.23.15-.38.24a4.71,4.71,0,0,1-1.28.44,5,5,0,0,1-.91.07,3.67,3.67,0,0,1-2.78-1,3.84,3.84,0,0,1-.95-2.79,4.64,4.64,0,0,1,.25-1.58,3.42,3.42,0,0,1,.73-1.18,3.06,3.06,0,0,1,1.09-.74,3.45,3.45,0,0,1,1.37-.26,3.64,3.64,0,0,1,1.4.26,2.46,2.46,0,0,1,1,.79,2.93,2.93,0,0,1,.55,1.28,5,5,0,0,1,0,1.77H481.4a2.53,2.53,0,0,0,.7,1.77A2.66,2.66,0,0,0,484,140a3.88,3.88,0,0,0,1.44-.24,5,5,0,0,0,1-.52Zm-2.89-5.7a2,2,0,0,0-1.37.49,2.35,2.35,0,0,0-.73,1.48h3.91a1.84,1.84,0,0,0-.46-1.49A1.92,1.92,0,0,0,483.54,134.59Z"/><path class="cls-3" d="M492.92,137.68h-3.51v3.22h-1.23v-7.26h1.23v3h3.51v-3h1.23v7.26h-1.23Z"/><path class="cls-3" d="M499.1,134.69v6.21h-1.24v-6.21h-2.28v-1.05h5.84v1.05Z"/><path class="cls-3" d="M508.22,138.48a2.44,2.44,0,0,1-.22,1.09,2,2,0,0,1-.63.76,2.61,2.61,0,0,1-1,.43,4.67,4.67,0,0,1-1.21.14h-2.34v-7.26h1.23v2.53h1.19a3.71,3.71,0,0,1,2.17.55A2,2,0,0,1,508.22,138.48Zm-4.14-1.26v2.63h1.11a2.46,2.46,0,0,0,1.29-.3,1.08,1.08,0,0,0,.5-1,1.15,1.15,0,0,0-.45-1,2.17,2.17,0,0,0-1.26-.31Zm6.43,3.68h-1.24v-7.26h1.24Z"/><path class="cls-3" d="M518.64,142a3.83,3.83,0,0,1-.63.85,2.51,2.51,0,0,1-.78.53,2.83,2.83,0,0,1-1,.17,4.17,4.17,0,0,1-.52,0,2.43,2.43,0,0,1-.43-.12v-1.18a1.42,1.42,0,0,0,.39.18,2.12,2.12,0,0,0,.52.06,1.34,1.34,0,0,0,.85-.25,2.45,2.45,0,0,0,.65-.79l-3-7.75h1.36l2.31,6.13,2.3-6.13h1.19l-2.72,7.18A8.31,8.31,0,0,1,518.64,142Z"/><path class="cls-3" d="M523.11,133.64h5.82v7.26H527.7v-6.21h-3.36v6.21h-1.23Z"/><path class="cls-3" d="M533.93,141a3.73,3.73,0,0,1-1.39-.25,3.11,3.11,0,0,1-1.11-.73,3.58,3.58,0,0,1-.74-1.19,4.65,4.65,0,0,1-.26-1.61,4.71,4.71,0,0,1,.26-1.6,3.35,3.35,0,0,1,.74-1.18,3.11,3.11,0,0,1,1.11-.73,3.73,3.73,0,0,1,1.39-.25,3.78,3.78,0,0,1,1.4.25,3.11,3.11,0,0,1,1.11.73,3.35,3.35,0,0,1,.74,1.18,4.47,4.47,0,0,1,.28,1.6,4.41,4.41,0,0,1-.28,1.61,3.58,3.58,0,0,1-.74,1.19,3.11,3.11,0,0,1-1.11.73A3.78,3.78,0,0,1,533.93,141Zm0-1.09a2.44,2.44,0,0,0,.9-.16,1.89,1.89,0,0,0,.72-.49,2.16,2.16,0,0,0,.48-.84,4.25,4.25,0,0,0,0-2.38,2.16,2.16,0,0,0-.48-.84,1.89,1.89,0,0,0-.72-.49,2.44,2.44,0,0,0-.9-.16,2.36,2.36,0,0,0-.9.16,2,2,0,0,0-.71.49,2.26,2.26,0,0,0-.46.84,4.25,4.25,0,0,0,0,2.38,2.26,2.26,0,0,0,.46.84,2,2,0,0,0,.71.49A2.36,2.36,0,0,0,533.93,140Z"/><path class="cls-3" d="M542.61,141a2.62,2.62,0,0,1-1.45-.39,2.75,2.75,0,0,1-1-1.08v3.81H539v-9.74H540l.13,1.41a3,3,0,0,1,1-1.13,2.64,2.64,0,0,1,1.52-.42,3.1,3.1,0,0,1,1.21.23,2.86,2.86,0,0,1,1,.7,3.54,3.54,0,0,1,.7,1.17,4.94,4.94,0,0,1,.26,1.66,4.74,4.74,0,0,1-.27,1.68,3.41,3.41,0,0,1-.72,1.17,2.78,2.78,0,0,1-1,.7A3.2,3.2,0,0,1,542.61,141Zm-.18-1.09a2,2,0,0,0,1.56-.67,3.7,3.7,0,0,0,0-4,2,2,0,0,0-1.56-.68,2.35,2.35,0,0,0-.89.17,1.91,1.91,0,0,0-.72.5,2.23,2.23,0,0,0-.47.83,4,4,0,0,0,0,2.36,2.27,2.27,0,0,0,.47.84,1.8,1.8,0,0,0,.72.5A2.35,2.35,0,0,0,542.43,140Z"/><path class="cls-3" d="M547.21,136a2.33,2.33,0,0,1,.23-1.06,2.1,2.1,0,0,1,.63-.73,2.8,2.8,0,0,1,1-.42,4.75,4.75,0,0,1,1.22-.14h2.34v7.26h-1.23v-2.63H550l-1.86,2.63H546.7l2.09-2.94a2.49,2.49,0,0,1-1.16-.68A1.86,1.86,0,0,1,547.21,136Zm4.15,1.23v-2.53h-1.11A2.62,2.62,0,0,0,549,135a1,1,0,0,0-.5,1,1.1,1.1,0,0,0,.45,1,2.27,2.27,0,0,0,1.27.3Z"/><path class="cls-3" d="M554.21,139.85a1.59,1.59,0,0,0,.62-.74,5.45,5.45,0,0,0,.35-1.27,16.67,16.67,0,0,0,.17-1.82c0-.7.07-1.5.09-2.38h5v6.21h1.1V143h-1.08l-.16-2.08h-5.4l-.13,2.08h-1.1v-3.13Zm5,0v-5.16h-2.66a29.07,29.07,0,0,1-.26,3.29,4.16,4.16,0,0,1-.65,1.87Z"/><path class="cls-3" d="M565.66,141a3.72,3.72,0,0,1-1.38-.25,3.11,3.11,0,0,1-1.11-.73,3.43,3.43,0,0,1-.74-1.19,4.42,4.42,0,0,1-.27-1.61,4.47,4.47,0,0,1,.27-1.6,3.21,3.21,0,0,1,.74-1.18,3.11,3.11,0,0,1,1.11-.73,4,4,0,0,1,2.78,0,3.24,3.24,0,0,1,1.12.73,3.35,3.35,0,0,1,.74,1.18,4.47,4.47,0,0,1,.27,1.6,4.42,4.42,0,0,1-.27,1.61,3.58,3.58,0,0,1-.74,1.19,3.24,3.24,0,0,1-1.12.73A3.75,3.75,0,0,1,565.66,141Zm0-1.09a2.45,2.45,0,0,0,.91-.16,2.05,2.05,0,0,0,.72-.49,2.27,2.27,0,0,0,.47-.84,4.25,4.25,0,0,0,0-2.38,2.27,2.27,0,0,0-.47-.84,2.05,2.05,0,0,0-.72-.49,2.45,2.45,0,0,0-.91-.16,2.35,2.35,0,0,0-.89.16,1.93,1.93,0,0,0-.71.49,2.27,2.27,0,0,0-.47.84,4.25,4.25,0,0,0,0,2.38,2.27,2.27,0,0,0,.47.84,1.93,1.93,0,0,0,.71.49A2.35,2.35,0,0,0,565.66,140Z"/><path class="cls-3" d="M576.11,140.9h-1.23v-3.19a3,3,0,0,1-.88.46,3.9,3.9,0,0,1-1.13.16,2.67,2.67,0,0,1-1.88-.61,2.59,2.59,0,0,1-.65-1.95v-2.13h1.25v2.14A1.5,1.5,0,0,0,572,137a1.66,1.66,0,0,0,1.1.34,3.43,3.43,0,0,0,1-.14,2.82,2.82,0,0,0,.84-.44v-3.09h1.23Z"/><path class="cls-3" d="M583.91,140.29c-.11.08-.23.15-.38.24a4.71,4.71,0,0,1-1.28.44,5,5,0,0,1-.91.07,3.67,3.67,0,0,1-2.78-1,3.84,3.84,0,0,1-.95-2.79,4.64,4.64,0,0,1,.25-1.58,3.56,3.56,0,0,1,.72-1.18,3.19,3.19,0,0,1,1.1-.74,3.41,3.41,0,0,1,1.37-.26,3.64,3.64,0,0,1,1.4.26,2.46,2.46,0,0,1,1,.79,2.93,2.93,0,0,1,.55,1.28,5,5,0,0,1,0,1.77h-5.12a2.53,2.53,0,0,0,.7,1.77,2.66,2.66,0,0,0,1.88.58,3.88,3.88,0,0,0,1.44-.24,5.27,5.27,0,0,0,1-.52Zm-2.89-5.7a2,2,0,0,0-1.37.49,2.35,2.35,0,0,0-.73,1.48h3.91a1.84,1.84,0,0,0-.46-1.49A1.92,1.92,0,0,0,581,134.59Z"/><path class="cls-3" d="M590.4,137.68h-3.51v3.22h-1.23v-7.26h1.23v3h3.51v-3h1.23v7.26H590.4Z"/><path class="cls-3" d="M599,138.48a2.44,2.44,0,0,1-.23,1.09,2,2,0,0,1-.63.76,2.63,2.63,0,0,1-1,.43,4.75,4.75,0,0,1-1.22.14h-2.34v-7.26h1.23v2.53h1.19a3.69,3.69,0,0,1,2.17.55A2,2,0,0,1,599,138.48Zm-4.15-1.26v2.63H596a2.46,2.46,0,0,0,1.29-.3,1.08,1.08,0,0,0,.5-1,1.15,1.15,0,0,0-.45-1,2.17,2.17,0,0,0-1.26-.31Zm6.43,3.68h-1.23v-7.26h1.23Z"/><path class="cls-3" d="M447.24,157.22l3.88-5.58h1.24v7.26h-1.23v-5.57l-3.86,5.57H446v-7.26h1.23Z"/><path class="cls-3" d="M457.46,151.64h5.82v7.26h-1.23v-6.21h-3.36v6.21h-1.23Z"/><path class="cls-3" d="M469,159a2.64,2.64,0,0,1-1.45-.39,2.83,2.83,0,0,1-1-1.08v3.81H465.3v-9.74h1.08l.12,1.41a3.08,3.08,0,0,1,1-1.13,2.65,2.65,0,0,1,1.53-.42,3.14,3.14,0,0,1,1.21.23,2.74,2.74,0,0,1,1,.7,3.23,3.23,0,0,1,.7,1.17,4.71,4.71,0,0,1,.26,1.66,5,5,0,0,1-.26,1.68,3.41,3.41,0,0,1-.72,1.17,2.86,2.86,0,0,1-1,.7A3.29,3.29,0,0,1,469,159Zm-.18-1.09a2,2,0,0,0,1.56-.67,3.65,3.65,0,0,0,0-4,2,2,0,0,0-1.56-.68,2.39,2.39,0,0,0-.89.17,2,2,0,0,0-.71.5,2.39,2.39,0,0,0-.48.83,4.18,4.18,0,0,0,0,2.36,2.44,2.44,0,0,0,.48.84,1.84,1.84,0,0,0,.71.5A2.38,2.38,0,0,0,468.77,158Z"/><path class="cls-3" d="M476.68,159a3.77,3.77,0,0,1-1.39-.25,3.3,3.3,0,0,1-1.11-.73,3.41,3.41,0,0,1-.73-1.19,4.42,4.42,0,0,1-.27-1.61,4.47,4.47,0,0,1,.27-1.6,3.19,3.19,0,0,1,.73-1.18,3.3,3.3,0,0,1,1.11-.73,4,4,0,0,1,2.79,0,3.11,3.11,0,0,1,1.11.73,3.37,3.37,0,0,1,.75,1.18,4.47,4.47,0,0,1,.27,1.6,4.42,4.42,0,0,1-.27,1.61,3.6,3.6,0,0,1-.75,1.19,3.11,3.11,0,0,1-1.11.73A3.75,3.75,0,0,1,476.68,159Zm0-1.09a2.36,2.36,0,0,0,.9-.16,2,2,0,0,0,.73-.49,2.27,2.27,0,0,0,.47-.84,4.25,4.25,0,0,0,0-2.38,2.27,2.27,0,0,0-.47-.84,2,2,0,0,0-.73-.49,2.36,2.36,0,0,0-.9-.16,2.31,2.31,0,0,0-.89.16,1.85,1.85,0,0,0-.71.49,2.27,2.27,0,0,0-.47.84,4.25,4.25,0,0,0,0,2.38,2.27,2.27,0,0,0,.47.84,1.85,1.85,0,0,0,.71.49A2.31,2.31,0,0,0,476.68,158Z"/><path class="cls-3" d="M482.94,157.22l3.88-5.58h1.24v7.26h-1.23v-5.57L483,158.9h-1.26v-7.26h1.23Z"/><path class="cls-3" d="M494.83,155.68h-3.52v3.22h-1.23v-7.26h1.23v3h3.52v-3h1.23v7.26h-1.23Z"/><path class="cls-3" d="M497.68,157.85a1.59,1.59,0,0,0,.62-.74,5.45,5.45,0,0,0,.35-1.27,16.67,16.67,0,0,0,.17-1.82c0-.7.07-1.5.09-2.38h5v6.21H505V161h-1.07l-.16-2.08h-5.4l-.13,2.08h-1.1v-3.13Zm5,0v-5.16H500a29.07,29.07,0,0,1-.26,3.29,4.28,4.28,0,0,1-.65,1.87Z"/><path class="cls-3" d="M511.93,158.29a3.43,3.43,0,0,1-.37.24,5,5,0,0,1-.55.24,4.53,4.53,0,0,1-.73.2,5,5,0,0,1-.91.07,3.67,3.67,0,0,1-2.78-1,3.84,3.84,0,0,1-1-2.79,4.63,4.63,0,0,1,.26-1.58,3.56,3.56,0,0,1,.72-1.18,3.19,3.19,0,0,1,1.1-.74,3.41,3.41,0,0,1,1.37-.26,3.64,3.64,0,0,1,1.4.26,2.46,2.46,0,0,1,1,.79,2.93,2.93,0,0,1,.55,1.28,5.26,5.26,0,0,1,0,1.77h-5.12a2.49,2.49,0,0,0,.7,1.77,2.65,2.65,0,0,0,1.87.58,4,4,0,0,0,1.45-.24,4.88,4.88,0,0,0,1-.52Zm-2.88-5.7a2,2,0,0,0-1.37.49,2.3,2.3,0,0,0-.73,1.48h3.91a1.81,1.81,0,0,0-.47-1.49A1.88,1.88,0,0,0,509.05,152.59Z"/><path class="cls-3" d="M515.56,155.81h-.64v3.09h-1.24v-7.26h1.24v3.12h.7l2.54-3.12h1.4l-3,3.58,3,3.68h-1.5Z"/><path class="cls-3" d="M523.78,159a4.08,4.08,0,0,1-1.52-.26,3.25,3.25,0,0,1-1.16-.74,3.13,3.13,0,0,1-.72-1.18,5,5,0,0,1,0-3.18,3.3,3.3,0,0,1,.74-1.18,3.08,3.08,0,0,1,1.16-.74,4.2,4.2,0,0,1,1.55-.26,5.35,5.35,0,0,1,1.24.14,2.53,2.53,0,0,1,.92.43v1.11a3.11,3.11,0,0,0-1-.44,4.35,4.35,0,0,0-1.14-.15,2.39,2.39,0,0,0-1.87.66,2.92,2.92,0,0,0-.6,2,3,3,0,0,0,.58,2,2.29,2.29,0,0,0,1.82.66,4.22,4.22,0,0,0,1.21-.16,5.36,5.36,0,0,0,1-.41v1.09a4,4,0,0,1-1,.41A4.38,4.38,0,0,1,523.78,159Z"/><path class="cls-3" d="M528.87,157.22l3.88-5.58H534v7.26h-1.23v-5.57l-3.87,5.57h-1.26v-7.26h1.23Z"/><path class="cls-3" d="M539.67,159a2.62,2.62,0,0,1-1.45-.39,2.75,2.75,0,0,1-1-1.08v3.81H536v-9.74h1.08l.13,1.41a3,3,0,0,1,1-1.13,2.64,2.64,0,0,1,1.52-.42,3.1,3.1,0,0,1,1.21.23,2.86,2.86,0,0,1,1,.7,3.54,3.54,0,0,1,.7,1.17,4.94,4.94,0,0,1,.26,1.66,4.74,4.74,0,0,1-.27,1.68,3.55,3.55,0,0,1-.71,1.17,2.9,2.9,0,0,1-1,.7A3.2,3.2,0,0,1,539.67,159Zm-.18-1.09a2,2,0,0,0,1.56-.67,3.7,3.7,0,0,0,0-4,2,2,0,0,0-1.56-.68,2.35,2.35,0,0,0-.89.17,1.91,1.91,0,0,0-.72.5,2.23,2.23,0,0,0-.47.83,4,4,0,0,0,0,2.36,2.27,2.27,0,0,0,.47.84,1.8,1.8,0,0,0,.72.5A2.35,2.35,0,0,0,539.49,158Z"/><path class="cls-3" d="M547.4,159a3.73,3.73,0,0,1-1.39-.25,3.11,3.11,0,0,1-1.11-.73,3.43,3.43,0,0,1-.74-1.19,4.42,4.42,0,0,1-.26-1.61,4.48,4.48,0,0,1,.26-1.6,3.21,3.21,0,0,1,.74-1.18,3.11,3.11,0,0,1,1.11-.73,4,4,0,0,1,2.78,0,3.15,3.15,0,0,1,1.12.73,3.35,3.35,0,0,1,.74,1.18,4.47,4.47,0,0,1,.27,1.6,4.42,4.42,0,0,1-.27,1.61,3.58,3.58,0,0,1-.74,1.19,3.15,3.15,0,0,1-1.12.73A3.7,3.7,0,0,1,547.4,159Zm0-1.09a2.44,2.44,0,0,0,.9-.16,2.05,2.05,0,0,0,.72-.49,2.44,2.44,0,0,0,.48-.84,4.51,4.51,0,0,0,0-2.38,2.44,2.44,0,0,0-.48-.84,2.05,2.05,0,0,0-.72-.49,2.44,2.44,0,0,0-.9-.16,2.36,2.36,0,0,0-.9.16,1.93,1.93,0,0,0-.71.49,2.42,2.42,0,0,0-.47.84,4.51,4.51,0,0,0,0,2.38,2.42,2.42,0,0,0,.47.84,1.93,1.93,0,0,0,.71.49A2.36,2.36,0,0,0,547.4,158Z"/><path class="cls-3" d="M552.42,151.64h2.72a3.56,3.56,0,0,1,2,.45,1.61,1.61,0,0,1,.68,1.42,1.52,1.52,0,0,1-.33,1,1.88,1.88,0,0,1-.93.56,1.61,1.61,0,0,1,1.55,1.72,2,2,0,0,1-.22,1,1.92,1.92,0,0,1-.62.65,2.63,2.63,0,0,1-.94.36,5.69,5.69,0,0,1-1.2.11h-2.69Zm1.23,1.05v2H555a2.16,2.16,0,0,0,1.12-.25.79.79,0,0,0,.43-.73.82.82,0,0,0-.38-.78,2.25,2.25,0,0,0-1.08-.21Zm0,2.95v2.21h1.44a3.82,3.82,0,0,0,.71,0,1.77,1.77,0,0,0,.55-.17,1.07,1.07,0,0,0,.36-.34,1,1,0,0,0,.12-.51,1,1,0,0,0-.43-.89,2.79,2.79,0,0,0-1.31-.25Z"/><path class="cls-3" d="M564.19,157.52a3.33,3.33,0,0,1-.32.52,2.31,2.31,0,0,1-.49.5,2.25,2.25,0,0,1-.69.36,2.67,2.67,0,0,1-.93.14,2.24,2.24,0,0,1-1.58-.55,2.06,2.06,0,0,1-.61-1.59,2,2,0,0,1,.84-1.75,4.23,4.23,0,0,1,2.37-.56h1.36V154a1.34,1.34,0,0,0-.39-1.08,2.19,2.19,0,0,0-1.35-.32,3.61,3.61,0,0,0-1.27.22,6.75,6.75,0,0,0-1.08.49v-1.1a5.16,5.16,0,0,1,1.06-.47,4.26,4.26,0,0,1,1.46-.23,3.36,3.36,0,0,1,2.09.56,2.14,2.14,0,0,1,.71,1.76v3.91c0,.08,0,.18,0,.28s0,.22,0,.33,0,.22,0,.32,0,.18,0,.24h-1.12c0-.13-.05-.31-.08-.55s0-.45,0-.62ZM562,158a1.87,1.87,0,0,0,1-.24,2.15,2.15,0,0,0,.66-.55,2.59,2.59,0,0,0,.37-.62,1.74,1.74,0,0,0,.11-.43v-.54h-1.23a3.11,3.11,0,0,0-1.61.32,1.05,1.05,0,0,0-.49,1,1.08,1.08,0,0,0,.29.8A1.2,1.2,0,0,0,562,158Z"/><path class="cls-3" d="M572.05,155.68h-3.51v3.22H567.3v-7.26h1.24v3h3.51v-3h1.23v7.26h-1.23Z"/><path class="cls-3" d="M580.67,156.48a2.44,2.44,0,0,1-.22,1.09,2,2,0,0,1-.63.76,2.61,2.61,0,0,1-1,.43,4.7,4.7,0,0,1-1.22.14H575.3v-7.26h1.23v2.53h1.19a3.71,3.71,0,0,1,2.17.55A2,2,0,0,1,580.67,156.48Zm-4.14-1.26v2.63h1.1a2.48,2.48,0,0,0,1.3-.3,1.08,1.08,0,0,0,.5-1,1.15,1.15,0,0,0-.45-1,2.17,2.17,0,0,0-1.26-.31ZM583,158.9h-1.24v-7.26H583Z"/><path class="cls-3" d="M585.64,159a.89.89,0,0,1-.91-.88.87.87,0,0,1,.26-.65.85.85,0,0,1,.65-.25.88.88,0,0,1,.65.25.87.87,0,0,1,.25.65.84.84,0,0,1-.25.62A.89.89,0,0,1,585.64,159Z"/><path class="cls-3" d="M446.18,166.87h3.4a4.55,4.55,0,0,1,2.51.56,2.06,2.06,0,0,1,.86,1.89,2.69,2.69,0,0,1-.15.94,2.05,2.05,0,0,1-.4.69,2.16,2.16,0,0,1-.63.47,4,4,0,0,1-.82.28,3.13,3.13,0,0,1,1.77.67,2.09,2.09,0,0,1,.6,1.63,2.88,2.88,0,0,1-.29,1.34,2.46,2.46,0,0,1-.79.9,3.65,3.65,0,0,1-1.19.5,6.45,6.45,0,0,1-1.5.16h-3.37Zm1.31,1.19v3.09h2a3.34,3.34,0,0,0,.87-.11,1.81,1.81,0,0,0,.67-.32,1.49,1.49,0,0,0,.44-.55,1.74,1.74,0,0,0,.16-.79,1.07,1.07,0,0,0-.53-1,3.4,3.4,0,0,0-1.51-.27Zm0,4.28v3.37h2.06a4.88,4.88,0,0,0,1-.08,2.24,2.24,0,0,0,.74-.28,1.29,1.29,0,0,0,.49-.52,1.61,1.61,0,0,0,.18-.8,1.42,1.42,0,0,0-.61-1.32,3.78,3.78,0,0,0-1.92-.37Z"/><path class="cls-3" d="M458,177a3.77,3.77,0,0,1-1.39-.25,3.2,3.2,0,0,1-1.11-.73,3.41,3.41,0,0,1-.73-1.19,4.42,4.42,0,0,1-.27-1.61,4.47,4.47,0,0,1,.27-1.6,3.15,3.15,0,0,1,1.84-1.91,4,4,0,0,1,2.79,0,3.11,3.11,0,0,1,1.11.73,3.37,3.37,0,0,1,.75,1.18,4.47,4.47,0,0,1,.27,1.6,4.42,4.42,0,0,1-.27,1.61,3.6,3.6,0,0,1-.75,1.19,3.11,3.11,0,0,1-1.11.73A3.78,3.78,0,0,1,458,177Zm0-1.09a2.36,2.36,0,0,0,.9-.16,1.89,1.89,0,0,0,.72-.49,2.16,2.16,0,0,0,.48-.84,4.25,4.25,0,0,0,0-2.38,2.16,2.16,0,0,0-.48-.84,1.89,1.89,0,0,0-.72-.49,2.61,2.61,0,0,0-1.8,0,1.89,1.89,0,0,0-.7.49,2.27,2.27,0,0,0-.47.84,4.25,4.25,0,0,0,0,2.38,2.27,2.27,0,0,0,.47.84,1.89,1.89,0,0,0,.7.49A2.36,2.36,0,0,0,458,176Z"/><path class="cls-3" d="M468.13,174.79a2,2,0,0,1-.25,1,1.93,1.93,0,0,1-.66.7,3,3,0,0,1-1,.39,6,6,0,0,1-2.57,0,3.63,3.63,0,0,1-1-.41v-1.1a4,4,0,0,0,1,.43,5.33,5.33,0,0,0,1.3.15,3.14,3.14,0,0,0,1.34-.26.93.93,0,0,0,.54-.9.91.91,0,0,0-.46-.88,2.94,2.94,0,0,0-1.39-.25h-1v-1h1a2.14,2.14,0,0,0,1.18-.28.93.93,0,0,0,.4-.82.81.81,0,0,0-.13-.47,1.07,1.07,0,0,0-.36-.3,1.59,1.59,0,0,0-.52-.17,4.26,4.26,0,0,0-.64,0,4.46,4.46,0,0,0-1.19.15,4,4,0,0,0-1,.44v-1.11a3.52,3.52,0,0,1,.95-.4,4.61,4.61,0,0,1,1.35-.17,3.38,3.38,0,0,1,2,.5,1.71,1.71,0,0,1,.68,1.45,1.54,1.54,0,0,1-.39,1.12,2,2,0,0,1-1.08.56,2.27,2.27,0,0,1,1.31.55A1.51,1.51,0,0,1,468.13,174.79Z"/><path class="cls-3" d="M476.86,171.07l-2.46,5h-1L471.1,171v5.86h-1.17v-7.26h1.84l2.22,4.87,2.38-4.87h1.71v7.26h-1.22Z"/><path class="cls-3" d="M483.08,177a3.73,3.73,0,0,1-1.39-.25,3.11,3.11,0,0,1-1.11-.73,3.41,3.41,0,0,1-.73-1.19,4.42,4.42,0,0,1-.27-1.61,4.47,4.47,0,0,1,.27-1.6,3.19,3.19,0,0,1,.73-1.18,3.11,3.11,0,0,1,1.11-.73,3.73,3.73,0,0,1,1.39-.25,3.78,3.78,0,0,1,1.4.25,3.11,3.11,0,0,1,1.11.73,3.21,3.21,0,0,1,.74,1.18,4.26,4.26,0,0,1,.28,1.6,4.21,4.21,0,0,1-.28,1.61,3.43,3.43,0,0,1-.74,1.19,3.11,3.11,0,0,1-1.11.73A3.78,3.78,0,0,1,483.08,177Zm0-1.09a2.36,2.36,0,0,0,.9-.16,1.89,1.89,0,0,0,.72-.49,2.16,2.16,0,0,0,.48-.84,4.25,4.25,0,0,0,0-2.38,2.16,2.16,0,0,0-.48-.84,1.89,1.89,0,0,0-.72-.49,2.61,2.61,0,0,0-1.8,0,1.89,1.89,0,0,0-.7.49,2.27,2.27,0,0,0-.47.84,4.25,4.25,0,0,0,0,2.38,2.27,2.27,0,0,0,.47.84,1.89,1.89,0,0,0,.7.49A2.36,2.36,0,0,0,483.08,176Z"/><path class="cls-3" d="M492.77,169.64v3.12h.66l2.31-3.12h1.35l-2.7,3.55,2.8,3.71h-1.5l-2.32-3.09h-.6v3.09h-1.23v-3.09h-.62l-2.35,3.09h-1.46l2.8-3.66-2.7-3.6h1.41l2.27,3.12h.65v-3.12Z"/><path class="cls-3" d="M503.24,173.68h-3.51v3.22h-1.24v-7.26h1.24v3h3.51v-3h1.23v7.26h-1.23Z"/><path class="cls-3" d="M510.74,175.52a3.33,3.33,0,0,1-.32.52,2.31,2.31,0,0,1-.49.5,2.25,2.25,0,0,1-.69.36,2.67,2.67,0,0,1-.93.14,2.24,2.24,0,0,1-1.58-.55,2.06,2.06,0,0,1-.61-1.59,2,2,0,0,1,.84-1.75,4.23,4.23,0,0,1,2.37-.56h1.36V172a1.34,1.34,0,0,0-.39-1.08,2.19,2.19,0,0,0-1.35-.32,3.57,3.57,0,0,0-1.27.22,6.75,6.75,0,0,0-1.08.49v-1.1a5.16,5.16,0,0,1,1.06-.47,4.26,4.26,0,0,1,1.46-.23,3.36,3.36,0,0,1,2.09.56,2.14,2.14,0,0,1,.71,1.76v3.91c0,.08,0,.18,0,.28s0,.22,0,.33,0,.22,0,.32,0,.18,0,.24h-1.12c0-.13-.05-.31-.08-.55s0-.45,0-.62Zm-2.17.43a1.87,1.87,0,0,0,1-.24,2.28,2.28,0,0,0,.66-.55,2.59,2.59,0,0,0,.37-.62,1.74,1.74,0,0,0,.11-.43v-.54h-1.23a3.11,3.11,0,0,0-1.61.32,1.05,1.05,0,0,0-.49,1,1.08,1.08,0,0,0,.29.8A1.2,1.2,0,0,0,508.57,176Z"/><path class="cls-3" d="M519.92,177a3.73,3.73,0,0,1-1.39-.25,3.11,3.11,0,0,1-1.11-.73,3.43,3.43,0,0,1-.74-1.19,4.42,4.42,0,0,1-.26-1.61,4.48,4.48,0,0,1,.26-1.6,3.21,3.21,0,0,1,.74-1.18,3.11,3.11,0,0,1,1.11-.73,4,4,0,0,1,2.78,0,3.15,3.15,0,0,1,1.12.73,3.35,3.35,0,0,1,.74,1.18,4.47,4.47,0,0,1,.27,1.6,4.42,4.42,0,0,1-.27,1.61,3.58,3.58,0,0,1-.74,1.19,3.15,3.15,0,0,1-1.12.73A3.7,3.7,0,0,1,519.92,177Zm0-1.09a2.44,2.44,0,0,0,.9-.16,2.05,2.05,0,0,0,.72-.49,2.27,2.27,0,0,0,.47-.84,4.25,4.25,0,0,0,0-2.38,2.27,2.27,0,0,0-.47-.84,2.05,2.05,0,0,0-.72-.49,2.44,2.44,0,0,0-.9-.16,2.36,2.36,0,0,0-.9.16,1.93,1.93,0,0,0-.71.49,2.42,2.42,0,0,0-.47.84,4.25,4.25,0,0,0,0,2.38,2.42,2.42,0,0,0,.47.84,1.93,1.93,0,0,0,.71.49A2.36,2.36,0,0,0,519.92,176Z"/><path class="cls-3" d="M524.94,169.64h5.82v7.26h-1.23v-6.21h-3.36v6.21h-1.23Z"/><path class="cls-3" d="M538.56,176.29a3.67,3.67,0,0,1-.38.24,4.07,4.07,0,0,1-.54.24,4.53,4.53,0,0,1-.73.2,5,5,0,0,1-.91.07,3.71,3.71,0,0,1-2.79-1,3.88,3.88,0,0,1-1-2.79,4.63,4.63,0,0,1,.26-1.58,3.26,3.26,0,0,1,.72-1.18,3.15,3.15,0,0,1,1.09-.74,3.46,3.46,0,0,1,1.38-.26,3.64,3.64,0,0,1,1.4.26,2.46,2.46,0,0,1,1,.79,2.93,2.93,0,0,1,.55,1.28,5.26,5.26,0,0,1,0,1.77h-5.12a2.49,2.49,0,0,0,.7,1.77,2.65,2.65,0,0,0,1.87.58,3.88,3.88,0,0,0,1.44-.24,4.73,4.73,0,0,0,1-.52Zm-2.88-5.7a2,2,0,0,0-1.37.49,2.3,2.3,0,0,0-.73,1.48h3.9a1.78,1.78,0,0,0-.46-1.49A1.88,1.88,0,0,0,535.68,170.59Z"/><path class="cls-3" d="M544,177a2.62,2.62,0,0,1-1.45-.39,2.85,2.85,0,0,1-1-1.08v3.81h-1.23v-9.74h1.08l.13,1.41a3,3,0,0,1,1-1.13,2.64,2.64,0,0,1,1.52-.42,3.1,3.1,0,0,1,1.21.23,2.86,2.86,0,0,1,1,.7,3.54,3.54,0,0,1,.7,1.17,5,5,0,0,1,.25,1.66,4.75,4.75,0,0,1-.26,1.68,3.41,3.41,0,0,1-.72,1.17,2.78,2.78,0,0,1-1,.7A3.2,3.2,0,0,1,544,177Zm-.18-1.09a2,2,0,0,0,1.56-.67,3.7,3.7,0,0,0,0-4,2,2,0,0,0-1.56-.68,2.35,2.35,0,0,0-.89.17,1.91,1.91,0,0,0-.72.5,2.23,2.23,0,0,0-.47.83,4,4,0,0,0,0,2.36,2.27,2.27,0,0,0,.47.84,1.8,1.8,0,0,0,.72.5A2.35,2.35,0,0,0,543.79,176Z"/><path class="cls-3" d="M552.9,175.52a4.31,4.31,0,0,1-.32.52,2.57,2.57,0,0,1-.49.5,2.43,2.43,0,0,1-.7.36,2.6,2.6,0,0,1-.93.14,2.24,2.24,0,0,1-1.58-.55,2.06,2.06,0,0,1-.6-1.59,2,2,0,0,1,.83-1.75,4.28,4.28,0,0,1,2.37-.56h1.36V172a1.34,1.34,0,0,0-.39-1.08,2.18,2.18,0,0,0-1.34-.32,3.63,3.63,0,0,0-1.28.22,6.75,6.75,0,0,0-1.08.49v-1.1a5.42,5.42,0,0,1,1.06-.47,4.26,4.26,0,0,1,1.46-.23,3.36,3.36,0,0,1,2.09.56,2.11,2.11,0,0,1,.71,1.76v3.91c0,.08,0,.18,0,.28s0,.22,0,.33,0,.22,0,.32a1.44,1.44,0,0,0,0,.24H553c0-.13,0-.31-.07-.55a5,5,0,0,1,0-.62Zm-2.17.43a1.9,1.9,0,0,0,1-.24,2.42,2.42,0,0,0,.66-.55,2.53,2.53,0,0,0,.36-.62,1.74,1.74,0,0,0,.11-.43v-.54h-1.23a3.07,3.07,0,0,0-1.6.32,1.06,1.06,0,0,0-.5,1,1.12,1.12,0,0,0,.29.8A1.23,1.23,0,0,0,550.73,176Z"/><path class="cls-3" d="M561.93,176.9H556v-7.26h1.23v6.21h3.57v-6.21H562v6.21h1.09V179h-1Z"/><path class="cls-3" d="M565.65,175.22l3.88-5.58h1.25v7.26h-1.24v-5.57l-3.86,5.57h-1.26v-7.26h1.23Z"/><path class="cls-3" d="M572.79,172a2.33,2.33,0,0,1,.23-1.06,2,2,0,0,1,.63-.73,2.8,2.8,0,0,1,1-.42,4.75,4.75,0,0,1,1.22-.14h2.34v7.26h-1.23v-2.63h-1.33l-1.87,2.63h-1.47l2.1-2.94a2.49,2.49,0,0,1-1.16-.68A1.86,1.86,0,0,1,572.79,172Zm4.15,1.23v-2.53h-1.11a2.62,2.62,0,0,0-1.29.29,1,1,0,0,0-.5,1,1.1,1.1,0,0,0,.45,1,2.27,2.27,0,0,0,1.27.3Z"/><path class="cls-3" d="M586.4,177a4.08,4.08,0,0,1-1.52-.26,3.12,3.12,0,0,1-1.88-1.92,5.18,5.18,0,0,1,0-3.18,3.3,3.3,0,0,1,.74-1.18,3.16,3.16,0,0,1,1.16-.74,4.26,4.26,0,0,1,1.56-.26,5.32,5.32,0,0,1,1.23.14,2.53,2.53,0,0,1,.92.43v1.11a3.11,3.11,0,0,0-1-.44,4.35,4.35,0,0,0-1.14-.15,2.4,2.4,0,0,0-1.87.66,2.92,2.92,0,0,0-.59,2,3,3,0,0,0,.57,2,2.29,2.29,0,0,0,1.82.66,4.22,4.22,0,0,0,1.21-.16,5.36,5.36,0,0,0,1-.41v1.09a3.91,3.91,0,0,1-.94.41A4.45,4.45,0,0,1,586.4,177Z"/><path class="cls-3" d="M593.92,177a2.62,2.62,0,0,1-1.45-.39,2.75,2.75,0,0,1-1-1.08v3.81h-1.24v-9.74h1.08l.13,1.41a3,3,0,0,1,1-1.13,2.64,2.64,0,0,1,1.52-.42,3.1,3.1,0,0,1,1.21.23,2.86,2.86,0,0,1,1,.7,3.54,3.54,0,0,1,.7,1.17,4.94,4.94,0,0,1,.26,1.66,4.74,4.74,0,0,1-.27,1.68,3.55,3.55,0,0,1-.71,1.17,2.9,2.9,0,0,1-1,.7A3.2,3.2,0,0,1,593.92,177Zm-.18-1.09a2,2,0,0,0,1.56-.67,3.7,3.7,0,0,0,0-4,2,2,0,0,0-1.56-.68,2.35,2.35,0,0,0-.89.17,1.91,1.91,0,0,0-.72.5,2.23,2.23,0,0,0-.47.83,4,4,0,0,0,0,2.36,2.27,2.27,0,0,0,.47.84,1.8,1.8,0,0,0,.72.5A2.35,2.35,0,0,0,593.74,176Z"/><path class="cls-3" d="M604.45,176.29c-.11.08-.23.15-.38.24a4.71,4.71,0,0,1-1.28.44,5,5,0,0,1-.91.07,3.67,3.67,0,0,1-2.78-1,3.84,3.84,0,0,1-1-2.79,4.64,4.64,0,0,1,.25-1.58,3.56,3.56,0,0,1,.72-1.18,3.19,3.19,0,0,1,1.1-.74,3.41,3.41,0,0,1,1.37-.26,3.64,3.64,0,0,1,1.4.26,2.46,2.46,0,0,1,1,.79,2.93,2.93,0,0,1,.55,1.28,5,5,0,0,1,0,1.77h-5.12a2.53,2.53,0,0,0,.7,1.77A2.66,2.66,0,0,0,602,176a3.88,3.88,0,0,0,1.44-.24,5.27,5.27,0,0,0,1-.52Zm-2.89-5.7a2,2,0,0,0-1.37.49,2.35,2.35,0,0,0-.73,1.48h3.91a1.84,1.84,0,0,0-.46-1.49A1.92,1.92,0,0,0,601.56,170.59Z"/><path class="cls-3" d="M611.35,174.79a2,2,0,0,1-.25,1,1.93,1.93,0,0,1-.66.7,3,3,0,0,1-1,.39,5.34,5.34,0,0,1-1.15.12,5.47,5.47,0,0,1-1.41-.16,3.63,3.63,0,0,1-1-.41v-1.1a4,4,0,0,0,1,.43,5.33,5.33,0,0,0,1.3.15,3.14,3.14,0,0,0,1.34-.26.93.93,0,0,0,.54-.9.91.91,0,0,0-.46-.88,2.94,2.94,0,0,0-1.39-.25h-1v-1h1a2.14,2.14,0,0,0,1.18-.28.93.93,0,0,0,.4-.82.81.81,0,0,0-.13-.47,1.07,1.07,0,0,0-.36-.3,1.59,1.59,0,0,0-.52-.17,4.26,4.26,0,0,0-.64,0,4.59,4.59,0,0,0-1.2.15,4.1,4.1,0,0,0-1,.44v-1.11a3.52,3.52,0,0,1,.95-.4,4.61,4.61,0,0,1,1.35-.17,3.38,3.38,0,0,1,2,.5,1.71,1.71,0,0,1,.68,1.45,1.54,1.54,0,0,1-.39,1.12,2,2,0,0,1-1.08.56,2.27,2.27,0,0,1,1.31.55A1.51,1.51,0,0,1,611.35,174.79Z"/><path class="cls-3" d="M617.41,175.52a3.33,3.33,0,0,1-.32.52,2.57,2.57,0,0,1-.49.5,2.43,2.43,0,0,1-.7.36,2.6,2.6,0,0,1-.93.14,2.24,2.24,0,0,1-1.58-.55,2.06,2.06,0,0,1-.6-1.59,2,2,0,0,1,.83-1.75,4.29,4.29,0,0,1,2.38-.56h1.35V172a1.34,1.34,0,0,0-.39-1.08,2.18,2.18,0,0,0-1.34-.32,3.67,3.67,0,0,0-1.28.22,6.26,6.26,0,0,0-1.07.49v-1.1a5.29,5.29,0,0,1,1.05-.47,4.32,4.32,0,0,1,1.47-.23,3.33,3.33,0,0,1,2.08.56,2.11,2.11,0,0,1,.72,1.76V176c0,.11,0,.22,0,.33a3,3,0,0,0,0,.32q0,.15,0,.24h-1.12a3.92,3.92,0,0,1-.08-.55c0-.24,0-.45,0-.62Zm-2.17.43a1.9,1.9,0,0,0,1-.24,2.42,2.42,0,0,0,.66-.55,2.24,2.24,0,0,0,.36-.62,1.37,1.37,0,0,0,.11-.43v-.54h-1.23a3.07,3.07,0,0,0-1.6.32,1.06,1.06,0,0,0-.5,1,1.09,1.09,0,0,0,.3.8A1.19,1.19,0,0,0,615.24,176Z"/><path class="cls-3" d="M621.19,177a.9.9,0,0,1-.66-.26.84.84,0,0,1-.25-.62.87.87,0,0,1,.25-.65.89.89,0,0,1,.66-.25.84.84,0,0,1,.64.25.87.87,0,0,1,.26.65.89.89,0,0,1-.9.88Z"/><path class="cls-3" d="M57.42,314.42,62.53,303h3.6v17.21H63.21V307.27l-4.64,10.3-1.61,0h-1L51.4,307.1v13.11H48.76V303h3.89Z"/><path class="cls-3" d="M77.56,315H72.3v5.26H69.52V307.75H72.3v4.95h5.26v-4.95h2.78v12.46H77.56Z"/><path class="cls-3" d="M88.86,320.45a7,7,0,0,1-2.45-.43,5.56,5.56,0,0,1-2-1.26,5.76,5.76,0,0,1-1.3-2,8.34,8.34,0,0,1,0-5.52,5.67,5.67,0,0,1,1.3-2,5.4,5.4,0,0,1,2-1.25,7.36,7.36,0,0,1,4.9,0,5.56,5.56,0,0,1,2,1.25,5.85,5.85,0,0,1,1.32,2,8.17,8.17,0,0,1,0,5.52,6,6,0,0,1-1.32,2,5.73,5.73,0,0,1-2,1.26A7,7,0,0,1,88.86,320.45Zm0-2.31a3.11,3.11,0,0,0,2.39-1,5.68,5.68,0,0,0,0-6.29,3.12,3.12,0,0,0-2.39-1,3.09,3.09,0,0,0-2.36,1,5.68,5.68,0,0,0,0,6.29A3.08,3.08,0,0,0,88.86,318.14Z"/><path class="cls-3" d="M106,307.75v5.14h1l3.58-5.14h2.85l-4.24,6,4.48,6.48h-3.26L107,315.14h-1v5.07h-2.78v-5.07h-1l-3.56,5.07H95.56l4.48-6.36-4.27-6.1h3l3.51,5.14h1v-5.14Z"/><path class="cls-3" d="M125.41,319.3c-.17.11-.39.23-.65.37a5.71,5.71,0,0,1-.91.37,9.57,9.57,0,0,1-1.22.29,9.45,9.45,0,0,1-1.59.12,6.93,6.93,0,0,1-5.12-1.71,6.45,6.45,0,0,1-1.69-4.77,7.66,7.66,0,0,1,.45-2.71,5.77,5.77,0,0,1,1.28-2A5.45,5.45,0,0,1,117.9,308a6.62,6.62,0,0,1,2.47-.45,6.45,6.45,0,0,1,2.51.46,4.42,4.42,0,0,1,1.84,1.37,5.21,5.21,0,0,1,1,2.25,8.94,8.94,0,0,1,0,3.15h-8.61a3.76,3.76,0,0,0,1.13,2.55,4.42,4.42,0,0,0,3,.85,7.08,7.08,0,0,0,2.48-.37,11.29,11.29,0,0,0,1.69-.78Zm-5-9.58a3,3,0,0,0-2.06.74,3.79,3.79,0,0,0-1.11,2.21h5.86a2.9,2.9,0,0,0-.67-2.23A2.73,2.73,0,0,0,120.37,309.72Z"/><path class="cls-3" d="M134.05,320.45a7.66,7.66,0,0,1-2.71-.45,5.6,5.6,0,0,1-2-1.27,5.67,5.67,0,0,1-1.3-2,8.45,8.45,0,0,1,0-5.44,5.67,5.67,0,0,1,1.3-2,5.56,5.56,0,0,1,2.07-1.27,7.82,7.82,0,0,1,2.73-.45,8.13,8.13,0,0,1,2.27.29,4.87,4.87,0,0,1,1.55.72v2.3a6.61,6.61,0,0,0-1.62-.74,7,7,0,0,0-2-.26c-2.58,0-3.86,1.38-3.86,4.16s1.26,4.16,3.79,4.16a7.24,7.24,0,0,0,2.1-.27,8.45,8.45,0,0,0,1.62-.71v2.29a6.68,6.68,0,0,1-1.56.7A7.71,7.71,0,0,1,134.05,320.45Z"/><path class="cls-3" d="M146.05,310v10.2h-2.78V310H139.5v-2.26h10.39V310Z"/><path class="cls-3" d="M152,307.75h5.09q4.72,0,4.73,3.12a2.47,2.47,0,0,1-.64,1.81,3.92,3.92,0,0,1-1.86,1,4,4,0,0,1,2.26.94,2.69,2.69,0,0,1,.74,2,3.11,3.11,0,0,1-.38,1.58,3,3,0,0,1-1.07,1.1,5,5,0,0,1-1.67.65,9.63,9.63,0,0,1-2.16.22h-5Zm2.76,2.16v2.93h2a3.16,3.16,0,0,0,1.64-.37,1.2,1.2,0,0,0,.62-1.08,1.24,1.24,0,0,0-.54-1.16,3.15,3.15,0,0,0-1.57-.32Zm0,4.9v3.24h2.14a4.26,4.26,0,0,0,1.86-.34,1.24,1.24,0,0,0,.71-1.23,1.37,1.37,0,0,0-.64-1.29,4.06,4.06,0,0,0-2-.38Z"/><path class="cls-3" d="M170.46,320.45A7,7,0,0,1,168,320a5.56,5.56,0,0,1-1.95-1.26,5.76,5.76,0,0,1-1.3-2,8.34,8.34,0,0,1,0-5.52,5.67,5.67,0,0,1,1.3-2,5.4,5.4,0,0,1,1.95-1.25,7.36,7.36,0,0,1,4.9,0,5.56,5.56,0,0,1,2,1.25,5.85,5.85,0,0,1,1.32,2,8.17,8.17,0,0,1,0,5.52,6,6,0,0,1-1.32,2,5.73,5.73,0,0,1-2,1.26A7,7,0,0,1,170.46,320.45Zm0-2.31a3.11,3.11,0,0,0,2.39-1,5.68,5.68,0,0,0,0-6.29,3.12,3.12,0,0,0-2.39-1,3.09,3.09,0,0,0-2.36,1,5.68,5.68,0,0,0,0,6.29A3.08,3.08,0,0,0,170.46,318.14Z"/><path class="cls-3" d="M188.27,323.54a14.18,14.18,0,0,1-2.75-4.84,18.5,18.5,0,0,1-.9-5.86,20.84,20.84,0,0,1,.23-3.07,18.15,18.15,0,0,1,.68-2.91,14.83,14.83,0,0,1,1.14-2.6,11.81,11.81,0,0,1,1.6-2.2h2.81a10.14,10.14,0,0,0-1.67,2.15,14.16,14.16,0,0,0-1.18,2.59,16.81,16.81,0,0,0-.69,2.9,19.47,19.47,0,0,0-.23,3.07,18.37,18.37,0,0,0,.91,5.87,14,14,0,0,0,2.86,4.9Z"/><path class="cls-3" d="M197.58,320.45a8,8,0,0,1-1.69-.16,9.12,9.12,0,0,1-1.34-.37,5.88,5.88,0,0,1-1-.46A6.09,6.09,0,0,1,193,319v-2.21a4.07,4.07,0,0,0,.66.47,6.4,6.4,0,0,0,1,.48,7.17,7.17,0,0,0,1.28.37,8,8,0,0,0,1.61.15,3.62,3.62,0,0,0,1.94-.4,1.3,1.3,0,0,0,.61-1.16,1.18,1.18,0,0,0-.24-.79,1.57,1.57,0,0,0-.65-.46,4,4,0,0,0-.95-.25l-1.11-.21a12.81,12.81,0,0,1-1.48-.37,4.74,4.74,0,0,1-1.32-.63,3.37,3.37,0,0,1-1-1.06,3.27,3.27,0,0,1-.37-1.66,3.3,3.3,0,0,1,1.32-2.78,6.11,6.11,0,0,1,3.77-1,9,9,0,0,1,2.41.29,5.92,5.92,0,0,1,1.5.61v2.22a5.77,5.77,0,0,0-1.49-.67,7.86,7.86,0,0,0-2.3-.29,4.19,4.19,0,0,0-2,.36,1.21,1.21,0,0,0-.62,1.12,1,1,0,0,0,.23.68,1.64,1.64,0,0,0,.6.39,5.31,5.31,0,0,0,.86.23l1,.17c.5.1,1,.22,1.53.35a4.86,4.86,0,0,1,1.41.63,3.39,3.39,0,0,1,1.05,1.11,3.58,3.58,0,0,1,.4,1.8,3.77,3.77,0,0,1-.43,1.89,3.51,3.51,0,0,1-1.15,1.21,5,5,0,0,1-1.63.65A9.6,9.6,0,0,1,197.58,320.45Z"/><path class="cls-3" d="M215.39,319.3l-.65.37a6.13,6.13,0,0,1-.91.37,9.75,9.75,0,0,1-1.23.29,9.32,9.32,0,0,1-1.58.12,6.9,6.9,0,0,1-5.12-1.71,6.45,6.45,0,0,1-1.7-4.77,7.66,7.66,0,0,1,.46-2.71,5.75,5.75,0,0,1,1.27-2,5.45,5.45,0,0,1,1.94-1.27,6.67,6.67,0,0,1,2.48-.45,6.52,6.52,0,0,1,2.51.46,4.39,4.39,0,0,1,1.83,1.37,5.34,5.34,0,0,1,1,2.25,9.44,9.44,0,0,1,0,3.15h-8.62a3.8,3.8,0,0,0,1.13,2.55,4.42,4.42,0,0,0,3,.85,7.18,7.18,0,0,0,2.49-.37,11.78,11.78,0,0,0,1.69-.78Zm-5-9.58a3,3,0,0,0-2.07.74,3.78,3.78,0,0,0-1.1,2.21H213a2.91,2.91,0,0,0-.68-2.23A2.72,2.72,0,0,0,210.35,309.72Z"/><path class="cls-3" d="M223.79,320.27a5.63,5.63,0,0,1-1.49.18,4.39,4.39,0,0,1-1.69-.28,2.91,2.91,0,0,1-1.12-.75,2.81,2.81,0,0,1-.62-1.12,4.61,4.61,0,0,1-.2-1.36V310h-1.48v-2.26h1.48v-2.61h2.79v2.61H225V310h-3.57v6.64a1.49,1.49,0,0,0,.37,1.13,1.75,1.75,0,0,0,1.24.36,2.76,2.76,0,0,0,1-.16,3.33,3.33,0,0,0,.8-.46v2.31A4.57,4.57,0,0,1,223.79,320.27Z"/><path class="cls-3" d="M226.74,323.54a13.77,13.77,0,0,0,2.85-4.9,18.37,18.37,0,0,0,.92-5.87,20.73,20.73,0,0,0-.23-3.07,16.82,16.82,0,0,0-.7-2.9,14.12,14.12,0,0,0-1.17-2.59,10.48,10.48,0,0,0-1.67-2.15h2.81a11.77,11.77,0,0,1,1.59,2.2,14.12,14.12,0,0,1,1.14,2.6,18.16,18.16,0,0,1,.69,2.91,20.84,20.84,0,0,1,.22,3.07,18.5,18.5,0,0,1-.9,5.86,14.16,14.16,0,0,1-2.74,4.84Z"/><rect class="cls-6" x="1" y="21" width="678" height="180" rx="70"/><path class="cls-3" d="M58.81,235.89a6.07,6.07,0,0,1-.37,2.16,4.52,4.52,0,0,1-1,1.63,4.37,4.37,0,0,1-1.59,1,5.68,5.68,0,0,1-2.06.35,6,6,0,0,1-1.86-.26,4.15,4.15,0,0,1-1.18-.59v-1.26a4.4,4.4,0,0,0,1.42.71,5.52,5.52,0,0,0,1.52.21,3.77,3.77,0,0,0,2.65-.85,3.65,3.65,0,0,0,1-2.59H52.65v-1.19h4.7a3.75,3.75,0,0,0-1-2.47,3.36,3.36,0,0,0-2.45-.82,6.64,6.64,0,0,0-1.58.2,5.54,5.54,0,0,0-1.43.6v-1.26a4.91,4.91,0,0,1,1.25-.51,6.11,6.11,0,0,1,1.75-.22,5.91,5.91,0,0,1,2.09.35,4.09,4.09,0,0,1,1.54,1,4.49,4.49,0,0,1,.94,1.62A6.64,6.64,0,0,1,58.81,235.89Z"/><path class="cls-3" d="M60.75,238.65a8.81,8.81,0,0,0,.25-1.93c0-.81.06-1.84.06-3.08H66v7.26H64.7v-6.21H62.22c0,1,0,1.88-.09,2.66a8.9,8.9,0,0,1-.32,2,2.53,2.53,0,0,1-.72,1.21,1.84,1.84,0,0,1-1.25.41H59.6V239.7h.19C60.26,239.71,60.58,239.36,60.75,238.65Z"/><path class="cls-3" d="M73.73,240.29a3.67,3.67,0,0,1-.38.24,4.76,4.76,0,0,1-.54.24,4.53,4.53,0,0,1-.73.2,5.1,5.1,0,0,1-.91.07,3.7,3.7,0,0,1-2.79-1,3.88,3.88,0,0,1-.95-2.79,4.63,4.63,0,0,1,.26-1.58,3.26,3.26,0,0,1,.72-1.18,3.15,3.15,0,0,1,1.09-.74,3.45,3.45,0,0,1,1.37-.26,3.6,3.6,0,0,1,1.4.26,2.56,2.56,0,0,1,1,.79,2.92,2.92,0,0,1,.54,1.28,5.24,5.24,0,0,1,0,1.77H68.7a2.53,2.53,0,0,0,.7,1.77,2.68,2.68,0,0,0,1.88.58,3.88,3.88,0,0,0,1.44-.24,5,5,0,0,0,1-.52Zm-2.88-5.7a2,2,0,0,0-1.38.49,2.34,2.34,0,0,0-.72,1.48h3.9a1.81,1.81,0,0,0-.46-1.49A1.9,1.9,0,0,0,70.85,234.59Z"/><path class="cls-3" d="M82.41,235.07l-2.46,5H79L76.64,235v5.86H75.48v-7.26h1.83l2.23,4.87,2.38-4.87h1.71v7.26H82.41Z"/><path class="cls-3" d="M91.43,240.29c-.11.08-.23.15-.38.24a4.71,4.71,0,0,1-1.28.44,5,5,0,0,1-.91.07,3.67,3.67,0,0,1-2.78-1,3.84,3.84,0,0,1-1-2.79,4.64,4.64,0,0,1,.25-1.58,3.42,3.42,0,0,1,.73-1.18,3.06,3.06,0,0,1,1.09-.74,3.45,3.45,0,0,1,1.37-.26,3.64,3.64,0,0,1,1.4.26,2.46,2.46,0,0,1,1,.79,2.93,2.93,0,0,1,.55,1.28,5,5,0,0,1,0,1.77H86.4a2.53,2.53,0,0,0,.7,1.77A2.66,2.66,0,0,0,89,240a3.88,3.88,0,0,0,1.44-.24,5,5,0,0,0,1-.52Zm-2.89-5.7a2,2,0,0,0-1.37.49,2.35,2.35,0,0,0-.73,1.48h3.91a1.84,1.84,0,0,0-.46-1.49A1.92,1.92,0,0,0,88.54,234.59Z"/><path class="cls-3" d="M97.92,237.68H94.41v3.22H93.18v-7.26h1.23v3h3.51v-3h1.23v7.26H97.92Z"/><path class="cls-3" d="M104.1,234.69v6.21h-1.24v-6.21h-2.28v-1.05h5.84v1.05Z"/><path class="cls-3" d="M113.22,238.48a2.44,2.44,0,0,1-.22,1.09,2,2,0,0,1-.63.76,2.61,2.61,0,0,1-1,.43,4.67,4.67,0,0,1-1.21.14h-2.34v-7.26h1.23v2.53h1.19a3.71,3.71,0,0,1,2.17.55A2,2,0,0,1,113.22,238.48Zm-4.14-1.26v2.63h1.11a2.46,2.46,0,0,0,1.29-.3,1.08,1.08,0,0,0,.5-1,1.15,1.15,0,0,0-.45-1,2.17,2.17,0,0,0-1.26-.31Zm6.43,3.68h-1.24v-7.26h1.24Z"/><path class="cls-3" d="M125.35,237.68h-3.52v3.22H120.6v-7.26h1.23v3h3.52v-3h1.23v7.26h-1.23Z"/><path class="cls-3" d="M134.38,240.29a3.67,3.67,0,0,1-.38.24,4.27,4.27,0,0,1-.55.24,4.14,4.14,0,0,1-.72.2,5.1,5.1,0,0,1-.91.07,3.68,3.68,0,0,1-2.79-1,3.88,3.88,0,0,1-.95-2.79,4.4,4.4,0,0,1,.26-1.58,3.26,3.26,0,0,1,.72-1.18,3.15,3.15,0,0,1,1.09-.74,3.45,3.45,0,0,1,1.37-.26,3.64,3.64,0,0,1,1.4.26,2.56,2.56,0,0,1,1,.79,3,3,0,0,1,.54,1.28,5.24,5.24,0,0,1,0,1.77h-5.13a2.53,2.53,0,0,0,.7,1.77,2.68,2.68,0,0,0,1.88.58,3.88,3.88,0,0,0,1.44-.24,5,5,0,0,0,1-.52Zm-2.89-5.7a2,2,0,0,0-1.37.49,2.4,2.4,0,0,0-.73,1.48h3.91a1.81,1.81,0,0,0-.46-1.49A1.92,1.92,0,0,0,131.49,234.59Z"/><path class="cls-3" d="M139.17,242a3.83,3.83,0,0,1-.63.85,2.55,2.55,0,0,1-.79.53,2.78,2.78,0,0,1-1,.17,4.17,4.17,0,0,1-.52,0,2.43,2.43,0,0,1-.43-.12v-1.18a1.42,1.42,0,0,0,.39.18,2.12,2.12,0,0,0,.52.06,1.36,1.36,0,0,0,.85-.25,2.44,2.44,0,0,0,.64-.79l-3-7.75h1.36l2.31,6.13,2.29-6.13h1.19l-2.71,7.18A9.68,9.68,0,0,1,139.17,242Z"/><path class="cls-3" d="M143.63,233.64h5.83v7.26h-1.24v-6.21h-3.36v6.21h-1.23Z"/><path class="cls-3" d="M154.45,241a3.72,3.72,0,0,1-1.38-.25,3.11,3.11,0,0,1-1.11-.73,3.43,3.43,0,0,1-.74-1.19,4.42,4.42,0,0,1-.27-1.61,4.47,4.47,0,0,1,.27-1.6,3.21,3.21,0,0,1,.74-1.18,3.11,3.11,0,0,1,1.11-.73,4,4,0,0,1,2.78,0,3.24,3.24,0,0,1,1.12.73,3.35,3.35,0,0,1,.74,1.18,4.47,4.47,0,0,1,.27,1.6,4.42,4.42,0,0,1-.27,1.61,3.58,3.58,0,0,1-.74,1.19,3.24,3.24,0,0,1-1.12.73A3.75,3.75,0,0,1,154.45,241Zm0-1.09a2.45,2.45,0,0,0,.91-.16,2.05,2.05,0,0,0,.72-.49,2.27,2.27,0,0,0,.47-.84,4.25,4.25,0,0,0,0-2.38,2.27,2.27,0,0,0-.47-.84,2.05,2.05,0,0,0-.72-.49,2.45,2.45,0,0,0-.91-.16,2.35,2.35,0,0,0-.89.16,1.93,1.93,0,0,0-.71.49,2.27,2.27,0,0,0-.47.84,4.25,4.25,0,0,0,0,2.38,2.27,2.27,0,0,0,.47.84,1.93,1.93,0,0,0,.71.49A2.35,2.35,0,0,0,154.45,240Z"/><path class="cls-3" d="M163.13,241a2.64,2.64,0,0,1-1.45-.39,2.83,2.83,0,0,1-1-1.08v3.81h-1.23v-9.74h1.08l.12,1.41a3.08,3.08,0,0,1,1-1.13,2.65,2.65,0,0,1,1.53-.42,3.14,3.14,0,0,1,1.21.23,2.74,2.74,0,0,1,1,.7,3.23,3.23,0,0,1,.7,1.17,5.49,5.49,0,0,1,0,3.34,3.41,3.41,0,0,1-.72,1.17,2.86,2.86,0,0,1-1,.7A3.29,3.29,0,0,1,163.13,241ZM163,240a2,2,0,0,0,1.56-.67,3.65,3.65,0,0,0,0-4,2,2,0,0,0-1.56-.68,2.39,2.39,0,0,0-.89.17,2,2,0,0,0-.71.5,2.39,2.39,0,0,0-.48.83,4.18,4.18,0,0,0,0,2.36,2.44,2.44,0,0,0,.48.84,1.84,1.84,0,0,0,.71.5A2.38,2.38,0,0,0,163,240Z"/><path class="cls-3" d="M167.74,236a2.33,2.33,0,0,1,.22-1.06,2.1,2.1,0,0,1,.63-.73,2.85,2.85,0,0,1,1-.42,4.7,4.7,0,0,1,1.22-.14h2.34v7.26h-1.24v-2.63h-1.33l-1.86,2.63h-1.47l2.1-2.94a2.58,2.58,0,0,1-1.17-.68A1.9,1.9,0,0,1,167.74,236Zm4.14,1.23v-2.53h-1.1a2.59,2.59,0,0,0-1.29.29,1,1,0,0,0-.5,1,1.1,1.1,0,0,0,.44,1,2.31,2.31,0,0,0,1.28.3Z"/><path class="cls-3" d="M174.74,239.85a1.59,1.59,0,0,0,.62-.74,6,6,0,0,0,.35-1.27,16.67,16.67,0,0,0,.17-1.82c0-.7.06-1.5.09-2.38h5v6.21h1.09V243H181l-.15-2.08h-5.41L175.3,243h-1.11v-3.13Zm5,0v-5.16h-2.66a31.63,31.63,0,0,1-.26,3.29,4.41,4.41,0,0,1-.65,1.87Z"/><path class="cls-3" d="M186.19,241a3.77,3.77,0,0,1-1.39-.25,3.11,3.11,0,0,1-1.11-.73,3.41,3.41,0,0,1-.73-1.19,4.42,4.42,0,0,1-.27-1.61,4.47,4.47,0,0,1,.27-1.6,3.19,3.19,0,0,1,.73-1.18,3.11,3.11,0,0,1,1.11-.73,4,4,0,0,1,2.79,0,3.11,3.11,0,0,1,1.11.73,3.37,3.37,0,0,1,.75,1.18,4.47,4.47,0,0,1,.27,1.6,4.42,4.42,0,0,1-.27,1.61,3.6,3.6,0,0,1-.75,1.19,3.11,3.11,0,0,1-1.11.73A3.78,3.78,0,0,1,186.19,241Zm0-1.09a2.36,2.36,0,0,0,.9-.16,1.89,1.89,0,0,0,.72-.49,2.16,2.16,0,0,0,.48-.84,4.25,4.25,0,0,0,0-2.38,2.16,2.16,0,0,0-.48-.84,1.89,1.89,0,0,0-.72-.49,2.61,2.61,0,0,0-1.8,0,1.89,1.89,0,0,0-.7.49,2.27,2.27,0,0,0-.47.84,4.25,4.25,0,0,0,0,2.38,2.27,2.27,0,0,0,.47.84,1.89,1.89,0,0,0,.7.49A2.36,2.36,0,0,0,186.19,240Z"/><path class="cls-3" d="M196.63,240.9H195.4v-3.19a2.78,2.78,0,0,1-.87.46,3.9,3.9,0,0,1-1.13.16,2.67,2.67,0,0,1-1.88-.61,2.55,2.55,0,0,1-.65-1.95v-2.13h1.24v2.14a1.5,1.5,0,0,0,.39,1.19,1.69,1.69,0,0,0,1.11.34,3.36,3.36,0,0,0,.95-.14,2.6,2.6,0,0,0,.84-.44v-3.09h1.23Z"/><path class="cls-3" d="M204.43,240.29a3.67,3.67,0,0,1-.38.24,4.76,4.76,0,0,1-.54.24,4.53,4.53,0,0,1-.73.2,5,5,0,0,1-.91.07,3.71,3.71,0,0,1-2.79-1,3.88,3.88,0,0,1-1-2.79,4.63,4.63,0,0,1,.26-1.58,3.26,3.26,0,0,1,.72-1.18,3.15,3.15,0,0,1,1.09-.74,3.46,3.46,0,0,1,1.38-.26,3.68,3.68,0,0,1,1.4.26,2.53,2.53,0,0,1,1,.79,2.93,2.93,0,0,1,.55,1.28,5.53,5.53,0,0,1,0,1.77h-5.12a2.49,2.49,0,0,0,.7,1.77A2.65,2.65,0,0,0,202,240a3.88,3.88,0,0,0,1.44-.24,4.73,4.73,0,0,0,1-.52Zm-2.88-5.7a2,2,0,0,0-1.37.49,2.3,2.3,0,0,0-.73,1.48h3.9a1.78,1.78,0,0,0-.46-1.49A1.88,1.88,0,0,0,201.55,234.59Z"/><path class="cls-3" d="M210.93,237.68h-3.52v3.22h-1.23v-7.26h1.23v3h3.52v-3h1.23v7.26h-1.23Z"/><path class="cls-3" d="M219.55,238.48a2.44,2.44,0,0,1-.22,1.09,2,2,0,0,1-.63.76,2.61,2.61,0,0,1-1,.43,4.7,4.7,0,0,1-1.22.14h-2.33v-7.26h1.23v2.53h1.19a3.71,3.71,0,0,1,2.17.55A2,2,0,0,1,219.55,238.48Zm-4.14-1.26v2.63h1.1a2.48,2.48,0,0,0,1.3-.3,1.08,1.08,0,0,0,.5-1,1.15,1.15,0,0,0-.45-1,2.17,2.17,0,0,0-1.26-.31Zm6.42,3.68H220.6v-7.26h1.23Z"/><path class="cls-3" d="M52.24,257.22l3.88-5.58h1.24v7.26H56.13v-5.57l-3.86,5.57H51v-7.26h1.23Z"/><path class="cls-3" d="M67.21,255.68H63.69v3.22H62.46v-7.26h1.23v3h3.52v-3h1.23v7.26H67.21Z"/><path class="cls-3" d="M76.24,258.29c-.11.08-.23.15-.38.24a4.71,4.71,0,0,1-1.28.44,5,5,0,0,1-.91.07,3.67,3.67,0,0,1-2.78-1,3.84,3.84,0,0,1-1-2.79,4.4,4.4,0,0,1,.26-1.58,3.26,3.26,0,0,1,.72-1.18,3.06,3.06,0,0,1,1.09-.74,3.45,3.45,0,0,1,1.37-.26,3.64,3.64,0,0,1,1.4.26,2.46,2.46,0,0,1,1,.79,2.93,2.93,0,0,1,.55,1.28,5,5,0,0,1,0,1.77H71.21a2.53,2.53,0,0,0,.7,1.77,2.68,2.68,0,0,0,1.88.58,3.88,3.88,0,0,0,1.44-.24,5,5,0,0,0,1-.52Zm-2.89-5.7a2,2,0,0,0-1.37.49,2.35,2.35,0,0,0-.73,1.48h3.91a1.81,1.81,0,0,0-.46-1.49A1.92,1.92,0,0,0,73.35,252.59Z"/><path class="cls-3" d="M88,253.07l-2.47,5h-1l-2.32-5v5.86H81.07v-7.26H82.9l2.23,4.87,2.38-4.87h1.7v7.26H88Z"/><path class="cls-3" d="M94.21,259a3.72,3.72,0,0,1-1.38-.25,3.24,3.24,0,0,1-1.12-.73,3.56,3.56,0,0,1-.73-1.19,4.42,4.42,0,0,1-.27-1.61,4.47,4.47,0,0,1,.27-1.6,3.33,3.33,0,0,1,.73-1.18,3.24,3.24,0,0,1,1.12-.73,4,4,0,0,1,2.78,0,3.24,3.24,0,0,1,1.12.73,3.35,3.35,0,0,1,.74,1.18,4.47,4.47,0,0,1,.27,1.6,4.42,4.42,0,0,1-.27,1.61,3.58,3.58,0,0,1-.74,1.19,3.24,3.24,0,0,1-1.12.73A3.75,3.75,0,0,1,94.21,259Zm0-1.09a2.45,2.45,0,0,0,.91-.16,2.05,2.05,0,0,0,.72-.49,2.27,2.27,0,0,0,.47-.84,4.25,4.25,0,0,0,0-2.38,2.27,2.27,0,0,0-.47-.84,2.05,2.05,0,0,0-.72-.49,2.45,2.45,0,0,0-.91-.16,2.35,2.35,0,0,0-.89.16,1.93,1.93,0,0,0-.71.49,2.27,2.27,0,0,0-.47.84,4.25,4.25,0,0,0,0,2.38,2.27,2.27,0,0,0,.47.84,1.93,1.93,0,0,0,.71.49A2.35,2.35,0,0,0,94.21,258Z"/><path class="cls-3" d="M99.24,251.64h4.62v1.05h-3.39v6.21H99.24Z"/><path class="cls-3" d="M108.6,260a3.3,3.3,0,0,1-.63.85,2.4,2.4,0,0,1-.78.53,2.78,2.78,0,0,1-1,.17,4.17,4.17,0,0,1-.52,0,2.55,2.55,0,0,1-.44-.12v-1.18a1.66,1.66,0,0,0,.4.18,2,2,0,0,0,.51.06,1.39,1.39,0,0,0,.86-.25,2.44,2.44,0,0,0,.64-.79l-3-7.75h1.36l2.31,6.13,2.29-6.13h1.19l-2.71,7.18A8.28,8.28,0,0,1,108.6,260Z"/><path class="cls-3" d="M116.07,252.69v6.21h-1.24v-6.21h-2.28v-1.05h5.84v1.05Z"/><path class="cls-3" d="M122.9,251.64h5.82v7.26h-1.23v-6.21h-3.36v6.21H122.9Z"/><path class="cls-3" d="M133.72,259a3.77,3.77,0,0,1-1.39-.25,3.2,3.2,0,0,1-1.11-.73,3.41,3.41,0,0,1-.73-1.19,4.42,4.42,0,0,1-.27-1.61,4.47,4.47,0,0,1,.27-1.6,3.15,3.15,0,0,1,1.84-1.91,4,4,0,0,1,2.79,0,3.11,3.11,0,0,1,1.11.73,3.37,3.37,0,0,1,.75,1.18,4.47,4.47,0,0,1,.27,1.6,4.42,4.42,0,0,1-.27,1.61,3.6,3.6,0,0,1-.75,1.19,3.11,3.11,0,0,1-1.11.73A3.78,3.78,0,0,1,133.72,259Zm0-1.09a2.36,2.36,0,0,0,.9-.16,1.89,1.89,0,0,0,.72-.49,2.16,2.16,0,0,0,.48-.84,4.25,4.25,0,0,0,0-2.38,2.16,2.16,0,0,0-.48-.84,1.89,1.89,0,0,0-.72-.49,2.61,2.61,0,0,0-1.8,0,1.89,1.89,0,0,0-.7.49,2.27,2.27,0,0,0-.47.84,4.25,4.25,0,0,0,0,2.38,2.27,2.27,0,0,0,.47.84,1.89,1.89,0,0,0,.7.49A2.36,2.36,0,0,0,133.72,258Z"/><path class="cls-3" d="M138.75,251.64h2.71a3.6,3.6,0,0,1,2,.45,1.6,1.6,0,0,1,.67,1.42,1.52,1.52,0,0,1-.33,1,1.88,1.88,0,0,1-.93.56,1.61,1.61,0,0,1,1.56,1.72,2,2,0,0,1-.23,1,1.89,1.89,0,0,1-.61.65,2.69,2.69,0,0,1-1,.36,5.69,5.69,0,0,1-1.2.11h-2.68Zm1.23,1.05v2h1.37a2.2,2.2,0,0,0,1.13-.25.92.92,0,0,0,.05-1.51,2.27,2.27,0,0,0-1.08-.21Zm0,2.95v2.21h1.44a3.89,3.89,0,0,0,.71-.05,1.63,1.63,0,0,0,.54-.17.91.91,0,0,0,.36-.34,1,1,0,0,0,.13-.51,1,1,0,0,0-.44-.89,2.74,2.74,0,0,0-1.3-.25Z"/><path class="cls-3" d="M149.05,252.69v6.21h-1.23v-6.21h-2.28v-1.05h5.83v1.05Z"/><path class="cls-3" d="M155.57,259a3.72,3.72,0,0,1-1.38-.25,3.24,3.24,0,0,1-1.12-.73,3.56,3.56,0,0,1-.73-1.19,4.42,4.42,0,0,1-.27-1.61,4.47,4.47,0,0,1,.27-1.6,3.33,3.33,0,0,1,.73-1.18,3.24,3.24,0,0,1,1.12-.73,4,4,0,0,1,2.78,0,3.24,3.24,0,0,1,1.12.73,3.35,3.35,0,0,1,.74,1.18,4.47,4.47,0,0,1,.27,1.6,4.42,4.42,0,0,1-.27,1.61,3.58,3.58,0,0,1-.74,1.19,3.24,3.24,0,0,1-1.12.73A3.75,3.75,0,0,1,155.57,259Zm0-1.09a2.45,2.45,0,0,0,.91-.16,2.05,2.05,0,0,0,.72-.49,2.27,2.27,0,0,0,.47-.84,4.25,4.25,0,0,0,0-2.38,2.27,2.27,0,0,0-.47-.84,2.05,2.05,0,0,0-.72-.49,2.45,2.45,0,0,0-.91-.16,2.35,2.35,0,0,0-.89.16,1.93,1.93,0,0,0-.71.49,2.27,2.27,0,0,0-.47.84,4.25,4.25,0,0,0,0,2.38,2.27,2.27,0,0,0,.47.84,1.93,1.93,0,0,0,.71.49A2.35,2.35,0,0,0,155.57,258Z"/><path class="cls-3" d="M164.25,259a2.64,2.64,0,0,1-1.45-.39,2.83,2.83,0,0,1-1-1.08v3.81H160.6v-9.74h1.08l.12,1.41a3.08,3.08,0,0,1,1-1.13,2.65,2.65,0,0,1,1.53-.42,3.14,3.14,0,0,1,1.21.23,2.74,2.74,0,0,1,1,.7,3.23,3.23,0,0,1,.7,1.17,4.94,4.94,0,0,1,.26,1.66,4.74,4.74,0,0,1-.27,1.68,3.25,3.25,0,0,1-.71,1.17,2.81,2.81,0,0,1-1,.7A3.2,3.2,0,0,1,164.25,259Zm-.18-1.09a2,2,0,0,0,1.56-.67,3.65,3.65,0,0,0,0-4,2,2,0,0,0-1.56-.68,2.39,2.39,0,0,0-.89.17,2,2,0,0,0-.71.5,2.39,2.39,0,0,0-.48.83,4.18,4.18,0,0,0,0,2.36,2.44,2.44,0,0,0,.48.84,1.84,1.84,0,0,0,.71.5A2.38,2.38,0,0,0,164.07,258Z"/><path class="cls-3" d="M168.86,254a2.33,2.33,0,0,1,.22-1.06,2.1,2.1,0,0,1,.63-.73,2.85,2.85,0,0,1,1-.42,4.7,4.7,0,0,1,1.22-.14h2.33v7.26H173v-2.63h-1.33l-1.86,2.63h-1.47l2.1-2.94a2.58,2.58,0,0,1-1.17-.68A1.9,1.9,0,0,1,168.86,254Zm4.14,1.23v-2.53h-1.1a2.57,2.57,0,0,0-1.29.29,1,1,0,0,0-.51,1,1.1,1.1,0,0,0,.45,1,2.31,2.31,0,0,0,1.28.3Z"/><path class="cls-3" d="M179.18,252.69v6.21h-1.24v-6.21h-2.28v-1.05h5.84v1.05Z"/><path class="cls-3" d="M188.33,256.48a2.44,2.44,0,0,1-.22,1.09,2,2,0,0,1-.63.76,2.68,2.68,0,0,1-1,.43,4.7,4.7,0,0,1-1.22.14h-2.4v-7.26h1.23v2.53h1.26a3.71,3.71,0,0,1,2.17.55A2,2,0,0,1,188.33,256.48Zm-4.21-1.26v2.63h1.17a2.48,2.48,0,0,0,1.3-.3,1.08,1.08,0,0,0,.5-1,1.15,1.15,0,0,0-.45-1,2.17,2.17,0,0,0-1.26-.31Z"/><path class="cls-3" d="M193,259a4.08,4.08,0,0,1-1.52-.26,3.1,3.1,0,0,1-1.89-1.92,4.93,4.93,0,0,1-.25-1.6,4.63,4.63,0,0,1,.26-1.58,3.16,3.16,0,0,1,.74-1.18,3.08,3.08,0,0,1,1.16-.74,4.2,4.2,0,0,1,1.55-.26,5.2,5.2,0,0,1,1.23.14,2.59,2.59,0,0,1,.93.43v1.11a3.11,3.11,0,0,0-1-.44,4.35,4.35,0,0,0-1.14-.15,2.39,2.39,0,0,0-1.87.66,2.92,2.92,0,0,0-.6,2,3,3,0,0,0,.58,2A2.29,2.29,0,0,0,193,258a4.27,4.27,0,0,0,1.21-.16,5.36,5.36,0,0,0,1-.41v1.09a4,4,0,0,1-.95.41A4.43,4.43,0,0,1,193,259Z"/><path class="cls-3" d="M196.9,254a2.33,2.33,0,0,1,.22-1.06,2.1,2.1,0,0,1,.63-.73,2.85,2.85,0,0,1,1-.42,4.7,4.7,0,0,1,1.22-.14h2.34v7.26H201v-2.63h-1.33l-1.86,2.63h-1.47l2.1-2.94a2.58,2.58,0,0,1-1.17-.68A1.9,1.9,0,0,1,196.9,254Zm4.14,1.23v-2.53h-1.1a2.62,2.62,0,0,0-1.29.29,1,1,0,0,0-.5,1,1.1,1.1,0,0,0,.44,1,2.31,2.31,0,0,0,1.28.3Z"/><path class="cls-3" d="M205,259a.89.89,0,0,1-.91-.88.87.87,0,0,1,.26-.65.85.85,0,0,1,.65-.25.88.88,0,0,1,.65.25.87.87,0,0,1,.25.65.84.84,0,0,1-.25.62A.89.89,0,0,1,205,259Z"/></g></g></svg>